<?xml version="1.0" encoding="utf-8"?>
<!-- Generator: Adobe Illustrator 20.1.0, SVG Export Plug-In . SVG Version: 6.00 Build 0)  -->
<svg version="1.1" id="Layer_1" xmlns="http://www.w3.org/2000/svg" xmlns:xlink="http://www.w3.org/1999/xlink" x="0px" y="0px"
	 viewBox="0 0 536.438 287.373" enable-background="new 0 0 536.438 287.373" xml:space="preserve">
<g>
	<path fill="#415A68" d="M73.996,29.47c2.026-8.31,1.845-12.147-5.341-17.632C62.745,7.329,56.245,3.522,49.708,0
		c-8.537,30.656-16.65,61.438-24.388,92.305c-5.945,23.715-11.689,47.496-16.659,71.436c-2.022,9.741-4.474,19.926-5.977,30.122
		L0,211.499c0,0,22.689,14.999,32.868,20.924c3.389-49.197,13.373-97.38,25.885-144.944C63.838,68.147,69.26,48.891,73.996,29.47z"
		/>
	<path fill="#415A68" d="M521.755,157.349c-0.003-0.025-0.008-0.051-0.011-0.076c-0.435,0.137-0.884,0.236-1.34,0.317
		c-1.146,0.156-2.309,0.196-3.473,0.077c-0.091-0.01-0.182-0.025-0.272-0.037c-0.354-0.044-0.709-0.102-1.063-0.176
		c-0.388-0.084-0.774-0.182-1.156-0.303c-0.121-0.037-0.241-0.083-0.362-0.125c-0.333-0.115-0.663-0.246-0.987-0.39
		c-0.15-0.066-0.301-0.132-0.451-0.205c-0.275-0.134-0.542-0.286-0.809-0.44c-0.171-0.099-0.343-0.186-0.513-0.296
		c-0.315-0.202-0.622-0.421-0.921-0.651c-0.033-0.026-0.067-0.053-0.101-0.079c-0.256-0.202-0.502-0.417-0.743-0.641
		c-0.059-0.055-0.119-0.108-0.177-0.165c-0.217-0.209-0.424-0.43-0.625-0.656c-0.062-0.069-0.125-0.134-0.185-0.204
		c-0.249-0.294-0.488-0.6-0.712-0.922c-3.625-5.243-2.546-11.966-0.769-17.508c0.25-0.78,0.52-1.546,0.797-2.304
		c0.101-0.273,0.206-0.543,0.309-0.814c0.184-0.482,0.367-0.963,0.558-1.439c0.138-0.346,0.276-0.689,0.417-1.033
		c0.156-0.383,0.314-0.766,0.472-1.146c1.257-3.022,2.553-6.012,3.567-9.223c0.623-1.971,1.018-3.575,1.003-5.74
		c-0.039-5.348-6.46-9.719-10.375-12.359c-4.046-2.729-8.587-4.838-12.458-7.812c-7.388-6.01-11.932-15.07-10.934-24.68
		c0.641-6.169-3.945-11.034-10.168-7.502c-9.785,5.553-8.901,19.855-4.334,30.233c-0.021,0.065-0.043,0.136-0.064,0.198
		c0,0-19.75,62-48.25,57c0,0-15.75-3.5-18-35.25c8.228-1.707,16.895-3.934,23.814-8.923c6.292-4.537,9.793-11.294,10.548-18.959
		c0.656-6.661-0.645-14.031-6.8-17.76c-5.309-3.216-12.143-2.869-17.902-1.212c-6.333,1.822-12.071,5.414-16.331,10.452
		c-3.875,4.583-6.699,10.002-8.779,15.608c-1.776,4.789-3.06,9.796-3.859,14.89c-4.443,0.657-8.957,1.348-13.467,2.156
		c-2.563-21.291-12.224-29.253-12.224-29.253c-22.591-18.982-41.241-2.723-52.002,12.024c0.218-1.16,0.416-2.345,0.492-3.529
		c0.093-1.431,0.013-2.86-0.412-4.245c-0.425-1.388-1.191-2.573-2.139-3.618c-0.945-1.044-2.07-1.949-3.21-2.772
		c-2.54-1.837-5.251-3.479-8.028-5c-2.777-1.523-5.623-2.93-8.435-4.298c-1.318,5.715-4.226,17.092-6.235,25.368
		c-0.004-0.004-0.008-0.008-0.012-0.012l-0.454,1.946c-0.386,1.61-0.729,3.071-0.995,4.269l-22.305,95.683
		c-6.575,0.896-12.583,1.716-18.012,2.368c0.264-1.051,0.496-2,0.667-2.747c3.958-17.324,8.003-34.624,11.866-51.971
		c2.557-11.476,5.197-22.933,7.664-34.428c0.617-2.874,1.223-5.749,1.813-8.629c0.486-2.37,1.038-4.746,1.312-7.153
		c0.383-3.372-0.191-6.423-2.569-8.954c-2.596-2.764-6.11-4.759-9.341-6.676c-3.728-2.209-7.582-4.198-11.478-6.095
		c-20.243,66.166-41.424,74.167-48.091,76.834c-6.667,2.667-8.333-2-5.666-12.418c1.787-6.98,7.086-26.402,10.392-38.47
		c0.767-3.009,1.882-6.146,2.606-9.165c0.191-0.797,0.378-1.61,0.53-2.432c0.181-0.88,0.272-1.641,0.293-2.289
		c0.065-1.092,0.008-2.183-0.271-3.256c-0.343-1.32-1.015-2.466-1.862-3.487c-0.846-1.021-1.867-1.916-2.905-2.738
		c-2.313-1.83-4.794-3.482-7.342-5.028c-2.549-1.545-5.165-2.983-7.753-4.384c-0.001,0.005-0.003,0.009-0.004,0.014l-0.017-0.014
		c0,0-0.01,0.021-0.013,0.028c-0.152,0.089-7.687,4.532-18.929,11.355c1.418-4.745,2.829-9.493,4.213-14.249
		c1.749-6.01,3.659-12.028,5.065-18.129c0.853-3.699,1.107-7.446-1.115-10.725c-2.396-3.534-6.29-6.101-9.722-8.523
		c-4.266-3.012-8.727-5.734-13.249-8.342c0,0-10.518,37.721-22.83,83.35c-24.273,15.483-49.398,32.459-59.672,42.504l10.75,7.75
		c0,0,14.417-14.401,44.313-33.111c-15.719,58.691-32.557,123.963-33.661,138.226l3.162,2.398
		c5.918,4.048,11.855,8.067,17.826,12.036c3.895,2.589,1.765,1.424,11.77,7.64c1.88-19.224,4.897-38.339,8.295-57.348
		c3.776-21.125,8.119-42.153,12.956-63.061c4.416-19.086,9.28-38.062,14.848-56.845c0.333-1.124,0.671-2.246,1.005-3.369
		c4.866-2.453,9.936-4.918,15.258-7.378c-12.501,34.175-28.483,91.873,8.561,86.52c0,0,24.656-1.14,50.422-42.07
		c-0.52,2.433-1.049,4.864-1.564,7.298c-3.873,18.309-8.997,41.357-12.667,61.548c-5.351,1.166-12.946,2.632-18.027,4.537
		c-17.934,6.722-31.246,20.569-34.521,39.766c-1.799,10.541-1.165,23.097,5.679,31.846c7.827,10.005,22.845,11.157,33.811,6.072
		c14.312-6.638,23.967-23.541,27.359-38.523c2.293-10.129,5.847-26.421,8.162-37.089h0.003c6.059-0.585,12.059-1.067,17.987-1.457
		l-9.824,42.146l28.264,16.45c0,0,5.18-29.579,10.663-59.824c75.137-1.459,132.229,10.373,132.229,10.373
		c77.323,17.666,105.01,31.334,105.01,31.334c-1.667-30.666-27.378-49.667-27.378-49.667
		c-89.686-16.098-158.796-11.787-207.298-6.098c3.011-16.408,5.883-31.651,7.798-40.878c1.096-5.276,3.081-14.017,5.246-23.342
		c1.244-4.943,3.166-9.931,5.738-14.55c1.178-2.006,2.508-4.065,3.965-6.094c3.484-4.587,7.755-8.498,12.816-11.169
		c18.74-9.887,29.596-1.309,28.731,18.827c-14.105,4.839-26.51,12.53-34.077,26.129c-12.812,23.02,11.594,38.147,32.73,31.77
		c20.313-6.128,25.357-33.223,24.642-53.78c-0.001-0.146-0.007-0.286-0.01-0.433c3.625-0.855,7.628-1.679,11.965-2.393
		c-0.228,5.201,0.034,10.416,0.8,15.511c1.794,11.942,6.717,24.422,16.858,31.67c6.055,4.328,13.423,6.142,20.807,5.911
		c32.486,2.141,47.329-42.951,56.863-66.613c7.692,6.705,16.731,13.396,13.567,24.051c-0.311,1.046-0.639,2.151-0.971,3.304
		c-0.108,0.378-0.218,0.762-0.327,1.149c-0.021,0.08-0.044,0.161-0.066,0.241c-0.083,0.298-0.166,0.596-0.248,0.898
		c-0.035,0.128-0.069,0.257-0.104,0.385c-0.071,0.262-0.142,0.523-0.211,0.788c-0.038,0.146-0.076,0.294-0.114,0.441
		c-0.064,0.25-0.129,0.5-0.192,0.753c-0.04,0.156-0.078,0.312-0.117,0.47c-0.061,0.249-0.122,0.499-0.183,0.751
		c-0.038,0.16-0.076,0.32-0.113,0.481c-0.059,0.251-0.116,0.503-0.173,0.756c-0.036,0.162-0.072,0.323-0.108,0.486
		c-0.057,0.26-0.111,0.521-0.166,0.782c-0.032,0.156-0.065,0.312-0.097,0.469c-0.057,0.28-0.11,0.561-0.163,0.843
		c-0.026,0.138-0.054,0.274-0.079,0.412c-0.063,0.347-0.123,0.694-0.181,1.042c-0.013,0.074-0.026,0.146-0.038,0.221
		c-0.07,0.428-0.135,0.857-0.195,1.286c-0.008,0.051-0.013,0.102-0.021,0.152c-0.051,0.37-0.099,0.741-0.143,1.111
		c-0.015,0.13-0.027,0.26-0.041,0.39c-0.032,0.291-0.062,0.582-0.089,0.873c-0.015,0.155-0.025,0.311-0.038,0.465
		c-0.022,0.267-0.042,0.532-0.059,0.797c-0.01,0.164-0.017,0.327-0.026,0.491c-0.013,0.257-0.024,0.514-0.032,0.771
		c-0.005,0.166-0.009,0.331-0.012,0.497c-0.005,0.252-0.007,0.503-0.006,0.754c0,0.166,0.001,0.333,0.004,0.498
		c0.004,0.252,0.013,0.502,0.022,0.752c0.006,0.161,0.013,0.322,0.021,0.482c0.014,0.256,0.033,0.51,0.054,0.764
		c0.012,0.151,0.022,0.304,0.037,0.454c0.026,0.272,0.06,0.543,0.094,0.812c0.017,0.128,0.029,0.257,0.048,0.385
		c0.05,0.348,0.108,0.692,0.171,1.035c0.009,0.046,0.015,0.094,0.025,0.14c0.074,0.391,0.16,0.776,0.255,1.158
		c0.024,0.097,0.053,0.19,0.078,0.286c0.073,0.281,0.149,0.561,0.234,0.836c0.041,0.133,0.089,0.264,0.133,0.395
		c0.077,0.234,0.156,0.469,0.243,0.699c0.054,0.143,0.112,0.282,0.17,0.424c0.087,0.215,0.176,0.43,0.271,0.641
		c0.065,0.145,0.135,0.287,0.204,0.43c0.099,0.203,0.2,0.405,0.307,0.604c0.076,0.142,0.155,0.282,0.235,0.422
		c0.111,0.194,0.229,0.387,0.349,0.576c0.087,0.138,0.174,0.273,0.265,0.408c0.128,0.189,0.263,0.374,0.399,0.559
		c0.095,0.128,0.189,0.257,0.288,0.383c0.148,0.187,0.305,0.369,0.463,0.551c0.101,0.115,0.197,0.233,0.302,0.347
		c0.181,0.195,0.373,0.386,0.566,0.574c0.094,0.092,0.182,0.186,0.278,0.276c0.296,0.275,0.604,0.544,0.929,0.803
		c7.107,5.671,23.376,5.271,33.954,0.376c0,0,12.045-4.329,12.045-16.329C536.438,148.686,529.669,155.623,521.755,157.349z
		 M175.487,269.467c-3.622-0.255-6.886-1.911-8.455-5.303c-1.488-3.217-1.42-7.01-0.992-10.453
		c1.086-8.727,4.785-16.988,10.153-23.916c6.036-7.79,20.142-15.128,30.225-17.296C204.896,227.105,196.811,270.97,175.487,269.467z
		 M343.622,126.499C345.918,181.387,292.85,149.086,343.622,126.499L343.622,126.499z M399.089,103.969
		C414.804,57.191,436.232,96.041,399.089,103.969L399.089,103.969z"/>
</g>
</svg>
