<svg id="107089be-c76c-44bd-8d10-1b6341cd4255" data-name="Layer 1" xmlns="http://www.w3.org/2000/svg" xmlns:xlink="http://www.w3.org/1999/xlink" viewBox="0 0 960 960"><defs><style>.\39 6a56f0e-07c1-4e53-9e55-99ee339620eb{fill:#0b9fac;}.\39 73a7352-7b02-4cfd-94f2-f8740e23e990{fill:url(#ce9b91eb-877b-4118-8997-7b1994f89d37);}.\35 842ebdc-1bf4-459e-95f0-7c9228d31a4c{fill:url(#5fac7d1e-717f-4459-b8d4-68a43f524efc);}.bf4ea7be-62f7-4b1a-93cd-0063f938786e{fill:#222;}</style><linearGradient id="ce9b91eb-877b-4118-8997-7b1994f89d37" x1="-1940.506" y1="6288.191" x2="-1813.56" y2="6241.987" gradientTransform="matrix(0.456, -0.89, -0.89, -0.456, 6859.934, 1686.664)" gradientUnits="userSpaceOnUse"><stop offset="0" stop-color="#5bc8da"/><stop offset="0.216" stop-color="#5bc3d6"/><stop offset="0.37" stop-color="#50bdcf"/><stop offset="0.504" stop-color="#3eb0c1"/><stop offset="0.626" stop-color="#1da2b0"/><stop offset="0.65" stop-color="#0b9fac"/></linearGradient><linearGradient id="5fac7d1e-717f-4459-b8d4-68a43f524efc" x1="109.712" y1="5136.666" x2="236.57" y2="5090.494" gradientTransform="matrix(-0.456, 0.89, 0.89, 0.456, -4064.658, -2025.705)" gradientUnits="userSpaceOnUse"><stop offset="0.001" stop-color="#5bc8da"/><stop offset="0.217" stop-color="#5bc3d6"/><stop offset="0.37" stop-color="#50bdcf"/><stop offset="0.504" stop-color="#3eb0c1"/><stop offset="0.626" stop-color="#1da2b0"/><stop offset="0.65" stop-color="#0b9fac"/></linearGradient></defs><title>kore-logo</title><path class="96a56f0e-07c1-4e53-9e55-99ee339620eb" d="M484.737,458.24a70.779,70.779,0,1,0-45.591,89.111A70.6,70.6,0,0,0,484.737,458.24ZM383.488,490.806a35.445,35.445,0,0,1,23.092-44.7c18.947-5.921,38.782,4.145,44.7,23.092s-4.145,38.782-23.092,44.7A35.682,35.682,0,0,1,383.488,490.806Z"/><path class="973a7352-7b02-4cfd-94f2-f8740e23e990" d="M448.915,496.135c-18.059,35.23-75.492,44.111-99.176,5.329a70.779,70.779,0,0,0,134.7-43.519"/><path class="5842ebdc-1bf4-459e-95f0-7c9228d31a4c" d="M385.561,463.569c18.059-35.23,75.492-44.111,99.176-5.329a70.779,70.779,0,1,0-134.7,43.519"/><polygon class="bf4ea7be-62f7-4b1a-93cd-0063f938786e" points="227.471 417.386 254.115 417.386 254.115 478.668 308.588 417.386 340.265 417.386 291.713 472.451 345.002 542.318 312.141 542.318 273.654 492.582 254.115 514.786 254.115 542.318 227.471 542.318 227.471 417.386"/><path class="bf4ea7be-62f7-4b1a-93cd-0063f938786e" d="M537.433,503.536v38.782H510.789V417.386h53.289c29.013,0,49.736,16.875,49.736,42.927,0,17.171-9.177,30.493-23.684,37.6l31.677,44.407H590.13L562.6,503.536ZM563.19,479.26c13.322,0,24.276-7.4,24.276-18.651,0-11.546-10.954-18.651-24.276-18.651H537.433v37.6H563.19Z"/><path class="bf4ea7be-62f7-4b1a-93cd-0063f938786e" d="M666.51,468.6h58.321v23.98H666.51v25.46h66.019v24.276H639.866V417.386h92.663v23.98H666.51Z"/></svg>