<?xml version="1.0" encoding="utf-8"?>
<!-- Generator: Adobe Illustrator 21.1.0, SVG Export Plug-In . SVG Version: 6.00 Build 0)  -->
<svg version="1.1" id="Layer_1" xmlns="http://www.w3.org/2000/svg" xmlns:xlink="http://www.w3.org/1999/xlink" x="0px" y="0px"
	 viewBox="0 0 280 260" style="enable-background:new 0 0 280 260;" xml:space="preserve">
<style type="text/css">
	.st0{fill:#415A68;stroke:#FFFFFF;stroke-width:3;stroke-linejoin:round;stroke-miterlimit:10;}
	.st1{fill:#FFFFFF;stroke:#415A68;stroke-width:2;stroke-linejoin:round;stroke-miterlimit:10;}
</style>
<g>
	<path class="st0" d="M224.5,151.1c22.3-24.6,34.1-59.3,34.1-100.4c0-1.7-1.4-3.2-3.2-3.2c-1.7,0-3.2,1.4-3.2,3.2
		c0,16.3-1.9,31.5-5.6,45.3c-13.6,32.3-40.3,49.6-54.6,58.9l-0.4,0.3c-31.5,20.4-51.9,20.5-63.4,17c-1.8-0.5-3.6,0.5-4.1,2.2
		c-0.5,1.8,0.5,3.6,2.2,4.1c3.9,1.2,8.6,2,14.2,2c13.1,0,31.1-4.6,54.6-19.9l0.4-0.3c8.7-5.7,23.3-15.2,36.6-29.9
		c-3.6,5.9-7.7,11.4-12.3,16.4c-44.4,49-111.8,55.6-135.5,36.2c-12.6-10.3-11.6-26.8,2.8-46.3c30.2-42.8,84.3-48.8,84.8-48.9
		c0.9-0.1,1.7-0.5,2.2-1.2c0.5-0.1,0.9-0.3,1.3-0.7c1.4-1,1.7-3.1,0.6-4.5c-0.2-0.2-3.2-4.1-9.8-7.5c-1.6-0.8-3.6-0.2-4.4,1.4
		s-0.2,3.6,1.4,4.4c1.4,0.7,2.6,1.5,3.6,2.2c-14,2.3-57.9,12.5-85,50.9c-16.6,22.3-17.2,42.4-1.7,55.1c9.4,7.7,23.6,11.7,40.3,11.7
		c7.9,0,16.4-0.9,25-2.7C175.4,190.6,203.4,174.3,224.5,151.1z"/>
	<path class="st0" d="M94.4,93.4l0.4-0.2c29.8-18.2,49.3-18.9,60.5-16.3c1.7,0.4,3.5-0.7,3.9-2.4s-0.7-3.5-2.4-3.9
		c-12.4-2.9-33.8-2.3-65.4,17L91,87.8c-5.2,3.2-12.4,7.6-20.2,13.6c23.7-23.5,52.7-36.7,77.8-41.3c28.6-5.2,53.5,0.3,61.9,13.9
		c6.4,10.2,3.4,24.1-8.7,40.4c-30.2,42.7-84.3,48.6-84.8,48.7c-0.8,0.1-1.6,0.5-2.1,1.1c-1.1-0.6-2.5-0.5-3.6,0.3
		c-1.4,1.2-1.6,3.2-0.5,4.6c0.2,0.3,2,2.5,5.9,5c0.5,0.3,1.1,0.5,1.7,0.5c1.1,0,2.1-0.6,2.9-1.5c0.8-1.3,0.6-2.8-0.4-3.9
		c12.6-1.9,58.2-11.5,86.2-51c17.4-23.5,14.5-38.9,9-47.7c-10-16.1-36.9-22.7-68.6-16.9C99.3,62.4,37.4,101.4,21.4,182.3
		c-0.3,1.7,0.8,3.5,2.6,3.8c0.2,0.1,0.4,0.1,0.6,0.1c1.5,0,2.8-1,3.1-2.5c2.3-11.4,5.5-22,9.5-31.7c0.4-0.3,0.8-0.7,1-1.3
		C52.7,118.9,79.8,102.3,94.4,93.4z"/>
	<path class="st0" d="M252.2,198.1c0,0-0.2,0-0.6,0.1c-3.4-0.6-14.2-4-13.6-20.8c0.1-1.2-0.5-2.3-1.5-2.9c-0.6-0.4-1.3-0.6-2-0.6
		c-1.8,0.1-3.2,1.6-3.1,3.4c0.6,16.8-10.1,20.2-13.6,20.8c-0.4-0.1-0.6-0.1-0.6-0.1c-1.8-0.1-3.4,1.2-3.5,3c0,0.5,0.1,1,0.3,1.5
		c0.4,1.3,1.6,2.2,3,2.2c0.1,0,0.2,0,0.3-0.1c0,0,0.1,0,0.2,0c3.1,0.5,14.5,3.6,13.8,20.8c-0.1,1.8,1.3,3.3,3.1,3.4h0.1
		c0.1,0,0.1,0,0.2,0c0,0,0.1,0,0.1,0c0.1,0,0.1,0,0.2,0.1c1.8-0.1,3.2-1.6,3.1-3.4c-0.6-17.2,10.6-20.3,13.9-20.8c0.1,0,0.1,0,0.1,0
		c0.1,0,0.2,0,0.3,0c1.4,0,2.5-0.9,3-2c0.2-0.5,0.3-1,0.3-1.6C255.5,199.3,254,197.9,252.2,198.1z M234.7,209.9
		c-2.2-4.1-5.2-6.8-8.1-8.6c2.9-1.7,5.9-4.4,8.1-8.4c2.2,4,5.2,6.7,8.1,8.5C239.9,203.2,236.9,205.9,234.7,209.9z"/>
	<path class="st0" d="M207.7,39.6c0.1,0,0.2,0,0.2-0.1c2.4,0.3,14.9,2.8,14.2,20.9c-0.1,1.8,1.3,3.3,3.1,3.4h0.1c0,0,0.1,0,0.1,0
		c0,0,0.1,0,0.1,0c0.1,0,0.1,0,0.1,0c1.8-0.1,3.2-1.6,3.1-3.4c-0.6-17.3,10.7-20.3,13.9-20.8c0.1,0,0.2,0,0.2,0c0.1,0,0.2,0,0.3,0
		c1.7,0,3.1-1.3,3.2-2.9c0-0.1,0-0.2,0-0.4c0-0.1,0-0.2,0-0.3c-0.2-1.8-1.7-3.2-3.5-3c0,0-0.2,0-0.6,0.1c-3.5-0.6-14.2-4-13.5-20.8
		c0.1-1.2-0.6-2.3-1.6-2.9c-0.1,0-0.1-0.1-0.2-0.1c0,0-0.1,0-0.1-0.1c-0.5-0.3-1-0.4-1.5-0.4h-0.1c-1.8,0.1-3.2,1.6-3.1,3.4
		c0.6,17.3-10.7,20.3-13.9,20.8c-0.1,0-0.2,0-0.2,0c-1.8-0.1-3.4,1.2-3.5,3c0,0.1,0,0.2,0,0.3c0,0.1,0,0.2,0,0.3
		C204.6,38.3,206,39.6,207.7,39.6z M225.4,27.7c2.2,4.1,5.2,6.8,8.1,8.6c-2.9,1.8-5.9,4.4-8.1,8.5c-2.2-4.1-5.3-6.8-8.2-8.6
		C220.1,34.5,223.2,31.8,225.4,27.7z"/>
	<path class="st0" d="M77,198.1c0,0-0.3,0-0.7,0.1c-3.4-0.6-14.2-3.9-13.6-20.8c0.1-1.2-0.5-2.3-1.5-2.9c-0.6-0.4-1.3-0.6-2-0.6
		c-1.8,0.1-3.2,1.6-3.1,3.4c0.6,16.7-10,20.1-13.6,20.8c-0.3,0-0.5-0.1-0.5-0.1c-1.8-0.1-3.4,1.2-3.5,3c0,0.1,0,0.2,0,0.4
		c0,0.1,0,0.2,0,0.3c0.1,1.7,1.5,3,3.2,3c0.1,0,0.2,0,0.3-0.1c0,0,0.1,0,0.2,0c3.1,0.5,14.5,3.5,13.9,20.8c-0.1,1.8,1.3,3.3,3.1,3.4
		h0.1c0.1,0,0.1,0,0.2,0c0,0,0.1,0,0.1,0c0,0,0,0,0.2,0.1c1.8-0.1,3.2-1.6,3.1-3.4c-0.6-17.1,10.5-20.3,13.8-20.8c0,0,0.1,0,0.1,0
		c0.1,0,0.2,0,0.3,0c0.8,0,1.6-0.3,2.1-0.8c0,0,0,0,0.1,0c0,0,0,0,0,0c0.8-0.6,1.2-1.6,1.2-2.7C80.3,199.3,78.8,197.9,77,198.1z
		 M59.5,209.9c-2.2-4.1-5.2-6.8-8.1-8.6c2.9-1.7,5.9-4.4,8-8.4c2.2,4.1,5.2,6.7,8.1,8.5C64.6,203.2,61.7,205.9,59.5,209.9z"/>
	<path class="st1" d="M164.4,15.4c-2.3,0-4.1,1.8-4.1,4.1s1.9,4.1,4.1,4.1c2.2,0,4.1-1.8,4.1-4.1S166.7,15.4,164.4,15.4z"/>
	<path class="st1" d="M53.4,37.1c-3.2,0-5.7,2.5-5.7,5.7c0,3.2,2.6,5.7,5.7,5.7c3.1,0,5.7-2.5,5.7-5.7
		C59.1,39.6,56.6,37.1,53.4,37.1z"/>
	<path class="st1" d="M158.2,235.3c-2.3,0-4.1,1.8-4.1,4.1s1.9,4.1,4.1,4.1c2.2,0,4.1-1.8,4.1-4.1S160.5,235.3,158.2,235.3z"/>
</g>
</svg>
