<?xml version="1.0" encoding="utf-8"?>
<!-- Generator: Adobe Illustrator 21.1.0, SVG Export Plug-In . SVG Version: 6.00 Build 0)  -->
<svg version="1.1" id="Layer_1" xmlns="http://www.w3.org/2000/svg" xmlns:xlink="http://www.w3.org/1999/xlink" x="0px" y="0px"
	 viewBox="0 0 280 260" style="enable-background:new 0 0 280 260;" xml:space="preserve">
<style type="text/css">
	.st0{fill:#415A68;stroke:#FFFFFF;stroke-width:3;stroke-linecap:round;stroke-linejoin:round;stroke-miterlimit:10;}
</style>
<g>
	<path class="st0" d="M61.3,141.5c-21.2,0-38.5,17.3-38.5,38.5s17.3,38.5,38.5,38.5c21.3,0,38.5-17.2,38.5-38.5
		C99.8,158.8,82.5,141.5,61.3,141.5z M61.3,212.3c-17.8,0-32.2-14.4-32.2-32.2s14.5-32.2,32.2-32.2c17.8,0,32.2,14.4,32.2,32.2
		S79.1,212.3,61.3,212.3z"/>
	<path class="st0" d="M61.3,158.6c-11.8,0-21.5,9.6-21.5,21.5c0,11.8,9.6,21.5,21.5,21.5c11.9,0,21.6-9.7,21.5-21.5
		C82.8,168.3,73.1,158.6,61.3,158.6z M61.3,195.3c-8.4,0-15.2-6.8-15.2-15.2c0-8.4,6.8-15.2,15.2-15.2c8.4,0,15.2,6.8,15.2,15.2
		C76.5,188.5,69.7,195.3,61.3,195.3z"/>
	<path class="st0" d="M219.2,146.5c-19.8,0-36,16.1-36,36c0,19.8,16.1,36,36,36s36-16.1,36-36C255.2,162.7,239.1,146.5,219.2,146.5z
		 M219.2,212.2c-16.4,0-29.7-13.3-29.7-29.7c0-16.4,13.3-29.7,29.7-29.7s29.7,13.3,29.7,29.7C248.9,198.9,235.6,212.2,219.2,212.2z"
		/>
	<path class="st0" d="M219.2,162.4c-11.1,0-20.2,9-20.2,20.2c0,11.1,9,20.2,20.2,20.2s20.2-9.1,20.2-20.2
		C239.4,171.5,230.4,162.4,219.2,162.4z M219.2,196.4c-7.7,0-13.9-6.2-13.9-13.9s6.2-13.9,13.9-13.9s13.9,6.3,13.9,13.9
		C233.1,190.2,226.9,196.4,219.2,196.4z"/>
	<path class="st0" d="M89.9,127.3c0.5,1.3,1.7,2.1,3,2.1c0.4,0,0.7,0,1-0.1c1.7-0.5,2.6-2.3,2-4L76.9,70c-0.5-1.7-2.3-2.6-4-2
		c-1.7,0.5-2.6,2.3-2,4L89.9,127.3z"/>
	<path class="st0" d="M218.3,132.2c-2.4,0-4.7,0.2-7,0.5V66.4c0-0.1,0-0.1,0-0.2c19.3-2.1,33-13.6,33.6-14c0.7-0.6,1.1-1.5,1.1-2.3
		c0-0.1,0.1-0.2,0.1-0.3c0.4-1.7-0.6-3.5-2.3-3.9c-35.9-9.3-70-0.4-71.4,0c-1.6,0.5-2.7,2.2-2.2,3.9c0.3,0.8,0.8,1.5,1.6,1.9
		c0.1,0.7,0.4,1.3,0.9,1.8c0.6,0.6,12.8,12,32.2,13.2V134c-8.1,2.3-15.4,6.5-21.3,12.2c4.5-5,10.5-10.9,17-14.7
		c1.5-0.8,2-2.8,1.1-4.3c-0.8-1.5-2.8-2-4.3-1.1c-4.9,2.9-9.4,6.7-13.3,10.5c-0.4-1.1-1.3-1.9-2.5-2.5c-7-3.3-13-1.6-16.5-0.1
		c-0.3-0.5-0.6-0.9-0.9-1.4c-2-3.2-4.1-6.5-6.6-9.2h9.8c1.7,0,3.1-1.4,3.2-3.2v-10c0-1.8-1.4-3.2-3.2-3.2h-7.7v-2.6h9.5
		c1.7,0,3.1-1.5,3.2-3.2V89.5c0-1.8-1.4-3.2-3.2-3.2h-23.6c-1.8,0-3.2,1.4-3.2,3.2v11.8c0,1.8,1.4,3.2,3.2,3.2h7.7v2.6h-5.8
		c-1.8,0-3.2,1.4-3.2,3.2v4.8c-2.6-1-5.3-1.7-7.9-2.1c2.6-1.7,4.5-4,4.6-6.4c0-2.1-1.1-5.6-8.9-5.9c-8.7-0.4-14.2-3-17.9-8.6
		c-0.2-0.2-0.4-0.5-0.5-0.8c-0.4-0.8-0.7-1.7-1-2.6c-0.6-1.7-1.2-3.6-2.6-5.3c6.9-2.8,11.8-9.6,11.8-17.6c0-10.5-8.5-19-19-19
		s-19,8.5-19,19c0,6.7,3.5,12.6,8.7,15.9c-0.8,0.9-1.5,2-1.9,3.3c-1.2,3.8,0.4,7.9,2.7,11.5c-0.1,0.3-0.2,0.5-0.2,0.8
		c-0.2,2.7,0.3,5.5,0.7,7.9c0.1,0.7,0.2,1.4,0.3,2l0.1,0.7c0.5,3.5,1,6.6,2.3,9.1c-0.4,0.6-0.6,1.3-0.5,2c0.6,6.6,3.1,11.8,7.4,15.2
		c0.3,0.2,0.5,0.4,0.8,0.6L91,134.9c-1.7,0-3.1,1.4-3.1,3.2c0,0.3,0.1,0.6,0.2,0.8c-4.1-2.6-8.7-4.6-13.5-5.9v-24.5
		c0-1.8-1.4-3.2-3.2-3.2h-7.7V91.8c0-1.8-1.4-3.2-3.2-3.2s-3.2,1.4-3.2,3.2v13.5h-8.6c-1.8,0-3.2,1.4-3.2,3.2v13.1H36
		c-1.8,0-3.2,1.4-3.2,3.2v8.2c0,1.8,1.4,3.2,3.2,3.2h4.1c-16.8,8.1-28.4,25.2-28.4,45c0,1.1,0,2.2,0.1,3.3c0.1,1.7,1.5,3,3.2,3
		c0,0,0.1,0,0.1,0c1.8-0.1,3.1-1.7,3-3.4c-0.1-1-0.1-1.9-0.1-2.9c0-24,19.6-43.6,43.6-43.6c11,0,21.1,4.1,28.8,10.9
		c-0.5,0.6-0.8,1.3-0.8,2.2c0.1,1.7,1.5,3.1,3.2,3.1c0.1,0,0.1,0,0.1,0c0.8,0,1.6,0,2.5,0c6.1,7.5,9.8,17.1,9.8,27.4
		c0,0.5,0,1.1,0,1.6c-0.1,1.8,1.2,3.2,3,3.3c1.8,0.1,3.2-1.2,3.3-3c0-0.6,0-1.3,0-1.9c0-5.6-0.9-11-2.6-16h62.5
		c-1.9,5.3-3,11-3,16.9c0,1.1,0,2.2,0.1,3.3c0.1,1.7,1.5,3,3.2,3c0.1,0,0.1,0,0.1,0c1.8-0.1,3.1-1.7,3-3.4c-0.1-1-0.1-1.9-0.1-2.9
		c0-24,19.6-43.6,43.6-43.6s43.6,19.6,43.6,43.6c0,0.5,0,1.1,0,1.6c-0.1,1.8,1.2,3.2,3,3.3c1.8,0.1,3.2-1.2,3.3-3c0-0.6,0-1.3,0-1.9
		C268.2,154.6,245.8,132.2,218.3,132.2z M236.4,50.5c-5.6,3.6-16,8.9-28.4,9.7c-13.8,0-24.1-6.3-28.5-9.6
		C189.5,48.7,212.3,45.5,236.4,50.5z M148.8,92.7H166v5.4h-17.2V92.7z M150.6,113.5h13.6v3.6h-13.6V113.5z M100.7,106.8l-0.1-0.7
		c0-0.3-0.1-0.6-0.2-0.8c2.3,2.8,5,5.7,8.8,7.1c2,0.8,4.2,1.4,6.3,2c-1.8,0.4-3.9,0.5-4.8,0.6c-1,0.1-1.7,0.2-2.2,0.3
		c-2.6,0.5-4.4,0.4-5.3-0.2C101.8,114.1,101.3,110.7,100.7,106.8z M131.9,106.9c0.8,0.1,1.4,0.1,1.9,0.2c-1.3,1-3.7,2.2-6,2.2h-0.5
		c-5.1,0-10.8-1-15.7-2.9c-2.6-1-4.6-3.4-6.8-6c-0.3-0.3-0.6-0.7-0.9-1l-0.5-0.5c-2.1-2.4-7.6-8.9-6.6-12c0.2-0.5,0.7-2,3.2-2
		c1.6,0,3.3,0.6,4.5,1.5c1.2,0.9,1.6,2.1,2.3,4.2c0.3,1,0.7,2.2,1.3,3.4c0.3,0.5,0.6,1,0.9,1.5C115.4,105.1,125.1,106.6,131.9,106.9
		z M115.6,65.7c0,3.7-1.6,7-4.1,9.4c-0.4-0.7-1.1-1.2-1.9-1.4c-2-0.5-3.2-2.2-3.7-5c-0.9-5.4,1.5-11.6,4.2-13.3c0,0,0.1-0.1,0.1-0.1
		C113.5,57.6,115.6,61.4,115.6,65.7z M102.9,53c0.2,0,0.4,0,0.7,0c-3.2,4.3-5,10.9-4,16.8c0.6,3.8,2.4,6.7,4.9,8.5
		c-0.5,0.1-1.1,0.1-1.6,0.1c-7,0-12.7-5.7-12.7-12.7S95.9,53,102.9,53z M102.9,121.7c0.8,0.2,1.6,0.3,2.5,0.3c1.3,0,2.7-0.2,4.5-0.6
		c0.2-0.1,0.9-0.1,1.5-0.2c2.1-0.2,4.1-0.4,5.8-0.8c0.6,0.3,1.2,0.5,1.9,0.5c1.7-0.1,3.7-0.4,5.7-0.8c2.5-0.5,5.1-1,7.4-1
		c3.9,0,8.8,1.4,13,3.4c0.5,0.5,1,0.8,1.7,0.9c2.1,1.2,3.9,2.5,5.4,4c2.4,2.3,4.5,5.6,6.5,8.8c0.8,1.3,1.7,2.7,2.5,3.9
		c0.8,1.3,2.6,1.7,4,1l0.5-0.3c2.3-1.2,6.5-3.3,11.8-1.4c-0.2,0.3-0.5,0.6-0.8,1.1c-1.4,1.9-1.4,1.9-2.8,2.7c-0.3,0.2-0.6,0.4-1,0.6
		c-0.8,0.4-1.5,0.9-2.2,1.3c-2.8,1.8-5.3,3.3-8.5,4.3c-2.8,0.8-6.4-4.8-8.5-8.2c-0.6-1-1.2-1.8-1.7-2.6c-5.6-8-13.1-11.2-22.3-9.4
		c-1.7,0.3-3.1,0.8-4.5,1.3c-1.4,0.4-2.6,0.9-3.9,1.1c-5.9,0.9-10.7,0.1-14-2.5C105.2,127.4,103.7,124.9,102.9,121.7z M39.2,128h6.3
		v1.8h-6.3V128z M51.9,132.3v-7.5c0-0.3,0-0.5-0.1-0.8v-12.4h16.4v20.2c-2.2-0.3-4.4-0.5-6.6-0.5C58.3,131.3,55,131.6,51.9,132.3z
		 M103.2,153.8c11.8,0.1,26.6,0.3,26.9,0.3c1.7,0,3.1-1.4,3.1-3.1s-1.3-3.2-3.1-3.2c-0.3,0-19.5-0.4-31.8-0.3
		c-2.1-2.3-4.4-4.4-6.9-6.3l41.4-0.7c1.7,0,3.1-1.4,3.1-3.2c0-0.9-0.4-1.7-1-2.2c4.8,0.1,8.6,2.5,11.9,7.1c0.4,0.6,0.9,1.4,1.5,2.3
		c1.6,2.5,3.5,5.5,5.9,7.8c0,0,0,0,0,0.1v6.4h-47c-0.3,0-0.7,0.1-1,0.2C105.3,157.2,104.3,155.4,103.2,153.8z M173.3,158.8h-12.7
		v-3.2c0.3,0,0.5,0.1,0.8,0.1c0.8,0,1.7-0.1,2.8-0.2c2.4-0.8,4.4-1.7,6.3-2.8c-0.8,1.4-0.4,3.2,0.9,4.2c0.6,0.4,1.2,0.6,1.8,0.6
		c0.9,0,1.8-0.4,2.3-1c-0.5,0.8-0.9,1.6-1.4,2.4C173.9,158.8,173.6,158.8,173.3,158.8z"/>
	<path class="st0" d="M229.4,116.2c1.8,0,3.2-1.4,3.2-3.2s-1.4-3.2-3.2-3.2h-11.8c-1.8,0-3.2,1.4-3.2,3.2s1.4,3.2,3.2,3.2H229.4z"/>
	<path class="st0" d="M212.6,127.5c0,1.8,1.4,3.2,3.2,3.2H233c1.8,0,3.2-1.4,3.2-3.2s-1.4-3.2-3.2-3.2h-17.2
		C214,124.3,212.6,125.7,212.6,127.5z"/>
</g>
</svg>
