<?xml version="1.0" encoding="utf-8"?>
<!-- Generator: Adobe Illustrator 21.1.0, SVG Export Plug-In . SVG Version: 6.00 Build 0)  -->
<svg version="1.1" id="Layer_1" xmlns="http://www.w3.org/2000/svg" xmlns:xlink="http://www.w3.org/1999/xlink" x="0px" y="0px"
	 viewBox="0 0 280 260" style="enable-background:new 0 0 280 260;" xml:space="preserve">
<style type="text/css">
	.st0{fill:#415A68;stroke:#FFFFFF;stroke-width:4;stroke-linecap:square;stroke-linejoin:round;stroke-miterlimit:10;}
</style>
<g>
	<path class="st0" d="M248.3,30.2c0-0.3-0.1-0.7-0.2-1c-0.4-1.8-2.2-2.9-4-2.5c-19.3-4.5-49.2,0.8-74.4,22.9
		c-4.9,4.4-26.7,23.2-39.7,34.4L47.4,68.1c-1.1-0.2-2.2,0.1-3,0.8l-17,14.8c-0.7,0.6-1.1,1.5-1.2,2.4c-0.1,0.9,0.2,1.8,0.8,2.5
		l41.1,47.2c0.6,0.7,1.5,1.1,2.4,1.2c-0.3,0.2-0.6,0.5-0.9,0.7l-0.3,0.3c-11.4,9.2-23.4,20.2-23.5,20.3c-1.4,1.3-1.5,3.5-0.3,4.9
		l15.8,18.2c0.6,0.8,1.6,1.2,2.6,1.2c0.8,0,1.6-0.3,2.3-1c0.1-0.1,4.2-3.6,9.7-8.5c0.3-0.1,0.6-0.3,0.9-0.6c0.2-0.1,0.3-0.3,0.4-0.4
		c0.1,0.2,0.2,0.4,0.4,0.5l5.4,6.2c-6.2,5.4-10.8,9.6-10.9,9.7c-1.4,1.3-1.5,3.5-0.3,4.9l15.8,18.2c0.6,0.8,1.6,1.2,2.6,1.2
		c0.8,0,1.6-0.3,2.3-1c0.1-0.1,4.3-3.6,9.8-8.6c0.3-0.1,0.5-0.3,0.7-0.5c0.2-0.2,0.4-0.4,0.6-0.7c3.8-3.4,8-7.3,11.9-11.2l0.2-0.2
		c0.1,0.1,0.1,0.2,0.2,0.3l41,47.2c0.6,0.8,1.6,1.2,2.6,1.2c0.8,0,1.7-0.3,2.3-0.9l17-14.8c0.8-0.7,1.3-1.7,1.2-2.8l-4.3-82.2
		c16.4-14.4,35.8-31.3,40.5-35.4C242.6,80.6,253.9,54.6,248.3,30.2z M73.7,143.5l0.3-0.3c5.7-4.5,11.6-9.2,15.6-9.2
		c1.1,0,2.5,0.3,4.2,2.4c4,5,0.3,9.7-9.2,19.1l-0.3,0.3c-3.1,3.1-6.4,6.3-9.5,9.1L63.5,152C66.7,149.2,70.3,146.3,73.7,143.5z
		 M64.3,174.2l-11.3-13c1.3-1.2,3.2-2.8,5.3-4.7l11.3,13.1C67.5,171.4,65.7,173,64.3,174.2z M90.6,204.4l-11.3-13
		c1.3-1.2,3.1-2.8,5.2-4.7l11.4,13.1C93.8,201.7,92,203.2,90.6,204.4z M110.9,185.7l-0.3,0.3c-3.2,3.2-6.5,6.3-9.6,9.2l-11.3-13
		c3.2-2.8,6.8-5.7,10.3-8.5l0.3-0.3c5.7-4.5,11.6-9.2,15.6-9.2c1.1,0,2.5,0.3,4.2,2.4C124.1,171.6,120.4,176.3,110.9,185.7z
		 M159.8,230.8l-38.7-44.5c-0.2-0.2-0.4-0.4-0.6-0.5c5.5-5.8,9.9-12.2,7.7-18.9l2.3,2.6c0,0,18.4-16.1,33.4-29.3
		c1.4-1.2,1.6-3.4,0.3-4.9c-1.2-1.4-3.4-1.6-4.9-0.3c-13.2,11.5-29.2,25.6-32.7,28.6c-0.3-0.5-0.7-1-1.1-1.5c-2.6-3.3-5.9-5-9.6-5
		c-6.6,0-13.1,5.3-20,10.8l-0.3,0.3c-2.5,2-5,4.1-7.3,6.1l-5.5-6.3c-0.2-0.2-0.4-0.4-0.7-0.6c2.4-2.2,4.8-4.5,7.1-6.8l0.3-0.3
		c8.5-8.4,18.1-18,9.7-28.4c-0.5-0.7-1.1-1.3-1.7-1.9c3.1-2.7,14-12.2,25-21.6c1.5-1.2,1.7-3.4,0.4-4.9c-1.2-1.5-3.4-1.7-4.9-0.4
		c-13,11.3-25.9,22.4-25.9,22.4c-0.5,0.4-0.9,0.9-1.1,1.5c-0.5-0.1-1-0.1-1.4-0.1c-5.2,0-10.3,3.2-15.5,7.3c0.2-1,0-2.2-0.8-3.1
		L34.6,86.6l13.1-11.3l84.6,16.3c-0.2,1,0,2.2,0.8,3.1c0.6,0.8,1.6,1.2,2.6,1.2c0.8,0,1.6-0.3,2.4-0.8c4.4-3.8,7.9-6.8,9.7-8.4
		c26.1-23,50.9-29.9,62.5-25.3c3.1,11.9-6.5,34.6-32.1,57.2c-1.4,1.2-1.6,3.5-0.3,4.9c0.7,0.8,1.6,1.2,2.6,1.2c0.1,0,0.2,0,0.3,0
		c-4.2,3.7-8.4,7.3-12.4,10.8c-1.4,1.2-1.6,3.4-0.3,4.9c0.2,0.2,0.4,0.4,0.7,0.6l4.1,78.5L159.8,230.8z M211.7,97.8
		c-2.8,2.3-10.3,8.9-19.3,16.7c18.4-19.3,28-40,24.9-54.1c0.5-1.5,0-3.2-1.4-4.1c-0.7-1.1-2-1.7-3.3-1.6
		c-14.3-5.5-37.9,2.2-60.9,19.6c9.9-8.5,19.4-16.8,22.5-19.5c23.1-20.3,50.1-25.3,67.5-21.5C246,54.8,235.3,77.5,211.7,97.8z"/>
	<path class="st0" d="M72.3,90.1c-2.6,0-5.2,1-7.2,2.7c-4.6,4-5.1,10.9-1.1,15.5c2.1,2.4,5.1,3.8,8.3,3.8c2.6,0,5.2-1,7.2-2.7
		c2.3-1.9,3.6-4.6,3.8-7.5c0.2-2.9-0.8-5.8-2.7-8C78.5,91.5,75.5,90.1,72.3,90.1z M74.9,104.1c-0.7,0.7-1.6,1-2.6,1
		c-1.1,0-2.2-0.5-3-1.4c-1.4-1.6-1.3-4.2,0.4-5.6c0.7-0.7,1.6-1,2.6-1c1.1,0,2.2,0.5,3,1.4c0.7,0.8,1.1,1.8,1,2.9
		C76.2,102.4,75.7,103.4,74.9,104.1z"/>
	<path class="st0" d="M152.3,182.2c-2.6,0-5.2,1-7.2,2.7c-4.6,4-5.1,10.9-1.1,15.5c2.1,2.4,5.1,3.8,8.3,3.8c2.6,0,5.2-1,7.2-2.7
		c2.3-1.9,3.6-4.6,3.8-7.5c0.2-2.9-0.8-5.8-2.7-8C158.5,183.6,155.5,182.2,152.3,182.2z M154.9,196.2c-0.7,0.7-1.6,1-2.6,1
		c-1.1,0-2.2-0.5-3-1.4c-1.4-1.6-1.3-4.2,0.4-5.6c0.7-0.7,1.6-1,2.6-1c1.1,0,2.2,0.5,3,1.4c0.7,0.8,1.1,1.8,1,2.9
		C156.2,194.5,155.7,195.5,154.9,196.2z"/>
	<path class="st0" d="M183.6,75c3-1.2,8.6-0.3,10.3,0.5c0.7,1.4,1.8,6.4-0.3,10c-1,1.7-0.5,3.8,1.2,4.8c0.6,0.3,1.2,0.5,1.8,0.5
		c1.2,0,2.4-0.6,2.9-1.6c4-6.7,1.8-15.6-0.4-18.3c-2.6-3.2-12.8-4.6-18.2-2.4c-1.8,0.8-2.6,2.8-1.9,4.6
		C179.8,74.9,181.8,75.7,183.6,75z"/>
</g>
</svg>
