<?xml version="1.0" encoding="UTF-8"?>
<svg width="644px" height="546px" viewBox="0 0 644 546" version="1.1" xmlns="http://www.w3.org/2000/svg" xmlns:xlink="http://www.w3.org/1999/xlink">
    <!-- Generator: Sketch 41.2 (35397) - http://www.bohemiancoding.com/sketch -->
    <title>apple-computer</title>
    <desc>Created with Sketch.</desc>
    <defs>
        <path d="M0.00701619294,324.538507 C0.00314125658,326.751019 1.79131227,328.546396 4.00553086,328.548597 L574.851268,329.116018 C577.063462,329.118217 578.85993,327.332496 578.863815,325.113891 L579.425187,4.58149322 C579.429062,2.36898053 577.640891,0.573604048 575.426673,0.571403111 L4.58093524,0.0039815043 C2.36874163,0.0017825802 0.572273785,1.78750422 0.56838818,4.00610861 L0.00701619294,324.538507 Z" id="path-1"></path>
    </defs>
    <g id="Page-1" stroke="none" stroke-width="1" fill="none" fill-rule="evenodd">
        <g id="home" transform="translate(-296.000000, -1321.000000)">
            <g id="mac-grey" transform="translate(297.000000, 1322.000000)">
                <g id="apple-computer">
                    <g id="mac">
                        <path d="M21.5965183,0 L620.089131,0 C632.014459,0 641.68565,9.67065693 641.68565,21.5908906 L641.68565,435.960414 C641.68565,447.882219 632.012261,457.551304 620.089131,457.551304 L21.5965183,457.551304 C9.67119068,457.551304 0,447.880647 0,435.960414 L0,21.5908906 C0,9.66908487 9.67338829,0 21.5965183,0 Z" id="Rectangle-18" stroke="#CCCCCC" stroke-width="2"></path>
                        <path d="M0.906779661,384.426667 L640.186441,384.426667" id="Line" stroke="#CCCCCC" stroke-width="2" stroke-linecap="square"></path>
                        <g id="Group-29" transform="translate(216.720339, 457.866667)" stroke="#CCCCCC" stroke-width="2">
                            <path d="M37.4934904,0.108020833 C37.4934904,0.108020833 34.7793502,54.6071875 27.940425,67.309375 C21.1014999,80.0115625 0.656425363,85.4742918 0.656425363,85.4742918 C0.133631793,85.6265325 0.154533111,85.7499519 0.713224901,85.7499568 L99.4555866,85.7508333" id="Path-2"></path>
                            <path d="M136.67186,0.10890625 C136.67186,0.10890625 133.95772,54.6080729 127.118795,67.3102604 C120.27987,80.0124479 99.834795,85.4751773 99.834795,85.4751773 C99.3120015,85.6274179 99.3301361,85.7508333 99.8869137,85.7508333 L208.57558,85.7508333" id="Path-2" transform="translate(154.015583, 42.929870) scale(-1, 1) translate(-154.015583, -42.929870) "></path>
                        </g>
                        <g id="Group-28" transform="translate(30.830508, 29.013333)">
                            <mask id="mask-2" fill="white">
                                <use xlink:href="#path-1"></use>
                            </mask>
                            <use id="Mask" fill="#D8D8D8" xlink:href="#path-1"></use>
                        </g>
                    </g>
                    <rect id="Combined-Shape" stroke="#CCCCCC" stroke-width="2" x="307.398305" y="407.093333" width="28.1101695" height="28.1066667" rx="14.0533333"></rect>
                    <g id="Group-33" transform="translate(314.453390, 411.646667)" fill="#CCCCCC">
                        <path d="M10.3458352,6.82902414 C10.6692706,6.66699137 12.5487317,5.98622913 13.3473498,5.95069157 C13.3482804,5.89190267 13.3432952,5.83331194 13.3282069,5.77551386 C13.3054082,5.68825528 13.260675,5.61262237 13.2043762,5.54511422 C13.1482104,5.47773818 13.0803461,5.41855295 13.0113519,5.36425579 C12.8576105,5.24337524 12.6927023,5.13425248 12.5232743,5.03213154 C12.3538463,4.93007665 12.1799649,4.83502359 12.0079446,4.74254667 C12.0078781,4.74287694 12.0078117,4.74314116 12.0077452,4.74347144 L12.0066152,4.74254667 C12.0066152,4.74254667 12.0059505,4.74399988 12.0057511,4.74439621 C11.9956479,4.7502751 11.4948084,5.04382326 10.7475704,5.49451614 C10.8418226,5.18108543 10.935676,4.86745657 11.0276683,4.55329926 C11.1438551,4.15630905 11.2708763,3.75879041 11.3643309,3.3557892 C11.4210284,3.11145197 11.4379779,2.8639441 11.2902186,2.64734994 C11.1308938,2.41391177 10.8720657,2.24441479 10.6440126,2.08436367 C10.3604583,1.88540618 10.0639426,1.70560462 9.76337241,1.53333333 C9.76337241,1.53333333 9.064324,4.02499183 8.24596478,7.03907886 C6.63257674,8.06180754 4.96249113,9.18315625 4.27966102,9.84667814 L4.99419657,10.358604 C4.99419657,10.358604 5.95247183,9.40728067 7.93961181,8.17139269 C6.89479467,12.0482894 5.77566582,16.3597615 5.70221821,17.3019032 L5.91239137,17.4603029 C6.3057515,17.7276934 6.70037453,17.9932342 7.09725748,18.2553402 C7.35615199,18.4263565 7.21457425,18.3494025 7.87959083,18.76 C8.00455146,17.4901598 8.20508669,16.2275196 8.4309464,14.9718811 C8.68193116,13.5764705 8.97060353,12.1874671 9.29211129,10.8064565 C9.58563585,9.54573183 9.90893826,8.29227323 10.2790344,7.05156324 C10.3011684,6.97731749 10.3235683,6.90320384 10.3458352,6.82902414" id="Fill-4"></path>
                        <path d="M5.11927186,2.58099534 C5.24157028,2.02984415 5.23064431,1.77545647 4.79686521,1.41171393 C4.44011118,1.11269567 4.04774211,0.860297475 3.65319992,0.626666667 C3.13786842,2.65964596 2.64813146,4.70098106 2.18103117,6.747953 C1.82216439,8.32063384 1.47543086,9.89769154 1.17541943,11.4852935 C1.05342283,12.1313427 0.905409147,12.8067035 0.814620981,13.4829264 L0.652542373,14.6524067 C0.652542373,14.6524067 2.02215188,15.6470785 2.63666221,16.04 C2.84117704,12.7774582 3.4439163,9.58216063 4.19913621,6.42791261 C4.50608955,5.14596054 4.83344608,3.86891584 5.11927186,2.58099534" id="Fill-1"></path>
                    </g>
                </g>
            </g>
        </g>
    </g>
</svg>