<svg id="211ce9c1-997a-4038-94aa-23ac12888ad2" data-name="Layer 1" xmlns="http://www.w3.org/2000/svg" viewBox="0 0 960 960"><defs><style>.\37 c9a8f53-b60c-4faf-9bb0-9d911d1b271a{fill:#763e98;}.\37 be9ef8b-5cc7-4f49-a312-ba4848885bb7{fill:#be202e;}</style></defs><title>big-brothers-big-sisters-logo</title><path class="7c9a8f53-b60c-4faf-9bb0-9d911d1b271a" d="M631.882,275s-2.668,2.978-6.239,6.508c-176.989,176.341-341.721,97.2-341.721,97.2l2.36,10.508c8.054,1.853,15.671,4.051,21.993,5.787,119.277,32.5-67.921,237.7-67.921,237.7h15.615s69.3-99.638,108.893-101.6c48.368-2.4,32.011,104.531,32.011,104.531a65.481,65.481,0,0,0,9.449-2.257c33.608-8.265,147.664-38.491,192.6-78.139,32.821-28.97,30.178-103.158-50.732-95.669.663-3.955,8.265-47.76,21.468-55.528,25.388-14.98,31.013,34.247,31.013,34.247s7.733-5.263,7.675-5.435c-23.787-72.227-9.417-110.587,5.128-130.451,9.065-12.375,16.647-17.72,16.647-17.72C629.929,285.077,631.882,275,631.882,275Zm-95.1,189.05c60.715,2.857,59.221,43,59.221,43,1.239,56.853-113.086,92.3-187.853,123.732,18.59-195.155,45.814-242.329,102.982-257.934C575.5,355.289,536.779,464.05,536.779,464.05Z"/><path class="7c9a8f53-b60c-4faf-9bb0-9d911d1b271a" d="M403.757,385.449c14.508,0,29.833-13.59,34.274-30.389,4.421-16.771-3.737-30.389-18.224-30.389s-29.843,13.614-34.274,30.389C381.105,371.86,389.26,385.449,403.757,385.449Z"/><path class="7c9a8f53-b60c-4faf-9bb0-9d911d1b271a" d="M554.385,328.413c11.129-4.2,18.673-17.03,16.868-28.632-1.829-11.605-12.337-17.6-23.47-13.372s-18.676,17.02-16.861,28.646C532.745,326.66,543.246,332.633,554.385,328.413Z"/><path class="7c9a8f53-b60c-4faf-9bb0-9d911d1b271a" d="M220.625,619.009h3.917c2.36,0,3.4.984,3.4,2.885,0,1.7-1.2,2.533-2.7,2.771l3.12,4.8h-.99l-3.147-4.817h-2.7v4.817h-.9Zm.9,4.845h2.219c1.57,0,3.3-.148,3.3-1.974,0-1.6-1.387-2.077-2.657-2.077h-2.864Zm-5.622.4a7.931,7.931,0,1,0,15.86-.041,7.931,7.931,0,1,0-15.86.041Zm16.754,0a8.827,8.827,0,1,1-8.824-8.845A8.816,8.816,0,0,1,232.655,624.258Z"/><path class="7be9ef8b-5cc7-4f49-a312-ba4848885bb7" d="M518.9,476.291s35.679-87.515-.5-90.179c-32.7-2.419-60.128,21.813-78.146,104.165-18,82.349-19.511,123.6-19.511,123.6s138.85-45.476,158.058-87.9C595.006,490.229,566.625,473,518.9,476.291Zm6.353,77.49c-.5.3-49.406,29.1-81.955,34.133-.038,0-.069.007-.11.007a.679.679,0,0,1-.666-.666c-.017-.742-1.491-76.006,32.314-150.283a.676.676,0,0,1,.811-.369.654.654,0,0,1,.473.749C469.127,484.918,460.6,557.1,465.473,563.2c2.592-.035,21.544-.673,59.269-10.649a.664.664,0,0,1,.794.39A.684.684,0,0,1,525.256,553.781Z"/></svg>