<svg id="51ae1ca7-48e1-4d54-bd05-fee68e425338" data-name="Layer 1" xmlns="http://www.w3.org/2000/svg" viewBox="0 0 960 960"><defs><style>.\33 742175d-5a47-4d89-a6ae-781d0c50a4ff{fill:#010101;}.\34 2e07213-22ef-427f-92e2-ba7880f3c085{fill:#b22825;}</style></defs><title>blackfinn-ameripub-logo</title><path class="3742175d-5a47-4d89-a6ae-781d0c50a4ff" d="M334.912,496.018h5.9l12.855,26.463H348.2l-2.767-6.078H330.188l-2.811,6.078h-5.489Zm8.487,15.946-5.536-11.8-5.528,11.8Z"/><path class="3742175d-5a47-4d89-a6ae-781d0c50a4ff" d="M372.742,502.422h-.069v20.059h-4.6V496.018h6.956l8.264,19.623,8.409-19.623h6.809V522.48h-4.6V502.421h-.067l-8.479,20.059h-4.114Z"/><path class="3742175d-5a47-4d89-a6ae-781d0c50a4ff" d="M415.774,496.018h23.735v4.441H420.947v6.153h15.977v4.439H420.947v6.99h19v4.438H415.774Z"/><path class="3742175d-5a47-4d89-a6ae-781d0c50a4ff" d="M455.409,496.018h15.908c6.256,0,10.766,1.422,10.766,7.9a7.487,7.487,0,0,1-7.384,7.786l8.117,10.776h-6.37l-7.69-10.416H460.57v10.416h-5.16V496.018Zm15.138,11.756c4.224,0,6.371-.619,6.371-3.747,0-3.1-2.148-3.715-6.371-3.715H460.57v7.462Z"/><path class="3742175d-5a47-4d89-a6ae-781d0c50a4ff" d="M498.617,496.018h5.166V522.48h-5.166Z"/><path class="3742175d-5a47-4d89-a6ae-781d0c50a4ff" d="M521.223,496.018h14.741c4.474,0,11.83,0,11.83,8.117,0,8.076-7.356,8.076-11.83,8.076h-9.576v10.27h-5.165Zm15.87,11.756c2.95,0,5.536-.254,5.536-3.675,0-3.383-2.585-3.638-5.536-3.638H526.388v7.314Z"/><path class="3742175d-5a47-4d89-a6ae-781d0c50a4ff" d="M590.554,511.122c0,8.518-5.428,12.016-14.049,12.016-8.638,0-14.05-3.5-14.05-12.016v-15.1h5.166V510.76c0,4.369,1.559,7.932,8.884,7.932,7.308,0,8.883-3.563,8.883-7.932V496.018h5.166Z"/><path class="3742175d-5a47-4d89-a6ae-781d0c50a4ff" d="M607.789,496.018h15.944c6.223,0,10.368,1.747,10.368,6.773a5.748,5.748,0,0,1-3.056,5.491,7.079,7.079,0,0,1,4.077,6.517c0,4.989-3.963,7.681-10.41,7.681H607.789V496.018Zm16.268,10.443c3.383,0,4.878-.835,4.878-3.052,0-2.263-1.5-3.1-4.878-3.1h-11.1v6.148h11.1Zm.141,11.721c3.279,0,5.757-.65,5.757-3.785,0-2.763-2.263-3.636-5.757-3.636H612.951v7.421Z"/><path class="3742175d-5a47-4d89-a6ae-781d0c50a4ff" d="M304.6,511.364H145.429a2.115,2.115,0,1,1,0-4.229H304.6a2.115,2.115,0,0,1,0,4.229Z"/><path class="3742175d-5a47-4d89-a6ae-781d0c50a4ff" d="M814.571,511.364H655.4a2.115,2.115,0,1,1,0-4.229h159.17a2.115,2.115,0,1,1,0,4.229Z"/><polygon class="3742175d-5a47-4d89-a6ae-781d0c50a4ff" points="593.806 412.549 587.655 407.111 587.655 423.115 564.634 423.115 564.634 465.183 547.222 465.183 552.983 470.28 570.786 470.28 570.786 428.21 593.806 428.21 593.806 412.549"/><polygon class="3742175d-5a47-4d89-a6ae-781d0c50a4ff" points="600.156 375.24 594.004 369.801 594.004 385.807 564.634 385.807 564.634 401.683 570.786 401.683 570.786 390.9 600.156 390.9 600.156 375.24"/><polygon class="3742175d-5a47-4d89-a6ae-781d0c50a4ff" points="634.215 369.801 634.215 465.183 616.805 465.183 622.567 470.28 640.368 470.28 640.368 375.24 634.215 369.801"/><polygon class="3742175d-5a47-4d89-a6ae-781d0c50a4ff" points="244.532 369.801 244.532 443.754 250.684 443.754 250.684 375.24 244.532 369.801"/><polygon class="3742175d-5a47-4d89-a6ae-781d0c50a4ff" points="273.904 449.18 273.904 465.183 227.123 465.183 232.884 470.28 280.056 470.28 280.056 454.621 273.904 449.18"/><polygon class="3742175d-5a47-4d89-a6ae-781d0c50a4ff" points="484.688 427.831 480.562 434.094 480.562 465.183 463.151 465.183 468.914 470.28 486.714 470.28 486.714 441.273 489.249 437.426 484.688 427.831"/><polygon class="3742175d-5a47-4d89-a6ae-781d0c50a4ff" points="480.562 369.801 480.562 397.343 486.714 387.102 486.714 375.24 480.562 369.801"/><polygon class="3742175d-5a47-4d89-a6ae-781d0c50a4ff" points="533.22 470.28 505.983 413.568 530.537 375.152 523.665 369.078 500.258 405.703 528.823 465.183 507.603 465.183 513.364 470.28 533.22 470.28"/><polygon class="3742175d-5a47-4d89-a6ae-781d0c50a4ff" points="700.323 406.866 686.159 375.292 682.437 372.001 700.323 411.873 700.323 406.866"/><polygon class="3742175d-5a47-4d89-a6ae-781d0c50a4ff" points="676.642 412.562 676.642 465.183 660.818 465.183 666.58 470.28 682.794 470.28 682.794 426.15 676.642 412.562"/><polygon class="3742175d-5a47-4d89-a6ae-781d0c50a4ff" points="722.285 369.801 722.285 465.183 705.667 465.183 711.428 470.28 728.435 470.28 728.435 375.24 722.285 369.801"/><polygon class="3742175d-5a47-4d89-a6ae-781d0c50a4ff" points="324.998 398.834 319.221 423.644 327.174 423.644 328.947 416.032 324.998 398.834"/><polygon class="3742175d-5a47-4d89-a6ae-781d0c50a4ff" points="368.652 470.28 345.755 375.271 340.518 370.639 363.302 465.183 345.973 465.183 351.734 470.28 368.652 470.28"/><polygon class="3742175d-5a47-4d89-a6ae-781d0c50a4ff" points="335.743 445.075 314.633 445.075 309.473 465.183 293.318 465.183 299.08 470.28 316.294 470.28 321.454 450.17 336.916 450.17 335.743 445.075"/><polygon class="3742175d-5a47-4d89-a6ae-781d0c50a4ff" points="764.891 412.562 764.891 465.183 749.068 465.183 754.828 470.28 771.044 470.28 771.044 426.15 764.891 412.562"/><polygon class="3742175d-5a47-4d89-a6ae-781d0c50a4ff" points="788.571 406.866 774.407 375.292 770.686 372.001 788.571 411.873 788.571 406.866"/><polygon class="3742175d-5a47-4d89-a6ae-781d0c50a4ff" points="810.532 369.801 810.532 465.183 793.916 465.183 799.678 470.28 816.686 470.28 816.686 375.24 810.532 369.801"/><path class="3742175d-5a47-4d89-a6ae-781d0c50a4ff" d="M192.412,411.434a32.813,32.813,0,0,1,6.759,6.111,21.69,21.69,0,0,0,9.1-17.844c0-7.46-2.38-13.326-7.077-17.432l-.626-.547a30.322,30.322,0,0,1,1.552,9.908A24.468,24.468,0,0,1,192.412,411.434Z"/><path class="3742175d-5a47-4d89-a6ae-781d0c50a4ff" d="M177.979,389.851a6.869,6.869,0,0,0-1.709-2.705c-1.668-1.589-4.275-2.395-7.75-2.4h-4.631v17.462h3.706a16.97,16.97,0,0,0,2.446-.18v-12.19h7.61C177.762,389.843,177.872,389.847,177.979,389.851Z"/><path class="3742175d-5a47-4d89-a6ae-781d0c50a4ff" d="M178.839,470.282c20.432,0,31.687-9.657,31.688-27.189,0-8.672-2.115-13.9-7.538-18.665l-.126-.111a33.584,33.584,0,0,1,1.509,10.706c0,9.978-3.279,17.686-9.747,22.911-5.959,4.812-14.341,7.252-24.914,7.252l-23.234,0,5.76,5.093Z"/><path class="3742175d-5a47-4d89-a6ae-781d0c50a4ff" d="M179.488,427.816c-2.42-4.3-7.758-5.23-11.894-5.231h-3.706v22.227h5.029c.383,0,.759-.011,1.123-.03v-17.1h6.683C177.664,427.68,178.591,427.727,179.488,427.816Z"/><path class="3742175d-5a47-4d89-a6ae-781d0c50a4ff" d="M414.817,389.588c-1.315-4.223-4.376-5.1-8.548-5.1-5.865,0-9.26,1.775-9.26,10.849v38.894c0,8.218,2.959,10.051,6.264,10.618-.075-.872-.112-1.709-.112-2.545V403.4C403.161,394.055,406.759,389.778,414.817,389.588Z"/><path class="3742175d-5a47-4d89-a6ae-781d0c50a4ff" d="M406.269,466.506a43.7,43.7,0,0,1-11.85-1.52l.069.058c4.927,4.351,11.962,6.555,20.909,6.555,19.795,0,29.833-10.659,29.833-31.682V436.1l-6.152-5.438v1.188C439.078,454.521,427.733,466.506,406.269,466.506Z"/><path class="3742175d-5a47-4d89-a6ae-781d0c50a4ff" d="M436.306,380.656l-.192-.169a45.741,45.741,0,0,1,2.963,17.224v2.911H421.667l5.761,5.095h17.8C445.218,394.308,442.217,385.877,436.306,380.656Z"/><path class="42e07213-22ef-427f-92e2-ba7880f3c085" d="M276.15,581.823h2.824l4.279-18.41h-3.229l.929-4.076h19.9L299,566.967h-4.319l.85-3.593h-7.713l-1.652,7.1h7.911l-.888,3.875h-7.914l-1.734,7.509h7.71l.929-3.591H296.5l-1.776,7.627h-19.5Z"/><path class="42e07213-22ef-427f-92e2-ba7880f3c085" d="M301.83,579.361c0-6.1,4.078-11.466,9.2-11.466,2.341,0,4.238,1.939,4.964,3.957l1.211-3.634h4.119L318.3,580.249a8.444,8.444,0,0,0-.322,1.9c0,.726.281,1.089.888,1.089.523,0,1.373-.444,2.261-2.906l1.776.687c-1.211,4.158-3.472,5.208-5.411,5.208-2.3,0-3.632-1.574-3.632-4-1.456,2.181-3.6,4-6.34,4C304.213,586.224,301.83,583.478,301.83,579.361Zm13.4-3.794c0-2.3-1.13-3.756-3.472-3.756-2.946,0-5.327,3.312-5.327,6.905,0,2.1,1.051,3.753,3.188,3.753C312.568,582.468,315.233,579.361,315.233,575.567Z"/><path class="42e07213-22ef-427f-92e2-ba7880f3c085" d="M334.615,571.932l-1.9,7.672a8.4,8.4,0,0,0-.284,1.614c0,1.211.6,1.616,1.291,1.616.929,0,1.616-.243,3.391-1.414l1.454,2.018a8.917,8.917,0,0,1-6.378,2.787c-2.341,0-4.319-1.252-4.319-4.241a11.464,11.464,0,0,1,.361-2.38l1.9-7.672H326.86l.85-3.715h3.309l.97-3.833,4.967-1.779-1.414,5.612h5.368l-.926,3.715Z"/><path class="42e07213-22ef-427f-92e2-ba7880f3c085" d="M343.547,582.912a3.311,3.311,0,1,1,3.309,3.312A3.333,3.333,0,0,1,343.547,582.912Z"/><path class="42e07213-22ef-427f-92e2-ba7880f3c085" d="M365.712,581.823h2.824l4.279-18.41h-3.229l.929-4.076h8.678c4.886,0,8.276,1.492,10.495,3.712a10.946,10.946,0,0,1,2.989,7.873,13.614,13.614,0,0,1-4.241,10.256c-3.309,3.309-7.951,4.721-13.319,4.721H364.782Zm10.052,0c4.279,0,6.944-1.089,9.246-3.391a10.221,10.221,0,0,0,2.946-7.307,7.467,7.467,0,0,0-2.018-5.286c-1.492-1.495-3.835-2.424-7.225-2.424h-1.335l-4.277,18.41h2.663Z"/><path class="42e07213-22ef-427f-92e2-ba7880f3c085" d="M400.275,571.932h-3.229l.967-3.715h6.905l-1.13,5.167c2.058-3.753,4.156-5.49,6.256-5.49a2.928,2.928,0,0,1,2.946,2.906,2.791,2.791,0,0,1-2.785,2.785,2.7,2.7,0,0,1-2.664-2.018c-1.294.406-3.35,2.705-4.238,6.3l-2.018,8.033h-4.523Z"/><path class="42e07213-22ef-427f-92e2-ba7880f3c085" d="M417.6,582.267a8.862,8.862,0,0,1,.241-1.977l2.06-8.358h-3.19l.97-3.715h7.669l-3.025,12.032a7.588,7.588,0,0,0-.284,1.856c0,.767.363,1.13.967,1.13.728,0,1.495-.444,2.383-2.906l1.776.687c-1.211,4.158-3.229,5.208-5.53,5.208C418.892,586.224,417.6,584.65,417.6,582.267Zm3.188-19.217a2.745,2.745,0,1,1,2.746,2.705A2.713,2.713,0,0,1,420.788,563.05Z"/><path class="42e07213-22ef-427f-92e2-ba7880f3c085" d="M442.535,582.308a7.166,7.166,0,0,1,.281-2.018l1.332-4.764a4.8,4.8,0,0,0,.2-1.454,2.259,2.259,0,0,0-2.421-2.462c-1.9,0-3.149,1.332-3.794,3.957L435.55,585.9h-4.523l3.513-13.967h-3.229l.967-3.715h6.9L438.3,572.3c1.211-2.261,3.632-4.4,6.015-4.4,2.543,0,4.641,1.817,4.641,5.289a10.276,10.276,0,0,1-.444,2.947l-1.291,4.641a5.316,5.316,0,0,0-.2,1.252c0,.807.325,1.211.929,1.211s1.373-.444,2.261-2.906l1.776.687c-1.051,3.673-2.947,5.208-5.327,5.208C443.867,586.224,442.535,584.567,442.535,582.308Z"/><path class="42e07213-22ef-427f-92e2-ba7880f3c085" d="M455.294,585.9l5.934-25.836h-3.312l.967-3.715h7.55l-4.6,19.984c4.482-1.332,6.541-2.543,7.307-3.756a2.475,2.475,0,0,1-1.211-2.1,2.637,2.637,0,0,1,2.622-2.584,2.827,2.827,0,0,1,2.785,3.028c0,2.785-1.936,5.088-6.459,7.145l1.616,3.513a6,6,0,0,0,.767,1.332.775.775,0,0,0,.645.322c.523,0,1.051-.645,1.817-3.309l1.776.566c-1.051,4.8-2.868,5.733-4.8,5.733a3.6,3.6,0,0,1-2.3-.769,5.235,5.235,0,0,1-1.533-2.137L463,579.037l-1.7.523-1.495,6.337h-4.519Z"/><path class="42e07213-22ef-427f-92e2-ba7880f3c085" d="M478.643,582.912a3.311,3.311,0,1,1,3.312,3.312A3.336,3.336,0,0,1,478.643,582.912Z"/><path class="42e07213-22ef-427f-92e2-ba7880f3c085" d="M500.807,581.823h2.827l4.277-18.41h-3.229l.929-4.076h8.68a14.182,14.182,0,0,1,6.3,1.048,6.086,6.086,0,0,1,3.552,5.49c0,3.554-2.987,6.056-6.254,6.5a5.987,5.987,0,0,1,4.6,5.449,6.932,6.932,0,0,1-2.462,5.612,11.354,11.354,0,0,1-5.571,2.181,24.782,24.782,0,0,1-4.037.281H499.878Zm10.294.081a16.254,16.254,0,0,0,2.625-.2,5.242,5.242,0,0,0,2.9-1.294,3.8,3.8,0,0,0,1.051-2.865c0-2.261-2.1-3.309-5.046-3.309H509.97l-1.817,7.669Zm1.533-11.3c4.36,0,6.7-1.454,6.7-4.117a2.778,2.778,0,0,0-1.9-2.664,10.52,10.52,0,0,0-3.673-.485h-1.291l-1.7,7.266h1.857Z"/><path class="42e07213-22ef-427f-92e2-ba7880f3c085" d="M531.955,578.553v.281c0,1.98,1.616,3.715,4.967,3.715a12.15,12.15,0,0,0,5.852-1.574l-.847,4.037a12.413,12.413,0,0,1-6.015,1.213c-4.322,0-8.317-2.705-8.317-7.591,0-6.015,4.279-10.738,9.566-10.738,4.482,0,7.591,2.424,7.591,6.822a12.828,12.828,0,0,1-.648,3.835h-12.15Zm.486-3.067h7.911a4.567,4.567,0,0,0,.163-1.213c0-1.734-1.131-2.744-3.271-2.744C535.025,571.529,533.287,573.062,532.441,575.486Z"/><path class="42e07213-22ef-427f-92e2-ba7880f3c085" d="M559.087,581.823h2.827l4.277-18.41h-3.229l.929-4.076h11.182l-.929,4.076h-3.389l-4.279,18.448h7.187l.888-3.753h4.4l-1.815,7.791H558.161Z"/><path class="42e07213-22ef-427f-92e2-ba7880f3c085" d="M583.916,582.267a8.721,8.721,0,0,1,.243-1.977l2.06-8.358h-3.19l.967-3.715h7.672l-3.028,12.032a7.691,7.691,0,0,0-.282,1.856c0,.767.363,1.13.969,1.13.728,0,1.495-.444,2.383-2.906l1.774.687c-1.208,4.158-3.226,5.208-5.53,5.208C585.206,586.224,583.916,584.65,583.916,582.267Zm3.19-19.217a2.745,2.745,0,1,1,2.746,2.705A2.713,2.713,0,0,1,587.107,563.05Z"/><path class="42e07213-22ef-427f-92e2-ba7880f3c085" d="M599.1,571.932h-2.945l.967-3.715h5.733l1.939,13.242c2.946-3.108,4.842-5.771,5.449-8.234a2.786,2.786,0,0,1-1.737-2.584,2.733,2.733,0,0,1,2.785-2.746c1.817,0,3.149,1.414,3.149,3.593,0,4.158-3.271,8.921-9.284,14.736h-3.309Z"/><path class="42e07213-22ef-427f-92e2-ba7880f3c085" d="M622.614,578.553v.281c0,1.98,1.614,3.715,4.967,3.715a12.15,12.15,0,0,0,5.852-1.574l-.847,4.037a12.407,12.407,0,0,1-6.015,1.213c-4.322,0-8.317-2.705-8.317-7.591,0-6.015,4.279-10.738,9.568-10.738,4.479,0,7.589,2.424,7.589,6.822a12.9,12.9,0,0,1-.645,3.835H622.614Zm.485-3.067h7.911a4.567,4.567,0,0,0,.163-1.213c0-1.734-1.13-2.744-3.271-2.744C625.683,571.529,623.947,573.062,623.1,575.486Z"/><path class="42e07213-22ef-427f-92e2-ba7880f3c085" d="M640.082,582.226a8.337,8.337,0,0,1,.243-1.936l4.68-20.227H641.7l.967-3.715h7.672l-5.532,23.9a9.008,9.008,0,0,0-.282,1.734c0,.888.282,1.252.929,1.252.726,0,1.492-.444,2.38-2.906l1.776.687c-1.211,4.158-3.226,5.208-5.53,5.208C641.331,586.224,640.082,584.65,640.082,582.226Z"/><path class="42e07213-22ef-427f-92e2-ba7880f3c085" d="M647.581,591.066a2.506,2.506,0,0,1,2.543-2.543,2.42,2.42,0,0,1,2.3,1.655c.929-.122,2.383-1.492,5.653-5.368l-2.667-12.878h-2.987l.97-3.715h5.771l2.1,13.2c2.459-3.229,4.439-5.931,5.086-8.193a2.764,2.764,0,0,1,1.051-5.33c2.018,0,3.188,1.454,3.188,3.673,0,1.939-.967,5.248-7.589,13.283-6.822,8.276-9.164,9.122-11.99,9.122C648.871,593.974,647.581,592.561,647.581,591.066Z"/><path class="42e07213-22ef-427f-92e2-ba7880f3c085" d="M674,583.236a2.988,2.988,0,1,1,5.976,0,2.988,2.988,0,1,1-5.976,0Zm5.208-23.859h5.571l-5.733,18.489h-2.261Z"/><polygon class="42e07213-22ef-427f-92e2-ba7880f3c085" points="591.028 382.829 591.028 376.579 554.346 376.579 554.346 410.909 584.678 410.909 584.678 404.661 561.658 404.661 561.658 382.829 591.028 382.829"/><polygon class="42e07213-22ef-427f-92e2-ba7880f3c085" points="584.678 413.885 554.346 413.885 554.346 462.207 561.658 462.207 561.658 420.138 584.678 420.138 584.678 413.885"/><polygon class="42e07213-22ef-427f-92e2-ba7880f3c085" points="591.028 367.352 544.062 367.352 544.062 462.207 551.371 462.207 551.371 373.603 591.028 373.603 591.028 367.352"/><rect class="42e07213-22ef-427f-92e2-ba7880f3c085" x="613.643" y="367.352" width="7.31" height="94.856"/><rect class="42e07213-22ef-427f-92e2-ba7880f3c085" x="623.929" y="367.352" width="7.31" height="94.856"/><polygon class="42e07213-22ef-427f-92e2-ba7880f3c085" points="223.96 367.352 223.96 462.207 270.927 462.207 270.927 455.957 231.27 455.957 231.27 367.352 223.96 367.352"/><polygon class="42e07213-22ef-427f-92e2-ba7880f3c085" points="234.248 367.352 234.248 452.981 270.927 452.981 270.927 446.73 241.556 446.73 241.556 367.352 234.248 367.352"/><polygon class="42e07213-22ef-427f-92e2-ba7880f3c085" points="477.585 406.776 477.585 367.352 470.277 367.352 470.277 429.476 509.875 367.352 502.051 367.352 478.368 406.776 477.585 406.776"/><polygon class="42e07213-22ef-427f-92e2-ba7880f3c085" points="515.856 462.207 524.093 462.207 496.856 405.498 521.235 367.352 513.406 367.352 488.888 405.816 515.856 462.207"/><rect class="42e07213-22ef-427f-92e2-ba7880f3c085" x="459.99" y="367.352" width="7.311" height="94.856"/><polygon class="42e07213-22ef-427f-92e2-ba7880f3c085" points="504.32 462.207 512.555 462.207 487.003 408.773 470.277 435.017 470.277 462.207 477.585 462.207 477.585 433.202 477.64 433.119 485.107 421.782 504.32 462.207"/><polygon class="42e07213-22ef-427f-92e2-ba7880f3c085" points="708.488 452.981 709.814 452.981 709.814 367.352 703.3 367.352 703.3 423.976 702.49 423.976 702.402 423.78 677.088 367.352 657.658 367.352 657.658 462.207 664.172 462.207 664.172 373.603 672.714 373.603 708.488 452.981"/><polygon class="42e07213-22ef-427f-92e2-ba7880f3c085" points="674.561 400.753 702.386 462.207 719.307 462.207 719.307 367.352 712.79 367.352 712.79 455.957 706.567 455.957 670.791 376.579 667.149 376.579 667.149 462.207 673.665 462.207 673.665 400.558 674.473 400.558 674.561 400.753"/><polygon class="42e07213-22ef-427f-92e2-ba7880f3c085" points="331.732 373.603 352.663 462.207 359.522 462.207 336.664 367.352 313.766 367.352 290.249 462.207 297.173 462.207 318.488 373.603 331.732 373.603"/><polygon class="42e07213-22ef-427f-92e2-ba7880f3c085" points="338.114 442.098 342.743 462.207 349.605 462.207 343.378 435.848 306.575 435.848 300.235 462.207 307.166 462.207 312.324 442.098 338.114 442.098"/><path class="42e07213-22ef-427f-92e2-ba7880f3c085" d="M342.675,432.872l-13.3-56.292h-8.544L307.293,432.87h35.382Zm-18.052-45.544h.79l9.015,39.293H315.472Z"/><polygon class="42e07213-22ef-427f-92e2-ba7880f3c085" points="796.737 452.981 798.064 452.981 798.064 367.352 791.547 367.352 791.547 423.976 790.738 423.976 790.651 423.78 765.337 367.352 745.904 367.352 745.904 462.207 752.421 462.207 752.421 373.603 760.964 373.603 796.737 452.981"/><polygon class="42e07213-22ef-427f-92e2-ba7880f3c085" points="762.809 400.753 790.637 462.207 807.557 462.207 807.557 367.352 801.04 367.352 801.04 455.957 794.814 455.957 759.041 376.579 755.399 376.579 755.399 462.207 761.914 462.207 761.914 400.558 762.722 400.558 762.809 400.753"/><path class="42e07213-22ef-427f-92e2-ba7880f3c085" d="M188.862,393.7c0-11.875-7.059-17.647-21.58-17.647H153.6V410.9l12.3.008.032.33v-.33C180.1,410.908,188.862,401.975,188.862,393.7Zm-27.951,11.489V381.773h7.608c4.263,0,7.562,1.084,9.8,3.218,2.142,2.041,3.227,4.941,3.227,8.623,0,6.816-5.74,11.575-13.956,11.575Z"/><path class="42e07213-22ef-427f-92e2-ba7880f3c085" d="M165.91,413.884H153.6v39.628h13.9c15.444,0,23.607-6.925,23.607-20.025C191.11,421.112,181.925,413.966,165.91,413.884Zm3.008,33.906h-8V419.609h6.682c10.3,0,16.208,5.09,16.208,13.959C183.8,442.474,178.238,447.79,168.918,447.79Z"/><path class="42e07213-22ef-427f-92e2-ba7880f3c085" d="M187.525,411.755l-.453-.285.459-.276c7.6-4.587,11.617-11.351,11.616-19.561,0-7.961-2.671-14.084-7.943-18.195-5.175-4.036-12.763-6.083-22.553-6.083H143.317v94.86l26.394,0c20.432,0,31.685-9.656,31.685-27.187C201.4,422.685,196.923,417.689,187.525,411.755ZM167.5,456.49H150.627V373.076h16.656c20.3,0,24.557,11.215,24.557,20.624,0,7.836-6.26,15.286-15.365,18.455,11.371,2.869,17.613,10.408,17.613,21.333C194.087,448.321,184.646,456.49,167.5,456.49Z"/><path class="42e07213-22ef-427f-92e2-ba7880f3c085" d="M425.815,428.209h-7.31v6.017c0,9.691-3.661,13.825-12.237,13.825s-12.237-4.134-12.237-13.825V395.333c0-9.691,3.66-13.825,12.237-13.825s12.237,4.135,12.237,13.825v2.315h7.31v-1.125c0-14.31-6.394-21.267-19.547-21.267s-19.545,6.957-19.545,21.267v36.512c0,14.31,6.393,21.267,19.545,21.267s19.547-6.957,19.547-21.267Z"/><path class="42e07213-22ef-427f-92e2-ba7880f3c085" d="M436.1,397.648c-.021-20.982-10.057-31.621-29.833-31.621-19.795,0-29.833,10.66-29.833,31.685v34.134c0,21.024,10.038,31.684,29.833,31.684s29.833-10.66,29.833-31.684v-3.638h-7.31v4.827c0,16.087-7.577,24.244-22.523,24.244s-22.523-8.157-22.523-24.244V396.523c0-16.087,7.578-24.244,22.523-24.244s22.523,8.157,22.523,24.244v1.125Z"/></svg>