<svg id="842710d1-33f7-4cc1-870b-05be90dc83ff" data-name="Layer 1" xmlns="http://www.w3.org/2000/svg" viewBox="0 0 960 960"><defs><style>.\38 a0568c6-8c5b-44ee-9232-67bb6120c628{fill:#010101;}</style></defs><title>brand-architecture-logo</title><path class="8a0568c6-8c5b-44ee-9232-67bb6120c628" d="M234.861,411.353a3.874,3.874,0,0,0-.418-1.463,2.847,2.847,0,0,0-3.971-1.045L175.3,440.61V387.528h0a3.874,3.874,0,0,0-.418-1.463,3.044,3.044,0,0,0-4.18-1.045l-63.949,36.99h0a5.873,5.873,0,0,0-2.926,5.016V548.656h0a3.874,3.874,0,0,0,.418,1.463,2.847,2.847,0,0,0,3.971,1.045L163.179,519.4V572.48a2.857,2.857,0,0,0,2.926,2.926,3.021,3.021,0,0,0,1.463-.418h0l4.389-2.508a6.153,6.153,0,0,0,2.926-5.225h0V512.71l28.84-16.719a5.958,5.958,0,0,0,2.926-5.225v-5.225h0a3.874,3.874,0,0,0-.418-1.463,2.847,2.847,0,0,0-3.971-1.045l-27.377,15.674V454.4l48.067-27.586V529.429l-12.957,7.523h0a5.958,5.958,0,0,0-2.926,5.225V547.4h0a3.874,3.874,0,0,0,.418,1.463,2.847,2.847,0,0,0,3.971,1.045l20.272-11.7a5.958,5.958,0,0,0,2.926-5.225V411.353ZM115.739,533.191V430.579l47.649-27.586v44.514l-28.84,16.51h0a5.958,5.958,0,0,0-2.926,5.225v5.225h0a3.874,3.874,0,0,0,.418,1.463,2.847,2.847,0,0,0,3.971,1.045L163.388,461.3v44.514Z"/><path class="8a0568c6-8c5b-44ee-9232-67bb6120c628" d="M288.779,457.329V408.636h11.912c9.822,0,14.838,4.18,14.838,12.748,0,4.6-2.09,8.15-6.061,10.031v.209c5.225,1.463,8.15,5.643,8.15,11.285,0,8.359-4.807,14.42-15.674,14.42Zm11.285-28.213c6.479,0,9.2-3.135,9.2-7.523,0-4.807-2.717-6.9-9.2-6.9h-4.807v14.42Zm2.3,21.943c6.479,0,9.2-3.344,9.2-8.359,0-4.807-2.508-8.15-9.2-8.15h-7.105v16.3h7.105Z"/><path class="8a0568c6-8c5b-44ee-9232-67bb6120c628" d="M363.6,457.329l-6.9-15.674a12.852,12.852,0,0,1-2.926.209h-5.225v15.465H342.07V408.636H354.4c10.867,0,15.674,7.523,15.674,16.51,0,6.27-2.508,11.494-7.523,14.42l7.732,17.764Zm-9.613-21.734c6.688,0,9.822-4.18,9.822-10.449,0-6.479-3.344-10.449-9.822-10.449h-5.434v20.9Z"/><path class="8a0568c6-8c5b-44ee-9232-67bb6120c628" d="M415.215,457.329,412.707,447.3H398.914l-2.508,10.031h-6.688l12.539-48.693h6.9l12.539,48.693Zm-8.359-34.065c-.418-1.881-1.045-4.807-1.045-4.807H405.6s-.627,2.926-1.045,4.807l-4.6,18.391h11.076Z"/><path class="8a0568c6-8c5b-44ee-9232-67bb6120c628" d="M467.67,457.329l-17.764-35.736H449.7s.209,2.508.209,4.807v30.93h-5.852V408.636h6.061l15.674,31.139c.836,1.672,1.881,4.18,1.881,4.18h.209c0-.209-.209-3.135-.209-4.807V408.636h5.852v48.693Z"/><path class="8a0568c6-8c5b-44ee-9232-67bb6120c628" d="M500.272,457.329V408.636h11.076c13.166,0,17.764,10.867,17.764,24.242s-4.6,24.242-17.555,24.242H500.272Zm11.494-6.27c7.732,0,11.076-7.523,11.076-18.182S519.5,414.7,511.557,414.7H506.75V451.06Z"/><path class="8a0568c6-8c5b-44ee-9232-67bb6120c628" d="M309.886,534.445l-2.508-9.822H293.586l-2.508,10.031H284.39l12.539-48.693h6.9l12.539,48.693h-6.479Zm-8.15-34.065c-.418-1.881-1.045-4.807-1.045-4.807h-.209s-.627,2.926-1.045,4.807l-4.6,18.391h11.076Z"/><path class="8a0568c6-8c5b-44ee-9232-67bb6120c628" d="M360.461,534.445l-6.9-15.674a12.852,12.852,0,0,1-2.926.209h-5.225v15.465h-6.479V485.96h12.33c10.867,0,15.674,7.523,15.674,16.51,0,6.27-2.508,11.494-7.523,14.42l7.732,17.764h-6.688Zm-9.613-21.525c6.688,0,9.822-4.18,9.822-10.449,0-6.479-3.344-10.449-9.822-10.449h-5.434v20.9Z"/><path class="8a0568c6-8c5b-44ee-9232-67bb6120c628" d="M420.021,525.04c-2.3,6.061-6.9,10.24-14,10.24-12.33,0-16.3-11.7-16.3-25.078s3.971-25.078,16.3-25.078c7.523,0,11.912,4.389,14.211,11.076l-5.643,3.135c-1.463-5.016-4.18-8.15-8.777-8.15-7.314,0-10.031,8.359-10.031,18.809,0,10.658,2.717,18.809,10.031,18.809,4.389,0,7.105-2.926,8.568-7.523Z"/><path class="8a0568c6-8c5b-44ee-9232-67bb6120c628" d="M465.371,534.445V515.009H449.279v19.436H442.8V485.96h6.479v22.988h16.092V485.96h6.479v48.693h-6.479Z"/><path class="8a0568c6-8c5b-44ee-9232-67bb6120c628" d="M498.391,534.445V485.96h6.479v48.693h-6.479Z"/><path class="8a0568c6-8c5b-44ee-9232-67bb6120c628" d="M537.68,534.445V492.021H527.649v-6.27H554.19v6.27H544.158v42.424Z"/><path class="8a0568c6-8c5b-44ee-9232-67bb6120c628" d="M576.969,534.445V485.96h24.66v6.27H583.448v16.719h15.465v6.061H583.448v13.375h18.182v6.061Z"/><path class="8a0568c6-8c5b-44ee-9232-67bb6120c628" d="M655.129,525.04c-2.3,6.061-6.9,10.24-14,10.24-12.33,0-16.3-11.7-16.3-25.078s3.971-25.078,16.3-25.078c7.523,0,11.912,4.389,14.211,11.076l-5.643,3.135c-1.463-5.016-4.18-8.15-8.777-8.15-7.314,0-10.031,8.359-10.031,18.809,0,10.658,2.717,18.809,10.031,18.809,4.389,0,7.105-2.926,8.568-7.523Z"/><path class="8a0568c6-8c5b-44ee-9232-67bb6120c628" d="M684.387,534.445V492.021H674.356v-6.27H700.9v6.27H690.866v42.424Z"/><path class="8a0568c6-8c5b-44ee-9232-67bb6120c628" d="M745.62,485.96H752.1v32.393c0,11.494-5.852,16.928-14.211,16.928-8.568,0-14.42-5.434-14.42-16.928V485.96h6.479v31.766c0,6.479,1.881,11.285,7.941,11.285,6.27,0,7.941-5.016,7.941-11.494V485.96Z"/><path class="8a0568c6-8c5b-44ee-9232-67bb6120c628" d="M799.747,534.445l-6.9-15.674a12.852,12.852,0,0,1-2.926.209H784.7v15.465h-6.479V485.96h12.33c10.867,0,15.674,7.523,15.674,16.51,0,6.27-2.508,11.494-7.523,14.42l7.732,17.764h-6.688Zm-9.613-21.525c6.688,0,9.822-4.18,9.822-10.449,0-6.479-3.344-10.449-9.822-10.449H784.7v20.9Z"/><path class="8a0568c6-8c5b-44ee-9232-67bb6120c628" d="M831.513,534.445V485.96h24.66v6.27H837.991v16.719h15.465v6.061H837.991v13.375h18.182v6.061Z"/></svg>