<svg id="2e6cd828-02db-4875-be22-418465c668ff" data-name="Layer 1" xmlns="http://www.w3.org/2000/svg" viewBox="0 0 960 960"><defs><style>.ab15f55e-0067-42a9-859c-36163221ca8a{fill:#7bc144;}.bf0fb306-bd7b-4e82-a407-a77f91bea06d{fill:#eb0d8c;}.\37 f84610e-25e5-497a-97c9-c8a8fd5ffbac{fill:#1c4596;}.\30 0edcef2-3c1d-493f-8ac8-580335d497f9{fill:#fdc120;}.\30 401a0eb-2904-4f6d-bc97-fe3496e5ce3e{fill:#d2936c;}</style></defs><title>brightwater-suites-logo</title><path class="ab15f55e-0067-42a9-859c-36163221ca8a" d="M453.251,645.6l-2.714,2.455c-1.163-1.421-2.2-2.2-3.231-2.2a1.556,1.556,0,0,0-1.68,1.421,2.889,2.889,0,0,0,.388,1.292,24.734,24.734,0,0,0,2.714,3.1,13,13,0,0,1,1.551,1.809,7.009,7.009,0,0,1,1.292,2.326,6.036,6.036,0,0,1,.388,2.2,5.459,5.459,0,0,1-1.68,4.135,5.946,5.946,0,0,1-4.523,1.68,7.788,7.788,0,0,1-6.72-3.877l2.972-2.326q1.744,2.714,3.877,2.714a2.722,2.722,0,0,0,1.68-.646,2.14,2.14,0,0,0,.646-1.551,2.946,2.946,0,0,0-.388-1.421A14.186,14.186,0,0,0,445.5,654a32.313,32.313,0,0,1-2.714-3.231,6.6,6.6,0,0,1-.9-2.843,4.784,4.784,0,0,1,1.292-3.36,4.976,4.976,0,0,1,4.135-1.809C449.633,642.238,451.7,643.4,453.251,645.6Z"/><path class="ab15f55e-0067-42a9-859c-36163221ca8a" d="M456.611,648.053h3.618l-1.034,7.624a11.931,11.931,0,0,0-.129,1.938,2.722,2.722,0,0,0,.646,1.68,2.8,2.8,0,0,0,1.809.646,2.662,2.662,0,0,0,2.2-.9,7.161,7.161,0,0,0,1.163-3.489l1.034-7.495h3.618l-1.034,8.141a11.1,11.1,0,0,1-1.292,4.264,6.671,6.671,0,0,1-2.326,2.326,7.154,7.154,0,0,1-3.36.775,6.079,6.079,0,0,1-4.394-1.551,5.748,5.748,0,0,1-1.68-4.135,27.3,27.3,0,0,1,.388-4.006Z"/><path class="ab15f55e-0067-42a9-859c-36163221ca8a" d="M473.151,648.053h3.618l-2.068,14.99h-3.618Zm2.455-6.073a2.14,2.14,0,0,1,1.551.646,2.384,2.384,0,0,1,.646,1.551,2.14,2.14,0,0,1-.646,1.551,2.384,2.384,0,0,1-1.551.646,2.14,2.14,0,0,1-1.551-.646,2.384,2.384,0,0,1-.646-1.551,2.14,2.14,0,0,1,.646-1.551A1.739,1.739,0,0,1,475.606,641.979Z"/><path class="ab15f55e-0067-42a9-859c-36163221ca8a" d="M481.163,642.5h3.618l-.775,5.557h2.326l-.388,3.231h-2.326l-1.551,11.888h-3.618l1.68-11.888H478.32l.388-3.231h1.809Z"/><path class="ab15f55e-0067-42a9-859c-36163221ca8a" d="M498.091,658.649l3.231,1.68a10.17,10.17,0,0,1-2.843,2.326,10.067,10.067,0,0,1-4.006.775,7.337,7.337,0,0,1-5.427-1.938,6.919,6.919,0,0,1-1.938-5.169,8.375,8.375,0,0,1,2.455-6.2,8.125,8.125,0,0,1,5.944-2.584,7.012,7.012,0,0,1,3.747.9,6.543,6.543,0,0,1,2.584,2.714,7.8,7.8,0,0,1,.9,3.877,7.416,7.416,0,0,1-.129,1.551H490.6a3.11,3.11,0,0,0,1.034,2.455,3.64,3.64,0,0,0,2.714.9A4.5,4.5,0,0,0,498.091,658.649ZM499,654a3.53,3.53,0,0,0-1.421-2.068,3.608,3.608,0,0,0-2.326-.775,4.255,4.255,0,0,0-2.455.775,4.439,4.439,0,0,0-1.68,2.068Z"/><path class="ab15f55e-0067-42a9-859c-36163221ca8a" d="M515.148,650.12l-1.809,2.843a4.915,4.915,0,0,0-1.421-1.421,3.179,3.179,0,0,0-1.421-.517,1.868,1.868,0,0,0-.9.258.711.711,0,0,0-.388.646c0,.258.129.388.258.646a6.213,6.213,0,0,0,1.551,1.292,14.859,14.859,0,0,1,2.843,2.584,5.266,5.266,0,0,1,.646,2.326,4.342,4.342,0,0,1-1.421,3.1,4.979,4.979,0,0,1-4.006,1.551,6.007,6.007,0,0,1-2.714-.646,11.827,11.827,0,0,1-2.714-2.2l2.326-2.714a4.245,4.245,0,0,0,3.36,2.068,1.58,1.58,0,0,0,1.163-.388.969.969,0,0,0,0-1.551,9.392,9.392,0,0,0-1.809-1.421,9.764,9.764,0,0,1-2.326-2.068,4.116,4.116,0,0,1,.517-5.686,5.061,5.061,0,0,1,3.36-1.163,5.882,5.882,0,0,1,2.584.646A4.894,4.894,0,0,1,515.148,650.12Z"/><path class="ab15f55e-0067-42a9-859c-36163221ca8a" d="M534.144,647.665a6.851,6.851,0,0,1,3.618.9,8.225,8.225,0,0,1,2.584,2.584,8.545,8.545,0,0,1-1.551,9.821,8.375,8.375,0,0,1-6.2,2.455,6.919,6.919,0,0,1-5.169-1.938,6.817,6.817,0,0,1-1.938-5.04,8.57,8.57,0,0,1,2.584-6.332A8.831,8.831,0,0,1,534.144,647.665Zm-.258,3.489a3.866,3.866,0,0,0-3.489,1.68,5.67,5.67,0,0,0-1.163,3.489,3.7,3.7,0,0,0,1.034,2.714,3.608,3.608,0,0,0,2.584,1.034,4.083,4.083,0,0,0,3.489-1.551A5.777,5.777,0,0,0,537.5,654.9a3.924,3.924,0,0,0-1.034-2.714A3.608,3.608,0,0,0,533.885,651.154Z"/><path class="ab15f55e-0067-42a9-859c-36163221ca8a" d="M545.386,648.053H549l-.258,1.551a6.436,6.436,0,0,1,4.394-1.938,4.414,4.414,0,0,1,4.523,4.394c0,.646-.129,1.421-.258,2.584l-1.163,8.4h-3.618l1.163-8.27a11.931,11.931,0,0,0,.129-1.938,1.788,1.788,0,0,0-1.938-1.938,3.088,3.088,0,0,0-1.809.646,4.06,4.06,0,0,0-1.421,1.809,15.409,15.409,0,0,0-.9,4.264l-.646,5.3h-3.618Z"/><path class="ab15f55e-0067-42a9-859c-36163221ca8a" d="M588.675,645.468l-2.714,2.584a6.757,6.757,0,0,0-2.2-1.551,6.954,6.954,0,0,0-2.843-.517,9.772,9.772,0,0,0-4.135,1.034,7.885,7.885,0,0,0-2.972,2.843,6.73,6.73,0,0,0-1.034,3.877,6.344,6.344,0,0,0,1.938,4.652,6.957,6.957,0,0,0,4.91,1.809,9.227,9.227,0,0,0,5.557-1.809l2.2,2.972a13.371,13.371,0,0,1-8.012,2.455,11.258,11.258,0,0,1-5.427-1.163,8.16,8.16,0,0,1-3.618-3.618A9.891,9.891,0,0,1,568.9,654a11.415,11.415,0,0,1,1.551-5.686,11.6,11.6,0,0,1,4.394-4.264,12.006,12.006,0,0,1,5.944-1.551A9.532,9.532,0,0,1,588.675,645.468Z"/><path class="ab15f55e-0067-42a9-859c-36163221ca8a" d="M592.681,642.238H596.3l-2.843,20.8h-3.618Z"/><path class="ab15f55e-0067-42a9-859c-36163221ca8a" d="M608.317,658.649l3.231,1.68a10.17,10.17,0,0,1-2.843,2.326,10.067,10.067,0,0,1-4.006.775,7.337,7.337,0,0,1-5.427-1.938,6.919,6.919,0,0,1-1.938-5.169,8.375,8.375,0,0,1,2.455-6.2,8.125,8.125,0,0,1,5.944-2.584,7.012,7.012,0,0,1,3.747.9,6.543,6.543,0,0,1,2.584,2.714,7.8,7.8,0,0,1,.9,3.877,7.416,7.416,0,0,1-.129,1.551H600.822a3.11,3.11,0,0,0,1.034,2.455,3.64,3.64,0,0,0,2.714.9A4.367,4.367,0,0,0,608.317,658.649ZM609.351,654a3.53,3.53,0,0,0-1.421-2.068,3.608,3.608,0,0,0-2.326-.775,4.255,4.255,0,0,0-2.455.775,4.439,4.439,0,0,0-1.68,2.068Z"/><path class="ab15f55e-0067-42a9-859c-36163221ca8a" d="M628.346,648.053h3.747l-2.068,14.99h-3.618l.258-1.551a6.91,6.91,0,0,1-2.2,1.551,6.26,6.26,0,0,1-2.326.388,6.015,6.015,0,0,1-4.781-2.2,8.117,8.117,0,0,1-1.809-5.169,8.836,8.836,0,0,1,1.163-4.264,9.764,9.764,0,0,1,2.972-3.1,7.574,7.574,0,0,1,4.006-1.163,5.882,5.882,0,0,1,2.584.646,5.181,5.181,0,0,1,1.938,1.809ZM622.79,660.2a4.463,4.463,0,0,0,2.326-.646,4.192,4.192,0,0,0,1.68-1.938,5.1,5.1,0,0,0,.646-2.584,4.023,4.023,0,0,0-1.034-2.843,3.256,3.256,0,0,0-2.714-1.034,4.692,4.692,0,0,0-3.36,1.421,5.17,5.17,0,0,0-1.421,3.747,3.577,3.577,0,0,0,3.877,3.877Z"/><path class="ab15f55e-0067-42a9-859c-36163221ca8a" d="M635.066,648.053H638.3l-.258,2.068c1.034-1.68,2.2-2.455,3.489-2.455a3.041,3.041,0,0,1,1.034.258l-1.292,3.36a1.4,1.4,0,0,0-.646-.129,2.172,2.172,0,0,0-1.938,1.292,12.279,12.279,0,0,0-1.292,5.04l-.775,5.686h-3.747Z"/><path class="ab15f55e-0067-42a9-859c-36163221ca8a" d="M643.078,648.053h3.489l2.068,8.012,4.394-8.012h1.421l2.068,8.012,4.394-8.012h3.877l-8.141,14.99h-1.809l-2.068-7.883-4.264,7.883h-1.68Z"/><path class="ab15f55e-0067-42a9-859c-36163221ca8a" d="M678.614,648.053h3.747l-2.068,14.99h-3.618l.258-1.551a6.91,6.91,0,0,1-2.2,1.551,6.26,6.26,0,0,1-2.326.388,6.015,6.015,0,0,1-4.781-2.2,8.117,8.117,0,0,1-1.809-5.169,8.836,8.836,0,0,1,1.163-4.264,9.764,9.764,0,0,1,2.972-3.1,7.574,7.574,0,0,1,4.006-1.163,5.882,5.882,0,0,1,2.584.646,5.181,5.181,0,0,1,1.938,1.809ZM673.057,660.2a4.463,4.463,0,0,0,2.326-.646,4.192,4.192,0,0,0,1.68-1.938,5.1,5.1,0,0,0,.646-2.584,4.023,4.023,0,0,0-1.034-2.843,3.256,3.256,0,0,0-2.714-1.034,4.692,4.692,0,0,0-3.36,1.421,5.17,5.17,0,0,0-1.421,3.747,4.258,4.258,0,0,0,1.034,2.843A4.8,4.8,0,0,0,673.057,660.2Z"/><path class="ab15f55e-0067-42a9-859c-36163221ca8a" d="M687.013,642.5h3.618l-.775,5.557h2.326l-.388,3.231h-2.326l-1.551,11.888H684.3l1.68-11.888h-1.938l.388-3.231h1.809Z"/><path class="ab15f55e-0067-42a9-859c-36163221ca8a" d="M703.941,658.649l3.231,1.68a10.17,10.17,0,0,1-2.843,2.326,10.067,10.067,0,0,1-4.006.775,7.337,7.337,0,0,1-5.427-1.938,6.919,6.919,0,0,1-1.938-5.169,8.375,8.375,0,0,1,2.455-6.2,8.125,8.125,0,0,1,5.944-2.584,7.012,7.012,0,0,1,3.747.9,6.543,6.543,0,0,1,2.584,2.714,7.8,7.8,0,0,1,.9,3.877,7.416,7.416,0,0,1-.129,1.551H696.446a3.11,3.11,0,0,0,1.034,2.455,3.64,3.64,0,0,0,2.714.9A4.367,4.367,0,0,0,703.941,658.649ZM704.975,654a3.53,3.53,0,0,0-1.421-2.068,3.608,3.608,0,0,0-2.326-.775,4.255,4.255,0,0,0-2.455.775,4.439,4.439,0,0,0-1.68,2.068Z"/><path class="ab15f55e-0067-42a9-859c-36163221ca8a" d="M712.082,648.053h3.231l-.258,2.068c1.034-1.68,2.2-2.455,3.489-2.455a3.041,3.041,0,0,1,1.034.258l-1.292,3.36a1.4,1.4,0,0,0-.646-.129,2.172,2.172,0,0,0-1.938,1.292,12.279,12.279,0,0,0-1.292,5.04l-.775,5.686h-3.747Z"/><path class="ab15f55e-0067-42a9-859c-36163221ca8a" d="M730.948,642.755h3.1a11.3,11.3,0,0,1,4.264.646,4.562,4.562,0,0,1,2.2,1.938,5.679,5.679,0,0,1,.9,2.843,5.345,5.345,0,0,1-.646,2.455,5.181,5.181,0,0,1-1.809,1.938,5.936,5.936,0,0,1,2.714,5.04,5.028,5.028,0,0,1-.9,2.972,4.562,4.562,0,0,1-2.2,1.938,9.067,9.067,0,0,1-3.618.646h-6.978Zm1.551,16.8,2.326.129a3.993,3.993,0,0,0,2.455-.646,2.168,2.168,0,0,0,.775-1.809,2.483,2.483,0,0,0-.517-1.551,2.954,2.954,0,0,0-1.292-.9,14.178,14.178,0,0,0-3.1-.258Zm1.163-8.658h.646a6.637,6.637,0,0,0,2.068-.258,1.545,1.545,0,0,0,.9-.9,2.6,2.6,0,0,0,.388-1.421,1.58,1.58,0,0,0-.388-1.163,1.5,1.5,0,0,0-.9-.646,9.247,9.247,0,0,0-2.2-.129Z"/><path class="ab15f55e-0067-42a9-859c-36163221ca8a" d="M755.5,658.649l3.231,1.68a10.17,10.17,0,0,1-2.843,2.326,10.067,10.067,0,0,1-4.006.775,7.337,7.337,0,0,1-5.427-1.938,6.919,6.919,0,0,1-1.938-5.169,8.375,8.375,0,0,1,2.455-6.2,8.125,8.125,0,0,1,5.944-2.584,7.012,7.012,0,0,1,3.747.9,6.543,6.543,0,0,1,2.584,2.714,7.8,7.8,0,0,1,.9,3.877,7.416,7.416,0,0,1-.129,1.551H748.006a3.11,3.11,0,0,0,1.034,2.455,3.64,3.64,0,0,0,2.714.9A4.644,4.644,0,0,0,755.5,658.649Zm.9-4.652a3.53,3.53,0,0,0-1.421-2.068,3.608,3.608,0,0,0-2.326-.775,4.255,4.255,0,0,0-2.455.775,4.439,4.439,0,0,0-1.68,2.068Z"/><path class="ab15f55e-0067-42a9-859c-36163221ca8a" d="M775.4,648.053h3.747l-2.068,14.99h-3.618l.258-1.551a6.91,6.91,0,0,1-2.2,1.551,6.26,6.26,0,0,1-2.326.388,6.015,6.015,0,0,1-4.781-2.2,8.117,8.117,0,0,1-1.809-5.169,8.836,8.836,0,0,1,1.163-4.264,9.764,9.764,0,0,1,2.972-3.1,7.574,7.574,0,0,1,4.006-1.163,5.882,5.882,0,0,1,2.584.646,5.181,5.181,0,0,1,1.938,1.809ZM769.844,660.2a4.463,4.463,0,0,0,2.326-.646,4.192,4.192,0,0,0,1.68-1.938,5.1,5.1,0,0,0,.646-2.584,4.023,4.023,0,0,0-1.034-2.843,3.256,3.256,0,0,0-2.714-1.034,4.692,4.692,0,0,0-3.36,1.421,5.17,5.17,0,0,0-1.421,3.747A4.258,4.258,0,0,0,767,659.166,4.8,4.8,0,0,0,769.844,660.2Z"/><path class="ab15f55e-0067-42a9-859c-36163221ca8a" d="M796.722,651.154l-3.1,1.68a4.245,4.245,0,0,0-3.618-1.68,6.007,6.007,0,0,0-2.714.646,4.082,4.082,0,0,0-1.809,1.809,4.54,4.54,0,0,0-.646,2.584,4.258,4.258,0,0,0,1.034,2.843,4.36,4.36,0,0,0,2.972,1.034,4.751,4.751,0,0,0,4.006-1.809l2.843,2.068a8.183,8.183,0,0,1-3.1,2.326,10.265,10.265,0,0,1-4.135.775,7.868,7.868,0,0,1-5.557-1.938,7,7,0,0,1-2.068-5.169,8.375,8.375,0,0,1,2.455-6.2,8.866,8.866,0,0,1,6.461-2.584C793.1,647.665,795.3,648.828,796.722,651.154Z"/><path class="ab15f55e-0067-42a9-859c-36163221ca8a" d="M801.891,642.238h3.618l-1.034,7.366a6.436,6.436,0,0,1,4.394-1.938,4.414,4.414,0,0,1,4.523,4.394c0,.646-.129,1.421-.258,2.584l-1.163,8.4h-3.618l1.163-8.27a11.934,11.934,0,0,0,.129-1.938,1.788,1.788,0,0,0-1.938-1.938,3.088,3.088,0,0,0-1.809.646,4.06,4.06,0,0,0-1.421,1.809,15.409,15.409,0,0,0-.9,4.264l-.775,5.3h-3.747Z"/><path class="bf0fb306-bd7b-4e82-a407-a77f91bea06d" d="M184.987,571.941c9.046,2.326,13.7,6.849,13.7,13.31v29.2c0,11.5-6.332,17.316-18.866,17.316H146.479v-116.3h28.3c14.731,0,22.1,6.978,22.1,21.063V558.89c0,6.72-4.006,10.855-11.888,12.276Zm-21.968-7.495h7.753c6.332,0,9.562-2.843,9.562-8.4V537.956c0-5.557-2.455-8.4-7.366-8.4h-9.821v34.89Zm0,53.11h12.405q6.59,0,6.59-5.04V586.8c0-5.557-3.231-8.27-9.821-8.27h-9.175Z"/><path class="bf0fb306-bd7b-4e82-a407-a77f91bea06d" d="M212.511,515.342h32.435c12.664,0,19,6.59,19,19.9v28.687c0,10.209-3.231,16.54-9.821,19.254l11.63,48.458H249.986l-10.855-46.907H229.052v46.907h-16.54Zm16.54,56.082h10.855c4.91,0,7.366-2.843,7.366-8.4V537.956c0-5.557-2.455-8.4-7.366-8.4H229.052Z"/><path class="bf0fb306-bd7b-4e82-a407-a77f91bea06d" d="M277.768,631.642v-116.3h16.54v116.3Z"/><path class="bf0fb306-bd7b-4e82-a407-a77f91bea06d" d="M335.4,589V574.913h25.2v56.728H328.165c-12.793,0-19.125-6.59-19.125-19.642V535.242c0-13.31,6.332-19.9,19.125-19.9h11.372c14.085,0,21.063,6.72,21.063,20.288v12.664h-16.54V537.956c0-5.557-2.326-8.4-7.107-8.4h-4.135c-4.781,0-7.236,2.843-7.236,8.4v71.2c0,5.557,2.455,8.4,7.236,8.4h11.242V589Z"/><path class="bf0fb306-bd7b-4e82-a407-a77f91bea06d" d="M411,631.642V578.919H390.708v52.722h-16.54v-116.3h16.54V564.7h20.417V515.342h16.54v116.3Z"/><path class="bf0fb306-bd7b-4e82-a407-a77f91bea06d" d="M469.662,529.427V631.642h-16.54V529.427H437.228V515.342h48.329v14.085Z"/><path class="bf0fb306-bd7b-4e82-a407-a77f91bea06d" d="M581.7,515.342l-18.349,116.3H545.386l-10.209-67.324L525.1,631.642H507.137l-18.349-116.3H505.2l11.759,87.1,11.759-87.1h12.922l11.888,87.1,11.759-87.1Z"/><path class="bf0fb306-bd7b-4e82-a407-a77f91bea06d" d="M605.216,631.642h-16.54v-96.4c0-13.31,6.59-19.9,19.9-19.9h12.405c13.181,0,19.9,6.59,19.9,19.9v96.4h-16.54V589H605.216Zm19-56.728V536.276c0-4.523-2.455-6.849-7.236-6.849h-4.523c-4.781,0-7.236,2.326-7.236,6.849v38.637Z"/><path class="bf0fb306-bd7b-4e82-a407-a77f91bea06d" d="M681.844,529.427V631.642H665.3V529.427H649.41V515.342h48.329v14.085Z"/><path class="bf0fb306-bd7b-4e82-a407-a77f91bea06d" d="M707.172,631.642v-116.3h41.092v14.085H723.712V564.7h21.709V578.79H723.712v38.637h24.552v14.085H707.172Z"/><path class="bf0fb306-bd7b-4e82-a407-a77f91bea06d" d="M760.282,515.342h32.435c12.664,0,19,6.59,19,19.9v28.687c0,10.209-3.231,16.54-9.821,19.254l11.63,48.458H797.756L786.9,584.734H776.822v46.907h-16.54Zm16.54,56.082h10.855c4.91,0,7.366-2.843,7.366-8.4V537.956c0-5.557-2.455-8.4-7.366-8.4H776.822Z"/><path class="7f84610e-25e5-497a-97c9-c8a8fd5ffbac" d="M507.783,471.536l-2.2-1.68-2.2-1.551-1.938-1.292-1.809-1.292-1.809-1.034-1.551-.9-1.421-.646-1.421-.646-1.163-.388-1.163-.258-.9-.258-.775-.129h-.775l-.646.129-.517.129-.388.258-.258.258-.129.517v.9l.129.517.258.646.258.646.388.646.517.646.646.775.646.646.775.646.9.646.9.646,1.034.646,1.034.517,1.034.646.775.646.388.517.129.517-.129.517-.388.388-.646.388-.775.388-1.034.258-1.292.258-1.421.258-1.551.258-1.68.129h-1.938l-2.068.129H474.7l-2.326-.129-2.326-.258-2.326-.258-2.326-.388-2.2-.258L461,474.9l-2.2-.517-2.068-.388-2.068-.517-1.938-.517-1.68-.646-1.551-.646-1.421-.775.9,1.163,1.292,1.034,1.68.9,1.938,1.034,2.2.9,2.455.9,2.584.9,2.972.775,2.972.775,3.231.646,3.231.646,3.231.517,3.36.517,3.36.388,3.231.258,3.231.258,3.231.129,2.972.129H499l2.714-.129,2.455-.258,2.2-.258,1.938-.517,1.551-.646,1.292-.646.9-.9.517-.9.129-1.034-.388-1.292-.9-1.421-1.421-1.421-2.2-1.809ZM628.6,408.864l-3.36-1.551-2.972-1.292-2.843-1.163-2.714-1.034-1.292-.517-1.292-.517-1.292-.388-1.292-.388-1.292-.388-1.292-.258-1.292-.129-1.292-.129-1.292-.129-1.421-.129h-2.843l-1.551.129-1.551.129-1.551.129-1.68.258-1.68.388-1.809.388-1.938.517-1.938.517-4.394,1.292-4.91,1.551-2.326.9-1.938.775-1.551.775-1.163.775-.775.646-.517.775-.258.775v.646l.258.646.388.646.646.646.775.646.9.646,1.034.517,1.163.646,1.292.517,2.714,1.034,2.714,1.034,2.584,1.034,2.326.9,1.034.388.775.517.646.388.517.517.258.388v.388l-.258.388-.517.388-.775.388-1.163.129h-1.421l-1.68-.129-1.809-.258-2.068-.388-2.326-.517-2.455-.517-5.427-1.421-5.815-1.68-6.073-1.938-6.332-1.938-6.332-1.938-6.2-1.938-5.944-1.68-5.427-1.551-2.455-.646-2.326-.517-2.2-.517-1.938-.388-1.809-.258-1.551-.129h-1.292l-.9.258-.646.258-.388.388-.129.388.129.388.258.388.517.517.646.517.775.517.9.517,1.034.517,1.163.646,1.163.646,2.584,1.292,2.714,1.292,2.714,1.292,2.584,1.163,1.163.646,1.163.517.9.517.775.646.646.517.517.517.388.517.129.388v.517l-.258.388-.517.388-.775.388-1.034.258-1.034.129-1.034.129-1.163.129h-3.36l-1.163-.129-2.455-.258-2.455-.388-2.455-.517-2.455-.388-2.455-.517-2.455-.388-2.326-.388-2.2-.258-1.163-.129h-3.1l-.9.129-.9.129-.775.258-.775.258-.646.258-.517.388-.388.388-.129.388-.129.388v.388l.129.517.258.388.388.517.517.517.517.517.517.517,1.292,1.163,1.551,1.292,1.68,1.292,1.809,1.421,1.68,1.551,1.551,1.68.775.9.646.9.646.9.646.9.517,1.034.517.9.388,1.034.258,1.034v.9l-.388.775-.775.646-1.163.517-1.551.388-1.809.258H501.58L499,446.209l-2.843-.258-2.972-.258-3.231-.517-3.36-.517-3.489-.646-3.618-.646-3.747-.646-7.624-1.421-7.624-1.551-7.495-1.68-7.236-1.551-6.72-1.551-6.073-1.292-5.3-1.034-4.264-.775-1.68-.258-1.421-.129-1.034-.129h-1.421l-.388.258-.129.129-.129.129v.775l.129.388.258.388.258.517.775,1.034L419.654,436l2.326,2.326,2.455,2.714.517.646.517.646.517.775.388.646.388.775.388.775.258.775.129.775v1.551l-.129.775-.258.775-.388.775-.517.775-.646.775-.775.775-1.292,1.034-1.551.775-1.809.646-2.068.517-2.326.388-2.584.258-2.714.129h-2.972l-3.1-.129-3.231-.258-3.36-.258-3.36-.388-3.489-.517-3.618-.517-3.618-.646-3.747-.775-3.618-.775-3.618-.775-3.618-.9-3.618-.9-3.489-1.034-3.489-1.034-3.36-1.034-3.231-1.163-3.1-1.034-2.972-1.034-2.843-1.163-2.714-1.034-2.455-1.163-2.2-1.034-1.938-1.034-1.68-1.034,1.292,1.68,1.551,1.68,2.068,1.809,2.326,1.68,2.714,1.809,2.972,1.809,3.231,1.938,3.489,1.809,3.747,1.68,4.006,1.809,4.135,1.68,4.264,1.68,4.394,1.551,4.523,1.421,4.523,1.421,4.652,1.292,4.652,1.163,4.523,1.034,4.523.9,4.523.775,4.394.775,4.264.517,4.264.388,4.135.129h3.877l3.618-.258,3.489-.388,3.1-.517,2.843-.775,2.584-1.034,2.326-1.292,1.809-1.551,1.551-1.68,1.292-1.551.9-1.551.646-1.421.388-1.421.129-1.292v-1.292l-.258-1.163-.388-1.034-.517-1.163-.646-.9-.775-.9-.9-.9-.9-.775-.9-.646-.9-.646-1.809-1.163-1.68-.9-1.292-.646-.775-.388-.129-.129h.517l.517.129,1.938.388,3.231.517,4.523.9,5.686,1.163,6.461,1.421,7.236,1.551,7.753,1.68,8.141,1.68,8.27,1.551,8.141,1.551,4.006.646,3.877.646,3.747.517,3.618.517,3.489.388,3.231.388,3.1.129,2.843.129h2.584l2.2-.129,1.938-.129,1.551-.388,1.292-.388.9-.646.388-.775v-.9L538.8,453.7l-.388-1.034-.517-1.034-.646-1.034-1.809-.646-.9-.9-.9-.9-1.034-.775-1.034-.9-1.034-.9-1.163-.775-1.163-.775-2.326-1.421-2.326-1.421-2.2-1.292-1.938-1.163-.9-.646-.9-.517-.775-.517-.646-.517-.517-.517-.388-.517-.258-.517v-.775l.258-.388.388-.388.646-.258.775-.258.775-.258.9-.129.9-.129h3.1l1.034.129,2.2.388,2.326.388,2.455.388,2.455.517,2.455.517,2.584.388,2.455.388,2.455.258,1.163.129h4.523l1.034-.129,1.034-.258.9-.258.775-.388.517-.388.388-.517.129-.517v-.646l-.129-.646-.388-.646-.517-.646-.646-.775-.775-.775-.775-.775-.9-.775-1.938-1.421-2.068-1.551-1.938-1.421-1.809-1.292-1.421-1.163-1.034-.9-.388-.388-.258-.258v-.258l.258-.129.388-.129h1.551l1.163.129,1.292.388,1.421.388,1.68.517,1.809.517,3.877,1.292,4.264,1.421,4.652,1.551,4.781,1.68,5.04,1.68,5.04,1.68,5.04,1.551,4.781,1.421,2.455.646,2.326.646,2.2.517,2.2.517,2.068.388,1.938.258,1.809.258,1.68.129h1.551l1.421-.129,1.292-.258,1.034-.388.9-.388.775-.517.646-.517.388-.517.258-.646.129-.646V431.09l-.258-.646-.258-.775-.388-.646-.388-.646-1.163-1.421-1.292-1.551-1.421-1.421-1.421-1.551-1.292-1.421-1.163-1.421-.517-.646-.388-.646-.258-.646-.258-.646-.129-.646v-.646l.129-.517.258-.517.646-1.034.775-.9.775-.9.9-.775.517-.388.517-.388.517-.388.517-.258,1.292-.517,1.421-.388,1.551-.258,1.809-.258,2.068-.129,2.2-.129h2.584l2.843.129,3.1.258,4.006.517Z"/><path class="00edcef2-3c1d-493f-8ac8-580335d497f9" d="M444.206,367.254l1.551.258L446.4,367l.517-.388-.388-1.163-.9-1.163-.388-.646-.517-.129-1.938-1.292-2.455-.9-2.455-.9-2.455-.9-2.068-.258-2.455-.9-.388-.646-.517-.129L429.6,356.4l.129-.517.517.129.517-.388,1.034-.388,1.034.129,1.551-.258.517.129.517.129.517-.388,1.034.129.129-.517.517.129.517-.388.517-.388.517-.388.517-.388.646-.517.129-.517.646-.388.517-.388.517-.388.646-.517,1.163-.388.517-.388,1.034.129.646-.388.646-.388.646-1.034.129-.517-.9-.646-.517-.646-.388-.646-1.034-.129-1.034-.129-1.551.388-1.034-.129-1.034.388-1.034.388-1.68.258-1.034.388-1.68.388-1.68.258-1.551.258-.517-.129-.517-.129-.517.388-.517-.129-.517-.129-.388-.646-.517-.646.129-.517.646-.517.517-.388.129-.517.517.129.129-.517.517-.388.646-.517.517.129.129-.517.258-1.421.517-.388.646-.517.517-.388.646-.388.129-.517.517-.388.646-.517.517-.388.517-.388.129-1.034,1.163-.9.775-1.421.775-1.551-.388-.646-1.034-.129-.517-.129-1.034.388-1.68.258-1.034.388-1.034.388-.646.388-1.034.388-.517-.129-.517.388-.646.388-1.292.388-.517-.129-.646.388-.646.388-1.034.388-.517.388-.646.517-.517-.129-.517.388-.129.517-.517-.129-.517.388-.517-.129-.517-.129-.517-.129.129-1.034.129-1.034.646-.9.646-.9.646-.517.517-.388.646-.9.517-.388.129-1.034.129-.517.129-1.034.129-1.034.129-.517.129-1.034.129-1.034.129-.517.129-1.034.646-.388.129-.517.646-.9.517-.388.129-.517.646-.517v-1.034l.129-.517.129-1.034-.517-.129-.388-.646-.517.388-1.163.388-1.034.388-1.163.388-1.163.9-.646.517-.646.9-.775,1.034-.258,1.551-.646.9L419.4,325l-.129,1.034-.517.388-.129,1.034-.646.517-.517.388-.646.388-.517.388-1.163.9-.517-.129-.646.388-.646.388-.646.388-.388-.646-.258-2.2.258-2.068-.258-2.2-1.163-2.843-.129-3.231.388-3.231.129-.517.129-.517.129-.517-.388-1.163.129-.517-.517-.129.129-.517-1.034-.129-.129.517-.517-.129-.9,3.1-1.034,3.1-.9,3.1-.9,2.584-.775,1.938-.9,2.584-.9,2.068-.517.388-.646.517.129-.517-.9-1.163-.9-1.163.258-1.551-.388-.646.129-1.034.129-.517-.388-.646.129-1.034-.388-.646.129-.517-.517-.646-.388-.646.129-.517-.388-.646-.388-.646-.388-.646-.517-.646-.388-.646-.388-1.163-.388-1.163-.9-1.163-.388-1.163-.517-.129.129-.517-.517-.129-1.292,1.421-.258,1.551L392,315.049l-.129,1.034-.129,1.034-.129,1.034.517.646.388,1.163-.129,1.034.388.646.388,1.163.388,1.163-.775,1.421-.258,1.551L392,329.78l.129,2.714-.129.517-.517-.129-.517-.129-.388-.646-.388-.646-.517-.646-.388-.646-.517-.129-.388-.646-.388-.646-.517-.646-.388-.646-.517-.129-1.034-.129-.517-.646-.388-.646-.517-.129-.388-1.163-.517-.129-.517-.646-.388-.646-.388-.646-.388-.646-.388-.646-.517-.129-.388-.646-.388-.646-.388-.646-.517-.129-.517-.646-.388-.646-.517-.129-.517-.129-.517-.129-.129.517-.129,1.034.388.646.388.646-.129.517.388,1.163.388,1.163.517.646.388,1.163.388,1.163.388.646-.129.517-.129,1.292.388.646-.129.517.517.646-.129.517.388.646.388.646-.129.517.388.646.388.646-.129.517.388,1.163.388.646.388.646.517.129-.129.517-.129.517-.129.517-1.034-.129-.388-.646-1.034-.646-.388-.646-1.421-1.292-1.421-.775-1.551-.775-1.551-.258-1.551-.775-1.034-.129-1.551-.258-.9-.646-1.034-.646-1.034-.129-.9-.646-.517-.646-1.034-.129-.517-.129-.517-.129-.129.517-.129,1.034-.129.517-.129.517.388.646.388,1.163-.129.517.517.129.388.646.517.646.388.646.388.646.388.646.388.646,1.034.646.388.646.9.646,1.034.129.388.646.9.646.517.646.388.646.388.646.388.646.517.129.388.646.517.646.388.646.388.646.388.646-.129.517-.129.517-.517.388-1.551-.258-1.551-.258L369,348l-1.551-.258-1.034-.129-.646.388-1.034-.129-1.163.388-1.034-.129L361.5,348l-2.068-.258-2.2.258-2.2.258-.646.388-.646.388-.129.517.9.646,1.551.775,1.421.775,1.034.129,1.034.129.388.646,1.034.775.517.129.517.129,2.455.9,2.455.9,2.455.9,1.938,1.292.388.646-.129.517-2.2.775-2.584-.388-2.2.775-.517-.129-1.034.388-.517.388-.646.388-.517.388-1.034.388-.646.9-.646.388-.517.388-1.034.388-.517.388-.646.388-1.034-.129-.517.388-.517.388-1.034-.129-1.034.388-.129.517-.129,1.034.388,1.163,1.551.775.9.646,1.034.129,1.034.129,1.034.129,1.163-.388,1.034.129,1.034-.388,2.455-.9,1.034-.388.517-.388,2.326-1.292,1.68-.258,2.068-.258,1.551.775,1.421.775,2.068.258-.129.517-.646.388-.517.388-.517-.129-.646.9-.517-.129-.646.517-.129.517-.517.388-.129.517-.517.388-.646.517-.129.517-.517.388-.129.517-.517.388-.646.517-.646.9-.517.388-.646.388-.129.517-.646.388-.517.388-.517.388-.517.388-.129.517-.646.9-.129.517-.129.517-.129.517-.129,1.034.517.646.517.129.646-.388.517.129.517-.388.646-.388,1.034.129.646-.517.517-.388.517-.388.517.129.646-.388.517-.388.646-.517,3.36-1.163.646-.388.646-.517,1.034-.388.517-.388.646-.388.517-.388,1.034.129.646-.517,1.163-.388.388.646-.129.517.517.129-.517-.129-.129.517-.129.517-.517-.129-.129.517-.517.388-.646.517-.129.517-.517.388-.517.388.129,1.034-.517.517-1.292,1.938-.775,1.421-.258,1.551-.129,1.034-.129.517-.129,1.034-.129.517.388.646-.129,1.034-.129.517-.129,1.034-.129.517-.646.9-.129.517-.646.388-.129.517-.129.517.517.129.388.646.517.129,1.034-.388.517-.388.517.129.129-.517,1.163-.388.646-.517.646-.388.517-.388.646-.388.517-.388.517-.517.646-.9.129-.517.517-.388.646-.517.129-1.034.129-.517.9-2.584,1.68-.775.646-.517.517-.388.517-.388.646-.9.129-.517.517-.388.517.129.517.129.388.646-.129,1.034-.258,1.551-.646,1.034-.129,1.034.258,1.68-.129,1.034-.129,1.034.388,1.163.388,1.163-.129,1.034-.258,1.551-.129,1.034-.129,1.034-.129,1.034.517.646.388,1.163.388,1.163.388.646.517.129,1.034.129,1.292-1.938.775-2.068,1.421-2.455.129-1.034.258-2.068.775-1.551.646-.9.775-2.068.258-2.068.775-1.938.129-.517.517-.388.517-.388.9,1.163.258,2.2-.258,1.551.258,1.68.258,1.68.258,1.68.517.129.517.646.388.646.388.646.388.646.388.646.388.646-.129.517.517.646-.129,1.034.388.646.388.646-.129.517.388.646.388.646-.129.517.517.129.388.646,1.551-.258,1.292-1.421.129-1.034.258-1.551.129-1.034-.388-1.163.129-1.034-.388-1.163.258-1.551L411.383,394,411,392.84l-.388-1.163-.775-2.326.388-2.584.388-2.584.646-.388.517.129-.129.517.517.129.388.646.388.646,1.034.775-.129.517.388.646.388.646.388.646.517.646.517.129.388.646.388.646.517.129.517.646.388.646.517.129.388.646.388.646.517.646.388.646.388.646-.129.517.388.646.388.646.517.129.9,1.163.9.646,1.551.258.517.129.517-.388.646-.9.129-.517-.517-.646.129-.517-.388-.646.129-1.034-.388-.646-.388-.646-.9-1.163-.388-.646-.388-1.163.129-.517-.388-.646-.388-1.163-.517-.646-.388-.646-.388-1.163-.388-.646-.388-1.163-.517-.646-.388-1.163-.388-.646.129-1.034-.388-.646-.388-1.163-.388-1.163.129-.517.517.129,1.034.129.517.129.388.646.517.129.388.646.388.646.517.129.388.646.517.646.517.129.388.646.388.646.517.129,1.034.646,1.938.9,2.972.9,2.455.9,1.421.775,1.034.646,1.034.129,1.034.129.129-.517.517-.388.129-1.034-.388-.646.129-.517-.517-.646-.388-.646-.388-.646-.388-.646-.388-.646.129-.517-1.034-.646-.388-.646-.388-.646-.388-.646-.517-.129-1.034-.129-.388-.646-.517-.129-.517-.646-.388-.646-1.034-.129-.388-.646-.517-.646-.517-.129-.388-.646-.388-.646-.388-.646-.388-1.163-1.034-.129-.388-1.163-.388-.646.129-.517.517-.388,5.3.258,5.3.258,6.72-2.067ZM362.15,351.748l82.573,11.759L362.15,351.748Z"/><path class="0401a0eb-2904-4f6d-bc97-fe3496e5ce3e" d="M526.649,347.225l.9-1.938-9.821,1.163-6.332.129-1.163,2.2-1.292,2.2-1.292,2.2-1.292,2.326-1.292,2.326-1.292,2.455-1.292,2.455-1.421,2.584,1.163.646,1.163.646,1.292.517,1.163.517,1.163.388,1.163.388,1.163.258,1.163.258,1.292-2.068,1.292-2.068,1.292-1.938,1.163-1.809,1.163-1.68,1.163-1.68,1.034-1.551,1.034-1.421,1.034-1.292.9-1.163.9-1.034.9-1.034.9-.9.775-.775.775-.646.517-.646Zm-17.316,23-.517-.129-.646-.129-.517-.129-.517-.129-1.163-.258-1.163-.388-1.163-.517-1.163-.517-1.163-.517-1.163-.646-.388.775-.388.775-.388.775-.388.775,1.163.517,1.163.517,1.163.388,1.163.388,1.163.258,1.163.258,1.163.129,1.034.129.388-.646.388-.646.388-.646.388-.388Zm-2.843,5.04h-1.163l-.517-.129-.646-.129-1.034-.258-1.163-.258L500.8,374.1l-1.163-.388-1.163-.517-1.163-.517-.9,1.809-.9,1.68-.9,1.68-.9,1.68-.9,1.68-.9,1.68-.9,1.809-.9,1.938.517.388.517.388.517.258.517.258.517.258.517.258.517.258.517.258,1.163.258,1.034.258,1.034.258,1.034.129,1.034-1.938,1.034-1.938,1.034-1.809,1.034-1.809,1.034-1.809,1.034-1.809,1.034-1.68.775-1.809Zm-9.175,17.057-.646-.129-.646-.129-.646-.129-.517-.129-1.163-.388-1.034-.388-1.034-.388-.9-.388-.775-.388-.646-.388-.129.388-.129.388-.129.258-.129.258v.258l-.129.258-.129.388-.129.388.9.646.9.517.9.517.9.388.9.388.9.258.9.258.9.129.388-.775.388-.646.388-.646.517-.775Zm-2.584,5.427-.646-.129-.646-.129-.646-.129-.517-.129-1.163-.388-1.034-.388-.9-.388-.9-.388-.775-.388-.646-.388-.258.646-.258.646-.258.646-.258.646.517.388.517.258.388.258.517.258.517.258.517.258.517.258.517.258,1.034.258,1.034.258,1.034.129.9.129.388-.646.258-.775.388-.646-.129-.646Zm-1.938,4.264-.646-.129-.646-.129-.517-.129-.517-.129-1.163-.258-1.034-.388-.9-.388-.9-.388-.775-.388-.646-.388-.646,1.551-.646,1.551-.646,1.551-.646,1.551-.646,1.551-.646,1.551-.646,1.551-.646,1.68.9.517.9.517.9.388.9.388.9.388,1.034.258.9.258.9.258.646-1.68.775-1.551.646-1.551.646-1.551.775-1.551.775-1.551.775-1.551.517-1.809Zm-6.849,15.119L485.3,417l-.646-.129-.517-.129-.517-.129-1.034-.258-1.034-.388-.9-.388-.9-.388-.775-.388-.646-.388-.258.646-.258.646-.258.646-.258.646.9.646.9.517.9.517.9.388.9.388,1.034.258.9.258.9.129.258-.646.258-.646.258-.646.517-1.034Zm-1.68,4.652-.646-.129-.517-.129-.517-.129-.517-.129-1.034-.388L480,420.493l-.9-.388-.9-.388-.775-.388-.646-.388-.388,1.034-.388.9-.388.9-.388.9-.388.9-.388.9-.388.9-.388,1.034.775.517.775.388.9.517.9.388.9.388,1.034.258,1.034.258,1.034.258.388-1.034.388-1.034.388-.9.388-.9.388-.9.388-.9.388-1.034.517-.9Zm-3.877,10.209-1.034-.258-1.034-.258-1.034-.258-1.034-.388-.9-.388-.9-.388-.775-.388-.775-.388-1.421,4.394-1.421,4.394-1.292,4.394-1.163,4.394-1.163,4.264-1.034,4.264-.517,2.068-.388,2.068-.388,2.068-.388,2.068-.388,2.068-.258,2.068-.258,2.068-.258,2.068-.129,1.938L462.3,475.8l-.129,1.938-.129,1.938v5.686l.129,1.809.129,1.809.129,1.809.258,1.68.258,1.68.129.517.129.517.258.517.258.388.258.388.388.388.388.388.388.388.517.388.517.258.517.258.646.258.646.258.775.258.775.129.775.129.775.129H473.8l1.034-.129,1.034-.129,1.163-.129,1.163-.129,1.292-.258,1.292-.258,1.292-.258,1.421-.388,1.421-.388,1.551-.388,1.551-.517,1.551-.517-2.068-.258-1.938-.388-1.809-.517-1.68-.775-1.551-.9-1.421-1.034-1.292-1.163-1.163-1.292-1.034-1.421-.9-1.551-.775-1.68-.646-1.809-.517-1.809-.388-1.938-.258-2.068-.258-2.2-.129-2.2V470.89l.129-2.455.258-2.455.258-2.584.388-2.584.388-2.714.517-2.714.646-2.843.646-2.843.775-2.843.775-2.972.9-2.972.9-2.972.9-2.972,1.163-2.972Z"/><polygon class="ab15f55e-0067-42a9-859c-36163221ca8a" points="560.247 323.19 561.797 322.673 563.09 322.285 564.382 321.897 565.674 321.51 566.966 321.122 568.258 320.864 569.551 320.605 570.843 320.476 572.135 320.217 573.298 320.088 574.59 320.088 575.753 319.959 577.045 319.959 578.208 319.959 579.371 319.959 580.664 319.959 581.827 320.088 582.99 320.088 584.282 320.217 585.445 320.476 586.608 320.605 589.063 320.993 591.518 321.51 593.974 322.027 596.558 322.673 599.142 323.319 601.727 323.965 600.047 322.414 598.238 320.864 596.429 319.442 594.361 318.021 592.294 316.728 590.226 315.436 587.9 314.273 585.574 313.239 583.248 312.206 580.793 311.301 578.338 310.526 575.882 309.751 573.427 309.234 570.843 308.717 568.258 308.329 565.674 308.071 563.09 307.812 560.505 307.812 557.921 307.812 555.465 308.071 553.01 308.329 550.555 308.846 548.1 309.363 545.645 310.138 543.319 310.914 541.122 311.947 538.925 313.11 536.858 314.402 534.79 315.824 532.852 317.375 531.043 319.184 529.363 321.122 528.329 318.667 527.166 316.341 525.874 314.144 524.452 312.076 522.902 310.138 521.222 308.458 519.413 306.778 517.474 305.228 515.407 303.806 513.339 302.514 511.142 301.351 508.946 300.317 506.62 299.413 504.294 298.508 501.838 297.862 499.254 297.345 496.799 296.828 494.214 296.441 491.759 296.311 489.175 296.182 486.59 296.182 484.006 296.311 481.421 296.57 478.837 296.958 476.382 297.474 473.927 297.991 471.471 298.637 469.145 299.542 466.819 300.447 464.623 301.48 462.426 302.514 460.358 303.806 463.201 303.806 466.173 303.936 468.887 304.065 471.601 304.323 473.022 304.452 474.314 304.582 475.736 304.84 477.028 304.969 478.32 305.228 479.612 305.486 480.905 305.874 482.068 306.132 483.36 306.52 484.652 306.778 485.815 307.295 486.978 307.683 488.27 308.071 489.433 308.588 490.596 309.104 491.759 309.621 492.922 310.138 494.085 310.784 495.248 311.43 496.411 312.206 497.574 312.852 498.608 313.627 499.771 314.402 500.805 315.178 498.996 315.436 497.057 315.695 495.119 316.082 493.051 316.47 490.984 316.858 488.916 317.375 486.849 318.021 484.781 318.667 482.584 319.313 480.517 320.088 478.449 320.864 476.382 321.639 474.314 322.543 472.247 323.448 470.308 324.353 468.37 325.386 466.432 326.291 464.623 327.325 462.814 328.358 461.134 329.392 459.583 330.426 458.032 331.589 456.611 332.623 455.319 333.786 454.026 334.82 452.993 335.853 451.959 337.016 451.184 338.05 450.408 339.213 449.891 340.247 449.504 341.281 449.245 342.314 452.217 340.893 455.06 339.601 457.774 338.438 460.488 337.404 461.78 336.887 463.072 336.37 464.364 335.853 465.656 335.466 466.949 335.078 468.241 334.69 469.533 334.303 470.696 334.044 471.988 333.786 473.28 333.527 474.444 333.269 475.736 333.01 476.899 332.881 478.191 332.752 479.483 332.623 480.775 332.494 482.068 332.494 483.36 332.364 484.652 332.364 485.944 332.364 487.236 332.364 488.658 332.494 489.95 332.623 491.372 332.752 490.725 333.01 489.562 333.14 488.399 333.398 487.107 333.786 485.815 334.303 484.652 335.078 483.36 335.853 481.938 336.758 480.646 337.792 479.354 338.955 478.062 340.247 476.769 341.539 475.477 342.96 474.185 344.511 473.022 346.062 471.73 347.742 470.567 349.551 469.404 351.36 468.37 353.298 467.336 355.237 466.303 357.175 465.527 359.113 464.623 361.181 463.847 363.377 463.201 365.445 462.555 367.642 461.909 369.709 461.521 371.906 461.263 374.103 461.004 376.3 460.746 378.367 460.746 380.564 460.875 382.761 461.78 380.693 462.814 378.626 463.977 376.687 465.269 374.749 466.69 373.069 468.112 371.26 469.662 369.58 471.213 367.9 472.893 366.35 474.702 364.799 476.511 363.248 478.449 361.827 480.388 360.535 482.455 359.242 484.523 357.95 486.59 356.787 488.787 355.753 490.855 354.72 493.051 353.686 495.248 352.781 497.574 351.877 499.9 351.101 502.097 350.326 504.294 349.551 506.62 349.034 508.816 348.388 511.013 347.871 513.339 347.354 515.536 346.966 517.604 346.708 519.8 346.32 521.868 346.062 522.385 347.742 523.419 350.843 524.969 354.59 525.874 357.95 526.649 361.052 527.295 364.282 527.812 367.513 528.458 370.743 528.846 373.974 529.233 377.204 529.621 380.435 529.75 383.536 530.009 386.767 530.138 389.997 530.267 393.357 530.267 396.587 530.267 399.818 530.138 403.178 530.138 406.408 530.913 405.891 531.947 404.212 532.981 402.661 534.015 401.11 534.919 399.56 535.953 397.88 536.858 396.329 537.762 394.778 538.667 393.098 539.571 391.548 540.347 389.868 541.122 388.317 541.768 386.637 542.414 384.958 543.06 383.407 543.577 381.727 544.094 380.047 544.611 378.367 544.999 376.687 545.257 374.878 545.515 373.328 545.774 371.518 545.903 369.839 546.032 368.029 546.032 366.35 545.903 364.54 545.774 362.731 545.515 361.052 545.257 359.242 544.74 357.433 544.352 355.624 543.706 353.686 543.06 351.877 544.74 352.652 546.291 353.427 547.971 354.203 549.521 355.107 550.943 355.883 552.493 356.916 553.915 357.821 555.207 358.855 556.628 360.018 557.921 361.052 559.213 362.214 560.505 363.507 561.797 364.799 562.96 366.091 564.123 367.383 565.157 368.934 566.32 370.355 567.354 371.906 568.517 373.457 569.551 375.137 570.584 376.817 571.618 378.626 572.523 380.435 573.427 382.373 574.461 384.311 575.366 386.25 576.27 388.446 577.045 390.514 577.95 392.711 578.855 395.037 579.63 397.363 580.534 399.818 581.051 398.138 581.439 396.329 581.827 394.649 582.085 392.711 582.344 390.902 582.344 389.093 582.344 387.283 582.344 385.345 582.214 383.407 582.085 381.469 581.827 379.659 581.439 377.721 580.922 375.783 580.534 373.844 580.018 371.906 579.501 370.097 578.855 368.159 578.079 366.22 577.433 364.411 576.658 362.602 575.753 360.793 574.978 358.984 574.073 357.304 573.169 355.495 572.135 353.944 571.101 352.264 570.067 350.585 569.034 349.163 568 347.612 566.837 346.191 565.803 344.77 564.64 343.477 563.865 342.96 565.416 343.219 566.837 343.607 568.258 343.994 569.68 344.253 570.972 344.77 572.264 345.157 573.427 345.545 574.719 346.062 575.882 346.579 576.916 347.096 578.079 347.612 579.113 348.129 580.276 348.646 581.31 349.292 582.344 349.938 583.377 350.585 585.445 351.877 587.383 353.298 589.451 354.849 591.648 356.529 593.844 358.209 596.17 360.018 598.625 362.085 601.21 364.024 601.598 362.602 601.727 361.052 601.727 359.501 601.598 357.95 601.339 356.4 600.952 354.849 600.435 353.298 599.788 351.618 599.142 350.197 598.238 348.517 597.333 347.096 596.3 345.545 595.137 343.994 593.974 342.573 592.681 341.151 591.26 339.73 589.838 338.308 588.288 336.887 586.737 335.595 585.057 334.303 583.377 333.14 581.697 331.977 579.888 330.943 578.208 329.78 576.27 328.746 574.461 327.842 572.652 326.937 570.714 326.162 568.775 325.386 566.837 324.74 565.028 324.094 563.09 323.577 560.247 323.19"/></svg>