<svg id="6b8b7530-27f2-4484-9b68-2843c5735e52" data-name="Layer 1" xmlns="http://www.w3.org/2000/svg" viewBox="0 0 960 960"><defs><style>.\37 4d9305b-38f9-4008-89d8-8b086bdc98a9{fill:#522a74;}.\39 0116802-06af-41c9-8b2f-202632ee9dd4{fill:#369699;}.f1ea4a29-13e4-4349-811b-c60a1f53afc9{fill:#333;}</style></defs><title>consulting-for-a-cause</title><g id="3a7b240b-b993-4599-aea6-d335f197ea34" data-name="Logo"><g id="08996b0d-c32a-4936-b111-8841aca679c1" data-name="Text"><path class="74d9305b-38f9-4008-89d8-8b086bdc98a9" d="M330.62,392.064c2.276-5.317,11.724-16.932,25.625-18.783a106.46,106.46,0,0,1,12.7-.76c7.815,0,16.394,1.3,19.761,3.149l1.195,1.195c0,1.086-.869,17.589-.973,19.109h-3.806c-.869-3.041-3.584-11.616-3.584-11.833a4.8,4.8,0,0,0-1.733-2.824,61.472,61.472,0,0,0-16.181-2.068c-21.172,0-25.951,9.231-25.951,35.616,0,6.837.543,23.019,14.444,31.485a26.434,26.434,0,0,0,13.679,3.688,26.041,26.041,0,0,0,15.96-5.534,74.736,74.736,0,0,0,3.149-9.665l1.52-5.864h4.018c-.434,4.453-.434,20.526-.434,21.607-7.059,2.611-16.828,5.43-26.928,5.43-20.629,0-36.263-9.665-36.263-41.585C326.824,405.748,328.018,398.151,330.62,392.064Z"/><path class="74d9305b-38f9-4008-89d8-8b086bdc98a9" d="M403.623,407.8c5.7-8.513,17.631-10.714,21.966-10.714,16.262,0,23.486,9.878,23.486,25.842,0,5.4-.609,14.977-5.4,21.966-5.473,8.06-16.422,10.341-20.828,10.341-16.951,0-24.1-12.385-24.1-28.274C398.76,418.294,400.814,412.061,403.623,407.8Zm13.6,40.669c3.2,1.6,5.473,1.747,9.122,1.747,8.9,0,14.9-5.775,14.9-22.726,0-18.623-7.144-24.478-14.288-25.545a33.114,33.114,0,0,0-4.1-.146c-9.274,0-16.342,6-16.342,23.562C406.513,427.945,406.513,443,417.227,448.47Z"/><path class="74d9305b-38f9-4008-89d8-8b086bdc98a9" d="M453.343,398.075h14.368c.6,1.827,14.066,19.836,32.608,44.007-.08-1.062-.3-16.644-.3-23.406,0-3.806-.231-10.19-.3-12.7-.076-3.263-.3-4.41-6.842-5.015v-2.89h18.4v2.739c-2.588.227-5.175.609-6.162,2.049a12.31,12.31,0,0,0-.458,2.361c-.3,10.563-.529,35.8-.529,36.48,0,3.192.151,12.47.151,12.47h-4.486c-3.8-5.855-4.032-5.7-35.116-45.381v23.335s.382,14.519.382,15.738c0,2.507,3.192,3.036,6.535,3.338v2.97H453.65v-2.739c3.267-.307,6-.911,6.308-3.343.382-2.734.534-11.328.534-28.123v-2.436c0-5.246-.08-13.835-.08-14.061-.151-.911-.609-1.9-3.267-2.205l-3.8-.378Z"/><path class="74d9305b-38f9-4008-89d8-8b086bdc98a9" d="M524.118,398.916c1.671-.911,3.877-1.978,9.651-1.978a25.631,25.631,0,0,1,11.252,2.885l.911.836c0,.765-.609,12.314-.68,13.381h-2.668c-.609-2.13-2.507-8.136-2.507-8.287a4.123,4.123,0,0,0-1.214-1.978c-.836-.755-3.574-1.974-7.375-1.974-5.855,0-9.8,1.6-9.8,7.975,0,5.246,3.494,7.375,6.077,8.745l11.554,6.006c2.814,1.45,9.122,5.095,9.122,14.137,0,5.477-1.143,7.758-4.944,12.163-1.6,1.752-4.859,4.486-12.994,4.486a39.068,39.068,0,0,1-14.826-3.423c.227-3.116.529-12.159.529-15.355h2.814l1.067,4.108c1.445,5.7,1.827,6.152,3.645,7.6a21.888,21.888,0,0,0,8.589,1.672c5.624,0,8.967-1.672,8.967-8.282,0-6.162-4.712-9.047-6.988-10.265l-6.162-3.041c-5.85-3.041-6.917-3.645-8.136-4.939l-.6-.689a14.3,14.3,0,0,1-3.806-9.807C515.6,407.042,516.818,402.938,524.118,398.916Z"/><path class="74d9305b-38f9-4008-89d8-8b086bdc98a9" d="M553.312,398.075h20.979v2.814c-4.032.307-6.842.685-6.842,3.494,0,3.725.076,12.314.076,20.143v6.086c.08,4.179.08,7.446.08,8.584,0,4.179,3.343,11.479,16.115,11.479,12.385,0,13.986-6.459,13.986-23.562,0-6.766-.151-13.608-.151-22.731,0-2.507-3.574-3.036-6.842-3.343v-2.965h17.938v2.739c-3.338.378-5.926,1.289-6.077,3.343l-.076,1.369c-.231,3.116-.765,27.514-.765,30.555,0,17.027-11.776,19.156-23.486,19.156-15.813,0-18.552-12.465-18.552-17.329,0,0-.146-32.306-.227-33.142-.378-3.338-1.747-3.57-6.157-3.872Z"/><path class="74d9305b-38f9-4008-89d8-8b086bdc98a9" d="M610.479,451.36c4.028-.3,6.837-.689,6.837-3.494,0-1.827-.08-29.265-.529-43.936-.151-2.436-1.671-2.739-5.246-2.97l-1.062-.076v-2.809H632.52v2.814l-1.067.076c-3.574.231-6.157.534-6.228,2.97-.382,10.865-.534,43.247-.534,43.936,0,1.742,1.974,2.961,7.451,2.961h1.6c1.138,0,8.206-.076,9.193-.911,1.9-1.672,3.116-6.379,3.881-9.269l1.062-4.108h2.814c-.3,3.116-.685,16.871-.685,17.636H610.479Z"/><path class="74d9305b-38f9-4008-89d8-8b086bdc98a9" d="M651.525,398.075H696.07l.831.84c-.076,1.289-.378,11.167-.378,14.973H693.87c-.609-2.21-2.507-8.211-2.583-8.362a13.334,13.334,0,0,0-.689-1.672,2.322,2.322,0,0,0-1.365-.685,62.8,62.8,0,0,0-7.975-.755,17.755,17.755,0,0,0-3.2.378c-.378,8.967-.609,31.546-.609,45.079,0,2.885,4.42,3.338,8.216,3.64v2.668H661.337v-2.673c3.725-.3,8.136-.755,8.136-3.64,0,0,.231-14.746.231-28.888,0-5.85,0-11.63-.156-16.191a17.567,17.567,0,0,0-3.192-.378,62.805,62.805,0,0,0-7.975.755,2.4,2.4,0,0,0-1.374.685,14.306,14.306,0,0,0-.685,1.672c-.076.146-1.974,6.152-2.583,8.362h-2.668c0-3.806-.3-13.679-.378-14.973Z"/><path class="74d9305b-38f9-4008-89d8-8b086bdc98a9" d="M699.111,451.36c3.8-.231,6.842-.609,6.842-3.494,0-.609-.076-28.812-.534-43.936-.076-2.436-1.671-2.739-5.236-2.97l-1.072-.071v-2.814h21.054v2.814l-1.062.076c-3.57.231-5.175.534-5.246,2.97-.378,10.865-.524,43.247-.524,43.936,0,2.809,2.885,3.192,6.832,3.494v2.814H699.111Z"/><path class="74d9305b-38f9-4008-89d8-8b086bdc98a9" d="M723.513,398.075h14.368c.609,1.827,14.066,19.836,32.609,44.007-.076-1.062-.3-16.644-.3-23.406,0-3.806-.231-10.19-.3-12.7-.076-3.263-.3-4.41-6.842-5.015v-2.89h18.4v2.739c-2.583.227-5.175.609-6.162,2.049a13.015,13.015,0,0,0-.453,2.361c-.3,10.563-.534,35.8-.534,36.48,0,3.192.156,12.47.156,12.47h-4.49c-3.8-5.855-4.023-5.7-35.12-45.381v23.335s.387,14.519.387,15.738c0,2.507,3.192,3.036,6.54,3.338v2.97H723.815v-2.739c3.272-.307,6-.911,6.308-3.343.387-2.734.534-11.328.534-28.123v-2.436c0-5.246-.076-13.835-.076-14.061-.156-.911-.609-1.9-3.272-2.205l-3.8-.378v-2.814Z"/><path class="74d9305b-38f9-4008-89d8-8b086bdc98a9" d="M787.295,410.692c1.6-3.725,8.216-11.856,17.947-13.15a74.924,74.924,0,0,1,8.891-.529c5.468,0,14.59.911,16.876,2.21l.911.831c0,.765-.609,12.314-.689,13.381h-2.654c-.534-1.827-2.436-7.985-2.739-8.745-1.672-1.062-7.9-2.961-15.355-2.961-14.892,0-18.24,6.455-18.24,24.926,0,12.541,4.335,23.869,21.739,23.869,5.477,0,8.745-.987,11.176-3.263V436.694c0-2.507-3.116-2.814-6.233-3.041l-1.9-.146-.076-2.583c2.049.146,7.829.3,11.861.3s7.139-.151,9.193-.3v2.809l-1.062.08c-3.579.227-4.637.911-4.637,2.351v14.142l-.84.836c-4.944,1.752-14.368,4.335-21.432,4.335-14.444,0-25.389-6.771-25.389-29.114C784.641,420.272,785.477,414.951,787.295,410.692Z"/><path class="74d9305b-38f9-4008-89d8-8b086bdc98a9" d="M329.189,527.319c3.725-.231,6.837-.609,6.837-3.494,0-.453.231-12.919.231-25.691,0-6.54-.08-13.07-.231-18.245-.076-2.432-1.667-2.734-5.17-2.961l-1.138-.08v-2.814c2.13.151,6.54.3,10.567.3,3.419,0,7.144-.08,9.5-.227.378,0,18.089-.08,18.089-.08l.911.836c-.227.84-1.974,12.994-2.054,14.066h-2.583c-.382-2.059-1.6-8.065-1.672-8.211a3.253,3.253,0,0,0-1.218-1.978c-.987-.227-1.747-.307-2.814-.458a69.443,69.443,0,0,0-7.678-.231c-4.33,0-6.228.382-6.308,2.588-.076,4.415-.227,11.554-.3,18.094,4.561,0,17.182-.307,18.778-.378l-.76,5.624h-1.369c-3.041-2.276-14.515-1.752-16.644-1.974-.151,11.243-.227,21.13-.227,21.81,0,2.814,2.885,3.192,6.837,3.494l2.89.231v2.583H329.185v-2.8Z"/><path class="74d9305b-38f9-4008-89d8-8b086bdc98a9" d="M377.918,483.761c5.7-8.513,17.631-10.723,21.966-10.723,16.262,0,23.486,9.887,23.486,25.852,0,5.392-.609,14.968-5.4,21.966-5.473,8.051-16.422,10.336-20.828,10.336-16.951,0-24.1-12.395-24.1-28.283C373.054,494.253,375.1,488.02,377.918,483.761Zm13.6,40.669c3.2,1.6,5.473,1.752,9.122,1.752,8.9,0,14.9-5.784,14.9-22.735,0-18.618-7.144-24.478-14.288-25.54a32.048,32.048,0,0,0-4.1-.151c-9.274,0-16.342,6-16.342,23.562C380.8,503.909,380.8,518.962,391.521,524.429Z"/><path class="74d9305b-38f9-4008-89d8-8b086bdc98a9" d="M428.927,527.319c3.8-.231,6.842-.609,6.842-3.494,0-.609-.08-28.812-.534-43.936-.076-2.432-1.671-2.734-5.241-2.961l-1.067-.08v-2.814c2.129.151,6.308.3,10.567.3,10.638,0,12.159-.76,15.275-.76h1.52c6.459,0,12.617,5.015,12.617,13.533,0,7.149-3.423,10.109-9.274,13.991,0,0,7.985,15.648,13.528,24.473l4.183,1.818v2.739c-4.183,0-6.842,0-11.021.3L453.022,503h-2.129a25.946,25.946,0,0,1-7.526-.987c-.151,10.714-.227,21.432-.227,21.81,0,2.814,2.885,3.192,6.837,3.494v2.814H428.922v-2.809Zm22.5-28.123c7.678,0,9.576-6.7,9.576-11.03,0-8.891-6.233-11.016-7.22-11.016-2.281,0-7.526.227-9.274.987l-.76.836c-.151,3.5-.231,11.4-.3,18.925C444.811,498.738,447.927,499.2,451.426,499.2Z"/><path class="74d9305b-38f9-4008-89d8-8b086bdc98a9" d="M503.418,527.39c4.556-.453,5.4-1.289,10.18-13.226l15.813-39.526c.836-.609,4.632-.992,5.17-.992,0,0,19.458,48.115,19.992,49.187,1.214,2.13,2.432,4.032,6.228,4.557v2.739H539.062v-2.583c2.739-.231,6.771-.84,6.771-3.348a15.536,15.536,0,0,0-1.6-5.7l-1.45-3.348c-.529-1.209-1.062-2.507-1.6-3.947H519.226c-1.671,3.725-4.712,11.474-4.712,12.617,0,2.507,3.574,3.046,6.842,3.348v2.961H503.418ZM540.2,507.932l-10.109-25-9.807,25Z"/><path class="90116802-06af-41c9-8b2f-202632ee9dd4" d="M592.725,486.655c1.6-3.73,8.206-11.861,17.938-13.155a74.987,74.987,0,0,1,8.9-.534c5.473,0,11.479.911,13.835,2.205l.836.84c0,.755-.609,12.314-.685,13.372h-2.658c-.609-2.12-2.507-8.131-2.507-8.282a3.335,3.335,0,0,0-1.218-1.974,43.066,43.066,0,0,0-11.323-1.45c-14.826,0-18.165,6.464-18.165,24.931,0,4.8.378,16.12,10.109,22.051a18.577,18.577,0,0,0,9.571,2.583,18.276,18.276,0,0,0,11.176-3.872,54.037,54.037,0,0,0,2.205-6.766l1.067-4.1h2.809c-.3,3.116-.3,14.368-.3,15.124a55.829,55.829,0,0,1-18.849,3.8c-14.439,0-25.384-6.762-25.384-29.114C590.067,496.226,590.9,490.91,592.725,486.655Z"/><path class="90116802-06af-41c9-8b2f-202632ee9dd4" d="M638.181,527.39c4.566-.453,5.4-1.289,10.19-13.226l15.808-39.526c.84-.609,4.637-.992,5.175-.992,0,0,19.458,48.115,19.983,49.187,1.218,2.13,2.436,4.032,6.233,4.557v2.739H673.835v-2.583c2.739-.231,6.762-.84,6.762-3.348a15.536,15.536,0,0,0-1.6-5.7l-1.44-3.348c-.534-1.209-1.067-2.507-1.6-3.947H654c-1.676,3.725-4.712,11.474-4.712,12.617,0,2.507,3.57,3.046,6.832,3.348v2.961H638.181Zm36.787-19.458-10.109-25-9.8,25Z"/><path class="90116802-06af-41c9-8b2f-202632ee9dd4" d="M698.162,474.034h20.979v2.814c-4.028.307-6.842.689-6.842,3.494,0,3.725.076,12.319.076,20.148v6.077c.085,4.179.085,7.451.085,8.584,0,4.188,3.338,11.483,16.111,11.483,12.385,0,13.981-6.464,13.981-23.562,0-6.771-.146-13.6-.146-22.731,0-2.507-3.57-3.041-6.842-3.343v-2.965H753.5v2.734c-3.338.382-5.931,1.294-6.077,3.348l-.076,1.365c-.231,3.116-.765,27.523-.765,30.555,0,17.031-11.776,19.166-23.491,19.166-15.808,0-18.547-12.47-18.547-17.338,0,0-.146-32.3-.222-33.137-.387-3.348-1.752-3.574-6.162-3.877v-2.814Z"/><path class="90116802-06af-41c9-8b2f-202632ee9dd4" d="M765.976,474.87c1.672-.911,3.872-1.974,9.647-1.974a25.576,25.576,0,0,1,11.252,2.885l.911.84c0,.755-.609,12.314-.685,13.377h-2.654c-.609-2.13-2.507-8.131-2.507-8.282a4.1,4.1,0,0,0-1.218-1.974c-.84-.765-3.579-1.978-7.375-1.978-5.846,0-9.8,1.6-9.8,7.985,0,5.236,3.494,7.371,6.077,8.745l11.554,6c2.814,1.44,9.122,5.09,9.122,14.137,0,5.468-1.133,7.748-4.944,12.154-1.6,1.752-4.859,4.49-12.994,4.49a39.109,39.109,0,0,1-14.822-3.423c.231-3.116.524-12.163.524-15.355h2.814l1.072,4.1c1.44,5.7,1.827,6.162,3.64,7.6a21.905,21.905,0,0,0,8.594,1.681c5.624,0,8.962-1.681,8.962-8.291,0-6.152-4.712-9.047-6.988-10.265L770,504.286c-5.855-3.046-6.927-3.65-8.136-4.944l-.609-.685a14.249,14.249,0,0,1-3.8-9.8C757.463,483,758.671,478.9,765.976,474.87Z"/><path class="90116802-06af-41c9-8b2f-202632ee9dd4" d="M794.783,527.319c3.8-.231,6.842-.609,6.842-3.494.076-2.436.3-13.457.3-25.082,0-6.54-.085-13.3-.3-18.854-.085-2.432-1.676-2.734-5.175-2.961l-1.062-.08v-2.814c2.049.151,6.54.3,10.487.3,3.423,0,7.22-.08,9.5-.227.387,0,19.992-.08,19.992-.08l.911.836c-.231.84-1.974,12.994-2.059,14.066h-2.583c-.378-2.059-1.6-8.065-1.672-8.211a3.275,3.275,0,0,0-1.218-1.978,27.189,27.189,0,0,0-2.814-.458c-1.827-.231-6.233-.231-9.571-.231-4.335,0-6.162.382-6.233,2.588-.156,4.415-.231,11.554-.307,18.094,4.481,0,17.1-.307,18.693-.378l-.755,5.624h-1.289c-3.116-2.276-14.515-1.752-16.729-1.974-.146,11.243-.146,21.13-.146,21.81,0,2.507,3.57,2.961,12.692,2.961,2.059,0,7.149-.222,7.984-.9,1.9-1.681,3.116-6.393,3.872-9.278l1.072-4.1h2.814c-.3,3.116-.689,16.876-.689,17.631H794.779v-2.8Z"/></g><g id="169c3ec0-4e6b-4ea3-8fb3-28e16f1075e0" data-name="Tagline"><path class="f1ea4a29-13e4-4349-811b-c60a1f53afc9" d="M343.473,572.3h-6.9l-2.04,10.69h7.9l-.538,2.7H331.04l5.321-28.028h10.35l-.538,2.663h-7.319l-1.832,9.4h6.946Z"/><path class="f1ea4a29-13e4-4349-811b-c60a1f53afc9" d="M344.88,585.694l2.493-13.226c.538-2.951.831-5.274,1.039-6.9h2.621l-.331,3.239h.085c1.582-2.488,3.367-3.532,5.2-3.532,2.12,0,3.159,1.672,3.282,3.532,1.539-2.408,3.452-3.532,5.321-3.532,2.328,0,3.371,1.837,3.371,4.042a19.067,19.067,0,0,1-.463,3.617L365.084,585.7h-2.951l2.413-12.81a15.922,15.922,0,0,0,.331-3.116c0-1.209-.5-1.955-1.662-1.955-1.832,0-3.91,2.748-4.7,6.658L356.4,585.7h-2.909l2.413-12.81a15.085,15.085,0,0,0,.331-3.069c0-1.209-.458-2-1.624-2-1.662,0-3.947,2.913-4.651,6.658l-2.12,11.224H344.88Z"/><path class="f1ea4a29-13e4-4349-811b-c60a1f53afc9" d="M377.913,556.92l-2.158,11.224h.085c1.454-2.073,2.909-2.871,4.528-2.871,3.121,0,3.952,3.2,3.952,5.7,0,5.987-3.244,15.053-10.142,15.053-2.743,0-3.99-1.587-3.99-3.659a15.037,15.037,0,0,1,.208-2.243l4.528-23.2Zm-4.486,22.7a13.654,13.654,0,0,0-.165,2c0,1.162.458,1.993,1.7,1.993,4.117,0,6.237-8.273,6.237-11.889,0-2.323-.538-3.829-2.163-3.829-1.747,0-3.655,2.285-4.283,5.572Z"/><path class="f1ea4a29-13e4-4349-811b-c60a1f53afc9" d="M385.473,585.694l2.536-13.509c.5-2.7.751-5.118.878-6.61h2.621c-.08,1.044-.123,2.12-.335,3.782h.127c1.247-2.488,2.994-4.113,5.024-4.113a2.628,2.628,0,0,1,.543.038l-.586,3.164c-.085,0-.293-.047-.416-.047-2.658,0-4.863,3.744-5.444,6.743L388.466,585.7h-2.994Z"/><path class="f1ea4a29-13e4-4349-811b-c60a1f53afc9" d="M404.261,585.694c.042-1.124.165-2.252.293-3.829h-.127c-1.955,3.414-3.74,4.16-5.2,4.16-2.37,0-3.782-2-3.782-5.652,0-6.115,3.239-15.1,11.016-15.1a10.152,10.152,0,0,1,3.7.666l-2.328,11.483a43.463,43.463,0,0,0-.869,8.273h-2.7Zm2.536-17.839a3.863,3.863,0,0,0-1.251-.165c-4.443,0-6.983,7.394-7.064,11.757-.085,2.536.416,3.995,1.827,3.995,2.04,0,4.2-3.947,4.991-7.975Z"/><path class="f1ea4a29-13e4-4349-811b-c60a1f53afc9" d="M420.173,585.359a8.479,8.479,0,0,1-3.282.581c-4.032,0-5.487-3.282-5.487-7.191,0-5.864,3.447-13.476,10.015-13.476a4.759,4.759,0,0,1,2,.331l-.789,2.536a4.863,4.863,0,0,0-1.5-.25c-4.155,0-6.648,5.987-6.648,10.525,0,2.951.874,4.944,3.2,4.944a7.136,7.136,0,0,0,2.455-.5Z"/><path class="f1ea4a29-13e4-4349-811b-c60a1f53afc9" d="M422.869,585.694l3.825-20.124h2.994l-3.825,20.124Zm4.49-25.2a2.215,2.215,0,0,1,2.035-2.167,1.616,1.616,0,0,1,1.624,1.955,2.072,2.072,0,0,1-2.12,2.12C427.813,562.407,427.317,561.623,427.359,560.5Z"/><path class="f1ea4a29-13e4-4349-811b-c60a1f53afc9" d="M430.306,585.694l2.493-13.226c.538-2.951.831-5.274,1.039-6.9h2.621l-.331,3.154h.085c1.624-2.455,3.409-3.485,5.406-3.485,2.493,0,3.447,1.908,3.447,4.032a18.154,18.154,0,0,1-.373,3.329l-2.451,13.1h-2.994l2.455-13.06a14.7,14.7,0,0,0,.293-2.786c0-1.247-.5-2.04-1.742-2.04-1.87,0-4.117,2.866-4.821,6.658l-2.12,11.224Z"/><path class="f1ea4a29-13e4-4349-811b-c60a1f53afc9" d="M446.926,590.638a7.285,7.285,0,0,0,3.244.878c3.036,0,4.283-2.205,5.071-5.949l.666-3.116h-.085c-1.7,2.786-3.324,3.414-4.783,3.414-2.323,0-3.782-2.04-3.825-5.817-.043-5.949,3.116-14.8,10.312-14.8a9.764,9.764,0,0,1,4.24,1l-3.249,17.419c-.831,4.2-1.742,6.814-3.2,8.225A6.938,6.938,0,0,1,450,594a8.086,8.086,0,0,1-3.947-.949Zm11.559-22.579a3.422,3.422,0,0,0-1.742-.331c-4.117,0-6.4,7.073-6.488,11.271-.043,2.37.293,4.363,2,4.363,2.205,0,3.99-3.782,4.49-6.4Z"/><path class="f1ea4a29-13e4-4349-811b-c60a1f53afc9" d="M482.458,585.019a11.724,11.724,0,0,1-4.575.921,7,7,0,0,1-6.11-2.913,12.67,12.67,0,0,1-1.832-7.064c0-5.156,1.582-11.224,5.444-15.133a11.4,11.4,0,0,1,8.065-3.414A8.984,8.984,0,0,1,486.9,558l-1,2.7a6.447,6.447,0,0,0-2.786-.5,7.6,7.6,0,0,0-5.609,2.5c-2.658,2.7-4.405,8.145-4.405,13.013,0,4.528,1.369,7.56,4.944,7.56a5.5,5.5,0,0,0,2-.331l1.7-9.316h-3.579l.5-2.536h6.407Z"/><path class="f1ea4a29-13e4-4349-811b-c60a1f53afc9" d="M486.523,585.694l2.536-13.509c.5-2.7.746-5.118.869-6.61h2.621c-.085,1.044-.123,2.12-.335,3.782h.127c1.247-2.488,2.994-4.113,5.024-4.113a2.628,2.628,0,0,1,.543.038l-.581,3.164c-.085,0-.293-.047-.416-.047-2.663,0-4.868,3.744-5.449,6.743L489.507,585.7h-2.984Z"/><path class="f1ea4a29-13e4-4349-811b-c60a1f53afc9" d="M510.132,571.8c0,5.109-2.493,14.222-8.688,14.222-3.7,0-4.863-3.249-4.863-6.823,0-5.406,2.866-13.924,8.9-13.924C509.5,565.273,510.132,569.1,510.132,571.8Zm-10.52,7.111c0,2.285.165,4.656,2.285,4.656,3.655,0,5.2-8.565,5.2-11.932,0-2.073-.378-3.91-2.12-3.91C501.647,567.728,499.612,574.966,499.612,578.914Z"/><path class="f1ea4a29-13e4-4349-811b-c60a1f53afc9" d="M516.11,565.57l.127,11.261c-.047,2.167-.047,3.579-.212,5.118h.127c.5-1.492,1.039-3.036,1.827-4.906l4.906-11.474h2.37l.416,11.389a31.231,31.231,0,0,1-.123,4.991h.165c.458-1.492.954-3.079,1.747-5.156L531.9,565.57h2.951l-8.688,20.124h-2.536l-.538-10.893a34.954,34.954,0,0,1,.123-5.071h-.123c-.581,1.865-1.119,3.57-1.747,5.071l-4.741,10.893h-2.621l-.949-20.124Z"/><path class="f1ea4a29-13e4-4349-811b-c60a1f53afc9" d="M542.325,560.867l-.949,4.7h3.782l-.463,2.285h-3.782l-2.158,11.474a14.64,14.64,0,0,0-.293,2.536c0,1,.416,1.539,1.417,1.539a5.188,5.188,0,0,0,1.2-.085l-.25,2.323a6.549,6.549,0,0,1-2.158.293,3.013,3.013,0,0,1-3.329-3.2,17.85,17.85,0,0,1,.373-3.291l2.205-11.592h-2.413l.416-2.285h2.455l.628-3.414Z"/><path class="f1ea4a29-13e4-4349-811b-c60a1f53afc9" d="M544.072,585.694l5.444-28.774h2.994l-2.158,11.436.085.038c1.412-2.12,3.036-3.154,4.991-3.154,2.408,0,3.4,1.87,3.4,4.032a16.865,16.865,0,0,1-.368,3.367l-2.455,13.06h-3l2.5-13.141a14.251,14.251,0,0,0,.25-2.7c0-1.247-.543-2.04-1.7-2.04-2.04,0-4.16,3-4.821,6.365L547.07,585.7h-3Z"/><path class="f1ea4a29-13e4-4349-811b-c60a1f53afc9" d="M580.562,585.694c-.42-.755-.751-1.294-1.374-2.5a8.6,8.6,0,0,1-6.28,2.833c-3.99,0-6.152-3.036-6.152-6.53,0-4.41,2.866-7.361,6.195-9.349v-.127a12.55,12.55,0,0,1-1.209-5.071c0-4.2,2.578-7.607,6.365-7.607,3.452,0,4.736,2.621,4.736,5.033,0,3.57-2.743,6.233-6.525,8.476v.127c.708,1.662,2.37,5.359,3.862,8.06a33.245,33.245,0,0,0,3.282-8.391h2.748a31.888,31.888,0,0,1-4.953,10.511c.378.746,1.124,2.12,2.583,4.538h-3.277Zm-2.455-4.538c-1.832-3.447-3.164-6.318-4.283-8.971a8.224,8.224,0,0,0-4.032,6.851c0,2.786,1.667,4.538,3.782,4.538A5.757,5.757,0,0,0,578.106,581.157Zm-3.537-16.71a10.565,10.565,0,0,0,.874,4.41c2.7-1.7,4.575-3.782,4.575-6.365,0-1.908-.623-2.9-2.285-2.9C575.741,559.588,574.57,562.038,574.57,564.446Z"/><path class="f1ea4a29-13e4-4349-811b-c60a1f53afc9" d="M605.7,572.3h-6.9l-2.04,10.69h7.9l-.543,2.7H593.263l5.321-28.028h10.35l-.538,2.663h-7.319l-1.827,9.4h6.941Z"/><path class="f1ea4a29-13e4-4349-811b-c60a1f53afc9" d="M607.1,585.694l2.488-13.226c.543-2.951.836-5.274,1.044-6.9h2.621l-.331,3.239h.085c1.577-2.488,3.367-3.532,5.2-3.532,2.115,0,3.159,1.672,3.282,3.532,1.535-2.408,3.452-3.532,5.321-3.532,2.328,0,3.367,1.837,3.367,4.042a19.009,19.009,0,0,1-.458,3.617L627.307,585.7h-2.951l2.413-12.81a15.922,15.922,0,0,0,.331-3.116c0-1.209-.5-1.955-1.657-1.955-1.832,0-3.91,2.748-4.7,6.658L618.624,585.7h-2.909l2.408-12.81a14.762,14.762,0,0,0,.335-3.069c0-1.209-.458-2-1.624-2-1.662,0-3.947,2.913-4.651,6.658l-2.12,11.224H607.1Z"/><path class="f1ea4a29-13e4-4349-811b-c60a1f53afc9" d="M630.244,593.669l3.952-20.988c.538-2.866.869-5.406,1.119-7.111h2.663l-.416,3.282h.085c1.284-2.158,3.2-3.617,5.151-3.579,2.909,0,3.7,2.7,3.7,5.7,0,6.233-3.249,15.053-9.231,15.053a4.607,4.607,0,0,1-2.455-.666h-.085l-1.539,8.31Zm4.986-10.808a3.154,3.154,0,0,0,1.955.746c4.618,0,6.28-9.231,6.28-12.22,0-1.908-.378-3.494-1.955-3.494-2,0-4.117,3.249-4.821,7.026Z"/><path class="f1ea4a29-13e4-4349-811b-c60a1f53afc9" d="M661.993,571.8c0,5.109-2.488,14.222-8.688,14.222-3.7,0-4.859-3.249-4.859-6.823,0-5.406,2.871-13.924,8.891-13.924C661.37,565.273,661.993,569.1,661.993,571.8Zm-10.511,7.111c0,2.285.165,4.656,2.285,4.656,3.65,0,5.194-8.565,5.194-11.932,0-2.073-.373-3.91-2.12-3.91C653.513,567.728,651.483,574.966,651.483,578.914Z"/><path class="f1ea4a29-13e4-4349-811b-c60a1f53afc9" d="M667.976,565.57l.123,11.261c-.043,2.167-.043,3.579-.208,5.118h.123c.5-1.492,1.044-3.036,1.827-4.906l4.906-11.474h2.37l.416,11.389a31.293,31.293,0,0,1-.118,4.991h.165c.458-1.492.954-3.079,1.742-5.156l4.448-11.224h2.951l-8.688,20.124H675.5l-.538-10.893a34.926,34.926,0,0,1,.118-5.071h-.118c-.581,1.865-1.124,3.57-1.747,5.071l-4.741,10.893h-2.621L664.9,565.57Z"/><path class="f1ea4a29-13e4-4349-811b-c60a1f53afc9" d="M696.354,584.689a9.708,9.708,0,0,1-4.741,1.256c-4.24,0-5.609-3.249-5.609-7.111,0-5.449,3.036-13.556,8.811-13.556,2.909,0,4.113,2.205,4.113,4.538,0,4.906-4.278,6.983-9.807,6.983a12.544,12.544,0,0,0,.123,4.075,3.06,3.06,0,0,0,3.074,2.573,6.868,6.868,0,0,0,3.622-1.081Zm-1.993-16.876c-1.832,0-3.74,2.205-4.863,6.568,3.249,0,6.648-1.081,6.648-4.363C696.146,568.606,695.527,567.813,694.361,567.813Z"/><path class="f1ea4a29-13e4-4349-811b-c60a1f53afc9" d="M699.338,585.694l2.536-13.509c.5-2.7.751-5.118.869-6.61h2.621c-.085,1.044-.118,2.12-.331,3.782h.127c1.247-2.488,2.989-4.113,5.029-4.113a2.628,2.628,0,0,1,.543.038l-.586,3.164c-.085,0-.293-.047-.416-.047-2.658,0-4.863,3.744-5.444,6.743L702.331,585.7h-2.994Z"/><path class="f1ea4a29-13e4-4349-811b-c60a1f53afc9" d="M709.608,585.694l3.82-20.124h2.994L712.6,585.694Zm4.49-25.2a2.215,2.215,0,0,1,2.035-2.167,1.613,1.613,0,0,1,1.62,1.955,2.071,2.071,0,0,1-2.115,2.12C714.551,562.407,714.055,561.623,714.1,560.5Z"/><path class="f1ea4a29-13e4-4349-811b-c60a1f53afc9" d="M717.04,585.694l2.5-13.226c.534-2.951.831-5.274,1.039-6.9H723.2l-.331,3.154h.085c1.62-2.455,3.409-3.485,5.406-3.485,2.493,0,3.447,1.908,3.447,4.032a18.157,18.157,0,0,1-.373,3.329l-2.455,13.1h-2.994l2.455-13.06a14.7,14.7,0,0,0,.293-2.786c0-1.247-.5-2.04-1.742-2.04-1.87,0-4.117,2.866-4.821,6.658l-2.12,11.224Z"/><path class="f1ea4a29-13e4-4349-811b-c60a1f53afc9" d="M733.665,590.638a7.3,7.3,0,0,0,3.239.878c3.036,0,4.283-2.205,5.071-5.949l.666-3.116h-.085c-1.7,2.786-3.319,3.414-4.778,3.414-2.328,0-3.782-2.04-3.829-5.817-.038-5.949,3.116-14.8,10.312-14.8a9.764,9.764,0,0,1,4.24,1l-3.249,17.419c-.831,4.2-1.742,6.814-3.2,8.225a6.938,6.938,0,0,1-5.321,2.12,8.086,8.086,0,0,1-3.947-.949Zm11.559-22.579a3.452,3.452,0,0,0-1.747-.331c-4.117,0-6.4,7.073-6.488,11.271-.038,2.37.293,4.363,2,4.363,2.205,0,3.99-3.782,4.49-6.4Z"/><path class="f1ea4a29-13e4-4349-811b-c60a1f53afc9" d="M773.351,566.4c0,5.194-1.955,13.641-5.614,17.253a7.169,7.169,0,0,1-5.232,2.37c-5.411,0-5.992-5.864-5.992-8.853,0-5.369,1.955-13.769,5.817-17.551a7.411,7.411,0,0,1,5.236-2.285C772.856,557.335,773.351,562.869,773.351,566.4Zm-8.9-5.109c-3.116,3.116-4.821,11.554-4.821,15.7,0,2.37.123,6.327,3.286,6.327a3.747,3.747,0,0,0,2.573-1.209c3.282-3.282,4.741-12.47,4.741-15.634,0-3.329-.208-6.445-3.159-6.445A3.717,3.717,0,0,0,764.456,561.292Z"/><path class="f1ea4a29-13e4-4349-811b-c60a1f53afc9" d="M782.493,560.867l-.959,4.7h3.782l-.453,2.285h-3.787l-2.163,11.474a15,15,0,0,0-.288,2.536c0,1,.42,1.539,1.417,1.539a5.189,5.189,0,0,0,1.2-.085l-.25,2.323a6.576,6.576,0,0,1-2.163.293,3.009,3.009,0,0,1-3.324-3.2,17.855,17.855,0,0,1,.373-3.291l2.205-11.592h-2.413l.42-2.285h2.451l.623-3.414Z"/><path class="f1ea4a29-13e4-4349-811b-c60a1f53afc9" d="M784.23,585.694l5.444-28.774h2.994l-2.163,11.436.085.038c1.417-2.12,3.036-3.154,4.991-3.154,2.413,0,3.414,1.87,3.414,4.032a16.919,16.919,0,0,1-.378,3.367l-2.455,13.06h-2.989l2.488-13.141a14.251,14.251,0,0,0,.25-2.7c0-1.247-.534-2.04-1.7-2.04-2.04,0-4.155,3-4.821,6.365L787.229,585.7h-3Z"/><path class="f1ea4a29-13e4-4349-811b-c60a1f53afc9" d="M811.617,584.689a9.663,9.663,0,0,1-4.736,1.256c-4.235,0-5.609-3.249-5.609-7.111,0-5.449,3.036-13.556,8.811-13.556,2.909,0,4.117,2.205,4.117,4.538,0,4.906-4.283,6.983-9.812,6.983a12.544,12.544,0,0,0,.123,4.075,3.063,3.063,0,0,0,3.074,2.573,6.837,6.837,0,0,0,3.617-1.081Zm-1.993-16.876c-1.827,0-3.744,2.205-4.863,6.568,3.244,0,6.653-1.081,6.653-4.363C811.414,568.606,810.785,567.813,809.624,567.813Z"/><path class="f1ea4a29-13e4-4349-811b-c60a1f53afc9" d="M814.6,585.694l2.536-13.509c.5-2.7.751-5.118.878-6.61h2.621c-.085,1.044-.123,2.12-.331,3.782h.123c1.247-2.488,2.994-4.113,5.029-4.113a2.583,2.583,0,0,1,.538.038l-.585,3.164c-.085,0-.288-.047-.416-.047-2.654,0-4.859,3.744-5.439,6.743L817.6,585.7h-3Z"/><path class="f1ea4a29-13e4-4349-811b-c60a1f53afc9" d="M825.078,582.578a5.408,5.408,0,0,0,3.116.949,3.16,3.16,0,0,0,3.244-3.4,4.957,4.957,0,0,0-2.04-3.91,7.072,7.072,0,0,1-2.621-4.906,5.915,5.915,0,0,1,6.237-6.067,6.081,6.081,0,0,1,3.159.746l-.836,2.323a4.778,4.778,0,0,0-2.323-.619,3,3,0,0,0-3.249,3.116,4.383,4.383,0,0,0,1.87,3.367,7.347,7.347,0,0,1,2.828,5.274c0,4.325-2.828,6.492-6.573,6.492a6.986,6.986,0,0,1-3.735-1.086Z"/></g><g id="235552e0-caef-4998-9c13-61edeb026720" data-name="Icon"><circle class="90116802-06af-41c9-8b2f-202632ee9dd4" cx="134.393" cy="406.489" r="12.423"/><circle class="74d9305b-38f9-4008-89d8-8b086bdc98a9" cx="270.743" cy="378.418" r="12.423"/><path class="90116802-06af-41c9-8b2f-202632ee9dd4" d="M199.058,412.113s-59.15-14.146-66.176,41.518,80.209,108.492,80.209,108.492S110.491,471.871,199.058,412.113Z"/><path class="74d9305b-38f9-4008-89d8-8b086bdc98a9" d="M178,443.243c0,.009,55.141-75.468,94.246-38.671S212.094,581.94,212.094,581.94,303.328,375.321,178,443.243Z"/></g></g></svg>