<svg id="840713f9-c4d4-4522-806a-24576830f7df" data-name="Layer 1" xmlns="http://www.w3.org/2000/svg" viewBox="0 0 960 960"><defs><style>.\34 2d5fd58-f439-4d9a-8286-88e3a8d401b6{fill:#617875;}.c3ea396b-4442-4496-adec-1270077964e2{fill:#959436;}</style></defs><title>dr-marga-logo</title><path class="42d5fd58-f439-4d9a-8286-88e3a8d401b6" d="M233.267,480.01c0,136.038,110.683,246.714,246.735,246.714S726.733,616.048,726.733,480.01c0-136.055-110.683-246.735-246.731-246.735S233.267,343.955,233.267,480.01Zm6.756,0c0-132.324,107.655-239.979,239.982-239.979S719.984,347.686,719.984,480.01,612.329,719.979,480.005,719.979,240.023,612.324,240.023,480.01Z"/><path class="42d5fd58-f439-4d9a-8286-88e3a8d401b6" d="M341.824,343.949A193.947,193.947,0,0,0,284.637,482c0,107.655,87.581,195.242,195.239,195.242S675.112,589.656,675.112,482A195.233,195.233,0,0,0,341.824,343.949ZM291.393,482a188.48,188.48,0,1,1,376.96,0c0,103.928-84.549,188.49-188.476,188.49S291.393,585.929,291.393,482Z"/><path class="c3ea396b-4442-4496-adec-1270077964e2" d="M570.923,436.83a27.8,27.8,0,0,1-4.9,2.53c-1.608.746-3.1,1.865-4.718,2.533a11.051,11.051,0,0,1-5.057,1c-.095-1.323,1.519-.946,2.031-1.686.638-1.5,1.8-2.459,2.533-3.873,1.041-4.209-1.394-7.512-3.212-10.622-2.157-3.683-3.978-6.322-5.9-9.778a47.52,47.52,0,0,0-4.216-6.24c-.78-1-1.316-2.228-2.021-3.2A124.424,124.424,0,0,0,530.8,390.642a68.136,68.136,0,0,0-17.2-11.968c-1.37-.685-2.655-1.662-3.873-2.2a84.861,84.861,0,0,0-9.438-2.866c-10.276-2.92-23.418-4.026-33.884-.505-8.638,2.9-17.239,6.193-24.117,10.961-3.771,2.618-7.3,6.464-10.622,10.113-3.276,3.612-6.237,7.8-9.269,11.46a113.694,113.694,0,0,0-8.6,12.141c-1.272,2.028-2.31,4.317-3.707,6.746-2.106,3.653-4.741,6.932-4.043,12.816a12.118,12.118,0,0,0,2.527,5.9c1.062,1.017,2.784,1.37,3.876,2.364-.885.8-2.347.719-3.371.668a32.582,32.582,0,0,1-5.9-1.007c-2.757-.675-4.8-1.9-8.262-1.852-1.146-2.856-.01-6,.841-8.6a79.679,79.679,0,0,1,3.2-7.6c6.111-13.79,14.336-24.588,23.767-35.227a69.7,69.7,0,0,1,4.724-5.4c9.174-8.557,19.674-16.672,33.548-20.739,5.165-1.516,11.3-1.923,17.368-2.533,5.935-.594,13.274.421,18.877,1.692a115.14,115.14,0,0,1,12.481,3.534,60.2,60.2,0,0,1,13.664,7.254,125.368,125.368,0,0,1,24.944,21.583,106.187,106.187,0,0,1,12.647,18.378c2.757,5.033,5.165,10.229,7.749,15.509A24.428,24.428,0,0,1,570.923,436.83Z"/><path class="c3ea396b-4442-4496-adec-1270077964e2" d="M489.491,375.971a9.431,9.431,0,0,0-4.049,4.721c-3.066-.187-2.981-3.541-5.9-3.876-.187-.916.4-1.058.505-1.689,2.486-.1,3.28-1.889,5.053-2.7.729.682,1.343,1.462,2.028,2.194C488.151,374.835,489.644,374.58,489.491,375.971Z"/><path class="c3ea396b-4442-4496-adec-1270077964e2" d="M475.328,375.289c1.024,1.353-.685,2.171-1.184,3.039a21.594,21.594,0,0,0-2.527-1.177C472.323,375.889,473.758,374.733,475.328,375.289Z"/><path class="c3ea396b-4442-4496-adec-1270077964e2" d="M496.064,375.459c.448.617,1.329.655,1.177,1.519-.3,1.818-3.514.644-4.205-.509-.129-.478.234-.438.173-.838C493.835,375.649,494.968,375.469,496.064,375.459Z"/><path class="c3ea396b-4442-4496-adec-1270077964e2" d="M463.353,376.642a29.82,29.82,0,0,0,4.728,1.011c-.234,1.675-1.424,2.4-2.194,3.541-.858-.044-.834-.967-1.519-1.177-.977-.18-1.662.61-2.191.332C461.593,378.762,464.225,378.558,463.353,376.642Z"/><path class="c3ea396b-4442-4496-adec-1270077964e2" d="M505.845,377.487a.823.823,0,0,1-.336.838c.329.682,1.3.726,1.842,1.177v1.017c-1.2.153-2.313-.068-3.358.5a22.069,22.069,0,0,0-1.187-2.35A2.877,2.877,0,0,1,505.845,377.487Z"/><path class="c3ea396b-4442-4496-adec-1270077964e2" d="M534.672,433.971c-2.232.8-4.829-.288-5.23-2.364a61.325,61.325,0,0,0,.343-10.792c-.726-8.384-5.433-14.593-8.76-20.23-8.624-8.214-17.408-17.992-33.392-17.707-.516-1.818.1-2.683,2.028-2.53,19.857,1.58,29.217,14.871,38.937,26.64a43.3,43.3,0,0,1,4.887,12.813C534.574,424.462,536.781,428.986,534.672,433.971Z"/><path class="c3ea396b-4442-4496-adec-1270077964e2" d="M457.791,381.868a10.619,10.619,0,0,0-1.519,3.371c-1.343-.359-2.174-.868-3.873-.505a3.171,3.171,0,0,1-.678-1.18c.648-.482.519-1.743,1.014-2.36C454.389,382.5,456.37,380.753,457.791,381.868Z"/><path class="c3ea396b-4442-4496-adec-1270077964e2" d="M516.127,381.7c-.539,1.1-.2,2.3,0,3.541-.76.56-2.269-.261-2.36,1.18-1.153-.078-1.282-1.194-1.187-2.53-.051-.916-1.282-1.109-.668-2.191C513.54,382.5,514.679,381.353,516.127,381.7Z"/><path class="c3ea396b-4442-4496-adec-1270077964e2" d="M481.735,383.893c-5.321.438-11.405.831-15.848,3.2-.906.478-1.706,1.194-2.7,1.689a37.968,37.968,0,0,0-7.926,4.724c-3.117,2.639-6.545,5.053-8.936,8.092-.922,1.156-1.567,2.74-2.533,4.039a22.755,22.755,0,0,0-3.876,6.912c-.322,1.038-.224,2.2-.5,3.371-.59,2.428-1.621,7.339-1.184,10.625.234,1.8,1.316,3.344,1.346,5.559-1.628,1.882-5.721,2.706-7.42.505-.322-3.575.231-7.081.505-10.449a30.115,30.115,0,0,1,1.852-8.262c1.485-3.9,4.046-7.437,6.24-10.954,4.629-7.448,10.795-12.518,19.392-16.357,5.348-2.4,10.035-4.151,17.361-4.551,1-.061,2.133.241,3.039-.17C481.514,381.424,481.691,382.777,481.735,383.893Z"/><path class="c3ea396b-4442-4496-adec-1270077964e2" d="M449.028,427.215c-1.831.933-2.73,2.784-5.562,2.7-1.608-5.118-.794-11.646,1.007-17.028a35.355,35.355,0,0,1,2.7-6.742c1.4-2.16,3.69-4.144,4.721-6.746a14.242,14.242,0,0,0,3.212-3.2c4.022-1.791,7.478-5.691,12.3-7.085,1.346-.387,2.632-.275,3.876-.668,1.672-.546,2.944-1.869,5.9-1.519,2.36.275,5.4.712,4.887,2.527-.349,1.245-2.493.916-4.385,1.011a30.306,30.306,0,0,0-16.177,5.233c-4.938,3.086-6.8,5.219-9.615,10.785C449.17,411.886,446.647,420.28,449.028,427.215Z"/><path class="c3ea396b-4442-4496-adec-1270077964e2" d="M521.856,431.268c-3.215-.709-2.2-3.195-2.194-6.4.061-7.485-2.8-13.081-5.718-18.551-4.1-7.665-9.679-11.619-18.382-14.838a20.754,20.754,0,0,0-6.24-1.519c-.936,0-1.4.824-2.866,0a3.475,3.475,0,0,1,0-2.533c1.645-.909,4.005,0,5.894.343,2.435.441,5.1.241,7.421,1.177,1.075.434,1.906,1.438,3.039,2.025a33.558,33.558,0,0,1,5.9,3.371,34.28,34.28,0,0,1,7.078,7.254c2.15,2.9,3.1,5.514,4.89,9.1a25.3,25.3,0,0,1,2.191,4.728c.376,1.55.234,3.225.516,4.884.437,2.754,1.4,5.582,1.346,8.6-.454.451-.583,1.218-1.017,1.682C523.161,430.888,522.2,430.76,521.856,431.268Z"/><path class="c3ea396b-4442-4496-adec-1270077964e2" d="M445.65,391.48c-2.035-.339-3.086,1.163-4.721.675a8.76,8.76,0,0,0,.675-3.71c1.974.97,3.7-1.8,4.382,0A3.441,3.441,0,0,0,445.65,391.48Z"/><path class="c3ea396b-4442-4496-adec-1270077964e2" d="M526.417,389.116c-.777,1.384-.224,3.734-.675,5.06-1.655-.251-2.238.573-3.378.848a7.765,7.765,0,0,0-1.011-5.06c.739-.532,1.36.254,2.031.339C524.725,390.276,525.054,388.594,526.417,389.116Z"/><path class="c3ea396b-4442-4496-adec-1270077964e2" d="M482.243,394.01c.95,1.374.136,3.164.163,4.721-4.66.688-9.544,1.37-12.979,3.371a28.008,28.008,0,0,0-5.9,4.887c-2.771,2.94-4.2,7.146-5.226,12.484s-.712,10-1.014,15.841c-.125,2.459-.665,5.26-1.014,7.76a53.586,53.586,0,0,1-.844,5.565c-.424,1.641-2.462,6.342-3.707,6.566-1.594.305-2.951-2.15-4.212-2.523a75.064,75.064,0,0,1,4.887-10.958c.349-6.311.6-12.358.509-18.375-.105-5.962.424-11.249,3.029-15.346a32.193,32.193,0,0,1,4.222-4.714c1.472-1.543,2.934-2.9,4.378-4.392,3.9-2.011,8.75-3.391,13.145-5.063C478.764,393.43,480.775,393.8,482.243,394.01Z"/><path class="c3ea396b-4442-4496-adec-1270077964e2" d="M522.364,456.9a9.356,9.356,0,0,1-3.714,5.223c-1.156.936-2.031-1.082-3.371-3.032-2.455-3.578-3.792-9.065-4.545-14.163a67.056,67.056,0,0,1-.682-12.467c.356-9.5.356-16.564-3.707-22.767a22.188,22.188,0,0,0-14.834-9.272c-1.933-.343-3.463-.139-5.223-.509-.285-1.506.872-3.778-.173-5.05,1.872-1.984,6.64-.142,8.767.5,1.567.471,3.259.573,4.385,1.187,2.445,1.326,4.161,3.561,6.24,4.209,3.052,2.859,4.7,5.908,6.566,10.622,1.774,4.456,3.5,9.927,2.71,16.53-.393,3.259-1.275,6.047-1.357,8.757C513.19,445.523,517.433,451.936,522.364,456.9Z"/><path class="c3ea396b-4442-4496-adec-1270077964e2" d="M437.9,396.367c-.553,1.591-.007,2.7.505,4.046-.668,1.3-3.558,1.275-4.887,1.353-.773-.811-.828-2.333-1.862-2.873-.054-1.665,1.39-1.513,2.7-2.025C435.709,396.353,437.174,395.061,437.9,396.367Z"/><path class="c3ea396b-4442-4496-adec-1270077964e2" d="M536.025,403.957c-1.129.621-3.917.475-4.219,1.346-1.513-.78-.39-4.148-.339-5.562.5-.051.516.383,1.021.336,1.329-.078,2.011-1.5,3.358-1.007C536.574,400.776,535.533,402.315,536.025,403.957Z"/><path class="c3ea396b-4442-4496-adec-1270077964e2" d="M592.5,428.233c3.558-3.517,7.58-6.579,10.117-11.131,3.8-2.13,5.152-11.1-.336-12.311.987-1.97,4.589-1.648,6.237-1.011,2.038.807,3.836,4.327,3.537,7.427-.3,3.164-3.168,6.786-5.05,8.594-1.319,1.245-2.5,2.984-4.219,4.378-3.161,2.581-6.318,5.013-9.784,7.424-1.611,1.112-4.565,3.273-5.226,3.208a2.893,2.893,0,0,1-1.679-2.706c.234-.963,2.194-1.465,3.2-2.015C590.56,429.383,591.448,428.765,592.5,428.233Z"/><path class="c3ea396b-4442-4496-adec-1270077964e2" d="M428.8,407.664c1.363.37.956,2.157,1.513,3.2.451.848,1.123.926,1.523,1.682-1.743,1.184-4.28,1.57-6.406,2.364-.817-1.214-.783-3.276-1.855-4.219C425.033,409.414,427.631,409.258,428.8,407.664Z"/><path class="c3ea396b-4442-4496-adec-1270077964e2" d="M362.532,413.572c-.621,1.462-2.113,1.452-2.689,2.686-1.553,3.364.336,7.315,2.021,9.276,4.382,5.1,11.514,10.856,15.512,14.838-1.428,4.629-5.464.539-8.092-1.689-2.052-1.733-4.124-2.8-5.738-4.212a68.178,68.178,0,0,1-6.23-6.406c-1.926-2.255-4.127-5.016-5.06-7.417-1.6-4.117-.248-7.02,3.534-7.76A12.083,12.083,0,0,1,362.532,413.572Z"/><path class="c3ea396b-4442-4496-adec-1270077964e2" d="M546.125,413.572c-.919,2.265-2.469,3.921-2.856,6.735-.926.424-1.692-.326-2.36-.678a2.312,2.312,0,0,1-2.7-.336,8.448,8.448,0,0,0,1.011-6.071c1.323-1.326,4.243.634,5.908-.5C545.226,413.236,546.03,413.049,546.125,413.572Z"/><path class="c3ea396b-4442-4496-adec-1270077964e2" d="M507.021,417.777a28.914,28.914,0,0,1-4.545-2.354c-6.708-.848-10.707,2.265-11.806,7.577,2.713.122,5.891-3.232,9.432-.838.563.38.777,1.065,1.357,1.686a2.566,2.566,0,0,1,1.686.672c.153,1.329-1.374.99-2.354,1.177-.912.621-1.852,1.2-2.71,1.855-3.334.471-3.469-2.265-5.392-3.2a2.185,2.185,0,0,1-2.021-.675,3.363,3.363,0,0,1-2.7.166,7.1,7.1,0,0,1,1.689-5.392c2.944-3.425,8.621-5.83,13.322-3.714C504.461,415.413,506.692,416.359,507.021,417.777Z"/><path class="c3ea396b-4442-4496-adec-1270077964e2" d="M479.374,423.685c-1.048.563-2.116.183-3.2.841-.641.387-.631,1.075-1.184,1.519a4.844,4.844,0,0,1-4.884.339c-.614-.339-.5-1.024-.848-1.35-1.407-1.38-3.775-.346-5.728-1.346.607-.8,1.472-.512,2.36-.848,2.469-.922,4.734-2.944,7.417-2.36,1.126.244,1.553,1.431,3.035,1.519,0-5.616-6.881-7.166-11.8-6.912,4.029-1.879,10.853-.037,12.81,2.7A14.124,14.124,0,0,1,479.374,423.685Z"/><path class="c3ea396b-4442-4496-adec-1270077964e2" d="M419.186,431.438c-.763-2.33-2.734-4.358-2.873-6.749,1.764-1,4.494-1.014,5.9-2.364.553-.027.729.312,1.36.18.665.6,1.39,1.845,2.184,2.527.607.516,1.435.387,1.519,1.177.068.6-.807,1.445-1.177,1.692-.855.546-2.343.926-3.534,1.682S420.343,431.384,419.186,431.438Z"/><path class="c3ea396b-4442-4496-adec-1270077964e2" d="M443.12,448.8c-.173,1.692-2.652,2.713-4.212,3.541a52.822,52.822,0,0,1-5.392,2.53,59.659,59.659,0,0,1-20.4,4.219c-10.195.241-20.033-1.842-28.156-4.219-5.762-1.682-10.951-4.714-16.191-7.251-7.855-3.8-15.526-8.061-24.1-11.294-2.825-1.058-5.793-2.235-8.6-3.039-5.711-1.625-13.084-1.374-17.707,1.184-1.875,1.038-4.012,4.2-4.714,6.061a19.72,19.72,0,0,0-.678,7.933,9.385,9.385,0,0,1-5.226-3.541c-2.438-3.157-1.078-8.15,1.177-10.951a27.687,27.687,0,0,1,7.76-6.24c3.049-1.54,7.729-1.93,10.954-2.028a21.533,21.533,0,0,1,8.6,2.028c1.224.509,2.764.811,3.87,1.343,2.4,1.17,4.538,3,7.088,4.049a71.389,71.389,0,0,1,7.251,3.71c4.68,2.591,9.384,5.04,14.5,7.424.556.251.98.7,1.516,1.011a52.3,52.3,0,0,0,5.233,2.354c2.269.98,4.392,2.313,6.749,3.2,13.925,5.3,32.873,10.218,49.4,3.371,3.12-1.3,5.725-3.008,8.764-4.382a9.519,9.519,0,0,0,1.519-.682C442.394,448.955,442.621,448.158,443.12,448.8Z"/><path class="c3ea396b-4442-4496-adec-1270077964e2" d="M552.887,430.091c-1.085,2.116-3.168,3.239-4.389,5.226-1.943-1.146-4.311-1.875-5.732-3.544a20.043,20.043,0,0,0,3.714-4.382C548.292,428.606,551.588,428.355,552.887,430.091Z"/><path class="c3ea396b-4442-4496-adec-1270077964e2" d="M460.325,427.728c.828,1.614.482,3.378.838,5.06a47.945,47.945,0,0,0,3.035,8.085c1.913,4.426,5.44,10.076,9.106,12.647a17.834,17.834,0,0,0,8.431,3.035c2.347.1,5.148-1.14,7.248-2.191,5.213-2.594,8.363-6.976,11.972-11.131.7-2.072,2.343-3.646,3.364-5.562,1.2-2.235,1.706-4.819,3.385-6.739.577,2.459-1.058,4.762-2.028,6.739-3.378,6.827-7.732,14.356-14.166,18.378-4.212,2.628-13.308,3.32-18.209.505a21.787,21.787,0,0,1-6.4-5.908,38.361,38.361,0,0,1-7.088-22.417c-.037-.271.159-.288.17-.505C460.1,427.728,460.209,427.728,460.325,427.728Z"/><path class="c3ea396b-4442-4496-adec-1270077964e2" d="M451.049,430.763c.088,2.951,1.56,6.169.339,9.1-.363.858-3.571,2.951-4.555,3.374a29.089,29.089,0,0,1-4.721,1.017,26.318,26.318,0,0,1-7.756.838c-5.464-.414-11.043-.733-14.336-3.71a29.574,29.574,0,0,1-3.71-4.375,4.576,4.576,0,0,1-.5-2.876c2.065.312,3.659,2.849,6.237,3.374a37.631,37.631,0,0,0,7.248.5c2.822-.02,5.26.522,7.756.17a27.089,27.089,0,0,0,11.463-4.721,5.173,5.173,0,0,0,2.021-2.7Z"/><path class="c3ea396b-4442-4496-adec-1270077964e2" d="M556.927,435.986c-.173,1.058-1.275,1.689-2.015,2.36-.705.624-1.448,1.387-2.2,2.025-1.679,1.424-3.419,1.991-5.562,2.862a30.231,30.231,0,0,1-7.421,2.53c-6.529,1.007-13.715-.047-18.378-3.035a11.52,11.52,0,0,1-6.25-3.2,37.72,37.72,0,0,0,.176-3.887,20.164,20.164,0,0,0,2.028-3.039c.047.02.122-.017.173,0,8.689,4.877,26.867,10.2,37.082,4.219C555.2,436.457,556.038,435.552,556.927,435.986Z"/><path class="c3ea396b-4442-4496-adec-1270077964e2" d="M485.784,434.131c-.566,1.625-2.622,1.767-3.717,2.876-.688-.906-2.221-1.8-2.184-2.876C481.368,434.494,484.638,433.92,485.784,434.131Z"/><path class="c3ea396b-4442-4496-adec-1270077964e2" d="M583.736,436.325a8.941,8.941,0,0,1-2.869,2.36c-2.1,1.241-4.545,2.265-6.919,3.371-4.985,2.337-10.724,5.626-17.025,6.579-.536-.376-.278-1.516-.336-2.367,9.123-3.113,17.073-7.42,25.453-11.3C583.031,435.009,583.2,435.85,583.736,436.325Z"/><path class="c3ea396b-4442-4496-adec-1270077964e2" d="M482.406,443.074c1.16-.254,1.441-1.374,2.7-1.526.641.441.794,1.343,1.516,1.692a14.768,14.768,0,0,0,5.9-1.343c.112,1.014-1.357,1.16-2.015,1.679-.817.641-1.214,1.767-2.035,2.533a19.22,19.22,0,0,1-1.679,1.017c-1.153.8-1.886,1.794-3.714,2.011-3.931.475-7.624-2.415-10.1-5.562-1.017-.281-1.94-.651-2.031-1.848,2.472,1.842,5.545,1.777,8.428.336.39-.193.8-.906,1.516-.509C481.538,441.924,481.735,442.731,482.406,443.074Zm5.06,1.682a43.322,43.322,0,0,1-10.446-.336C478.18,448.632,485.754,448.246,487.466,444.756Z"/><path class="c3ea396b-4442-4496-adec-1270077964e2" d="M633.987,443.742c-3.147.875-6.427.977-9.449,1.346a91.906,91.906,0,0,0-30.689,9.618c-.468-2.327-2.608-3.483-2.187-5.738,3.235-1.591,7.119-2.374,11.127-3.88,4.887-1.835,10.792-2.3,16.177-3.035a35.413,35.413,0,0,1,7.6-.163C629.263,442.094,632.681,442.158,633.987,443.742Z"/><path class="c3ea396b-4442-4496-adec-1270077964e2" d="M405.02,452.682c-4.68.38-9.323-1.689-13.484-2.866-4.528-1.279-8.872-2.686-12.474-4.89a2.979,2.979,0,0,1,1.177-2.866c.275.047.292-.156.512-.163,4.436,2.825,11.9,5.009,18.544,6.908C401.374,449.4,407.34,449.575,405.02,452.682Z"/><path class="c3ea396b-4442-4496-adec-1270077964e2" d="M461,444.583a1.892,1.892,0,0,1-.5,2.873C458.174,447.486,458.029,443.342,461,444.583Z"/><path class="c3ea396b-4442-4496-adec-1270077964e2" d="M370.126,457.566c-.193,2.788-1.38,4.585-1.692,7.258-7.39-.641-14.19-4.124-20.908-6.41-2.221-.763-4.724-1.421-6.746-2.357a50.322,50.322,0,0,1-4.545-2.866c-1.594-.97-3.412-1.455-4.548-2.866-1.472.058-1.991-1.187-3.039-1.855-.743-.475-1.648-.58-2.2-1.011-.675-.529-1.9-1.635-2.018-2.364-.122-.448.343-.326.5-.509C341.342,447.571,355.325,452.984,370.126,457.566Z"/><path class="c3ea396b-4442-4496-adec-1270077964e2" d="M508.375,445.6c.061,2.113-2.75,2.6-3.042.841A1.6,1.6,0,0,1,508.375,445.6Z"/><path class="c3ea396b-4442-4496-adec-1270077964e2" d="M552.372,449.816c-2.123,1.112-5.236,1.089-7.916,1.177-3.805.129-7.834-.075-10.809-1.177-1.5.105-2.5-.3-2.859-1.35,3.615-.305,10.686.244,15.685-.17a9.365,9.365,0,0,0,3.876-.841C551.293,446.818,552.385,449.27,552.372,449.816Z"/><path class="c3ea396b-4442-4496-adec-1270077964e2" d="M437.565,448.8c-1.15,2-4.389,1.916-6.24,3.2-8.282,1.268-16.557,3.646-24.612,1.014a4.776,4.776,0,0,1,.844-2.191c6.529-.047,12.253,1.062,18.039.166C429.571,450.376,433.108,449.24,437.565,448.8Z"/><path class="c3ea396b-4442-4496-adec-1270077964e2" d="M461.668,455.205c-.909.109-1.37.661-2.523.509a.9.9,0,0,0-.5-.509c-.064-1.075.475-1.547.5-2.523C460.84,451.434,462.726,453.231,461.668,455.205Z"/><path class="c3ea396b-4442-4496-adec-1270077964e2" d="M561.149,470.382c-1.421-1.682-.98-5.206-1.862-7.417,9.706-2.042,19.467-5.8,26.463-10.283a1.7,1.7,0,0,1,1.686,0c-.258,1.865,3.015,2.571,3.042,4.551.024,1.367-4.358,3.7-5.572,4.378-4.558,2.594-8.872,4.117-13.817,6.074C567.844,468.968,564.9,470.446,561.149,470.382Z"/><path class="c3ea396b-4442-4496-adec-1270077964e2" d="M508.375,453.187c1.421,3.008-2.995,3.778-3.2,1.682C505.031,453.53,506.977,452.451,508.375,453.187Z"/><path class="c3ea396b-4442-4496-adec-1270077964e2" d="M449.028,458.919a39.009,39.009,0,0,1-15.17,8.94,86.547,86.547,0,0,1-8.774,2.523,75.745,75.745,0,0,1-13.149,1.014,11.415,11.415,0,0,1-5.223-1.014,25.866,25.866,0,0,1-.339-6.071c8.238,1.526,15.384-.729,22.424-2.7,4.426-1.234,8.367-3.368,11.968-4.89.594-.248,3.239-2.055,3.7-1.852A10.9,10.9,0,0,1,449.028,458.919Z"/><path class="c3ea396b-4442-4496-adec-1270077964e2" d="M402.49,464.311c1.645,1.852.5,5.416-.668,6.915-10.832.2-22.133-1.323-29.675-6.4a39.014,39.014,0,0,0,1.519-7.258c4.2,1.723,7.794,3.4,13.145,4.392A122.654,122.654,0,0,0,402.49,464.311Z"/><path class="c3ea396b-4442-4496-adec-1270077964e2" d="M505.678,472.4c-1.638-1.285-3.639-2.2-5.4-3.371.638-2.6-1.513-4.083-3.71-3.876-.872-2.561-2.679-4.178-4.555-5.732-6.278.828-14.285,3.137-20.562,0a11.625,11.625,0,0,0-4.721,5.732c-2.2-.207-4.341,1.275-3.71,3.876-1.76,1.17-3.765,2.086-5.4,3.371.787-7.248,7.017-10.52,11.636-14.5,3.449.756,6.908,2.832,11.131,2.537,4.589-.326,8.753-1.543,13.315-2.537a34.971,34.971,0,0,1,4.219,3.035c2.279,1.869,4.287,3.422,5.725,6.244C504.546,468.927,506.112,470.036,505.678,472.4Z"/><path class="c3ea396b-4442-4496-adec-1270077964e2" d="M555.241,463.636c.363,2.876.926,4.592,1.011,7.587-3.408.326-7.777,1.34-11.643,1.18-2.713-.109-5.057-.939-7.573-1.516a42.081,42.081,0,0,1-10.463-3.368c-1.916-1.007-3.717-2.181-5.4-3.208.563-1.4,1.35-2.594,1.862-4.046a22.868,22.868,0,0,1,1.862-1.346c7.281,4.314,18.572,5.47,28.824,5.392C554.654,464.515,554.254,463.389,555.241,463.636Z"/><path class="c3ea396b-4442-4496-adec-1270077964e2" d="M454.759,460.774c2.679-.678,2.242,3.1.509,3.378C452.921,464.511,452.589,461.32,454.759,460.774Z"/><path class="c3ea396b-4442-4496-adec-1270077964e2" d="M508.375,463.636c-.57-3.066,3.161-2.957,3.371-1.18C511.925,464.009,509.6,464.969,508.375,463.636Z"/><path class="c3ea396b-4442-4496-adec-1270077964e2" d="M366.246,468.866c.01,1.777-.716,4.426-2.194,4.724-1.414.285-2.842-1-4.043-1.353-3.354-.967-7.092-1.418-10.785-2.357-8.686-2.208-17.934-4.483-27.149-6.406-1.74-.37-3.839-.095-5.057-1.513-.051-.39.037-.641.336-.688C334.709,462.293,348.644,467.119,366.246,468.866Z"/><path class="c3ea396b-4442-4496-adec-1270077964e2" d="M645.949,462.8c-.885,1.953-3.463,1.892-5.226,2.36-5.749,1.523-11.8,2.944-17.873,4.382-3.781.906-7.658,1.981-11.629,2.866-4.063.9-8.2,2.259-12.487,2.191-1.106-1.489-1.611-4.955-1.177-6.908a24.049,24.049,0,0,0,7.071-.5c10.147-1.618,23.082-2.245,32.89-3.887,1.879-.312,3.887-.288,5.389-.668C643.653,462.436,645.087,461.842,645.949,462.8Z"/><path class="c3ea396b-4442-4496-adec-1270077964e2" d="M478.533,474.092a11.16,11.16,0,0,0,.844-6.749c-.326-1.3-1.76-2.235-1.014-3.537.237.02.478.034.512-.166,1.224.254,1.787.8,2.7.672.743-.1,2.483-2.215,3.035-.336.366,1.306-2.252,4.219-1.859,7.251.092.733.556,1.4.509,1.852C482.949,475.645,479.517,474.842,478.533,474.092Z"/><path class="c3ea396b-4442-4496-adec-1270077964e2" d="M451.89,470.382c-.19-.027-.3.041-.336.176-.97-.149-1.865-.617-1.852-1.346C449.723,467.2,453.491,468.049,451.89,470.382Z"/><path class="c3ea396b-4442-4496-adec-1270077964e2" d="M591.994,469.208c-.166,1.54,1,3.575.682,5.219-2.327,1.55-5.721,1.058-8.77,1.187-3.927.149-8.194.2-12.138.668-3.432.4-6.43,1.445-9.784,1.516-.393-.56-.454-1.458-.834-2.021,2.934-2,6.952-1.37,10.788-2.021,4.188-.726,8.6-2.683,12.647-3.381.37-.068.8.092,1.17,0C587.907,469.877,589.858,468.581,591.994,469.208Z"/><path class="c3ea396b-4442-4496-adec-1270077964e2" d="M510.735,469.537c2.513-2.174,3.812,2.52,1.177,2.191C511.084,471.627,510.674,470.857,510.735,469.537Z"/><path class="c3ea396b-4442-4496-adec-1270077964e2" d="M402.663,474.933c.312,1.994-1.014,2.367-2.194,2.866-8.957-1.747-21.4-2.259-31.028-3.208.441-1.479,1.343-2.812,1.014-4.551-.027-.142.064-.156.176-.166C380.8,471.837,391.6,473.665,402.663,474.933Z"/><path class="c3ea396b-4442-4496-adec-1270077964e2" d="M406.712,477.3a3.23,3.23,0,0,1,0-2.194c3.442-.577,9.181-.119,13.82-.675,4.341-.526,9.208-1.974,13.83-2.36.882-.071,1.8.129,2.7,0,.627-.085,1.648-.685,2.7-.844,1.92-.292,5.718-.743,5.894.675.244,1.913-5.135,2.459-7.58,2.866-2.493.41-6.02.889-8.77,1.519a42.581,42.581,0,0,1-9.276,1.173C415.476,477.46,410.915,478.66,406.712,477.3Z"/><path class="c3ea396b-4442-4496-adec-1270077964e2" d="M555.919,477.969c-5.7.38-11.751-.454-17.876-1.007-6.59-.6-12.82.166-19.4-1.017-.482-.638-.421-1.825-.5-2.869a1.315,1.315,0,0,1,.5-.332c1.937-.02,3.985.675,6.081,1.017,6.535,1.038,14.136,1.021,20.908,1.682,1.767.173,3.982.556,5.888.668C552.972,476.2,556.123,475.34,555.919,477.969Z"/><path class="c3ea396b-4442-4496-adec-1270077964e2" d="M451.724,479.654a1.7,1.7,0,0,1-2.018.509C447.969,477.592,452.372,475.968,451.724,479.654Z"/><path class="c3ea396b-4442-4496-adec-1270077964e2" d="M511.746,477.46a2.108,2.108,0,0,1,2.2,1.523c-.115.672-.8.773-1.011,1.346a1.5,1.5,0,0,1-1.862-.844A15.4,15.4,0,0,0,511.746,477.46Z"/><path class="c3ea396b-4442-4496-adec-1270077964e2" d="M365.574,489.259c-.807.393-2.527.844-3.371.176-3.28,1.445-7.905.638-12.152.5a119.569,119.569,0,0,1-17.859-1.679c-4.534-.851-8.377-2.472-13.834-2.527,1.333-1.431,3.364-1.262,5.233-1.519,5.65-.79,12.172-2.31,18.205-3.541,2.516-.512,4.046-1.156,6.742-1.523.353-.047.8.251,1.187.176.224-.051.431-.478.668-.505,1.414-.18,3.029-.312,4.219-.343,1.509-.027,3.653.166,5.392.173,3.653,0,6.183-.01,6.742,3.87C367.128,485.141,366.188,487.309,365.574,489.259Z"/><path class="c3ea396b-4442-4496-adec-1270077964e2" d="M401.479,481.679c1.021,1.028,1.065,2.852.675,4.721-10.347.716-21.787,1.682-31.524,2.53a19.669,19.669,0,0,0,.163-8.943c.583-.566,1.736-.064,2.7,0C382.243,480.648,392.984,480.448,401.479,481.679Z"/><path class="c3ea396b-4442-4496-adec-1270077964e2" d="M482.067,479.99c1.251.726,2.15,3.927.339,4.894-1.214.644-3.4-.176-3.707-1.18C478.048,481.594,479.985,479.929,482.067,479.99Z"/><path class="c3ea396b-4442-4496-adec-1270077964e2" d="M591.489,480.163c.281,1.465-.848,3.144-.682,4.884.122,1.153.95,1.872.682,2.866-9.669-.828-20.393-1.146-31.188-2.028a5.387,5.387,0,0,1,.173-3.87A157.2,157.2,0,0,1,591.489,480.163Z"/><path class="c3ea396b-4442-4496-adec-1270077964e2" d="M406.373,486.223c.675-1.814-.3-3.035.163-4.375.346-.7,1.625-.081,2.533,0,3.073.271,6.576.142,9.608.505,4.121.492,7.732-.166,11.463-.166,1.818,0,3.483.312,5.053.332,2.265.051,4.416-.254,6.919-.166,1.085.037,5.352-.492,4.555,1.689-.387,1.034-1.289.594-2.7.668-4.7.285-9.659.577-15,1.021C420.773,486.4,413.994,485.379,406.373,486.223Z"/><path class="c3ea396b-4442-4496-adec-1270077964e2" d="M461.668,485.728c-1.275-4.127,5.1-2.3,7.929-2.537.668-1.2,3.14-2.5,3.032-.163-.105,2.415-3.887,1.245-6.41,1.519C464.242,484.765,462.922,485.935,461.668,485.728Z"/><path class="c3ea396b-4442-4496-adec-1270077964e2" d="M500.615,483.534a1.866,1.866,0,0,1-.17,2.35c-.946.288-1.937-.675-3.537-1-3.358-.692-9.466.41-6.071-3.2C493,484.263,497.346,482.438,500.615,483.534Z"/><path class="c3ea396b-4442-4496-adec-1270077964e2" d="M555.241,482.35a17.031,17.031,0,0,0,.336,3.039c-13.634.6-27.138-.421-38.951-.844a2.214,2.214,0,0,1,.173-1.519c.8-1.221,2.089-.475,3.212-.509,4.467-.129,10.307-.678,14.325-.5C541.4,482.323,548.651,483.12,555.241,482.35Z"/><path class="c3ea396b-4442-4496-adec-1270077964e2" d="M512.248,485.888a11.011,11.011,0,0,1,.682,2.2C510.674,491.477,508.656,485.186,512.248,485.888Z"/><path class="c3ea396b-4442-4496-adec-1270077964e2" d="M456.784,485.888c1.614.187,1.74,1.859,2.693,2.7-.163.624-.6.97-.838,1.513.387,1.916,2.164,2.445,3.371,3.551-1.156,1.407-.285,3.486-.505,5.4-1.329-.614-1.8-2.337-2.527-3.887a23.031,23.031,0,0,1-2.194-6.4c-.17-.906-.828-1.916-.343-2.879Z"/><path class="c3ea396b-4442-4496-adec-1270077964e2" d="M506.18,486.223c-.17,2.093-.77,3.741-1.014,5.738-1.821,2.008-2.327,6.206-4.724,7.095.159-1.258.651-1.906.509-3.042-.071-.563-.57-.96-.509-1.519.22-1.906,2.923-1.96,3.371-4.046C502.616,488.506,504.156,485.314,506.18,486.223Z"/><path class="c3ea396b-4442-4496-adec-1270077964e2" d="M450.038,489.767c-2.069-2.235,1.9-4.592,2.364-2.025C452.619,488.953,451.829,489.964,450.038,489.767Z"/><path class="c3ea396b-4442-4496-adec-1270077964e2" d="M446.494,490.1c-5.725.553-12.111,1.723-17.863,2.2-.366.027-.736-.383-1.017-.343-.529.081-1.173.387-1.682.5-1.482.349-3.541.4-5.4.682-5.2.773-11.331,1.679-17.025,2.7.234-1.6.414-4.07,2.021-4.89,1.214-.624,4.355-.336,6.746-.668.638-.095,1.472-.461,2.021-.512,4.609-.417,9.978-.475,14.159-.838.926-.081,1.743-.461,2.533-.516,1.814-.119,5.216.526,7.085-.159C440.339,488.977,446.362,486.067,446.494,490.1Z"/><path class="c3ea396b-4442-4496-adec-1270077964e2" d="M558.28,494.827a7.434,7.434,0,0,1-3.724-.844c-8.947-.047-17.985-2.055-26.121-2.689a97.124,97.124,0,0,1-12.484-1.357c.607-3.154,6.02-1.7,9.615-1.519,2.784.153,5.9-.068,9.106.176,4.168.319,8.373.6,12.979,1.017,1.689.146,3.571.237,5.06.5.665.119,1.245.59,1.845.675.844.125,1.54-.322,2.2,0C557.839,491.3,558.409,493.474,558.28,494.827Z"/><path class="c3ea396b-4442-4496-adec-1270077964e2" d="M593.344,494.322a6.986,6.986,0,0,1,.668,6.739c-10.232-1.635-20.827-3.768-31.018-4.887.041-1.726-.478-3.334-.505-4.721,2.4-.224,7.753.271,11.643.505A179.236,179.236,0,0,1,593.344,494.322Z"/><path class="c3ea396b-4442-4496-adec-1270077964e2" d="M484.1,502.251c-.777.95-2.32.22-3.2-.166-.861.258-1.214,1.028-2.53.834a1.44,1.44,0,0,0-.678-.668c.2-1.085,1.048-1.753,1.353-3.385.437-2.313-.2-5.294.505-6.562a1.909,1.909,0,0,1,2.357-.848c1.923,1.007.146,5.616,1.014,8.435C483.237,500.932,483.973,501.068,484.1,502.251Z"/><path class="c3ea396b-4442-4496-adec-1270077964e2" d="M400.133,491.962c-.156,1.641-.936,2.652-.675,4.728-10.6,2.133-21.329,3.144-31.693,5.4-1.146-2.469-.526-5.9,1.516-7.088,1.842-1.068,7.017-.8,10.954-1.343,1.211-.18,2.89-.743,4.043-.848,1.489-.129,2.767.112,4.049,0C393.086,492.4,397.3,491.7,400.133,491.962Z"/><path class="c3ea396b-4442-4496-adec-1270077964e2" d="M558.446,503.6a1.857,1.857,0,0,1-.505,1.516c-3.768-.427-7.387-2.035-11.134-3.032-1.892-.516-3.934-.858-5.894-1.36-4.11-1.038-8.716-2.31-12.813-3.195-2.293-.5-4.616-.828-6.919-1.353a67.131,67.131,0,0,1-6.569-1.686.456.456,0,0,1,.343-.509,1.062,1.062,0,0,1,.505-.329c9.4,1.825,18.687,3.239,27.132,5.725A68.839,68.839,0,0,1,558.446,503.6Z"/><path class="c3ea396b-4442-4496-adec-1270077964e2" d="M448.014,494.322c-.427,1.2-2.062,1.034-3.032,1.187a246.2,246.2,0,0,0-32.538,7.916c-1.2.363-2.828.59-4.551,1.187-1.465.5-3.046,1.577-3.883,1.007-2.4-1.624.994-2.5,3.035-3.032,4.694-1.241,9.917-2.849,14.671-3.887,1.909-.41,3.971-.21,5.06-1.173,3.683.071,7.329-1.465,11.127-2.2A44.96,44.96,0,0,1,448.014,494.322Z"/><path class="c3ea396b-4442-4496-adec-1270077964e2" d="M637.345,526.517a9.147,9.147,0,0,0-.831-4.88c-.9-1.716-2.021-4.063-3.551-5.4-.692-.607-1.808-.987-2.693-1.686a47.088,47.088,0,0,0-11.812-6.749,101.239,101.239,0,0,0-19.036-5.555c.621-2.564-.3-5.321-.505-7.59,3.252-.482,9.184.834,13.145,1.516a88.494,88.494,0,0,1,10.276,2.187,37.438,37.438,0,0,1,9.109,3.887c.97.594,2.021.831,2.873,1.346.505.309.929,1.072,1.516,1.516a32.734,32.734,0,0,1,5.732,4.89c.539.668,1.011,1.92,1.686,3.039a8.783,8.783,0,0,1,.163,9.438A10.948,10.948,0,0,1,637.345,526.517Z"/><path class="c3ea396b-4442-4496-adec-1270077964e2" d="M454.925,498.032a2.041,2.041,0,0,1-2.693-.5C452.324,493.732,456.285,495.061,454.925,498.032Z"/><path class="c3ea396b-4442-4496-adec-1270077964e2" d="M363.543,495.333c.346,1.231-.773,2.3-.841,3.724-.068,1.519.882,2.856.675,4.2-9.425,1.7-19.141,4.127-25.962,8.947-2.035.207-2.54,1.953-4.555,2.184-2.886,3.866-9.191,6.417-7.583,13.155-3.761.149-6-2.645-7.77-5.053a3.208,3.208,0,0,0-.326-2.533c-.051-4.216,1.784-6.535,3.212-9.272,2.238-1.662,4.043-3.951,6.562-5.562,2.927-1.869,6.274-3.018,9.615-4.392a55.171,55.171,0,0,1,7.583-2.513c3.469-.919,8.017-1.221,11.968-2.367C358.6,496.4,361.332,495.024,363.543,495.333Z"/><path class="c3ea396b-4442-4496-adec-1270077964e2" d="M508.537,498.7c-2.316.332-1.913-3.473,0-3.191C509.958,495.706,510.111,498.07,508.537,498.7Z"/><path class="c3ea396b-4442-4496-adec-1270077964e2" d="M448.692,497.693c-1.085,1.445-3.534,1.526-5.4,2.194a8.363,8.363,0,0,1-3.71,1.35c-4.555,2.2-9.394,3.887-13.993,6.237-1.553.783-2.984,1.838-4.548,2.689-1.6.882-3.361,1.618-4.728,2.523-1.55,1.055-2.639,3.022-4.382,3.727-1.526.6-3.341.292-4.89.668-1.167.288-1.981,1.14-3.2.844,1.218-2.174,3.53-3.524,5.569-4.884,2.055-1.4,4.28-2.608,6.233-4.053a148.34,148.34,0,0,1,25.46-9.784C443.818,498.47,445.745,497.388,448.692,497.693Z"/><path class="c3ea396b-4442-4496-adec-1270077964e2" d="M521.177,548.779c1.4-1.791,3.737-2.761,4.9-4.887a27.133,27.133,0,0,0,2.866-8.431,41.973,41.973,0,0,0-2.367-20.227c-2.91-7.173-8.533-11.772-13.993-15.682a1.991,1.991,0,0,1,.844-1.679,54.607,54.607,0,0,1,8.774,6.566c4.012,3.887,8.594,9.269,11.124,15.014a35.534,35.534,0,0,1,1.686,6.742c1.133,7.163-.122,16.137-4.551,20.742C528.56,548.894,523.775,551.278,521.177,548.779Z"/><path class="c3ea396b-4442-4496-adec-1270077964e2" d="M557.771,517.085c-2.778-.9-5.833-.288-8.6-1.516-1.5-.672-2.832-2.449-4.382-3.368-1.173-.705-2.048-1.092-3.2-1.865a81.216,81.216,0,0,0-9.944-5.219c-1.285-.624-2.4-1.716-3.714-2.194-2.615-.977-5.3-1.068-7.746-3.032v-.512c.129-.027.159-.17.332-.17,4.439.882,8.221,2.581,12.474,4.046,1.458.5,2.655,1.255,4.053,1.862,1.374.58,2.761,1.411,4.039,1.855.41.142.95-.01,1.35.166.668.3,1.2,1.068,1.862,1.35,3.6,1.533,7.427,3.375,10.269,5.894C556.038,514.783,557.707,515.824,557.771,517.085Z"/><path class="c3ea396b-4442-4496-adec-1270077964e2" d="M451.049,501.4c1.238,1.458-.288,1.987-1.519,3.032-.855.736-1.3,1.574-1.848,2.035-2.51,2.031-5.843,3.982-7.085,6.223-5.765,4.2-10.985,8.916-16.52,13.328-1.492-.58-3.32-.844-4.219-2.021,1.492-2.506,4.531-3.456,6.746-5.233,7.7-5.9,16.082-11.1,23.435-17.361C450.377,501.4,450.717,501.4,451.049,501.4Z"/><path class="c3ea396b-4442-4496-adec-1270077964e2" d="M496.745,502.587a22.761,22.761,0,0,1-12.647,5.4c-.214-1.567,1.319-2.689,2.523-3.371.807-.024,1.2.363,1.855.505,1.7-.448,2.4-1.879,3.2-3.2C493.283,502.794,495.311,502.109,496.745,502.587Z"/><path class="c3ea396b-4442-4496-adec-1270077964e2" d="M477.858,508.322a28.94,28.94,0,0,1-13.145-5.226c1.258-1,3.8-.122,5.389-1.011,1.041,1.316,1.3,3.334,3.2,3.53.9.1,1.6-.722,2.36-.668C477.258,505.049,477.58,506.7,477.858,508.322Z"/><path class="c3ea396b-4442-4496-adec-1270077964e2" d="M458.809,502.757c2.055-.736,2.533,2.815.841,3.212C457.964,506.338,457.035,503.377,458.809,502.757Z"/><path class="c3ea396b-4442-4496-adec-1270077964e2" d="M502.806,503.255c1.784,1.285-.349,4.27-2.015,2.537C500.656,504.144,501.12,503.1,502.806,503.255Z"/><path class="c3ea396b-4442-4496-adec-1270077964e2" d="M522.866,517.421c-4.263-4.5-9.232-8.292-13.993-12.3.858-3.829,5.243,1.8,6.583,2.866,1.421,1.146,4.063,2.513,5.05,3.88a32.009,32.009,0,0,1,1.513,2.866C522.551,515.644,523.585,516.723,522.866,517.421Z"/><path class="c3ea396b-4442-4496-adec-1270077964e2" d="M595.7,515.407c-2.554.549-5.019,1.943-7.58,1.679-2.428-.248-5.416-2.659-8.428-3.714-2.642-.919-5.433-1.407-7.254-3.039-4.039-.892-7.414-2.472-10.958-3.87.2-3.259,2.3-1.686,4.039-1.187,1.374.4,3.022.387,4.558.844,1.937.563,4,1.74,6.074,2.36,2.184.644,4.331,1.648,6.237,2.021,2.3.448,4.158,1.509,6.244,1.692C590.482,513.772,594.134,513.545,595.7,515.407Z"/><path class="c3ea396b-4442-4496-adec-1270077964e2" d="M400.638,507.806c-3.066,1.282-6.322,2.011-9.6,3.378-.987.4-1.784,1.133-2.876,1.506-1.038.383-2.282.448-3.364.855-2.221.814-4.378,1.733-6.244,2.53-1.5.638-3.191,1.981-4.545,2.191-2.944.454-6.237-1.428-8.774-1.689,2.754-2.374,6.508-2.754,9.951-3.887,2.527-.821,5-2.154,7.583-2.852,2.9-.794,6.559-1.73,9.784-2.7a68.505,68.505,0,0,0,6.562-2.191h.343A4.968,4.968,0,0,1,400.638,507.806Z"/><path class="c3ea396b-4442-4496-adec-1270077964e2" d="M571.591,518.937a5.716,5.716,0,0,1-3.195-.173c-.587-.244-.692-.787-1.357-1.343a49.387,49.387,0,0,0-8.258-5.894c-1-.536-2.31-.773-3.2-1.357-.3-.2-.37-.668-.661-.841-2.337-1.285-5.311-2.065-7.261-3.534a43.261,43.261,0,0,1,17.866,7.414C567.973,514.935,570.228,516.35,571.591,518.937Z"/><path class="c3ea396b-4442-4496-adec-1270077964e2" d="M413.787,505.968c.166.458-1.1.828-1.007.159A1.331,1.331,0,0,1,413.787,505.968Z"/><path class="c3ea396b-4442-4496-adec-1270077964e2" d="M412.112,506.636c-.478.875-1.655,1.238-2.537,1.686-2.245,1.092-4.623,2.14-6.912,3.2-.685,1.051-1.628,1.5-3.039,2.523-.7.505-1.672.811-2.357,1.357-2.367,1.855-2.968,4.68-7.081,4.382.241-1.645,1.77-2.727,3.039-3.714a62.432,62.432,0,0,1,18.378-9.608C411.867,506.416,411.891,506.619,412.112,506.636Z"/><path class="c3ea396b-4442-4496-adec-1270077964e2" d="M435.709,507.138h.672c-.339,1.055-1.533,1.611-2.36,2.191a14.3,14.3,0,0,1-2.866,1.686c-1.465,1.516-3.948,2.011-5.4,3.544-10.88,5.525-22.353,11.358-37.425,12.138a3.388,3.388,0,0,1,.505-3.2c5.65-.705,11.619-.956,17.873-2.689a83.67,83.67,0,0,0,14.5-5.738c.648-.322,1.207-.875,1.859-1.18C427.5,511.808,432.566,509.445,435.709,507.138Z"/><path class="c3ea396b-4442-4496-adec-1270077964e2" d="M456.445,508.146a143.032,143.032,0,0,1-10.792,11.643c-.627,1.726-2.923,3.6-4.375,5.226-.716.783-1.2,2.167-2.028,2.523-2.249.953-5.64-.047-8.092,0,.444-1.831,2.276-2.364,3.537-3.381a190.118,190.118,0,0,0,15.011-12.972c2.076-.95,3.432-2.642,5.053-4.046C455.841,506.948,455.967,507.722,456.445,508.146Z"/><path class="c3ea396b-4442-4496-adec-1270077964e2" d="M524.552,532.761c-2.615-1.547-3.283-5.026-5.9-6.573-2.476-4.426-5.755-7.332-8.933-11.466-.583-.763-1.574-1.96-2.367-2.866-.777-.912-2.323-2.2-2.347-2.7-.061-1.031.594-1.357,1.343-1.357,1,.014,1.943,2.021,3.2,3.2,2.669,2.533,5.579,5.277,8.6,8.1,1.224,1.146,2.513,1.845,3.71,2.866a12.981,12.981,0,0,1,2.876,3.371C525.583,527.809,524.606,530.834,524.552,532.761Z"/><path class="c3ea396b-4442-4496-adec-1270077964e2" d="M466.731,508.651c1.611-.353,2.31,2.791.675,3.208C465.622,512.31,464.5,509.133,466.731,508.651Z"/><path class="c3ea396b-4442-4496-adec-1270077964e2" d="M494.378,508.651c2.035-.5,1.869,3.056.349,3.208C493.1,512.019,492.6,509.1,494.378,508.651Z"/><path class="c3ea396b-4442-4496-adec-1270077964e2" d="M458.466,514.555c-3.039,4.609-6.393,9.791-11.972,11.294a16.114,16.114,0,0,1,2.869-3.88c2.072-2.3,4.243-4.626,6.4-7.075,1.214-1.377,2.228-2.808,3.378-4.06C461.556,511.215,459.511,514.115,458.466,514.555Z"/><path class="c3ea396b-4442-4496-adec-1270077964e2" d="M615.758,511.184c2.313,1.8-.044,5.986-1.343,7.58-3.419,4.239-9.384,5.162-17.025,6.41a67.3,67.3,0,0,1-16.181.844,9.121,9.121,0,0,1-4.049.173,7.608,7.608,0,0,1,.336-3.371c.933-.811,2.143-.5,3.717-.505,3.161-.037,6.827-.943,10.113-1.513a65.026,65.026,0,0,0,10.452-2.533c5.331-1.96,10.585-3.6,13.651-7.081C615.538,511.184,615.656,511.184,615.758,511.184Z"/><path class="c3ea396b-4442-4496-adec-1270077964e2" d="M476.169,511.686a1.645,1.645,0,0,1,1.513,1c.6,2.228-2.282,2.893-2.7,1.024A1.636,1.636,0,0,1,476.169,511.686Z"/><path class="c3ea396b-4442-4496-adec-1270077964e2" d="M487.131,511.859a7.2,7.2,0,0,0,.5,1.513c-.57,1.509-2.845,1.526-3.029,0A1.646,1.646,0,0,1,487.131,511.859Z"/><path class="c3ea396b-4442-4496-adec-1270077964e2" d="M533.146,511.859c6.223,2.327,11.487,5.894,18.89,7.587.583.136,1.475.783,2.36,1.011,3.256.8,6.986,1.18,10.615,1.679a26.646,26.646,0,0,0,7.088.349c.875.475,1.068,1.991.509,3.035-15.926-.475-28.353-6.271-39.29-12.989A1,1,0,0,1,533.146,511.859Z"/><path class="c3ea396b-4442-4496-adec-1270077964e2" d="M384.624,523.489a17.963,17.963,0,0,1,0,3.547c-5.82.624-13.091.153-19.223-.516a41.058,41.058,0,0,1-9.947-2.021,30.068,30.068,0,0,1-5.9-2.7c-1.567-.906-3.68-2.045-4.212-3.866a6.524,6.524,0,0,1,1.011-5.569c1.553.522,2.856,2.455,4.382,3.2.621.3,1.645.414,2.527.848a20.03,20.03,0,0,0,2.2,1.173c3.537,1,7.3,2.588,10.792,3.208,1.7.305,3.547.539,5.4.838C375.508,522.264,380.212,522.7,384.624,523.489Z"/><path class="c3ea396b-4442-4496-adec-1270077964e2" d="M521.025,544.4c-1.112-.407-1.492-1.54-2.028-2.527-6.725-9.472-13.077-19.3-19.9-28.665.288-.329.522-.712,1-.841h.343c2.608,3.266,5.687,6.925,8.6,10.276,3.181,3.666,6.288,7.858,9.445,11.812.777.967,1.34,2,2.021,2.859.746.926,2.211,1.716,2.357,2.873C523.08,541.765,521.574,543.139,521.025,544.4Z"/><path class="c3ea396b-4442-4496-adec-1270077964e2" d="M465.042,514.383c1.74,2.164-1.557,4.456-2.527,6.074-5.637,8.126-14.787,16.747-27.65,18.036a15.422,15.422,0,0,1-2.862-.166c-.824-.061-1.706-.336-2.364-.343-.468-.007-.946.37-1.35.343-4.375-.3-10.378-3.3-12.308-6.41-1.058-1.7-2.177-5.521-.505-7.587,1.967,1.624,3.554,3.883,6.237,5.057,6.362,2.788,15.536,2.659,22.428.841a33.888,33.888,0,0,0,17.527-11.633c1.119-1.36,1.726-3.235,3.2-4.216C464.937,514.383,464.988,514.383,465.042,514.383Z"/><path class="c3ea396b-4442-4496-adec-1270077964e2" d="M495.226,515.23h.509c4.422,13.271,8.92,26.477,16.845,36.248a30.364,30.364,0,0,1,1.689,9.106c-2.866-2.194-4.558-5.945-6.406-9.272-.383-.712-1.17-1.268-1.516-2.021-.838-1.828-1.224-3.8-2.191-5.738a59.453,59.453,0,0,1-3.2-8.258c-.716-2.242-1.92-4.344-2.53-6.41-.244-.8-.1-1.733-.343-2.53-1.068-3.578-2.455-6.895-3.032-10.619C495,515.461,495.212,515.454,495.226,515.23Z"/><path class="c3ea396b-4442-4496-adec-1270077964e2" d="M492.014,516.241h.505c2.683,14.03,5.3,28.23,9.109,40.969.332,1.126,1.092,2.113.848,3.371-.566.122-1.146,1.1-1.686.675-1.265-1.177-.889-2.778-1.19-4.216-.777-3.7-1.953-7.421-2.53-11.294-.329-2.232-1.058-4.592-1.513-6.908-.471-2.432-.8-4.826-1.184-7.254-.79-4.992-2.272-9.51-2.53-14.834C491.8,516.472,492.011,516.455,492.014,516.241Z"/><path class="c3ea396b-4442-4496-adec-1270077964e2" d="M469.427,516.753c.217.054.261.288.505.336-1.594,11.582-4.188,22.73-6.742,33.887-.343,1.482-.655,3.246-1.18,5.569-.353,1.519-.977,4.738-1.852,4.88-2,.336-1.1-2.686-.851-3.537,1.075-3.564,2.689-9.238,3.544-12.647,1.462-5.8,2.635-12.263,3.88-17.537.777-3.29,1.835-7.034,2.35-10.619C469.129,516.9,469.427,516.974,469.427,516.753Z"/><path class="c3ea396b-4442-4496-adec-1270077964e2" d="M482.915,558.054a9.348,9.348,0,0,0-4.216.505c-1-.882-.4-1.9-.339-3.042.393-7.231-.132-14.865.339-22.411.305-4.863.814-9.584.505-14.169.614-.8,1.709-1.8,2.862-1.516,1.031,2.232-.288,5.348,1.014,7.421-.8,1.034-.21,2.394-.166,3.876C483.183,537.97,482.45,549.681,482.915,558.054Z"/><path class="c3ea396b-4442-4496-adec-1270077964e2" d="M487.3,517.587c1.282,1.387.577,3.232.672,4.894.22,3.785.855,7.926,1.187,11.968.136,1.726.685,3.412.838,5.06.644,7.108,1.041,14.9,2.527,21.407-1.631.421-3.168-.644-4.375-1.187a307.634,307.634,0,0,1-1.859-41.806C486.442,517.632,486.812,517.557,487.3,517.587Z"/><path class="c3ea396b-4442-4496-adec-1270077964e2" d="M474.65,547.937c.061.631-.682.441-.505,1.18-.027,3.636-.8,6.4-1.167,10.622a5.324,5.324,0,0,1-3.893,1.187c1.051-8.757,2.6-19.358,3.547-29.682.427-4.64.658-9.2,1.357-13.145a1.04,1.04,0,0,1,.5-.343c1.611-.092.777,2.818.841,4.558C475.62,530.482,474.419,540.524,474.65,547.937Z"/><path class="c3ea396b-4442-4496-adec-1270077964e2" d="M447,560.923a11.4,11.4,0,0,1,.855-4.724c.892-8.428,7.241-11.416,9.272-18.717,3.059-4.351,4.378-10.463,7.075-15.173.278-.047.292.153.516.173-3.144,12.481-8.316,22.94-13.495,33.375C449.631,557.362,449.173,559.994,447,560.923Z"/><path class="c3ea396b-4442-4496-adec-1270077964e2" d="M624.711,558.726c1.475-1.987,3.517-3.778,3.53-6.742a26.414,26.414,0,0,0-4.216-10.113c-2.384-3.419-5.552-5.908-8.1-9.109-2.947-1.485-5.216-3.646-8.258-5.057.624-1.309,2.652-1.55,4.382-2.187.967-.363,2.3-1.679,3.2-1.689,1.255-.024,1.821,1.5,3.191,1.187,4.819,3.717,11.114,8.482,14.505,14.658,1.38,2.5,3.144,5.674,3.371,8.774C636.839,555.331,632.166,562.283,624.711,558.726Z"/><path class="c3ea396b-4442-4496-adec-1270077964e2" d="M539.054,524.5h.5c2.55,2.462,5.582,4.429,8.258,6.742-.753,2.242,1.35,3.609.848,5.569-1.472-.712-2.689-2.2-4.375-3.537-1.594-1.262-4.412-2.642-4.894-4.389A31.661,31.661,0,0,1,539.054,524.5Z"/><path class="c3ea396b-4442-4496-adec-1270077964e2" d="M354.613,528.386a44.473,44.473,0,0,0-12.816,9.272,35.454,35.454,0,0,0-6.915,9.272c-1.062,2.225-2.093,5.392-1.173,8.251.6,1.869,2.435,2.415,3.029,4.555-3.195,2.357-7.76.892-9.781-1.682a14.9,14.9,0,0,1-2.018-3.541c-.624-2.272-.064-5.091.675-7.58,2.015-6.783,8.523-13.851,14.166-18.049a33.356,33.356,0,0,1,7.075-4.043c.838-.343,2,.973,2.873,1.35C351.4,526.914,353.918,526.846,354.613,528.386Z"/><path class="c3ea396b-4442-4496-adec-1270077964e2" d="M403,527.7a20.119,20.119,0,0,1-2.7,4.216c-1.014,6.264.153,11.945,3.551,15.852a25.994,25.994,0,0,0,16.859,8.594c2.795.237,4.907-1.058,7.42-.848-.828,5.593-7.241,6.091-12.647,6.576-3.381-.984-7.916-1.631-11.124-3.883-.417-.275-.648-.933-1.184-1.343-.3-.214-.892-.265-1.184-.5a28.185,28.185,0,0,1-6.064-7.414c-.2-.343-.139-.858-.343-1.184-.187-.3-.692-.39-.841-.675a15.5,15.5,0,0,1-1.353-4.216,26.376,26.376,0,0,1,0-9.1c.241-1.041,1.285-3.856,2.364-4.389.383-.19,5.9-1.814,6.406-1.852A5.017,5.017,0,0,1,403,527.7Z"/><path class="c3ea396b-4442-4496-adec-1270077964e2" d="M564.683,551.641c4.311-7.56-.926-19.053-5.4-23.432.726-.984,7.17.821,8.085,1.519,1.669,1.248,5.04,7.573,5.572,11.3C573.8,547.025,571.238,553.476,564.683,551.641Z"/><path class="c3ea396b-4442-4496-adec-1270077964e2" d="M505.845,529.39c.207-.024.3.041.339.17,8.194,12.874,15.713,27.335,16.686,46.866a6.186,6.186,0,0,1-3.368-.329c.624-18.989-6.756-33-13.82-46.2C505.624,529.63,505.838,529.61,505.845,529.39Z"/><path class="c3ea396b-4442-4496-adec-1270077964e2" d="M578.673,529.9c4.344,4.707,6.949,11.154,9.957,17.195a10.5,10.5,0,0,1-5.057-2.025,62.067,62.067,0,0,0-5.06-10.283c-.285-2.011-2.459-2.9-2.36-4.724A9.374,9.374,0,0,1,578.673,529.9Z"/><path class="c3ea396b-4442-4496-adec-1270077964e2" d="M385.977,530.407c-2.747,5.06-6.3,9.313-8.1,15.34-1.455.831-3.235,2.12-5.067,2.025a21.74,21.74,0,0,1,2.025-4.551,60.492,60.492,0,0,1,3.714-6.074,18.155,18.155,0,0,1,4.721-7.081A14.771,14.771,0,0,1,385.977,530.407Z"/><path class="c3ea396b-4442-4496-adec-1270077964e2" d="M410.752,530.407c.922,1.662,1.6,3.578,2.533,5.226-2.506,2.048-5.175,3.927-7.76,5.894-.536-1.906-2.093-4.734-1.007-6.739.682-1.265,3.646-2.55,4.89-3.547C409.951,530.8,409.867,530.332,410.752,530.407Z"/><path class="c3ea396b-4442-4496-adec-1270077964e2" d="M451.724,535.81c.254,1.258-.8,2.476-1.343,3.707-1.621,3.683-3.524,7.794-5.06,11.623v1.19c-2.849,6.695-3.683,15.282-4.039,23.774a3.429,3.429,0,0,1-3.039-.343,89.076,89.076,0,0,1,12.809-39.622,1.142,1.142,0,0,1,.505-.329Z"/><path class="c3ea396b-4442-4496-adec-1270077964e2" d="M525.742,569.355c.214-3.242-1.465-5.369-1.523-7.763,2.408.227,3.805,2.232,6.24,2.53a20.357,20.357,0,0,0,14.153-3.707c2-1.557,4.175-4.711,5.742-7.261,2.564-4.158,4.148-11.175,1.859-16.856a.792.792,0,0,1,.5-.5c1.686.095,2.293,1.292,3.371,2.011,1.14,3.3,2.476,5.66,2.194,9.784-.678,9.866-7.58,19.5-16.028,22.757C537.3,572.281,530.27,572.291,525.742,569.355Z"/><path class="c3ea396b-4442-4496-adec-1270077964e2" d="M548.156,545.916c-1.367,3.12-2.469,6.525-4.884,8.6-2.618-2.279-4.473-5.308-6.908-7.756a19.36,19.36,0,0,0,3.195-9.445h.343C542.584,540.249,545.82,542.626,548.156,545.916Z"/><path class="c3ea396b-4442-4496-adec-1270077964e2" d="M559.965,537.817c1.811.733,4.039,4.612,2.693,7.254-1.391-.2-1.3-2.642-1.842-4.219C560.406,539.744,558.978,538.852,559.965,537.817Z"/><path class="c3ea396b-4442-4496-adec-1270077964e2" d="M426.932,542.552a86.161,86.161,0,0,1-6.23,6.735c-.675.7-1.258,2.194-2.191,2.354-1.384.241-2.876-1.282-4.049-1.852-1.875-.909-3.564-1.272-4.551-2.7a41.818,41.818,0,0,1,7.251-7.254c1.431-.96,4.3,1.424,5.9,1.859C424.518,542.094,425.725,541.47,426.932,542.552Z"/><path class="c3ea396b-4442-4496-adec-1270077964e2" d="M439.922,541.2c-.77,1.957-2.337,3.463-3.541,5.057a34.486,34.486,0,0,1-3.71,4.884c-1.967-1.112-3.405,1.492-5.4.848-.054-1.2,1.028-1.54,1.855-2.53.8-.97,1.814-2.31,2.7-3.537,1.245-1.733,1.892-3.683,3.873-4.216C437.012,541.341,438.545,541.47,439.922,541.2Z"/><path class="c3ea396b-4442-4496-adec-1270077964e2" d="M390.857,550.634c-8.418,4.84-16.839,9.689-28.329,11.463-.665.119-.675-.444-1.343-.329-8.319,1.543-20.729-.644-20.067-10.29.22-3.086,1.875-5.708,5.06-6.237a6.608,6.608,0,0,0,.509,4.551c1.526,2.761,7.292,4.5,10.113,4.046.539-.092,1.078-.024,1.346-.682a2.887,2.887,0,0,0,2.191.349c7.96-.478,16.747-2.8,22.428-6.41a15.937,15.937,0,0,0,1.686-.339,31.385,31.385,0,0,1,3.876-2.36c.142-.031.156.064.166.163C389.484,546.4,390.03,548.66,390.857,550.634Z"/><path class="c3ea396b-4442-4496-adec-1270077964e2" d="M574.128,552.489c.5-1.309,1.869-2.1,2.347-3.534.275-.787-.081-1.869.682-2.537,1.3-.071,2.089,1.15,3.2,1.686,5.613,2.764,12.579,4.1,20.393,4.89,6.254.627,15.611.139,15.177-7.922,2.021-1,4.8,3.422,4.392,6.912-.363,3.059-3.062,5.871-5.4,7.081a36.349,36.349,0,0,1-5.05,1.516,22.768,22.768,0,0,1-8.431,1.513C590.977,561.961,581,556.1,574.128,552.489Z"/><path class="c3ea396b-4442-4496-adec-1270077964e2" d="M457.622,550.973c.224.058.271.292.512.336a50.905,50.905,0,0,1-5.063,13.155A47.679,47.679,0,0,1,449.7,570.2c-1.2,1.648-2.52,3.724-4.548,4.375-.672-3.69,2.2-5.732,3.873-8.1a49.813,49.813,0,0,0,3.375-4.884C454.41,557.871,455.814,554.12,457.622,550.973Z"/><path class="c3ea396b-4442-4496-adec-1270077964e2" d="M502.982,551.136c.265-.047.281.166.505.173,2.615,5.531,4.772,10.907,8.421,15.523,1.8,2.259,4.8,3.921,3.876,7.739-2.489-.939-3.09-3.771-5.05-5.216-1.184-3.276-3.354-5.962-4.724-9.109-1.221-2.791-2.055-5.681-3.2-8.6C502.758,551.376,502.972,551.356,502.982,551.136Z"/><path class="c3ea396b-4442-4496-adec-1270077964e2" d="M537.867,558.889a11.113,11.113,0,0,1-6.729,1.187c-.678-1.1-1.15-2.435-2.031-3.71-.492-.705-1.926-1.655-1.859-2.527.075-.916,3.707-2.3,4.558-2.7,1-.458,2.445,2.9,3.2,3.887C536.086,556.413,537.531,557.467,537.867,558.889Z"/><path class="c3ea396b-4442-4496-adec-1270077964e2" d="M595.531,600.379a27.342,27.342,0,0,1-6.4-4.558,100.4,100.4,0,0,1-11.639-8.265c-1.886-1.452-3.849-2.747-5.725-4.212a47.249,47.249,0,0,0-5.569-4.216c-3.561-4.253-7.953-7.658-11.643-11.8a39.754,39.754,0,0,0,6.59-9.611c.183-.037.292.034.329.17,3.843,3.585,7.01,7.824,10.958,11.294,4.633,5.355,9.211,10.9,13.661,16.686,2.333,3.039,4.263,6.044,6.576,9.279C593.8,596.74,596.01,597.911,595.531,600.379Z"/><path class="c3ea396b-4442-4496-adec-1270077964e2" d="M406.712,564.623c-2.584,3.425-5.823,6.145-9.109,9.109-2.167,1.964-3.6,4.426-6.233,5.732a68.217,68.217,0,0,1-11.3,9.442,53.46,53.46,0,0,1-8.092,6.579c-.95.672-2.133,1.156-3.035,1.848-1.553,1.194-3.344,3.595-5.562,3.883-.058-1.838,1.8-2.9,2.693-4.209,3.876-5.62,7.78-11.857,12.311-17.035,4.88-8.557,12.379-14.481,18.717-21.58,1.241-.132,1.5,1.265,2.357,2.028C401.578,562.3,404.111,563.012,406.712,564.623Z"/><path class="c3ea396b-4442-4496-adec-1270077964e2" d="M482.572,562.1c.922.658.465,1.577.509,2.527.2,4.053.454,9.15.675,14.166.227,5.074,1.051,10.7,1.346,15.516a17.693,17.693,0,0,0-9.438,0c.9-9.889,1.533-20.274,2.191-31.361C478.689,561.646,480.731,561.69,482.572,562.1Z"/><path class="c3ea396b-4442-4496-adec-1270077964e2" d="M436.049,562.273c.553,1.848-.709,3.744-1.014,5.728a7.437,7.437,0,0,1-.166,1.859c-.529,1.35-3.625,3.252-6.067,4.545-3.2,1.692-6.851,3.174-10.792,2.36a13.472,13.472,0,0,1-4.382-2.194,6.428,6.428,0,0,1-.848-6.4C421.18,571.6,430.9,566.75,436.049,562.273Z"/><path class="c3ea396b-4442-4496-adec-1270077964e2" d="M426.1,563.1c-.824,2.527-4.4,4.009-7.251,3.371.058-.943.946-1.078,1.18-1.855C422.33,564.586,424.406,562.663,426.1,563.1Z"/><path class="c3ea396b-4442-4496-adec-1270077964e2" d="M508.873,576.1a103.925,103.925,0,0,0,4.222,12.47c.322.828,1.092,1.611,1.173,2.53.071.868-.5,1.655-.678,2.537-.387,1.913-.343,4.11-1.343,5.721-1.34-.526-1.116-2.489-1.513-3.87a63.472,63.472,0,0,0-3.2-8.77c-1.811-7.163-3.805-14.777-6.067-21.59.305-.716,1.34-1.608,2.028-1.513,1.15.17.99,1.621,1.513,3.042A89.538,89.538,0,0,0,508.873,576.1Z"/><path class="c3ea396b-4442-4496-adec-1270077964e2" d="M448.522,599.192c-.99-.8-.76-2.4-1.011-3.707-.326-1.713-1.106-3.425-.675-5.23a17.235,17.235,0,0,1,1.35-2.364c1.167-2.421,2.147-5.308,3.2-7.922,1.485-3.659,2.869-7.512,4.039-10.792a40.091,40.091,0,0,1,2.191-5.057c4.138-1.268.6,5.749,0,7.922-2.242,8.323-4.782,15.77-7.417,23.269C449.747,596.618,449.692,598.345,448.522,599.192Z"/><path class="c3ea396b-4442-4496-adec-1270077964e2" d="M614.924,569.863c2.489,7.387-6.284,11.31-12.3,7.916-3.561-2-7.217-7.034-9.109-10.117-.712-.817-1.94-1.957-1.516-3.371a22.872,22.872,0,0,1,6.074.675c.99.329,2.795,2.574,3.87,3.541,1.638,1.475,4.026,3.493,6.583,3.707C611.01,572.431,612.607,570.9,614.924,569.863Z"/><path class="c3ea396b-4442-4496-adec-1270077964e2" d="M492.855,564.963c2.737,9.9,2.737,21.617,5.226,31.866-1.848,1.937-5.749.668-7.071-.834-.787-11.11-2-21-2.36-31.534C489.8,563.759,491.305,565,492.855,564.963Z"/><path class="c3ea396b-4442-4496-adec-1270077964e2" d="M472.293,564.464c.872.78.2,4.155-.339,5.562-.421,8.336-1.2,17.368-2.357,26.294-1.452,1.194-4.6,1.533-6.919.841.027-2.421,1.106-4.745,1.516-7.414,1.218-7.868,2.354-16.632,3.883-24.432C469.458,565.1,471.221,564.4,472.293,564.464Z"/><path class="c3ea396b-4442-4496-adec-1270077964e2" d="M369.444,564.623c-.509,2.445-2.418,4.768-3.87,6.742-1.129,1.536-1.875,3.137-3.2,4.392-.454.41-1.289.716-1.859,1.18a10.8,10.8,0,0,1-5.392,2.869c-2.4.343-4.779-.5-6.915-1.343a41.4,41.4,0,0,1-2.7-4.89c.407-1.017.444-2.381,1.011-3.208,1.781.288,1.587,1.865,3.378,2.028,6,.553,10.2-3.242,12.64-6.742C364.845,565.41,367.148,564.311,369.444,564.623Z"/><path class="c3ea396b-4442-4496-adec-1270077964e2" d="M550.517,580.482c1.421,3.188,2.52,6.685,4.209,9.608.59,4.229,2.767,9.228,2.876,14.332.01.532-.326,1.14-.343,1.679-.037,1.146.471,2.394.343,3.547-.081.729-.644,1.519-.675,2.187-.037.546.251,1.1.176,1.519-.075.37-.577.838-.682,1.194-.475,1.567-.675,3.381-1.18,4.534a9.433,9.433,0,0,1-11.968,4.572c-.977-1.343-2.293-2.33-2.527-4.4,2.483-.37,4.935-.787,6.41-2.191,4.063-5.094,1.475-15.407,1.177-21.576a84.1,84.1,0,0,0-7.583-19.565c1.282-1.153,3.843-1.557,5.23-2.191.943-.434,2.076,2.367,2.523,3.2C549.228,578.318,549.652,579.658,550.517,580.482Z"/><path class="c3ea396b-4442-4496-adec-1270077964e2" d="M417.836,580.316a65.336,65.336,0,0,0-6.413,18.877c-.994,6.318-1.333,15.638,2.866,19.057,1.638.722,3.717.685,5.063,1.343-.516,3.3-4.6,5.755-9.109,4.558a5.578,5.578,0,0,0-2.354-1.526c-6.223-5.026-5.843-18.443-3.039-27.311.858-2.713,2.028-6.6,3.039-9.449.763-2.167,2.069-3.758,2.862-6.061a13.419,13.419,0,0,1,1.18-2.191C413.621,578.8,415.839,579.434,417.836,580.316Z"/><path class="c3ea396b-4442-4496-adec-1270077964e2" d="M543.435,591.772c-3.2-1.028-5.9-3.025-8.76-4.551a43.218,43.218,0,0,1-7.919-5.23c-.21-.831-.421-2.795.159-3.364,2.727,1.343,7.38,4.785,11.131,6.573,1.333.634,3.107,1.173,3.71,1.855A8.982,8.982,0,0,1,543.435,591.772Z"/><path class="c3ea396b-4442-4496-adec-1270077964e2" d="M434.02,578.952a8.615,8.615,0,0,1-.343,3.883,186.8,186.8,0,0,1-16.516,9.438c-.451-2.147,1.306-3.514,1.686-5.392,4.677-2.8,10.2-4.751,14.5-7.929Z"/><path class="c3ea396b-4442-4496-adec-1270077964e2" d="M441.438,580.139c.566,9.889,2.143,19.592,5.559,27.481a37.972,37.972,0,0,0,2.367,6.41c.919,1.923,2.591,3.229,3.544,5.05-3.958,3.313-9.632-2.126-11.131-5.223-1.8-3.717-2.93-10.049-3.537-15.336-.183-1.557.105-3.195,0-4.724-.363-4.928-1.058-10.215,0-13.99C439.135,579.074,440.729,579.658,441.438,580.139Z"/><path class="c3ea396b-4442-4496-adec-1270077964e2" d="M522.7,579.637c.956,1.862.634,4.012.678,6.4.095,6.21-1.045,14.02-2.357,20.559a31.948,31.948,0,0,1-1.869,6.074,26.328,26.328,0,0,1-2.862,5.063c-1.5,1.848-5.643,3.9-8.265,1.34.265-1.638,1.645-2.181,2.527-3.195a93.779,93.779,0,0,0,9.1-35.742A3.723,3.723,0,0,1,522.7,579.637Z"/><path class="c3ea396b-4442-4496-adec-1270077964e2" d="M400.3,595.655c.163,1.587-.8,2.689-1,4.382-.088.651.254,1.543,0,2.347-.343,1.106-2.5,2.126-3.544,3.385-1.953,2.333-5.046,6.366-3.035,10.452.59,1.194,1.34,1.177,2.194,2.689-4.151,2.978-9.181-1.15-9.784-5.057-.522-3.375,1.5-7.522,3.374-10.117,1.14-1.574,3.405-2.971,5.063-4.205,2.3-1.726,4.151-3.235,5.732-4.216C399.824,595.231,399.95,595.564,400.3,595.655Z"/><path class="c3ea396b-4442-4496-adec-1270077964e2" d="M479.883,649.593a21.048,21.048,0,0,1-.848-5.216c-.268-3.171-1.468-6.067-2.021-9.109-2.167-11.87-3.432-24.744-1.859-35.739,2.452-2.242,7.5-2.1,10.117-.176,2.506,13.966-1.391,30.577-3.88,43.845-.22,1.14-.529,2.408-.672,3.527C480.6,647.656,481.073,649.084,479.883,649.593Z"/><path class="c3ea396b-4442-4496-adec-1270077964e2" d="M498.926,601.387c1.553,7.6,2.466,15.852,6.074,21.4a30.582,30.582,0,0,0,4.884,9.449,24.461,24.461,0,0,0,2.869,3.375,34.182,34.182,0,0,0,4.89,4.219c1.374.427,3.412.176,4.884.5.37,2.781-1.143,4.361-2.7,5.908a8.83,8.83,0,0,1-8.428,2.021c-5.484-1.329-10.724-9-12.979-14.342-1.017-2.384-2.432-4.639-3.371-7.746a36.463,36.463,0,0,1-1.187-6.573c-.153-1.2-.817-2.445-1.011-3.714-.716-4.816-.858-10.079-1.679-14.325a3.452,3.452,0,0,1,1.173-.851C494.137,602.011,496.45,601.834,498.926,601.387Z"/><path class="c3ea396b-4442-4496-adec-1270077964e2" d="M469.081,601.054a100.119,100.119,0,0,1-1.343,13.807,78.311,78.311,0,0,1-3.876,15.024,48.56,48.56,0,0,1-4.721,9.1,23.342,23.342,0,0,1-3.544,4.378c-1.482,1.5-3.856,3.873-5.9,4.724-5.7,2.347-12.118-1.825-12.308-7.254a15.085,15.085,0,0,0,11.127-5.725A56.625,56.625,0,0,0,454.084,626c3.707-7.037,5.457-15.536,7.583-23.93A58.192,58.192,0,0,0,469.081,601.054Z"/><path class="c3ea396b-4442-4496-adec-1270077964e2" d="M436.211,610.32c1.4,1.133,1.329,3.731,2.36,5.226.563.661,1.838.638,2.194,1.516a38.382,38.382,0,0,1-4.046,7.922c-.566.763-.98,1.635-1.523,2.364-.651.882-1.95,1.655-2.866,2.686a34.343,34.343,0,0,1-4.043,4.056,35.328,35.328,0,0,1-5.9,4.046,16.469,16.469,0,0,1-6.074,2.36c-.6.085-1.034.488-1.516.5-4.46.17-9.957-2.52-10.446-6.9-.2-1.709-.01-4.205,1.343-5.4.909-.176.709.756,1.173,1.014,1.875.909,3.442,2.476,6.074,2.194,1.329-.153,2.238-1.163,3.71-1.024C425.335,626.2,432.152,619.629,436.211,610.32Z"/><path class="c3ea396b-4442-4496-adec-1270077964e2" d="M523.714,610.662c1.462.828,1.6,3.008,2.53,4.382a61.218,61.218,0,0,0,10.449,11.8c1.886,1.574,4.7,3.666,7.593,4.382.519.136,1.18-.129,1.838,0,.556.112.868.488,1.36.505,3.307.122,5.057-1.964,7.071-2.862,3.948,5.81-2.737,12.762-9.774,11.8-3.741-.509-8.173-3.032-10.958-5.05-5.66-4.117-10.524-10.642-13.491-17.364,1.594-1.957,2.133-4.952,3.046-7.587C523.487,610.662,523.6,610.662,523.714,610.662Z"/><path class="c3ea396b-4442-4496-adec-1270077964e2" d="M644.087,441.721c-1.092-1.123-.244-2.842-.336-4.216-.217-3.33-1.475-4.507-3.883-5.9-4.663-2.71-11.653-1.8-17.354-.509a94.8,94.8,0,0,0-15.682,4.555c-9.981,4.161-18.751,8.991-28.837,14.332-3.527,1.872-7.105,3.958-10.958,5.569-3.914,1.631-8.014,3.731-12.124,4.209a46.011,46.011,0,0,1-28.837-5.9c-1.441-1.479-2.784-3.056-4.219-4.551-1.374-1.438-3-2.8-3.876-4.724,2.472-.475,4.053,1.842,5.894,2.873,1.177.651,2.615,1,3.887,1.679a38.874,38.874,0,0,0,12.647,4.724,77.51,77.51,0,0,0,10.11.509,46.764,46.764,0,0,0,19.392-4.721c8.94-4.45,17.1-9.815,25.29-15.177a109.4,109.4,0,0,1,9.279-5.9c1.078-.573,2.113-1.346,3.195-1.859a42.174,42.174,0,0,1,15.5-3.541c9.333-.532,22.2,1.6,24.629,9.1a9.989,9.989,0,0,1-.675,6.406A5.987,5.987,0,0,1,644.087,441.721Z"/><path class="c3ea396b-4442-4496-adec-1270077964e2" d="M645.779,483.361c-.692.848-1.987.6-2.869.678-6.712.638-13.294,3.2-20.23,4.216a110.276,110.276,0,0,1-12.647.675c-4.219.115-8.628.482-12.816-.516-1.374-1.777-1.591-6.22,0-7.922C613.191,481.085,631.2,480.7,645.779,483.361Z"/><path class="c3ea396b-4442-4496-adec-1270077964e2" d="M566.026,618.744c1.2-2.028,2.781-3.3,2.371-6.41a12.336,12.336,0,0,0-3.381-6.562c-1.1-1.085-2.822-1.859-3.537-3.208-.787-1.482-.6-4.84-1.35-6.566-.112-.281.248-.387.349-.682,2.337.729,6.189,3.324,8.251,5.063,2.679,2.235,5.745,5.925,6.24,8.926a16.214,16.214,0,0,1-.505,5.559C572.968,617.374,569.946,621.274,566.026,618.744Z"/><circle class="42d5fd58-f439-4d9a-8286-88e3a8d401b6" cx="654.987" cy="610.669" r="6.484"/><circle class="42d5fd58-f439-4d9a-8286-88e3a8d401b6" cx="303.47" cy="610.669" r="6.484"/><path class="42d5fd58-f439-4d9a-8286-88e3a8d401b6" d="M266.666,563.23l1.3-.594c1.4,2.408,1.6,2.483,5.033.77l10.958-5.491c3.632-1.808,3.7-1.92,2.828-4.419l1.292-.6,4.816,10.388-1.292.6c-1.384-2.381-1.533-2.435-5.2-.692l-11.633,5.521.068.129,19.586-1.309.831,1.791-12.64,13.24.027.068,7.478-3.188a39.964,39.964,0,0,0,5.443-2.6c1.16-.7,1.123-1.567.288-3.8l1.3-.607,3.8,8.194-1.3.6c-.872-1.533-1.5-2-2.815-1.638-1.106.319-2.957.933-6.054,2.171l-6.871,2.744c-4.283,1.709-4.528,2.15-3.544,4.877l-1.292.6-3.615-7.8,10.435-11.9L270.4,571.294Z"/><path class="42d5fd58-f439-4d9a-8286-88e3a8d401b6" d="M278.729,542.023c3.761-1.207,3.91-1.567,3.347-4.039l1.36-.434,3.642,11.277-1.363.434c-.98-2.327-1.312-2.53-5.074-1.316l-11.483,3.71c-3.758,1.211-3.91,1.57-3.344,4.029l-1.36.448-3.642-11.277,1.36-.441c.984,2.333,1.312,2.53,5.077,1.323Z"/><path class="42d5fd58-f439-4d9a-8286-88e3a8d401b6" d="M261.518,517.513c-4.121,2.079-4.785,4.541-4.246,7.085.916,4.283,6.135,5.938,11.283,4.833,6.579-1.4,10.11-5.525,9.323-9.208-.665-3.113-3.049-4.473-7.373-5.45l-.088-1.635a44.985,44.985,0,0,1,6.959.536,30.128,30.128,0,0,1,2.391,6.288c2.059,9.625-3.212,14.712-8.967,15.95-7.4,1.58-13.718-3.124-15.492-11.385a27.337,27.337,0,0,1-.431-6.569c1.906-.709,3.449-1.187,6.088-1.974Z"/><path class="42d5fd58-f439-4d9a-8286-88e3a8d401b6" d="M270.414,500.135c3.934-.336,4.165-.644,4.175-3.178l1.424-.122.97,11.511-1.424.119c-.437-2.561-.716-2.832-4.65-2.5l-12.026,1.011c-3.934.336-4.168.644-4.182,3.113l-1.418.119-.956-11.372c-.241-2.845-.075-4.768.716-6.274a5.478,5.478,0,0,1,4.487-2.944c3.208-.265,5.267,1.574,6.559,4.188.973-.6,3.378-2.164,4.962-3.361,1.828-1.4,3-2.3,3.68-2.947a4.435,4.435,0,0,0,1.343-2.279l1.282-.037.1,1.577c.322,5.179-.668,6.471-2.656,8.112a38.911,38.911,0,0,1-5.616,3.517,1.809,1.809,0,0,0-1.18,1.641l.034.471Zm-6.084.509-.041-.509a4.477,4.477,0,0,0-.851-2.683,5.668,5.668,0,0,0-4.836-1.645c-3.5.3-4.477,2.611-4.358,4.036.132,1.53.248,1.631,1.7,1.5Z"/><path class="42d5fd58-f439-4d9a-8286-88e3a8d401b6" d="M263.994,457.861c7.817.366,12.457,5.938,12.124,12.952a11.711,11.711,0,0,1-12.67,11.585c-5.921-.278-12.562-4.551-12.141-13.278C251.618,462.432,256.76,457.515,263.994,457.861Zm-1.465,17.69c6.607.312,11.544-1.943,11.724-5.521.142-3.14-2.8-5.006-9.415-5.314-7.346-.349-11.524,2.082-11.673,5.226C253.029,472.749,256.132,475.242,262.528,475.55Z"/><path class="42d5fd58-f439-4d9a-8286-88e3a8d401b6" d="M269.7,451.437c2.218-.4,6.586-1.838,7.19-5.372a3.263,3.263,0,0,0-3-3.924c-2.126-.363-3.554.841-4.941,2.862l-.346.5c-1.879,2.72-4.327,5.752-8.18,5.1-4.077-.7-6.885-4.226-5.918-9.886a12.875,12.875,0,0,1,.994-3.239c.363-.794.607-1.343.828-1.787,1.431.095,3.239.149,5.762.166l-.02,1.631c-2.516.38-5.291,1.207-5.776,4.056a3.114,3.114,0,0,0,2.6,3.673c1.8.309,3.086-.919,4.531-3.049l.492-.733c2.086-3.056,4.405-5.589,8.624-4.87,4.436.76,7.071,4.884,6.111,10.473a13.264,13.264,0,0,1-1.279,3.788,19.4,19.4,0,0,1-1.255,2.123c-1.709,0-3.737.139-6.223.156Z"/><path class="42d5fd58-f439-4d9a-8286-88e3a8d401b6" d="M260.9,415.99l1.367.407c-.482,2.377-.315,2.73,3.466,3.856l7.146,2.126c4.982,1.485,8.34.58,9.265-2.537,1.065-3.578-1.428-6.457-7.214-8.18l-2.1-.627a56.1,56.1,0,0,0-6.529-1.645c-1.282-.193-2.018.624-2.818,2.9l-1.363-.41,2.639-8.869,1.37.407c-.431,1.7-.21,2.761.96,3.3a56.758,56.758,0,0,0,6.366,2.2l2.7.8c3.012.906,6.03,2.411,7.621,5.023a9.764,9.764,0,0,1,.644,7.448c-.753,2.52-1.916,4.765-3.87,6.054-2.062,1.411-4.823,1.462-8.923.237l-7.668-2.276c-3.788-1.129-4.11-.922-5.057,1.472l-1.367-.407Z"/><path class="42d5fd58-f439-4d9a-8286-88e3a8d401b6" d="M287.008,396.465c3.581,1.675,3.934,1.513,5.2-.682l1.3.6-4.884,10.473-1.3-.607c.9-2.442.79-2.815-2.791-4.483l-10.941-5.1c-3.575-1.662-3.931-1.509-5.169.621l-1.292-.6,4.826-10.341c1.207-2.581,2.306-4.168,3.737-5.074a5.459,5.459,0,0,1,5.358-.329c2.913,1.363,3.8,3.988,3.605,6.891,1.146-.031,4-.193,5.979-.441,2.279-.312,3.748-.512,4.656-.736a4.463,4.463,0,0,0,2.306-1.306l1.129.607-.7,1.411c-2.293,4.663-3.8,5.291-6.339,5.725a38.889,38.889,0,0,1-6.62.261,1.805,1.805,0,0,0-1.845.834l-.2.434Zm-5.531-2.581.217-.468a4.4,4.4,0,0,0,.594-2.747,5.648,5.648,0,0,0-3.378-3.836c-3.181-1.485-5.186.041-5.789,1.333-.648,1.4-.6,1.54.733,2.16Z"/><path class="42d5fd58-f439-4d9a-8286-88e3a8d401b6" d="M295.856,357.606c-4.694-1.58-7.115.5-8.35,2.527-2.021,3.31-.424,8.055,4.911,11.314,4.84,2.954,10.625,3.656,13.254-.648.478-.78.532-1.431-.933-2.327l-3-1.828c-2.093-1.279-2.388-1.289-4.64,1.838l-1.4-.858,6.366-10.422,1.4.855c-.688,1.764-.675,1.943,1.509,3.276l2.249,1.37a17.072,17.072,0,0,0,2.954,1.55,31.659,31.659,0,0,1-3.059,7.814c-4.555,7.461-11.29,9.435-17.652,5.548-7.146-4.368-7.363-12.294-3.3-18.945a30.63,30.63,0,0,1,4.45-5.464c1.116.556,2.839,1.39,5.986,2.971Z"/><path class="42d5fd58-f439-4d9a-8286-88e3a8d401b6" d="M315.069,349.734c3.13,2.408,3.514,2.337,5.226.471l1.129.861-7.224,9.394-1.133-.868c1.367-2.133,1.343-2.52-1.791-4.928l-9.564-7.359c-3.13-2.408-3.517-2.333-5.223-.468l-1.133-.868,7.224-9.391,1.133.868c-1.367,2.133-1.343,2.523,1.791,4.931Z"/><path class="42d5fd58-f439-4d9a-8286-88e3a8d401b6" d="M325.579,321.606c-4.039-2.225-6.447-1.38-8.241.5-3.015,3.185-1.428,8.418,2.388,12.04,4.89,4.633,10.283,5.216,12.874,2.479,2.191-2.31,1.964-5.046.326-9.167l1.292-.99a44.2,44.2,0,0,1,3.5,6.04,30.119,30.119,0,0,1-3.836,5.531c-6.773,7.139-13.949,5.67-18.219,1.625-5.5-5.209-5.192-13.081.627-19.213a27.434,27.434,0,0,1,5.165-4.073c1.658,1.173,2.927,2.177,5.074,3.9Z"/><path class="42d5fd58-f439-4d9a-8286-88e3a8d401b6" d="M349.773,320.9l.756-.8c.933-1,.76-1.329-.444-2.048l-3.381-2.059-4.643,3.8,1.374,3.408c.624,1.519.858,1.8,2.272.882l.892-.587.9,1.1-6.6,5.392-.9-1.1c1.282-1.38,1.611-1.842.6-4.982l-6.3-19.267,1.631-1.994,6.295,3.778c3.971,2.374,7.922,4.721,11.358,6.729,2.917,1.719,3.547,1.445,5.07.485l.906,1.1-8.892,7.271Zm-8.618-3.2,3.622-2.968-6.2-3.944-.088.071Z"/><path class="42d5fd58-f439-4d9a-8286-88e3a8d401b6" d="M366.815,303.75c1.021,1.6,1.577,2.333,2.31,2.259a6.069,6.069,0,0,0,2.333-1.1c.984-.631,2.249-1.567,2.384-2.784a9.5,9.5,0,0,0-.434-4.015l1.458-.627c.566,1.289,1.964,4.907,2.3,6.037l-15.289,9.761-.766-1.2c2.221-1.679,2.33-2.052.2-5.386l-6.495-10.171c-2.12-3.33-2.506-3.388-4.69-2.252l-.766-1.2,10.015-6.393.777,1.2c-2.106,1.6-2.215,1.974-.092,5.3Z"/><path class="42d5fd58-f439-4d9a-8286-88e3a8d401b6" d="M391.648,276.3c-1.438-3.68-1.8-3.815-4.063-3.174l-.512-1.326,10.625-4.141c4.806-1.872,8.18-1.577,9.6,2.069,1.153,2.968-1.065,5.633-2.917,6.627l.031.071c3.412-.9,6.881-.17,8.275,3.405a6.115,6.115,0,0,1-1.048,6.373c-1.265,1.594-3.507,2.9-6.332,4l-9.815,3.819-.519-1.329c2.306-1.133,2.486-1.479,1.051-5.158Zm7.027,1.926,1.092-.427c1.977-.77,2.981-2.615,1.923-5.342-1.17-3-3.293-3.113-4.521-2.639-.851.336-1.184.58-1.248.726-.132.166.115.9.471,1.818Zm2.845,7.3c1.2,3.066,2.167,3.354,3.432,2.862,1.343-.566,2.995-2.466,1.7-5.8-1.343-3.442-3.992-4.1-6.379-3.171l-.984.387Z"/><path class="42d5fd58-f439-4d9a-8286-88e3a8d401b6" d="M426.488,277.157c.967,3.829,1.309,4.012,3.812,3.605l.343,1.387-11.205,2.812-.346-1.384c2.462-.844,2.686-1.163,1.723-5l-2.937-11.7c-.96-3.829-1.309-4.005-3.741-3.625l-.343-1.38,11.066-2.774c2.764-.7,4.69-.841,6.3-.3a5.459,5.459,0,0,1,3.629,3.958c.787,3.124-.705,5.453-3.073,7.139.75.872,2.672,2.991,4.114,4.365,1.672,1.577,2.757,2.588,3.5,3.151a4.448,4.448,0,0,0,2.469.967l.244,1.258-1.536.349c-5.063,1.153-6.5.387-8.435-1.316a38.767,38.767,0,0,1-4.382-4.968,1.788,1.788,0,0,0-1.811-.9l-.458.112Zm-1.482-5.925.5-.122a4.435,4.435,0,0,0,2.506-1.272,5.663,5.663,0,0,0,.848-5.036c-.858-3.408-3.3-4-4.694-3.653-1.482.373-1.563.509-1.207,1.926Z"/><path class="42d5fd58-f439-4d9a-8286-88e3a8d401b6" d="M445.429,260.807c-.5-3.921-.828-4.134-3.283-4.039l-.18-1.418,17.195-2.187c.115.614.631,3.235,1.16,5.935l-1.58.315a6.649,6.649,0,0,0-1.774-3.212c-.658-.539-1.882-.607-3.805-.363l-.617.078c-1.377.173-1.455.183-1.292,1.455l.892,7,1.811-.231c3.12-.4,3.2-.627,3.215-3.432l1.594-.2,1.089,8.563-1.591.2c-.77-3.144-.912-3.347-4.029-2.951l-1.811.227.753,5.915c.237,1.886.424,2.784,1.123,3.029a6.113,6.113,0,0,0,2.584,0c1.452-.183,3.015-.607,3.7-1.577a10.556,10.556,0,0,0,1.306-3.961l1.631.051a49.189,49.189,0,0,1-.451,6.617L444.6,278.979l-.18-1.414c2.764-.573,3.022-.861,2.527-4.782Z"/><path class="42d5fd58-f439-4d9a-8286-88e3a8d401b6" d="M478.821,274.709l1.1-.149c1.353-.2,1.421-.566.939-1.879l-1.346-3.72-6,.047-1.072,3.517c-.461,1.577-.461,1.943,1.224,2.116l1.058.1.007,1.428-8.519.061-.01-1.428c1.865-.268,2.411-.417,3.6-3.5l7.17-18.968,2.516-.526,2.54,6.891c1.608,4.341,3.208,8.645,4.626,12.358,1.2,3.178,1.859,3.354,3.653,3.561l.007,1.424-11.483.088Zm-4.7-7.9,4.677-.034-2.354-6.969h-.112Z"/><path class="42d5fd58-f439-4d9a-8286-88e3a8d401b6" d="M495.64,269.1c.536,2.191,2.252,6.457,5.816,6.841,1.886.2,3.476-.882,3.731-3.242.227-2.143-1.058-3.5-3.168-4.758l-.516-.312c-2.835-1.7-6.013-3.951-5.6-7.844.441-4.107,3.781-7.136,9.493-6.518a12.869,12.869,0,0,1,3.3.794c.814.309,1.384.516,1.842.716-.017,1.431.047,3.242.183,5.755l-1.631.085c-.539-2.486-1.53-5.206-4.406-5.514a3.117,3.117,0,0,0-3.5,2.822c-.2,1.821,1.109,3.029,3.32,4.331l.76.451c3.181,1.886,5.864,4.049,5.406,8.306-.485,4.47-4.436,7.356-10.069,6.752a13.332,13.332,0,0,1-3.866-1.038,21.03,21.03,0,0,1-2.194-1.123c-.112-1.7-.373-3.717-.553-6.2Z"/><path class="42d5fd58-f439-4d9a-8286-88e3a8d401b6" d="M527.862,275.875c-.848,3.859-.624,4.168,2.333,5.046l-.305,1.394-12.508-2.764.312-1.39c2.906.417,3.249.231,4.1-3.625l3.459-15.641-.61-.132c-2.391-.529-3.456-.315-4.165.2a8.9,8.9,0,0,0-2.086,3.171l-1.5-.336c.811-2.968,1.57-5.382,2.045-7.19l1.106.248c.353.939.692,1.085,1.655,1.3l14.247,3.154c.926.2,1.156.027,1.879-.522l1.106.244c-.3,1.506-.787,4.582-1.19,7.268l-1.6-.237c-.058-2.262-.251-3.28-.658-4.009-.458-.777-1.6-1.251-3.307-1.631l-.851-.19Z"/><path class="42d5fd58-f439-4d9a-8286-88e3a8d401b6" d="M563.526,287.746c-1.669,3.578-1.509,3.931.682,5.2l-.607,1.3-10.473-4.884.607-1.292c2.445.906,2.818.787,4.487-2.791l5.1-10.941c1.665-3.575,1.513-3.934-.614-5.169l.6-1.292,10.337,4.823c2.591,1.2,4.175,2.31,5.08,3.737a5.485,5.485,0,0,1,.332,5.358c-1.363,2.917-3.992,3.8-6.891,3.612.037,1.143.19,4,.448,5.972.305,2.282.505,3.748.729,4.656a4.459,4.459,0,0,0,1.306,2.306l-.607,1.129-1.414-.692c-4.653-2.3-5.28-3.8-5.721-6.342a39.626,39.626,0,0,1-.258-6.624,1.8,1.8,0,0,0-.834-1.838l-.431-.2Zm2.578-5.538.471.217a4.436,4.436,0,0,0,2.744.6,5.665,5.665,0,0,0,3.836-3.378c1.485-3.181-.047-5.186-1.333-5.789-1.391-.648-1.54-.6-2.157.733Z"/><path class="42d5fd58-f439-4d9a-8286-88e3a8d401b6" d="M588.375,286.548c2.021-3.388,1.9-3.758-.081-5.2l.729-1.228,14.882,8.9c-.288.549-1.5,2.94-2.75,5.386l-1.445-.733a6.682,6.682,0,0,0,.59-3.615c-.187-.828-1.112-1.638-2.774-2.635l-.532-.319c-1.194-.709-1.251-.75-1.906.353l-3.619,6.057,1.563.936c2.7,1.614,2.906,1.482,4.646-.716l1.38.824-4.433,7.414-1.37-.831c1.34-2.947,1.346-3.195-1.346-4.809l-1.567-.936-3.066,5.118c-.973,1.635-1.374,2.455-.98,3.076a6.142,6.142,0,0,0,2.028,1.594c1.255.753,2.75,1.387,3.893,1.045a10.486,10.486,0,0,0,3.469-2.313l1.248,1.048a48.363,48.363,0,0,1-4.439,4.931l-15.981-9.55.733-1.221c2.533,1.258,2.906,1.184,4.941-2.208Z"/><path class="42d5fd58-f439-4d9a-8286-88e3a8d401b6" d="M622.334,311.269c1.808-4.243.729-6.562-1.329-8.15-3.469-2.679-8.516-.573-11.745,3.592-4.114,5.325-4.148,10.751-1.167,13.057,2.52,1.943,5.223,1.441,9.15-.6l1.123,1.187a45.248,45.248,0,0,1-5.657,4.09,30.45,30.45,0,0,1-5.894-3.256c-7.783-6.02-7.047-13.311-3.456-17.965,4.633-5.993,12.5-6.478,19.182-1.312a27.264,27.264,0,0,1,4.568,4.731c-1,1.77-1.869,3.134-3.371,5.44Z"/><path class="42d5fd58-f439-4d9a-8286-88e3a8d401b6" d="M642.469,337.189c-5.582,5.5-12.816,5.131-17.741.132a11.707,11.707,0,0,1,.075-17.168c4.216-4.158,11.857-6.145,18,.078C647.5,324.987,647.624,332.106,642.469,337.189Zm-12.006-13.067c-4.724,4.65-6.413,9.808-3.893,12.358,2.2,2.238,5.576,1.333,10.283-3.313,5.24-5.162,6.288-9.883,4.077-12.128C638.952,319.035,635.011,319.625,630.463,324.122Z"/><path class="42d5fd58-f439-4d9a-8286-88e3a8d401b6" d="M649.313,366.654l-1.869-2.527,5.83-21.146-.051-.058-5.416,4a61.488,61.488,0,0,0-5.44,4.389c-.916.912-.709,1.984.641,4l-1.146.844-5.423-7.315,1.146-.848c1.021,1.245,2,1.706,3.13,1.092a56.078,56.078,0,0,0,5.793-3.924l5.409-4c2.174-1.614,2.513-1.96,2.9-3.154.292-.9-.051-1.784-.743-2.906l1.146-.844,4.809,6.495-4.955,18.812.041.058,3.941-2.913a57.636,57.636,0,0,0,5.436-4.389c.926-.909.716-1.984-.631-3.992l1.15-.848,5.545,7.5-1.14.848c-1.15-1.428-2.133-1.889-3.266-1.275a57.653,57.653,0,0,0-5.786,3.921Z"/><path class="42d5fd58-f439-4d9a-8286-88e3a8d401b6" d="M660.484,369.88c-1.468,1.716-3.934,5.6-2.16,8.713.936,1.652,2.744,2.31,4.816,1.136,1.869-1.068,2.218-2.9,2-5.352l-.054-.6c-.268-3.29-.292-7.186,3.107-9.116,3.592-2.045,8-1.1,10.836,3.893a12.776,12.776,0,0,1,1.282,3.144c.22.841.387,1.418.492,1.9-1.163.834-2.6,1.937-4.565,3.52l-1.017-1.272c1.7-1.9,3.33-4.29,1.9-6.8a3.125,3.125,0,0,0-4.348-1.194c-1.584.9-1.8,2.666-1.574,5.226l.081.878c.329,3.683.136,7.119-3.585,9.235-3.91,2.221-8.56.7-11.365-4.229a13.466,13.466,0,0,1-1.411-3.737c-.214-1.14-.346-1.95-.38-2.438,1.323-1.085,2.808-2.472,4.724-4.066Z"/><path class="42d5fd58-f439-4d9a-8286-88e3a8d401b6" d="M673.83,400.019c-3.629,1.567-3.737,1.937-2.727,4.843l-1.316.563-5.067-11.748,1.309-.57c1.363,2.6,1.709,2.771,5.345,1.2l14.705-6.349-.244-.57c-.977-2.249-1.774-2.981-2.611-3.256a8.909,8.909,0,0,0-3.792.163l-.607-1.414c2.879-1.078,5.281-1.882,7.03-2.547l.448,1.041c-.566.834-.485,1.2-.088,2.106l5.786,13.4c.366.872.644.953,1.513,1.214l.454,1.041c-1.4.644-4.178,2.045-6.6,3.283l-.739-1.431c1.8-1.374,2.52-2.123,2.866-2.873.356-.831.081-2.028-.61-3.636l-.353-.807Z"/><path class="42d5fd58-f439-4d9a-8286-88e3a8d401b6" d="M680.762,419.388c-3.8,1.109-3.954,1.462-3.453,3.948l-1.367.4-3.249-11.093,1.367-.4c.939,2.425,1.268,2.635,5.057,1.526L690.7,410.38c3.8-1.112,3.958-1.465,3.476-3.876l1.374-.4,3.2,10.951c.8,2.737,1.017,4.656.539,6.281a5.469,5.469,0,0,1-3.805,3.781c-3.1.906-5.484-.5-7.261-2.791-.844.777-2.886,2.784-4.2,4.277-1.506,1.74-2.476,2.859-3.012,3.625a4.464,4.464,0,0,0-.872,2.5l-1.251.288-.4-1.519c-1.357-5.016-.638-6.481.987-8.479a38.9,38.9,0,0,1,4.792-4.568,1.8,1.8,0,0,0,.834-1.845l-.129-.458Zm5.857-1.713.149.492a4.381,4.381,0,0,0,1.367,2.455,5.648,5.648,0,0,0,5.06.651c3.371-.987,3.866-3.456,3.466-4.826-.431-1.472-.566-1.547-1.967-1.14Z"/><path class="42d5fd58-f439-4d9a-8286-88e3a8d401b6" d="M704.821,443.929l-1.418.224c-.6-2.343-.906-2.594-4.8-1.97l-7.366,1.194c-5.128.824-7.76,3.1-7.244,6.311.6,3.687,4.1,5.192,10.049,4.236l2.171-.346a54.365,54.365,0,0,0,6.6-1.363c1.231-.38,1.55-1.431,1.268-3.832l1.411-.224,1.475,9.133-1.411.227c-.356-1.719-1.011-2.584-2.3-2.554a55.39,55.39,0,0,0-6.691.777l-2.781.448c-3.1.5-6.484.451-9.045-1.211a9.743,9.743,0,0,1-3.812-6.423c-.424-2.6-.346-5.131.851-7.136,1.238-2.167,3.714-3.415,7.936-4.1l7.9-1.272c3.9-.627,4.11-.956,3.917-3.52l1.414-.227Z"/><path class="42d5fd58-f439-4d9a-8286-88e3a8d401b6" d="M700.975,483.812c4.429-1.3,5.535-3.592,5.46-6.189-.115-4.382-4.945-6.959-10.208-6.813-6.729.18-10.954,3.592-10.853,7.353.095,3.185,2.191,4.955,6.264,6.708l-.21,1.618a44.687,44.687,0,0,1-6.742-1.791,30.533,30.533,0,0,1-1.211-6.627c-.271-9.832,5.837-13.878,11.721-14.037,7.576-.2,12.925,5.576,13.155,14.017a27.319,27.319,0,0,1-.77,6.535c-2,.349-3.608.532-6.349.831Z"/><path class="42d5fd58-f439-4d9a-8286-88e3a8d401b6" d="M688.617,503.635c-3.934-.373-4.216-.112-4.734,2.923l-1.414-.136,1.218-12.738,1.424.136c-.068,2.93.17,3.249,4.1,3.622l15.94,1.54.068-.624c.231-2.438-.105-3.466-.705-4.114a9.1,9.1,0,0,0-3.408-1.686l.153-1.526c3.039.441,5.535.9,7.38,1.153l-.105,1.126c-.9.465-1,.824-1.092,1.8l-1.4,14.529c-.088.943.115,1.153.746,1.8l-.105,1.126c-1.54-.112-4.646-.22-7.359-.305l.048-1.611c2.232-.336,3.219-.644,3.893-1.133.712-.56,1.051-1.733,1.214-3.483l.081-.875Z"/><path class="42d5fd58-f439-4d9a-8286-88e3a8d401b6" d="M685.283,524.194c-3.876-.773-4.182-.536-4.884,1.9l-1.4-.281,2.3-11.619,1.4.271c-.271,2.527-.081,2.856,3.792,3.622l11.84,2.347c3.88.773,4.182.529,4.887-1.9l1.4.275-2.3,11.629-1.4-.281c.275-2.516.078-2.856-3.8-3.622Z"/><path class="42d5fd58-f439-4d9a-8286-88e3a8d401b6" d="M682.451,557.2c-7.458-2.354-10.527-8.926-8.4-15.618a11.72,11.72,0,0,1,15.211-7.96c5.65,1.784,10.978,7.617,8.34,15.943C695.583,555.948,689.359,559.384,682.451,557.2Zm5.945-16.72c-6.308-1.991-11.66-1.078-12.745,2.333-.946,3.008,1.431,5.555,7.739,7.553,7.007,2.221,11.67.933,12.616-2.065C696.865,545.611,694.494,542.409,688.4,540.476Z"/><path class="42d5fd58-f439-4d9a-8286-88e3a8d401b6" d="M659.65,577.087l1.35-2.842,21.4-4.789.037-.064-6.074-2.893a57.39,57.39,0,0,0-6.43-2.747c-1.238-.39-2.082.305-3.222,2.432l-1.292-.621,3.921-8.214,1.289.617c-.631,1.485-.577,2.561.5,3.269a58.67,58.67,0,0,0,6.179,3.28l6.078,2.9c2.445,1.163,2.9,1.312,4.141,1.085.929-.163,1.55-.882,2.221-2.031l1.292.624-3.486,7.292-18.938,4.456-.034.071L673,581.018a57.78,57.78,0,0,0,6.43,2.737c1.231.387,2.089-.3,3.229-2.432l1.285.617-4.012,8.414-1.292-.61c.722-1.679.668-2.757-.41-3.476A55.166,55.166,0,0,0,672.056,583Z"/><path class="42d5fd58-f439-4d9a-8286-88e3a8d401b6" d="M326.216,643.654c-2.689,2.9-2.649,3.28-.577,5.5l-.97,1.051-8.892-8.268.973-1.048c1.967,1.536,2.357,1.55,5.043-1.343l8.221-8.842c2.686-2.89,2.649-3.273,1.109-5.009l.97-1.041,7.821,7.275c2.52,2.337,3.642,4.087,3.988,5.857a6.106,6.106,0,0,1-1.682,5.62c-3.334,3.595-7.733,2.947-10.978.427a9.888,9.888,0,0,1-.8-.7l-1.587-2.32Zm3.887-4.175a5.017,5.017,0,0,0,.953,1.282c.855.8,3.113,1.7,6.4-1.838,2.588-2.784,1.862-5.057.655-6.179-.882-.828-1.062-.733-1.838.095Z"/><path class="42d5fd58-f439-4d9a-8286-88e3a8d401b6" d="M345.276,660.249c-1.136,1.526-1.628,2.3-1.3,2.957a6.229,6.229,0,0,0,1.859,1.8c.936.692,2.262,1.543,3.442,1.245a9.661,9.661,0,0,0,3.605-1.831l1.106,1.15c-1.007.98-3.893,3.568-4.84,4.277L334.624,659l.851-1.146c2.357,1.485,2.75,1.458,5.114-1.7l7.22-9.676c2.36-3.168,2.276-3.541.448-5.186l.851-1.143,9.523,7.112-.851,1.153c-2.245-1.411-2.628-1.374-5,1.794Z"/><path class="42d5fd58-f439-4d9a-8286-88e3a8d401b6" d="M364.279,677.545l1.021.434c1.262.529,1.506.241,1.764-1.133l.753-3.876-5.169-3.042-2.723,2.476c-1.2,1.109-1.394,1.421-.034,2.438l.861.631-.722,1.231-7.349-4.311.719-1.234c1.74.726,2.286.872,4.88-1.163l15.875-12.6,2.438.834-1.357,7.224c-.848,4.545-1.669,9.062-2.367,12.982-.6,3.33-.122,3.826,1.312,4.918l-.722,1.231-9.9-5.81Zm.017-9.184,4.036,2.357,1.543-7.186-.088-.054Z"/><path class="42d5fd58-f439-4d9a-8286-88e3a8d401b6" d="M381.884,680.075c-.2,2.238.041,6.837,3.283,8.346,1.73.8,3.578.3,4.582-1.862.912-1.95.132-3.653-1.458-5.521l-.387-.465c-2.13-2.527-4.409-5.681-2.754-9.228,1.747-3.748,5.884-5.525,11.087-3.107a12.961,12.961,0,0,1,2.866,1.828c.668.549,1.136.926,1.5,1.268-.471,1.343-.994,3.083-1.675,5.508l-1.57-.448c.288-2.523.231-5.426-2.384-6.647a3.118,3.118,0,0,0-4.229,1.543c-.773,1.648.071,3.219,1.74,5.169l.573.675c2.4,2.8,4.233,5.715,2.425,9.594-1.9,4.077-6.576,5.535-11.707,3.137a13.665,13.665,0,0,1-3.317-2.232,19.565,19.565,0,0,1-1.716-1.77c.448-1.645.848-3.629,1.485-6.044Z"/><path class="42d5fd58-f439-4d9a-8286-88e3a8d401b6" d="M411.654,693.851c-1.258,3.744-1.058,4.077,1.784,5.27l-.454,1.343-12.135-4.07.448-1.353c2.849.729,3.212.58,4.46-3.161l5.091-15.19-.587-.2c-2.323-.777-3.4-.682-4.161-.241a9.15,9.15,0,0,0-2.411,2.93l-1.455-.485c1.112-2.866,2.123-5.189,2.784-6.929l1.075.353c.254.977.577,1.163,1.516,1.475l13.834,4.633c.9.309,1.14.159,1.916-.315l1.075.353c-.454,1.472-1.268,4.473-1.953,7.1l-1.56-.4c.176-2.252.1-3.28-.224-4.046-.383-.828-1.455-1.411-3.12-1.974l-.831-.275Z"/><path class="42d5fd58-f439-4d9a-8286-88e3a8d401b6" d="M431.84,699.288c-.9,3.846-.672,4.158,1.733,4.952l-.329,1.384-11.531-2.7.322-1.391c2.51.37,2.852.183,3.751-3.663l2.75-11.741c.9-3.856.675-4.168-1.733-4.958l.329-1.384,11.531,2.7-.322,1.387c-2.506-.356-2.852-.176-3.754,3.663Z"/><path class="42d5fd58-f439-4d9a-8286-88e3a8d401b6" d="M460.762,692.871c-.577-4.575-2.666-6.044-5.24-6.383-4.344-.57-7.658,3.775-8.35,8.994-.885,6.668,1.8,11.375,5.535,11.877,3.157.424,5.236-1.36,7.614-5.111l1.56.471a45.924,45.924,0,0,1-2.839,6.373,30.234,30.234,0,0,1-6.729.136c-9.75-1.3-12.772-7.97-12-13.8,1-7.519,7.556-11.877,15.926-10.754a27.657,27.657,0,0,1,6.328,1.791c.024,2.045-.044,3.653-.19,6.4Z"/><path class="42d5fd58-f439-4d9a-8286-88e3a8d401b6" d="M484.882,702.791c.882,2.065,3.252,6,6.837,5.8,1.892-.092,3.29-1.421,3.161-3.785-.115-2.164-1.611-3.286-3.887-4.188l-.563-.234c-3.066-1.214-6.573-2.923-6.783-6.837-.227-4.124,2.588-7.651,8.319-7.963a13.4,13.4,0,0,1,3.385.258c.858.176,1.438.281,1.923.4.224,1.421.577,3.195,1.116,5.657l-1.6.339c-.933-2.36-2.354-4.887-5.24-4.731a3.13,3.13,0,0,0-3.008,3.354c.105,1.818,1.587,2.8,3.985,3.734l.821.319c3.442,1.35,6.427,3.052,6.661,7.329.244,4.487-3.181,7.967-8.845,8.282a13.4,13.4,0,0,1-3.982-.407,22.106,22.106,0,0,1-2.343-.746c-.387-1.669-.967-3.615-1.536-6.037Z"/><path class="42d5fd58-f439-4d9a-8286-88e3a8d401b6" d="M513.1,683.748l.241,1.4c-2.347.614-2.6.916-1.937,4.816l1.231,7.349c.865,5.128,3.161,7.746,6.369,7.207,3.676-.631,5.158-4.138,4.165-10.093l-.363-2.16a54.3,54.3,0,0,0-1.4-6.579c-.393-1.238-1.445-1.55-3.843-1.241l-.234-1.411,9.12-1.526.234,1.4c-1.719.363-2.571,1.028-2.544,2.316a56.7,56.7,0,0,0,.831,6.685l.468,2.781c.522,3.1.5,6.478-1.143,9.052a9.8,9.8,0,0,1-6.4,3.859c-2.6.434-5.128.373-7.142-.811-2.174-1.221-3.436-3.683-4.148-7.892l-1.326-7.905c-.651-3.887-.987-4.1-3.547-3.887l-.234-1.411Z"/><path class="42d5fd58-f439-4d9a-8286-88e3a8d401b6" d="M541.306,695.72c1.126,3.8,1.485,3.948,3.965,3.442l.4,1.363-11.073,3.3-.41-1.367c2.428-.943,2.632-1.275,1.5-5.06l-3.442-11.565c-1.126-3.788-1.482-3.948-3.9-3.463l-.4-1.357,10.931-3.259c2.74-.821,4.653-1.041,6.281-.57a5.44,5.44,0,0,1,3.8,3.788c.922,3.083-.465,5.477-2.754,7.264.783.841,2.795,2.876,4.3,4.182,1.743,1.5,2.866,2.462,3.639,2.991a4.457,4.457,0,0,0,2.5.861l.3,1.245-1.519.417c-5.013,1.374-6.478.658-8.489-.95a38.468,38.468,0,0,1-4.589-4.768,1.8,1.8,0,0,0-1.845-.821l-.458.129Zm-1.747-5.85.5-.153a4.356,4.356,0,0,0,2.445-1.374,5.674,5.674,0,0,0,.634-5.063c-1-3.368-3.476-3.853-4.846-3.446-1.475.434-1.543.58-1.119,1.97Z"/><path class="42d5fd58-f439-4d9a-8286-88e3a8d401b6" d="M572.422,672.556c-2.927-3.982-6.108-3.687-8.289-2.737-3.561,1.533-4.982,6.332-2.489,12.077,2.242,5.192,6.566,9.106,11.2,7.1.838-.356,1.255-.858.573-2.438l-1.391-3.229c-.97-2.238-1.211-2.422-4.846-1.16l-.655-1.506,11.212-4.867.651,1.516c-1.587,1.045-1.669,1.2-.658,3.547l1.048,2.418a16.81,16.81,0,0,0,1.526,2.968,31.251,31.251,0,0,1-7,4.623c-8.021,3.473-14.658,1.207-17.625-5.64-3.32-7.682,1.068-14.288,8.217-17.371a29.9,29.9,0,0,1,6.79-1.909c.594,1.1,1.513,2.767,3.178,5.877Z"/><path class="42d5fd58-f439-4d9a-8286-88e3a8d401b6" d="M580.07,667.093c-1.974-3.419-2.36-3.493-4.592-2.462l-.712-1.234,15.014-8.658,3.364,5.016-1.343.906a6.784,6.784,0,0,0-2.866-2.269c-.821-.244-1.981.166-3.653,1.133l-.539.312c-1.2.7-1.268.729-.631,1.842l3.53,6.115,1.58-.919c2.727-1.57,2.713-1.808,1.638-4.4l1.4-.811,4.311,7.471-1.4.814c-1.923-2.6-2.13-2.747-4.853-1.17l-1.584.906,2.981,5.169c.946,1.638,1.472,2.388,2.2,2.354a6.045,6.045,0,0,0,2.384-1c1.268-.729,2.554-1.719,2.812-2.876a10.694,10.694,0,0,0-.336-4.171l1.526-.573a48.906,48.906,0,0,1,2.137,6.274l-16.113,9.3-.712-1.231c2.327-1.6,2.452-1.96.482-5.386Z"/><path class="42d5fd58-f439-4d9a-8286-88e3a8d401b6" d="M610.807,661.961c2.34,3.181,2.73,3.218,4.89,1.892l.844,1.153-9.3,6.851-.848-1.14c1.96-1.73,2.045-2.1-.3-5.287l-7.159-9.7c-2.337-3.178-2.727-3.218-4.829-1.943l-.844-1.146,9.184-6.763c2.3-1.7,4.019-2.564,5.711-2.662a5.449,5.449,0,0,1,4.863,2.276c1.906,2.594,1.411,5.311-.132,7.773,1.021.516,3.6,1.753,5.453,2.479,2.15.814,3.537,1.34,4.443,1.587a4.443,4.443,0,0,0,2.645-.051l.7,1.072-1.285.906c-4.246,3-5.864,2.818-8.3,1.984a38.091,38.091,0,0,1-5.935-2.934,1.8,1.8,0,0,0-2.021-.146l-.383.275Zm-3.619-4.907.41-.305a4.543,4.543,0,0,0,1.838-2.133,5.646,5.646,0,0,0-1.129-4.975c-2.082-2.832-4.568-2.449-5.721-1.6-1.231.912-1.255,1.062-.393,2.238Z"/><path class="42d5fd58-f439-4d9a-8286-88e3a8d401b6" d="M633.75,642.969c2.679,2.9,3.066,2.9,5.416,1.028l.977,1.048-9.31,8.567-.97-1.041c1.95-2.1,2-2.483-.682-5.386l-2.123-2.323a4.326,4.326,0,0,0-1.892-1.391c-1.652-.709-4.182-1.513-8.96-3.032-2.554-.834-3.025-.644-4.385.319l-.963-1.058,8.3-7.655.963,1.048-.95,1.18c-.57.729-.19.926.6,1.238,3.076,1.19,5.274,2.059,8.058,3.022-.437-1.492-1.655-5.141-2.588-7.821-.346-.967-.638-1.4-1.679-.587l-1.231.933-.963-1.045,6.484-5.969.963,1.048c-1.357,1.553-1.516,2.3-.977,4.714.6,2.642,1.092,4.972,1.913,7.743a5.056,5.056,0,0,0,1.516,2.723Z"/><path class="c3ea396b-4442-4496-adec-1270077964e2" d="M381.531,418.354c-.712.878-1.56,1.241-2.835.119a10.4,10.4,0,0,1-1.248-14.559c1.2-1.431,3.663-1.346,5.084-3.042,1.984-2.388-1-5.192-2.981-6.881-4.107-3.561-9.2-.516-14.627-5.2-3.212-2.778-3.3-6.735-6.135-9.187-.488-.41-1.194.037-1.645.6-7.373,8.858,7.115,16.527,4.521,18.6-2.873,2.472-8.051-.482-10.32-2.462-4.931-4.266-7.193-10.079-5.938-15.916a10.473,10.473,0,0,1,.834-2.4c7.977-20.064,30.825-23.845,47.735-9.255,10.727,9.255,14.4,22.791,5.945,32.972a25.888,25.888,0,0,1-8.506,6.786c-2.988,1.3-6.939,1.221-9.2,3.914C380.693,414.277,382.9,416.726,381.531,418.354Zm16.2-25.185c5.124-6.166-.475-14.1-6-18.89-8.584-7.407-22.611-7.875-29.35.241a1.136,1.136,0,0,0,.041,1.767l5.043,4.341c4.327,3.741,14.651,2.181,17.778,11.263.539,1.743.505,4.846,2.106,6.227C390.508,400.827,396.355,394.8,397.732,393.169Z"/><path class="c3ea396b-4442-4496-adec-1270077964e2" d="M407.53,372.691l-9.262-13.183c-.621-.912-2.6-1.679-3.334-1.112-1,.787-1.431,1.631-2,1.353-.7-.336-1.848-2.554-2.289-3.208-.648-.956,1.567-5.847,2.174-6.332,2.567-1.994,4.968.78,6.118.336.943-.373.064-5.66,1.675-6.925.122-.078.207-.2.326-.265,3.283-1.255,8.068-2.1,9.594.17,1.258,1.842,1.8,5.175-2.879,9.686a35.628,35.628,0,0,1-3.71.285c-.692.519,1.8,4.528,2.527,5.613.281.421,2.591,4.283,2.764,4.8,0,0,.237.356.363.532.071.132.251.363.329.478.471.465,2.218,2.761,2.693,3.195a13.494,13.494,0,0,0,1.652.8c.19.034,1.655.919,1.655.919.631-.512,1.275-1.187,1.53-1.39,1.082-.756,2.225,1.058,2.923,2.13a3.575,3.575,0,0,1-.546,4.049c-1.156.912-6.8,7.631-8.045,7.583a2.532,2.532,0,0,1-2.252-1.906C408.758,378.44,409.887,376.161,407.53,372.691Z"/><path class="c3ea396b-4442-4496-adec-1270077964e2" d="M533.315,356.283l5.369-13.138c.4-.984,1.7-3.2.844-3.554-1.146-.5-1.513-.536-2.672-1.028-.692-.3-.373-1.838-.064-2.557.424-1.055,5.467-2.74,6.172-2.469,2.947,1.262,1.967,4.762,2.934,5.548.777.641,4.572-2.74,6.427-1.937a2.14,2.14,0,0,1,.37.163c.7,2.191,4.928,6.352,3.917,8.821-.811,2.031-6.569,2.591-8.3,1.94-.58-.2-2.055-3.076-2.167-3.137-.777-.326-2.7,3.843-3.188,5.009-.176.465-2.089,4.4-2.4,4.8,0,0-.166.393-.234.6-.061.136-.18.383-.224.512-.115.658-1.045,3.33-1.156,3.954,0,.39-.349,1.7-.312,1.95.061.193.753.468.753.468,1.74.726-1.116-.434.6.292,1.207.519.343,2.462-.153,3.642-.577,1.445-4.175,1.092-4.935.77a5.639,5.639,0,0,1-2.676-2.757c-.414-.705-4.365-4.073-3.514-5.257C529.822,357.318,531.772,360.061,533.315,356.283Z"/><path class="c3ea396b-4442-4496-adec-1270077964e2" d="M423.371,367.763c-1.282-2.218-1.2-4.066,1.062-5.358,2.757-1.57,4.721-.075,6.149,2.432.814,1.435-1.116,3.724-2.133,4.311a4.9,4.9,0,0,1-4.368-.119C423.941,368.784,423.439,367.872,423.371,367.763Z"/><path class="c3ea396b-4442-4496-adec-1270077964e2" d="M500.625,336.674a38.041,38.041,0,0,1,3.195-9.279,10.175,10.175,0,0,1,9.5-5.08c1.228.024,2.035-1.377,3.124-1.14,1.5.326,2.36,3.046,3.592,3.958A16.425,16.425,0,0,0,526.1,329a1.437,1.437,0,0,1,.207,1.4c-.278,1.316-2.2.743-2.93,1.753-1.34,1.74-1.7,4.555-2.133,6.623-.943,3.547-1.194,7.044-1.991,10.263l.529,1.136,4.3.933c.6.136.482,1.336.387,1.825-.332,1.594-7.115,5.182-8.492,4.877-2.15-.468-2.869-4.524-3.324-6.444l-.4-.081a21.337,21.337,0,0,0-3.29,1.814c-1.764,1.011-2.923,2.91-4.975,2.479-2.835-.621-3.351-3.632-3.836-6.128-.139-.682-.95-2.225-.777-3.059C499.387,342.572,499.669,341.246,500.625,336.674Zm7.058,12.111c1.686.366,5.9-.1,6.393-2.51.115-.5.275-1.323.312-1.452.356-1.8,1.984-10.276,2.394-12.223.044-2.53-2.7-5.5-4.64-5.925a3.28,3.28,0,0,0-3.992,2.656L505.858,339.7C505.889,342.083,504.485,348.076,507.683,348.785Z"/><path class="c3ea396b-4442-4496-adec-1270077964e2" d="M546.688,371.453c1.1-1.628,3.507.312,4.816,1.455,1.411,1.292,2.784,2.981.844,5.118a5.084,5.084,0,0,1-3.181,1.594c1.031,1.943,2.618,2.727,4.11,4.266,2.479-.278,4.853-.648,6.688-2.676.6-.688,3.958-8.051,3.381-8.55-1.767-1.618-8.5.726-9.221-2.3-1.933-8.065,11.182-18.928,14.2-20,1.35-.268,7.492-4.626,12.223.929-.319-.376,3.731,11.677,3.564,12.47s-1.641.492-2.371.166c-5.24.271-8.445,5.962-9.628,8.011s-4.141,10.256-7.322,13.244c-6.447,6.03-12.837,4.433-17.856-.088-2.923-2.622-4.11-5.949-1.984-9.754Zm14.614-3.073.471.383c5.8,2.445,7.4.353,7.4.353-.434.519,8.7-11.154,4.2-15.224-.912-.828-2.6.821-3.6,1.306-.722.821-4.07,4.2-4.663,4.887-.092.1-.4.454-.485.556-.2.19-.526.556-.526.556-.312.356-1.774,2.286-2.109,2.635C562.139,363.975,559.365,366.617,561.3,368.381Z"/><path class="c3ea396b-4442-4496-adec-1270077964e2" d="M577.136,382.082c2.652-2.082,4.738-4.056,8.038-5.219,6.3-2.255,9.191,1.3,10.5,1.787,1.214.244,2.425.19,3.13,1.024,1.011,1.16.061,3.765.482,5.213a15.963,15.963,0,0,0,2.51,6.647,1.379,1.379,0,0,1-.665,1.207c-1.011.851-2.218-.739-3.347-.417-2.106.539-4.049,2.479-5.647,3.819-2.839,2.164-5.07,4.724-7.624,6.712l-.248,1.207,1.913,2.547c.414.471-.38,1.343-.763,1.652-1.207,1.024-8.9,1.394-9.791.339-1.435-1.679.4-5.243,1.15-6.98l-.227-.319a20.558,20.558,0,0,0-3.676-.573c-1.974-.292-4.039.468-5.379-1.1-1.882-2.2-.5-4.823.6-7.034.3-.6.563-2.3,1.2-2.832C571.554,386.823,573.68,385.039,577.136,382.082Zm-2.727,14.532c1.116,1.3,5.843,2.55,7.675.99.383-.315,1-.851,1.1-.939,1.336-1.153,7.655-6.725,9.1-7.977,1.54-1.916,1.15-5.864-.146-7.38a3.228,3.228,0,0,0-4.7-.322l-7.953,6.6C578.086,389.425,572.307,394.156,574.409,396.614Z"/><path class="c3ea396b-4442-4496-adec-1270077964e2" d="M492.106,343.955c-1.411-2.279-3.076.756-4.68,2.2-5.433,4.816-8.706-20.132-3.524-22.3.594-.237,3.039-.9,3.534-.99,1.692-1.75-3.805-11.188-5.63-12.345-4.168-2.747-10.33-.675-12.009-.092-4.534,1.611-6.094,3.446-7.95,7.76l-.5.1c-1.452-2.808-2.3-5.823-8.034-4.816-.875.173-4.585-1.892-5.671-1.692-1.553.288-4.144,2.961-4.989,3.887-1.736,1.906-5.074,1.34-6.712,1.95-3.1,1.1-3.914,1.811-4.405,4.653-.224,1.34-.76,4.11.254,4.812.912.634,3.242-.59,4.575-.943,3.307-.906,10,28.207,7.8,28.78-2.571.665-4.121,1.14-5.013,1.814-.885.705,1.2,3.456,2.215,3.727a14.5,14.5,0,0,0,4.049.78,29.554,29.554,0,0,0,7.054-2.713c1.38-1.523-3.117-21.834-5.44-26.864,0,0-4.436-11.578,8.689-12.043.99-.034,3.327,7.078,4.155,14.42.736,6.362,1.984,13.223,2.221,17.29a17.239,17.239,0,0,1-2.679,1.028c-1.506.353,1.557,4.507,2.466,4.185a12,12,0,0,1,2.761-.39s4.741-.509,4.66-1.594a12.459,12.459,0,0,0-.227-2.371c-.027-3.6-1.411-13.518-2.693-21.468-1.689-10.568-1.126-12.837,2.764-13.759,1.123-.248,8.845-2.761,9.486,4.1-4.453,1.245-4.046,12.687-2.879,18.141,1.2,5.555,1.791,10.8,5.593,13.5,1.126.821,3.242,1.862,5.074,1.513l.153-.027c5.4-2.54,6-6.718,6.454-7.532C493.479,345.861,492.106,343.955,492.106,343.955Z"/></svg>