<svg id="b0bd9943-4494-4cb7-9c5e-faf0c5254732" data-name="Layer 1" xmlns="http://www.w3.org/2000/svg" viewBox="0 0 960 960"><defs><style>.e677d3a0-7711-4771-9ec4-036a0889105c{fill:#425b69;}</style></defs><title>hyper-logo</title><path class="e677d3a0-7711-4771-9ec4-036a0889105c" d="M324.345,388.464c1.624-6.66,1.479-9.735-4.28-14.131a114.211,114.211,0,0,0-15.185-9.487q-10.263,36.853-19.545,73.976c-4.765,19.006-9.368,38.065-13.351,57.251-1.62,7.807-3.586,15.969-4.79,24.141l-2.151,14.134s18.184,12.021,26.342,16.769c2.716-39.428,10.718-78.044,20.745-116.163C316.2,419.461,320.55,404.029,324.345,388.464Z"/><path class="e677d3a0-7711-4771-9ec4-036a0889105c" d="M683.194,490.951c0-.02-.006-.041-.009-.061a8.547,8.547,0,0,1-1.074.254,11.75,11.75,0,0,1-2.783.062c-.073-.008-.146-.02-.218-.03q-.426-.053-.852-.141c-.311-.067-.62-.146-.926-.243-.1-.03-.193-.067-.29-.1-.267-.092-.531-.2-.791-.313-.12-.053-.241-.106-.361-.164-.22-.107-.434-.229-.648-.353-.137-.079-.275-.149-.411-.237-.252-.162-.5-.337-.738-.522l-.081-.063c-.205-.162-.4-.334-.6-.514-.047-.044-.1-.087-.142-.132-.174-.167-.34-.345-.5-.526-.05-.055-.1-.107-.148-.163-.2-.236-.391-.481-.571-.739-2.905-4.2-2.04-9.59-.616-14.031.2-.625.417-1.239.639-1.847.081-.219.165-.435.248-.652.147-.386.294-.772.447-1.153.111-.277.221-.552.334-.828.125-.307.252-.614.378-.918,1.007-2.422,2.046-4.818,2.859-7.392a13.8,13.8,0,0,0,.8-4.6c-.031-4.286-5.177-7.789-8.315-9.9-3.243-2.187-6.882-3.877-9.984-6.261-5.921-4.817-9.563-12.078-8.763-19.779.514-4.944-3.162-8.843-8.149-6.012-7.842,4.45-7.134,15.912-3.473,24.23-.017.052-.034.109-.051.159,0,0-15.828,49.689-38.669,45.682,0,0-12.623-2.805-14.426-28.251,6.594-1.368,13.54-3.153,19.085-7.151a20.729,20.729,0,0,0,8.454-15.194c.526-5.338-.517-11.245-5.45-14.233-4.255-2.577-9.732-2.3-14.347-.971a26.823,26.823,0,0,0-13.088,8.377,41.776,41.776,0,0,0-7.036,12.509,61.984,61.984,0,0,0-3.093,11.933c-3.561.527-7.178,1.08-10.793,1.728-2.054-17.063-9.8-23.444-9.8-23.444-18.105-15.213-33.052-2.182-41.676,9.636a23.588,23.588,0,0,0,.394-2.828,9.423,9.423,0,0,0-.33-3.4,7.647,7.647,0,0,0-1.714-2.9,16.351,16.351,0,0,0-2.573-2.222,60.781,60.781,0,0,0-6.434-4.007c-2.226-1.221-4.506-2.348-6.76-3.445-1.056,4.58-3.387,13.7-5,20.331l-.01-.01-.364,1.56c-.309,1.29-.584,2.461-.8,3.421l-17.876,76.684c-5.269.718-10.084,1.375-14.435,1.9.212-.842.4-1.6.535-2.2,3.172-13.884,6.414-27.749,9.51-41.651,2.049-9.2,4.165-18.379,6.142-27.592q.742-3.455,1.453-6.916c.389-1.9.832-3.8,1.051-5.733a8.466,8.466,0,0,0-2.059-7.176c-2.081-2.215-4.9-3.814-7.486-5.35-2.988-1.77-6.076-3.364-9.2-4.885-16.223,53.028-33.2,59.44-38.542,61.577s-6.678-1.6-4.541-9.952c1.432-5.594,5.679-21.159,8.328-30.831.615-2.412,1.508-4.926,2.089-7.345.153-.639.3-1.29.425-1.949a10.953,10.953,0,0,0,.235-1.834,8.332,8.332,0,0,0-.217-2.609,7.218,7.218,0,0,0-1.492-2.795,15.438,15.438,0,0,0-2.328-2.194,57.68,57.68,0,0,0-5.884-4.03c-2.043-1.238-4.139-2.391-6.214-3.513l0,.011-.014-.011-.01.022c-.122.071-6.161,3.632-15.17,9.1q1.7-5.7,3.376-11.42c1.4-4.817,2.932-9.64,4.059-14.529.684-2.965.887-5.967-.894-8.6-1.92-2.832-5.041-4.89-7.792-6.831-3.419-2.414-6.994-4.6-10.618-6.686,0,0-8.429,30.231-18.3,66.8-19.453,12.409-39.589,26.014-47.823,34.064l8.615,6.211s11.554-11.541,35.514-26.536c-12.6,47.037-26.092,99.348-26.977,110.779L329.986,571q7.114,4.866,14.286,9.646c3.122,2.075,1.415,1.141,9.433,6.123,1.507-15.407,3.925-30.726,6.648-45.961q4.539-25.4,10.383-50.539c3.539-15.3,7.437-30.5,11.9-45.557.267-.9.538-1.8.805-2.7,3.9-1.966,7.963-3.941,12.228-5.913-10.019,27.389-22.827,73.63,6.861,69.34,0,0,19.76-.914,40.41-33.716-.417,1.95-.841,3.9-1.253,5.849-3.1,14.673-7.21,33.145-10.152,49.327-4.288.934-10.375,2.109-14.447,3.636-14.373,5.387-25.042,16.485-27.666,31.87-1.442,8.448-.934,18.511,4.551,25.522,6.273,8.018,18.309,8.942,27.1,4.866,11.47-5.32,19.208-18.867,21.926-30.874,1.838-8.118,4.686-21.175,6.541-29.724h0q7.284-.7,14.415-1.168L456.082,564.8l22.652,13.184s4.151-23.706,8.546-47.945c60.217-1.169,105.973,8.313,105.973,8.313,61.969,14.158,84.159,25.112,84.159,25.112-1.336-24.577-21.942-39.8-21.942-39.8a549.127,549.127,0,0,0-166.136-4.887c2.413-13.15,4.715-25.366,6.25-32.761.878-4.228,2.469-11.234,4.2-18.707a48.454,48.454,0,0,1,4.6-11.661c.944-1.608,2.01-3.258,3.178-4.884a31.5,31.5,0,0,1,10.271-8.951c15.019-7.924,23.719-1.049,23.026,15.089-11.3,3.878-21.246,10.042-27.31,20.941-10.268,18.449,9.292,30.572,26.231,25.462,16.28-4.911,20.322-26.626,19.749-43.1,0-.117-.006-.229-.008-.347,2.905-.685,6.113-1.346,9.589-1.918a64.714,64.714,0,0,0,.641,12.431c1.438,9.571,5.383,19.573,13.511,25.381a27.035,27.035,0,0,0,16.675,4.737c26.035,1.716,37.931-34.422,45.572-53.386,6.165,5.374,13.409,10.736,10.873,19.275-.249.838-.512,1.724-.778,2.648-.087.3-.175.611-.262.921-.017.064-.035.129-.053.193-.067.239-.133.478-.2.72-.028.1-.055.206-.083.309-.057.21-.114.419-.169.632l-.091.353c-.051.2-.1.4-.154.6-.032.125-.063.25-.094.377q-.073.3-.147.6c-.03.128-.061.256-.091.385-.047.2-.093.4-.139.606l-.087.389c-.046.208-.089.418-.133.627-.026.125-.052.25-.078.376-.046.224-.088.45-.131.676-.021.111-.043.22-.063.33q-.076.417-.145.835c-.01.059-.021.117-.03.177q-.084.515-.156,1.031c-.006.041-.01.082-.017.122q-.061.445-.115.89c-.012.1-.022.208-.033.313q-.038.35-.071.7c-.012.124-.02.249-.03.373-.018.214-.034.426-.047.639-.008.131-.014.262-.021.394q-.016.309-.026.618c0,.133-.007.265-.01.4q-.006.3,0,.6c0,.133,0,.267,0,.4,0,.2.01.4.018.6,0,.129.01.258.017.386.011.205.026.409.043.612.01.121.018.244.03.364.021.218.048.435.075.651.014.1.023.206.038.309.04.279.087.555.137.829.007.037.012.075.02.112.059.313.128.622.2.928.019.078.042.152.063.229.059.225.119.45.188.67.033.107.071.212.107.317.062.188.125.376.195.56.043.115.09.226.136.34.07.172.141.345.217.514.052.116.108.23.164.345.079.163.16.325.246.484.061.114.124.226.188.338.089.155.184.31.28.462.07.111.139.219.212.327.1.151.211.3.32.448.076.1.151.206.231.307.119.15.244.3.371.442.081.092.158.187.242.278.145.156.3.309.454.46.075.074.146.149.223.221.237.22.484.436.745.644,5.7,4.545,18.734,4.224,27.212.3,0,0,9.653-3.469,9.653-13.087C694.962,484.008,689.537,489.567,683.194,490.951ZM405.683,580.806a7.662,7.662,0,0,1-6.776-4.25c-1.193-2.578-1.138-5.618-.8-8.377a39.526,39.526,0,0,1,8.137-19.167c4.837-6.243,16.142-12.124,24.223-13.862C429.253,546.855,422.773,582.01,405.683,580.806ZM540.433,466.226c1.84,43.989-40.69,18.1,0,0Zm44.453-18.056c12.595-37.489,29.768-6.354,0,0Z"/></svg>