<svg id="32021dc9-f30a-4aa3-a8a2-4eeef9a9c243" data-name="Layer 1" xmlns="http://www.w3.org/2000/svg" viewBox="0 0 960 960"><defs><style>.\38 ffb2dfa-3933-4587-8037-4b333fb21649{fill:#1e3f4d;}.\32 acf492e-7508-4110-8d40-a9f5eb36c0ee{fill:#285266;}</style></defs><title>mckenna-custom</title><path class="8ffb2dfa-3933-4587-8037-4b333fb21649" d="M181.437,608.521v32.486h-3.555V625.814H156.194v15.193h-3.607V608.521h3.607v14.46h21.687v-14.46Z"/><path class="8ffb2dfa-3933-4587-8037-4b333fb21649" d="M205.339,641.234a17.157,17.157,0,0,1-12.416-5.1,16.476,16.476,0,0,1-3.5-5.284,15.7,15.7,0,0,1-1.237-6.085,15.216,15.216,0,0,1,1.314-6.222,16.975,16.975,0,0,1,3.631-5.266,17.534,17.534,0,0,1,5.463-3.634,17.012,17.012,0,0,1,6.8-1.352,16.657,16.657,0,0,1,6.981,1.442,17.386,17.386,0,0,1,5.409,3.775,17.1,17.1,0,0,1,3.477,5.284,15.443,15.443,0,0,1,1.237,6.018,15.216,15.216,0,0,1-1.314,6.222,16.841,16.841,0,0,1-3.606,5.239,17.445,17.445,0,0,1-5.435,3.616A17.008,17.008,0,0,1,205.339,641.234Zm-13.547-16.47a13.6,13.6,0,0,0,8.035,12.465,13.182,13.182,0,0,0,5.514,1.121,13.006,13.006,0,0,0,5.616-1.188,13.554,13.554,0,0,0,4.276-3.113,14.064,14.064,0,0,0,2.7-4.345,13.383,13.383,0,0,0-.052-10.042,13.577,13.577,0,0,0-7.083-7.321,13.045,13.045,0,0,0-5.461-1.121,13.19,13.19,0,0,0-9.892,4.253,14.032,14.032,0,0,0-2.7,4.349A13.372,13.372,0,0,0,191.792,624.764Z"/><path class="8ffb2dfa-3933-4587-8037-4b333fb21649" d="M261.7,641.007V614.33l-13.344,20.637h-2.111L232.9,614.33v26.677h-3.607V608.521H233l14.269,22.234,14.374-22.234h3.658v32.486H261.7Z"/><path class="8ffb2dfa-3933-4587-8037-4b333fb21649" d="M299.048,638.17v2.837H274.474V608.521h24.109v2.833h-20.5v11.715h17.873v2.7H278.081v12.4Z"/><path class="8ffb2dfa-3933-4587-8037-4b333fb21649" d="M326.453,614.606a11.252,11.252,0,0,0-4.121-2.517,16.734,16.734,0,0,0-5.874-.96q-4.842,0-7.056,1.624a5.183,5.183,0,0,0-2.217,4.416,4.408,4.408,0,0,0,.595,2.4,4.9,4.9,0,0,0,1.828,1.624,13.614,13.614,0,0,0,3.165,1.191q1.936.5,4.562,1.005a54.052,54.052,0,0,1,5.279,1.236,15.994,15.994,0,0,1,4,1.716,7.491,7.491,0,0,1,2.524,2.492,7.055,7.055,0,0,1,.876,3.66,7.468,7.468,0,0,1-.981,3.891,8.1,8.1,0,0,1-2.73,2.745,12.955,12.955,0,0,1-4.171,1.624,25.057,25.057,0,0,1-5.308.529,23.513,23.513,0,0,1-14.682-4.714l1.8-2.606a14.131,14.131,0,0,0,2.343,1.739,18.066,18.066,0,0,0,3.039,1.44,21.508,21.508,0,0,0,3.581.96,22.872,22.872,0,0,0,4.02.343,13.866,13.866,0,0,0,6.825-1.4,4.564,4.564,0,0,0,2.444-4.234,4.464,4.464,0,0,0-.692-2.539,5.8,5.8,0,0,0-2.088-1.783,15.87,15.87,0,0,0-3.45-1.3q-2.062-.548-4.791-1.1-2.887-.592-5.048-1.236a14.149,14.149,0,0,1-3.66-1.6,6.472,6.472,0,0,1-2.238-2.308,6.774,6.774,0,0,1-.75-3.317,8.261,8.261,0,0,1,.956-4,8.089,8.089,0,0,1,2.7-2.931,13.519,13.519,0,0,1,4.121-1.783,20.758,20.758,0,0,1,5.253-.619,20.009,20.009,0,0,1,6.519.983,18.152,18.152,0,0,1,5.178,2.77Z"/><path class="8ffb2dfa-3933-4587-8037-4b333fb21649" d="M359.218,608.521h3.039l15.2,32.486h-3.812L368.9,630.849H352.471l-4.691,10.158H343.92Zm8.862,19.81-7.366-16.06-7.471,16.06H368.08Z"/><path class="8ffb2dfa-3933-4587-8037-4b333fb21649" d="M386.318,614.467v26.539h-3.606V608.52h2.78l24.215,27.041v-27h3.606V641h-3.144Z"/><path class="8ffb2dfa-3933-4587-8037-4b333fb21649" d="M422.482,641.007V608.521H434.9a20.878,20.878,0,0,1,7.651,1.281,15.641,15.641,0,0,1,5.459,3.474,14.365,14.365,0,0,1,3.3,5.15,17.773,17.773,0,0,1,1.107,6.289,17.411,17.411,0,0,1-1.237,6.706,14.383,14.383,0,0,1-3.53,5.123,16,16,0,0,1-5.51,3.3,21.156,21.156,0,0,1-7.24,1.166H422.482Zm26.324-16.292a15.1,15.1,0,0,0-.927-5.374,11.86,11.86,0,0,0-2.709-4.234,12.169,12.169,0,0,0-4.352-2.767,16.562,16.562,0,0,0-5.924-.987h-8.809v26.814H434.9a16.281,16.281,0,0,0,6-1.027,12.281,12.281,0,0,0,4.352-2.837,12.068,12.068,0,0,0,2.654-4.257A15.3,15.3,0,0,0,448.806,624.715Z"/><path class="8ffb2dfa-3933-4587-8037-4b333fb21649" d="M482.187,608.521h3.039l15.2,32.486h-3.812l-4.741-10.158H475.436l-4.686,10.158h-3.865Zm8.862,19.81-7.37-16.06-7.467,16.06h14.836Z"/><path class="8ffb2dfa-3933-4587-8037-4b333fb21649" d="M505.681,641.007V608.521h15.143a10.488,10.488,0,0,1,4.356.89,11.524,11.524,0,0,1,3.425,2.335,10.961,10.961,0,0,1,2.263,3.27,8.981,8.981,0,0,1,.826,3.709,9.947,9.947,0,0,1-.771,3.865,10.3,10.3,0,0,1-2.163,3.273,10.817,10.817,0,0,1-3.325,2.286,10.338,10.338,0,0,1-4.3.871H509.287v11.986h-3.606Zm3.606-14.825H520.98a6.764,6.764,0,0,0,2.91-.619,6.931,6.931,0,0,0,2.242-1.649,7.524,7.524,0,0,0,1.442-2.38,7.78,7.78,0,0,0,.515-2.811,7.045,7.045,0,0,0-.591-2.86,7.767,7.767,0,0,0-1.6-2.357,7.457,7.457,0,0,0-5.232-2.153H509.286v14.828Z"/><path class="8ffb2dfa-3933-4587-8037-4b333fb21649" d="M546.739,608.521h3.039l15.2,32.486h-3.812l-4.741-10.158H539.987L535.3,641.007h-3.865Zm8.862,19.81-7.37-16.06-7.467,16.06H555.6Z"/><path class="8ffb2dfa-3933-4587-8037-4b333fb21649" d="M570.233,641.007V608.521h15.454a10.454,10.454,0,0,1,4.352.89,11.491,11.491,0,0,1,3.43,2.335,10.584,10.584,0,0,1,2.238,3.27,9.22,9.22,0,0,1,.8,3.709,9.891,9.891,0,0,1-.595,3.407,10.167,10.167,0,0,1-1.648,2.931,9.593,9.593,0,0,1-5.9,3.407l8.963,12.538h-4.071l-8.6-11.986H573.839v11.986h-3.606Zm3.606-14.825h11.953a6.73,6.73,0,0,0,5.148-2.29,7.8,7.8,0,0,0,1.442-2.38,7.609,7.609,0,0,0,.515-2.79,6.966,6.966,0,0,0-.591-2.815,7.539,7.539,0,0,0-3.966-3.959,7.124,7.124,0,0,0-2.86-.6H573.839v14.829Z"/><path class="8ffb2dfa-3933-4587-8037-4b333fb21649" d="M629.272,611.354H616.237v29.652h-3.606V611.354H599.6v-2.833H629.27v2.833Z"/><path class="8ffb2dfa-3933-4587-8037-4b333fb21649" d="M667.133,641.007V614.33l-13.344,20.637h-2.114l-13.34-20.637v26.677h-3.606V608.521h3.707l14.271,22.234,14.372-22.234h3.66v32.486h-3.606Z"/><path class="8ffb2dfa-3933-4587-8037-4b333fb21649" d="M704.484,638.17v2.837H679.912V608.521h24.107v2.833h-20.5v11.715h17.877v2.7H683.518v12.4Z"/><path class="8ffb2dfa-3933-4587-8037-4b333fb21649" d="M714.89,614.467v26.539h-3.606V608.52h2.78l24.215,27.041v-27h3.606V641h-3.144Z"/><path class="8ffb2dfa-3933-4587-8037-4b333fb21649" d="M777.018,611.354H763.983v29.652h-3.606V611.354H747.343v-2.833h29.674v2.833Z"/><path class="8ffb2dfa-3933-4587-8037-4b333fb21649" d="M803.858,614.606a11.217,11.217,0,0,0-4.121-2.517,16.734,16.734,0,0,0-5.874-.96q-4.842,0-7.056,1.624a5.19,5.19,0,0,0-2.217,4.416,4.408,4.408,0,0,0,.595,2.4,4.9,4.9,0,0,0,1.828,1.624,13.654,13.654,0,0,0,3.169,1.191q1.93.5,4.558,1.005,2.937.548,5.283,1.236a15.961,15.961,0,0,1,3.991,1.716,7.452,7.452,0,0,1,2.524,2.492,7.055,7.055,0,0,1,.876,3.66,7.507,7.507,0,0,1-.977,3.891,8.109,8.109,0,0,1-2.734,2.745,12.916,12.916,0,0,1-4.171,1.624,25.057,25.057,0,0,1-5.308.529,23.522,23.522,0,0,1-14.682-4.714l1.8-2.606a14.131,14.131,0,0,0,2.343,1.739,18.067,18.067,0,0,0,3.039,1.44,21.618,21.618,0,0,0,3.581.96,22.872,22.872,0,0,0,4.02.343,13.866,13.866,0,0,0,6.825-1.4,4.567,4.567,0,0,0,2.448-4.234,4.465,4.465,0,0,0-.7-2.539,5.8,5.8,0,0,0-2.088-1.783,15.87,15.87,0,0,0-3.45-1.3q-2.062-.548-4.791-1.1-2.887-.592-5.048-1.236a14.148,14.148,0,0,1-3.66-1.6,6.543,6.543,0,0,1-2.238-2.308,6.775,6.775,0,0,1-.746-3.317,8.259,8.259,0,0,1,.952-4,8.162,8.162,0,0,1,2.7-2.931,13.564,13.564,0,0,1,4.121-1.783,20.792,20.792,0,0,1,5.258-.619,20,20,0,0,1,6.515.983,18.1,18.1,0,0,1,5.178,2.77Z"/><path class="8ffb2dfa-3933-4587-8037-4b333fb21649" d="M649.413,442.065c-36.431-22.152-74.6-55.726-113.737-91.086l-3.095-2.8-2.881,3.011c-15.518,16.212-28.132,28.97-39.7,40.152l-2.821,2.725,8.873,10.211c16.371,18.848,33.272,38.3,49.985,56.657l-1.912,1.582c-18.48-16.565-37.178-34.366-55.292-51.609-19.992-19.033-40.664-38.714-60.741-56.42l-2.835-2.5-2.84,2.494c-42.026,36.9-80.05,59.043-113.074,65.836l-1.016-.935c34.9-12.8,73.384-43.457,117.294-93.4,17.735,18.285,35.255,38.01,50.2,55.076l3.266,3.725,3.217-3.767c17.058-19.974,34.229-41.626,50.39-62.307C572.358,363.16,613.271,408.9,651.67,439.709Z"/><path class="2acf492e-7508-4110-8d40-a9f5eb36c0ee" d="M115.8,527.759q7.454,14.162,15.592,29.069,1.056-2.007,3.064-5.76t4.652-8.616q2.639-4.863,5.655-10.519t6.13-11.468q3.118-5.812,6.183-11.417t5.708-10.463h1.375q1.161,10.148,2.165,19.61t2.063,18.6q1.056,9.146,2.112,18.078t2.326,17.7a15.036,15.036,0,0,0-2.485-.21H165.37a15.036,15.036,0,0,0-2.485.21q-1.167-14.055-2.326-27.272T157.7,518.352h-.211q-7.292,13.316-14.323,26.478T129.8,572.369h-.952q-6.343-13.323-13.266-26.694t-13.9-27.321h-.209q-.741,6.555-1.638,14.218T98.2,547.683q-.741,7.454-1.268,14.06T96.4,572.579a32.713,32.713,0,0,0-7.4,0q1.373-8.563,2.854-18.075t2.854-19.131q1.373-9.621,2.536-18.973t2.01-17.814h1.8Q108.345,513.6,115.8,527.759Z"/><path class="2acf492e-7508-4110-8d40-a9f5eb36c0ee" d="M181.28,547.63a27.736,27.736,0,0,1,2.326-11.841A23.615,23.615,0,0,1,198.3,522.841a32.87,32.87,0,0,1,9.937-1.531,35.129,35.129,0,0,1,10.412,1.425,18.25,18.25,0,0,1,6.607,3.228,29.777,29.777,0,0,0-1.321,3.327,36.126,36.126,0,0,0-1.005,3.648h-.847a15.093,15.093,0,0,0-2.007-2.8,16.933,16.933,0,0,0-3.012-2.643,17.553,17.553,0,0,0-3.859-2.01,13.2,13.2,0,0,0-4.65-.791,17.9,17.9,0,0,0-8.193,1.744,15.117,15.117,0,0,0-5.6,4.811,20.833,20.833,0,0,0-3.171,7.24,38.531,38.531,0,0,0-1.005,9.036q0,10.891,4.652,16.441t13.634,5.547a17.058,17.058,0,0,0,4.334-.581,24.308,24.308,0,0,0,4.334-1.586,23.277,23.277,0,0,0,3.964-2.378,20.057,20.057,0,0,0,3.224-2.959l.531.316a31.253,31.253,0,0,0-.636,5.179,29.172,29.172,0,0,1-7.875,4.335,27.207,27.207,0,0,1-9.779,1.8,32.991,32.991,0,0,1-9.142-1.321,22.284,22.284,0,0,1-8.3-4.439,22.739,22.739,0,0,1-5.973-8.087A29.138,29.138,0,0,1,181.28,547.63Z"/><path class="2acf492e-7508-4110-8d40-a9f5eb36c0ee" d="M238.151,572.577q.315-6.549.581-13.32t.263-13.743V527.336q0-6.977-.263-13.691t-.581-13.689c.914.144,1.8.265,2.643.371a20.392,20.392,0,0,0,5.07,0c.847-.106,1.727-.227,2.643-.371q-.309,6.977-.578,13.689t-.262,13.691v5.812c0,.564.206.847.633.847.283,0,.771-.316,1.48-.949q3.7-3.168,7.77-7.192t8.189-8.348q4.117-4.336,8.141-8.83t7.714-8.719c.778.144,1.515.265,2.223.371a14.425,14.425,0,0,0,2.112.158,20.887,20.887,0,0,0,2.539-.158c.84-.106,1.687-.227,2.532-.371q-3.7,3.168-8.348,7.508t-9.359,8.877q-4.7,4.542-8.981,8.932t-7.136,7.662q8.558,9.621,17.28,19.61t17.707,20.03a23.827,23.827,0,0,0-3.172-.21h-6.078a20.421,20.421,0,0,0-2.9.21q-3.809-4.33-8.4-9.934T262.617,551.8q-4.386-5.235-7.928-9.408t-5.23-5.864c-.564-.564-.991-.847-1.274-.847-.351,0-.524.21-.524.633v9.194q0,6.977.262,13.743t.578,13.32q-2.425-.212-5.175-.21T238.151,572.577Z"/><path class="2acf492e-7508-4110-8d40-a9f5eb36c0ee" d="M293.327,549.11q0-13,6.183-20.4t18.024-7.4a24.458,24.458,0,0,1,9.673,1.741,20.25,20.25,0,0,1,6.817,4.652,18.331,18.331,0,0,1,4.071,6.82,25.915,25.915,0,0,1,1.321,8.348q0,1.062-.052,2.065c-.038.668-.09,1.356-.158,2.058l-11.31-.206q-5.606-.109-11.31-.111-3.49,0-6.926.111l-6.923.206a9.078,9.078,0,0,0-.1,1.59v1.373a23.894,23.894,0,0,0,1.215,7.718,17.481,17.481,0,0,0,3.54,6.18,16.893,16.893,0,0,0,5.708,4.122,18.7,18.7,0,0,0,7.821,1.534,17.06,17.06,0,0,0,4.335-.581,24.374,24.374,0,0,0,4.332-1.586,23.17,23.17,0,0,0,3.964-2.378,20.115,20.115,0,0,0,3.224-2.959l.531.316-.637,5.179a29.131,29.131,0,0,1-7.872,4.335,27.213,27.213,0,0,1-9.779,1.8,29.791,29.791,0,0,1-10.412-1.741,23.029,23.029,0,0,1-8.138-5.078,22.718,22.718,0,0,1-5.286-7.872A25.81,25.81,0,0,1,293.327,549.11Zm24.419-24.417a11.651,11.651,0,0,0-6.607,1.8,15.432,15.432,0,0,0-4.443,4.491,21.418,21.418,0,0,0-2.643,5.923,31.349,31.349,0,0,0-1.109,6.081q3.271.1,6.817.21t6.923.106q3.49,0,7.084-.106l6.975-.21a40.779,40.779,0,0,0-.475-6.029,18.862,18.862,0,0,0-1.9-5.918,12.7,12.7,0,0,0-3.964-4.545A11.269,11.269,0,0,0,317.747,524.693Z"/><path class="2acf492e-7508-4110-8d40-a9f5eb36c0ee" d="M380.854,530.876a10.016,10.016,0,0,0-8.458-4.071q-7.4,0-10.836,4.545t-3.434,12.793v8.981q0,4.758.158,9.993t.689,9.46q-2.436-.212-4.759-.21c-1.552,0-3.134.069-4.755.21q.527-4.227.684-9.46t.158-9.993v-10.99q0-4.758-.158-9.993t-.684-9.776a28.2,28.2,0,0,0,4.755.526,11.854,11.854,0,0,0,1.851-.158l2.378-.368q-.319,4.227-.316,8.455h.21a22.1,22.1,0,0,1,7.082-7.027,18.669,18.669,0,0,1,9.831-2.485,22,22,0,0,1,5.973.847,14.315,14.315,0,0,1,5.444,2.9,15.008,15.008,0,0,1,3.964,5.6,22.921,22.921,0,0,1,1.534,9.04q0,4.548-.213,9.356t-.21,10.2v6.872c0,1.128.017,2.24.052,3.327s.09,2.133.158,3.122q-2.116-.212-4.439-.21-2.219,0-4.335.21.212-5.5.479-11.31t.262-11.947v-6.449Q383.916,534.942,380.854,530.876Z"/><path class="2acf492e-7508-4110-8d40-a9f5eb36c0ee" d="M438.568,530.876a10.015,10.015,0,0,0-8.458-4.071q-7.4,0-10.836,4.545t-3.434,12.793v8.981q0,4.758.158,9.993t.689,9.46q-2.436-.212-4.759-.21c-1.552,0-3.134.069-4.755.21q.527-4.227.684-9.46t.158-9.993v-10.99q0-4.758-.158-9.993t-.684-9.776a28.2,28.2,0,0,0,4.755.526,11.854,11.854,0,0,0,1.851-.158l2.378-.368q-.319,4.227-.316,8.455h.21a22.1,22.1,0,0,1,7.082-7.027,18.669,18.669,0,0,1,9.831-2.485,22,22,0,0,1,5.973.847,14.315,14.315,0,0,1,5.444,2.9,15.008,15.008,0,0,1,3.964,5.6,22.921,22.921,0,0,1,1.534,9.04q0,4.548-.213,9.356t-.21,10.2v6.872c0,1.128.017,2.24.052,3.327s.09,2.133.158,3.122q-2.116-.212-4.439-.21-2.219,0-4.335.21.212-5.5.479-11.31t.262-11.947v-6.449Q441.63,534.942,438.568,530.876Z"/><path class="2acf492e-7508-4110-8d40-a9f5eb36c0ee" d="M465.944,527.442a30.052,30.052,0,0,1,8.774-4.866,27.157,27.157,0,0,1,8.245-1.267,21.045,21.045,0,0,1,6.975,1.109,15.175,15.175,0,0,1,5.392,3.172,14.739,14.739,0,0,1,3.49,4.969,15.8,15.8,0,0,1,1.267,6.393q0,6.028-.21,12t-.21,12.632c0,.847.014,1.744.052,2.7a7.9,7.9,0,0,0,.475,2.532,4.818,4.818,0,0,0,1.215,1.851,3.371,3.371,0,0,0,2.381.743c.351,0,.72-.021,1.109-.055a2.562,2.562,0,0,0,1.111-.371v2.326a12.589,12.589,0,0,1-2.907.847,21.523,21.523,0,0,1-3.858.316,6.642,6.642,0,0,1-7.294-6.235,28.429,28.429,0,0,1-7.5,5.6,20.724,20.724,0,0,1-9.092,1.8,18.412,18.412,0,0,1-5.179-.74,11.834,11.834,0,0,1-4.493-2.433,13.31,13.31,0,0,1-3.169-4.068,11.778,11.778,0,0,1-1.218-5.444q0-6.343,3.964-9.831t10.942-4.652q5.709-.949,8.932-1.638a22.311,22.311,0,0,0,4.755-1.428,3.236,3.236,0,0,0,1.852-1.741,8.86,8.86,0,0,0,.316-2.594,19.982,19.982,0,0,0-.637-5.071,11.74,11.74,0,0,0-2.006-4.226,10.239,10.239,0,0,0-3.6-2.912,12,12,0,0,0-5.388-1.109,16.752,16.752,0,0,0-7.877,1.9,12.543,12.543,0,0,0-5.444,5.286h-1.163v-5.494Zm26.11,18.815a26.684,26.684,0,0,1-4.177,1.057c-1.583.283-3.19.581-4.807.9a44.882,44.882,0,0,0-4.81,1.218,15.556,15.556,0,0,0-4.229,2.006,9.739,9.739,0,0,0-2.959,3.169,9.555,9.555,0,0,0-1.111,4.866q0,4.966,2.856,7.5a9.327,9.327,0,0,0,6.341,2.536,12.966,12.966,0,0,0,7.346-2.22,16.682,16.682,0,0,0,5.127-5.179Z"/><path class="2acf492e-7508-4110-8d40-a9f5eb36c0ee" d="M598.97,570.093a28.686,28.686,0,0,1-4.969,1.8q-2.906.789-6.5,1.425a43.144,43.144,0,0,1-7.5.633,48.156,48.156,0,0,1-15.433-2.378,32.522,32.522,0,0,1-12.209-7.24,34.072,34.072,0,0,1-8.035-11.891,45.566,45.566,0,0,1,0-32.031,33.476,33.476,0,0,1,8.138-11.891,35.156,35.156,0,0,1,12.528-7.4,48.587,48.587,0,0,1,16.065-2.536,52.88,52.88,0,0,1,12.738,1.428,59.63,59.63,0,0,1,10.2,3.434,13.924,13.924,0,0,0-1.373,4.019c-.354,1.69-.633,3.1-.847,4.226l-.633.213a23.427,23.427,0,0,0-2.959-2.856,32.486,32.486,0,0,0-4.439-3.063,28.131,28.131,0,0,0-5.708-2.485,22.994,22.994,0,0,0-6.978-1.005,32.533,32.533,0,0,0-11.575,2.01,24.618,24.618,0,0,0-9.3,6.18A28.88,28.88,0,0,0,554,521.255a52.936,52.936,0,0,0,0,30.339,28.811,28.811,0,0,0,6.183,10.57,24.6,24.6,0,0,0,9.3,6.183,32.538,32.538,0,0,0,11.575,2.01,24.8,24.8,0,0,0,7.03-.949A37.845,37.845,0,0,0,594,567.133a35.528,35.528,0,0,0,4.866-2.853q2.163-1.533,3.644-2.7l.423.423-.949,6.239A13.873,13.873,0,0,1,598.97,570.093Z"/><path class="2acf492e-7508-4110-8d40-a9f5eb36c0ee" d="M614.458,556.614q0-5.6.158-9.566t.158-7.872q0-3.7-.052-8.038t-.162-8.771a23.176,23.176,0,0,0,4.442.526,22.849,22.849,0,0,0,4.332-.526q-.531,6.343-.791,13.9t-.265,15.487a28.556,28.556,0,0,0,.949,8.406,11.846,11.846,0,0,0,2.326,4.384,11.706,11.706,0,0,0,3.754,2.8,11.981,11.981,0,0,0,5.337,1.111,13.133,13.133,0,0,0,7.4-1.958,11.962,11.962,0,0,0,4.332-4.807q.739-1.8,1.163-3.066a18.365,18.365,0,0,0,.689-3.382,55.95,55.95,0,0,0,.316-5.708q.052-3.593.052-9.831v-8.882q0-2.322-.052-4.439t-.158-4.016q1.161.212,2.22.368a15.658,15.658,0,0,0,4.44,0q1.058-.155,2.116-.368-.531,8.243-.637,15.907t-.1,16.228q0,4.758.1,9.3t.316,8.774a41.262,41.262,0,0,0-4.122-.21q-2.007,0-4.122.21c.069-.637.125-1.3.158-2.006s.055-1.445.055-2.223V563.8H648.6a17.932,17.932,0,0,1-7.082,7.452,19.238,19.238,0,0,1-9.408,2.378q-8.243,0-12.948-4.384T614.458,556.614Z"/><path class="2acf492e-7508-4110-8d40-a9f5eb36c0ee" d="M673.281,565.072a15.8,15.8,0,0,0,2.643,2.378,14.7,14.7,0,0,0,3.49,1.848,11.65,11.65,0,0,0,4.174.743,11.912,11.912,0,0,0,3.861-.633,10.653,10.653,0,0,0,3.276-1.8A8.316,8.316,0,0,0,693,564.649a9.6,9.6,0,0,0,.843-4.122,6.569,6.569,0,0,0-1.848-5.02,14.618,14.618,0,0,0-4.6-2.856,48.267,48.267,0,0,0-6.025-1.954,25.19,25.19,0,0,1-6.025-2.381,14.088,14.088,0,0,1-4.6-4.068,11.631,11.631,0,0,1-1.851-6.978,17.085,17.085,0,0,1,1.163-6.393,14.071,14.071,0,0,1,3.382-5.024,15.894,15.894,0,0,1,5.5-3.327,21.51,21.51,0,0,1,7.5-1.215,18.15,18.15,0,0,1,6.607,1.057q2.694,1.058,5.127,1.9a23.421,23.421,0,0,0-1.586,3.908,27.8,27.8,0,0,0-.949,3.6h-1.27a10.071,10.071,0,0,0-3.276-4.545,9.172,9.172,0,0,0-6.025-2.01,9.993,9.993,0,0,0-3.172.531,8.664,8.664,0,0,0-2.853,1.586,8.406,8.406,0,0,0-2.116,2.749,8.875,8.875,0,0,0-.847,4.016,7.069,7.069,0,0,0,1.852,5.234,12.951,12.951,0,0,0,4.6,2.9,48.246,48.246,0,0,0,6.025,1.851,26.531,26.531,0,0,1,6.025,2.22,13.148,13.148,0,0,1,4.6,3.964,11.636,11.636,0,0,1,1.848,6.975,14.663,14.663,0,0,1-1.321,6.029,16.913,16.913,0,0,1-3.806,5.337,17.436,17.436,0,0,1-5.97,3.7,22.283,22.283,0,0,1-7.928,1.321,29.716,29.716,0,0,1-8.141-.949,25.251,25.251,0,0,1-5.5-2.223,27.773,27.773,0,0,0,1.321-3.75,14.825,14.825,0,0,0,.685-3.964h1.27A11.283,11.283,0,0,0,673.281,565.072Z"/><path class="2acf492e-7508-4110-8d40-a9f5eb36c0ee" d="M721.852,508.2q-.315,4.021-.475,7.877t-.371,7.77q1.167,0,4.335-.052t6.872-.265a4.149,4.149,0,0,0-.106,1.163v2.22a3.651,3.651,0,0,0,.106,1.057q-1.377-.1-2.856-.158t-3.169-.052h-5.183c-.069.283-.158,1.411-.262,3.379s-.2,4.321-.265,7.033-.125,5.547-.158,8.507-.055,5.6-.055,7.928q0,2.963.162,5.815a17.356,17.356,0,0,0,1,5.127,8.322,8.322,0,0,0,2.539,3.648,7.536,7.536,0,0,0,4.861,1.376,16.531,16.531,0,0,0,2.27-.213,17.448,17.448,0,0,0,2.485-.531v2.539q-1.8.315-3.964.791a19.514,19.514,0,0,1-4.174.475q-6.662,0-9.831-3.276t-3.172-9.621c0-1.9.035-3.964.106-6.183s.158-4.649.265-7.292.193-5.567.262-8.774.106-6.782.106-10.729H709.8q-.846,0-1.8.052c-.633.038-1.3.09-2.01.158.069-.423.123-.829.158-1.215s.055-.791.055-1.218c0-.351-.021-.7-.055-1.053s-.09-.705-.158-1.06q4.758.319,6.978.316c-.073-1.407-.125-3.172-.158-5.286s-.123-4.295-.265-6.551l8.774-3.7h.528Z"/><path class="2acf492e-7508-4110-8d40-a9f5eb36c0ee" d="M736.228,547.63a29.465,29.465,0,0,1,2.275-12.209,22.607,22.607,0,0,1,5.97-8.138,23.66,23.66,0,0,1,8.3-4.549,30.218,30.218,0,0,1,18.34,0,23.77,23.77,0,0,1,8.245,4.549,22.645,22.645,0,0,1,5.973,8.138,33.961,33.961,0,0,1,0,24.418,22.638,22.638,0,0,1-5.973,8.138,21.751,21.751,0,0,1-8.245,4.391,33.823,33.823,0,0,1-18.34,0,21.665,21.665,0,0,1-8.3-4.391,22.57,22.57,0,0,1-5.97-8.138A29.465,29.465,0,0,1,736.228,547.63Zm9.3,0a45.257,45.257,0,0,0,.791,8.564,22.87,22.87,0,0,0,2.695,7.343,14.38,14.38,0,0,0,5.076,5.127,16.994,16.994,0,0,0,15.641,0,14.38,14.38,0,0,0,5.076-5.127,22.705,22.705,0,0,0,2.695-7.343,46.52,46.52,0,0,0,0-17.128,22.707,22.707,0,0,0-2.695-7.343,14.414,14.414,0,0,0-5.076-5.127,17.027,17.027,0,0,0-15.641,0,14.4,14.4,0,0,0-5.076,5.127,22.87,22.87,0,0,0-2.695,7.343A45.257,45.257,0,0,0,745.533,547.63Z"/><path class="2acf492e-7508-4110-8d40-a9f5eb36c0ee" d="M798.327,532.143q-.16-5.228-.689-9.776a28.225,28.225,0,0,0,4.759.526,11.82,11.82,0,0,0,1.848-.158l2.381-.368q-.319,4.227-.321,8.455h.213q5.6-9.507,15.749-9.51a17.234,17.234,0,0,1,5.179.791,17.96,17.96,0,0,1,4.6,2.168,14.473,14.473,0,0,1,3.54,3.332,11.257,11.257,0,0,1,2.01,4.174h.21a18.657,18.657,0,0,1,6.923-7.77,18.9,18.9,0,0,1,10.1-2.695,21.026,21.026,0,0,1,6.449.949,13.023,13.023,0,0,1,8.509,8.141A21.309,21.309,0,0,1,871,538.012q0,1.8-.106,3.908t-.21,4.913q-.109,2.807-.213,6.345t-.1,8.189q0,2.86.052,5.5t.265,5.708a12.978,12.978,0,0,0-2.326-.21h-4.547a12.943,12.943,0,0,0-2.326.21q.319-2.637.689-10.678t.368-22.408a20.562,20.562,0,0,0-.578-4.969,11.135,11.135,0,0,0-1.852-4.019,8.983,8.983,0,0,0-3.382-2.695,12.289,12.289,0,0,0-5.286-1.005,12.994,12.994,0,0,0-6.449,1.482,12.682,12.682,0,0,0-4.122,3.485,11.1,11.1,0,0,0-1.321,2.326,14.073,14.073,0,0,0-.74,3.54q-.269,2.379-.371,6.662t-.1,11.782q0,4.552.158,8.3t.368,8.193q-2.431-.212-4.649-.21t-4.652.21q.527-5.812.74-11.841t.21-11.837q0-4.966-.052-7.77a43.855,43.855,0,0,0-.265-4.439,13.557,13.557,0,0,0-.581-2.7,20.485,20.485,0,0,0-1.005-2.326,9.6,9.6,0,0,0-3.644-3.434,10.207,10.207,0,0,0-5.127-1.428q-6.977,0-10.253,4.545t-3.28,12.793v8.981q0,4.758.162,9.993t.685,9.46q-2.431-.212-4.755-.21t-4.759.21q.531-4.227.689-9.46t.158-9.993v-10.99Q798.485,537.38,798.327,532.143Z"/></svg>