<svg id="247342af-6f91-4797-9979-e593cab4f389" data-name="Layer 1" xmlns="http://www.w3.org/2000/svg" viewBox="0 0 960 960"><defs><style>.e398db7f-25c3-492b-8f6e-23b79c35de7d{fill:#49c2c7;}</style></defs><title>ocean-stem-logo</title><path class="e398db7f-25c3-492b-8f6e-23b79c35de7d" d="M206.852,687.511a41.324,41.324,0,0,1-16.687-3.311,39.792,39.792,0,0,1-21.134-22.173,42.843,42.843,0,0,1-2.954-15.68v-.292a41.315,41.315,0,0,1,3.052-15.778,40.5,40.5,0,0,1,8.343-13.229,41.464,41.464,0,0,1,12.97-9.041,43.693,43.693,0,0,1,33.292,0,39.074,39.074,0,0,1,12.84,8.944,39.866,39.866,0,0,1,8.376,13.164,43.977,43.977,0,0,1,2.922,15.778v.179a43.314,43.314,0,0,1-2.954,15.794,42.877,42.877,0,0,1-8.441,13.278,38.458,38.458,0,0,1-12.937,8.976A40.036,40.036,0,0,1,206.852,687.511Zm.243-8.327a30.689,30.689,0,0,0,12.612-2.581,30.158,30.158,0,0,0,9.918-7.045,33.737,33.737,0,0,0,6.493-10.421,34.883,34.883,0,0,0,2.321-12.775v-.292a35.53,35.53,0,0,0-2.321-12.872A31.631,31.631,0,0,0,229.5,622.76a32.264,32.264,0,0,0-9.983-7.11,32.63,32.63,0,0,0-25.322-.049,27.639,27.639,0,0,0-9.853,7.077,33.028,33.028,0,0,0-6.509,10.389,35.4,35.4,0,0,0-2.3,12.84v.179a36.612,36.612,0,0,0,2.3,12.888,30.782,30.782,0,0,0,6.607,10.437,31.23,31.23,0,0,0,9.983,7.11A29.873,29.873,0,0,0,207.1,679.184Z"/><path class="e398db7f-25c3-492b-8f6e-23b79c35de7d" d="M285.254,687.511a29.569,29.569,0,0,1-12.077-2.435,30.8,30.8,0,0,1-9.642-6.623,31.884,31.884,0,0,1-6.363-9.837,31.263,31.263,0,0,1-2.24-11.8v-.179a31.128,31.128,0,0,1,2.24-11.914,32.314,32.314,0,0,1,6.363-9.8,29.359,29.359,0,0,1,9.642-6.753,29.877,29.877,0,0,1,12.077-2.4,33.669,33.669,0,0,1,7.662.779,25.767,25.767,0,0,1,6.266,2.224,28.367,28.367,0,0,1,5.259,3.393,40.458,40.458,0,0,1,4.48,4.042l-5.844,6.266a41.919,41.919,0,0,0-7.71-6.314,18.809,18.809,0,0,0-10.259-2.678,19.965,19.965,0,0,0-8.36,1.769A21.426,21.426,0,0,0,270,640.194a22.057,22.057,0,0,0-4.431,7.191,24.988,24.988,0,0,0-1.639,8.993v.276a24.291,24.291,0,0,0,6.266,16.33,22.578,22.578,0,0,0,6.85,4.9,21.161,21.161,0,0,0,8.652,1.8,20.744,20.744,0,0,0,10.113-2.581,37.359,37.359,0,0,0,7.986-6.266l5.519,5.259a39.49,39.49,0,0,1-10.113,8.262A28.7,28.7,0,0,1,285.254,687.511Z"/><path class="e398db7f-25c3-492b-8f6e-23b79c35de7d" d="M322.28,660.176a26.168,26.168,0,0,0,2.289,8.343,19.4,19.4,0,0,0,4.707,6.168,21.291,21.291,0,0,0,6.444,3.863,20.457,20.457,0,0,0,7.483,1.315,22.632,22.632,0,0,0,10.551-2.321,31.111,31.111,0,0,0,8.019-6.087l5.486,4.9a34.329,34.329,0,0,1-10.145,8.084c-3.8,2.029-8.571,3.068-14.236,3.068a29.68,29.68,0,0,1-11.444-2.272,28,28,0,0,1-9.382-6.266,31.29,31.29,0,0,1-6.347-9.756,33.494,33.494,0,0,1-2.321-12.6,34.531,34.531,0,0,1,2.126-12.109,30.957,30.957,0,0,1,5.86-9.8,27,27,0,0,1,8.976-6.558,26.3,26.3,0,0,1,11.379-2.4,27.308,27.308,0,0,1,11.7,2.4,25.173,25.173,0,0,1,8.7,6.753,29.259,29.259,0,0,1,5.405,9.918,39.717,39.717,0,0,1,1.8,12.207v1.363c0,.438-.049.99-.13,1.753H322.28Zm38.113-7.223a26.231,26.231,0,0,0-1.721-7.613,19.534,19.534,0,0,0-3.685-6.266,16.616,16.616,0,0,0-5.714-4.366,18.034,18.034,0,0,0-7.743-1.542,16.091,16.091,0,0,0-7.077,1.461,18.609,18.609,0,0,0-5.86,4.123,23.143,23.143,0,0,0-4.123,6.347,27.244,27.244,0,0,0-2.191,7.84h38.113Z"/><path class="e398db7f-25c3-492b-8f6e-23b79c35de7d" d="M397.727,687.413a29.012,29.012,0,0,1-8.051-1.169,20.615,20.615,0,0,1-7.045-3.49,17.688,17.688,0,0,1-5.048-5.762,17.039,17.039,0,0,1-1.834-8.019v-.227a18,18,0,0,1,1.8-8.441,16.308,16.308,0,0,1,5.194-5.99,25.816,25.816,0,0,1,8.035-3.685,38.005,38.005,0,0,1,10.194-1.217,62.314,62.314,0,0,1,9.934.682,71.617,71.617,0,0,1,8.165,1.8v-1.8c0-5.211-1.542-9.2-4.577-11.866-3.1-2.678-7.337-4.042-12.921-4.042a39.267,39.267,0,0,0-9.577,1.12,51.108,51.108,0,0,0-8.392,3.133l-2.646-7.24a58.145,58.145,0,0,1,10.015-3.717,42.952,42.952,0,0,1,11.525-1.461c8.392,0,14.82,2.272,19.138,6.574,4.123,4.074,6.184,9.837,6.184,17.352v36.182H419.1V677.3a27.794,27.794,0,0,1-8.311,7.077C407.353,686.391,403.067,687.413,397.727,687.413Zm1.883-7.24a25.231,25.231,0,0,0,7.613-1.088,18.615,18.615,0,0,0,6.282-3.311,15.168,15.168,0,0,0,4.155-4.951,13.149,13.149,0,0,0,1.591-6.428v-5.535c-2.224-.536-4.707-1.169-7.516-1.639a48.72,48.72,0,0,0-9.707-.86c-5.486,0-9.772,1.12-12.742,3.263a10.294,10.294,0,0,0-4.5,8.6v.243a10.15,10.15,0,0,0,4.5,8.6,13.564,13.564,0,0,0,4.659,2.272A19.368,19.368,0,0,0,399.61,680.174Z"/><path class="e398db7f-25c3-492b-8f6e-23b79c35de7d" d="M439.606,627.029h8.8v10.243a28.747,28.747,0,0,1,7.791-8.2c3.165-2.224,7.353-3.311,12.466-3.311a25.32,25.32,0,0,1,9.545,1.721,19.9,19.9,0,0,1,7.077,4.8,22.281,22.281,0,0,1,4.529,7.532,29.454,29.454,0,0,1,1.542,9.609v36.734h-8.847V651.7c0-5.535-1.445-9.869-4.269-13.067-2.759-3.214-6.85-4.8-12.109-4.8a18.928,18.928,0,0,0-7.029,1.315,17.1,17.1,0,0,0-9.382,9.593,21.452,21.452,0,0,0-1.315,7.629v33.779h-8.8Z"/><path class="e398db7f-25c3-492b-8f6e-23b79c35de7d" d="M539.126,687.3a46.87,46.87,0,0,1-17.6-3.181,49.342,49.342,0,0,1-15.161-9.707l5.681-6.558a46.788,46.788,0,0,0,12.645,8.506,36.63,36.63,0,0,0,14.788,2.824q8.157,0,12.97-3.815a12.042,12.042,0,0,0,4.853-9.788v-.243a12.976,12.976,0,0,0-.909-5.032,11.089,11.089,0,0,0-3.214-4.091,24.245,24.245,0,0,0-6.363-3.263,77.3,77.3,0,0,0-10.372-2.857,92.315,92.315,0,0,1-11.979-3.441,28.088,28.088,0,0,1-8.441-4.675,17.078,17.078,0,0,1-4.951-6.428,20.839,20.839,0,0,1-1.623-8.522V626.8a19.709,19.709,0,0,1,7.483-15.7,26.755,26.755,0,0,1,8.343-4.577,31.419,31.419,0,0,1,10.518-1.639,41.041,41.041,0,0,1,28.1,9.837l-5.259,6.931A40.738,40.738,0,0,0,547.4,615.05a34.719,34.719,0,0,0-11.833-2c-5.259,0-9.431,1.217-12.515,3.7a11.385,11.385,0,0,0-4.529,9.155v.276a12.677,12.677,0,0,0,.893,5.048,9.851,9.851,0,0,0,3.36,4.123,23.8,23.8,0,0,0,6.574,3.506,100.9,100.9,0,0,0,10.892,2.906c8.928,1.948,15.5,4.707,19.722,8.2,4.269,3.555,6.412,8.36,6.412,14.479v.227a21.85,21.85,0,0,1-2.062,9.35,21.387,21.387,0,0,1-5.616,7.061,26.294,26.294,0,0,1-8.522,4.626A39.354,39.354,0,0,1,539.126,687.3Z"/><path class="e398db7f-25c3-492b-8f6e-23b79c35de7d" d="M599.039,614.368H572.207v-8.311h62.835v8.311H608.161v71.779h-9.123Z"/><path class="e398db7f-25c3-492b-8f6e-23b79c35de7d" d="M647.46,606.074h57.9v8.116H656.517v27.579h43.713v8.116H656.517v28.147h49.395v8.116H647.443V606.074Z"/><path class="e398db7f-25c3-492b-8f6e-23b79c35de7d" d="M717.307,606.074h9.155L755.6,649.787l29.169-43.713h9.155v80.09h-9.041V621.235l-29.2,42.983h-.406L726.088,621.4v64.75h-8.782Z"/><path class="e398db7f-25c3-492b-8f6e-23b79c35de7d" d="M403.473,304.106c-7.321,8.668-13.278,17.839-15.583,28.471-1.071,2.5-.666,5.308-1.023,7.921l-.325,3.977a16.921,16.921,0,0,0-.1,1.7l.308,2.078c.487,2.711.617,5.7,1.38,8.181l2.695,7.012c9.853,18.667,29.283,30.809,48.323,41.343,19.462,10.6,40.029,19.56,59.524,31.961,9.642,6.282,19.479,13.083,27.14,23.228a47.062,47.062,0,0,1,8.489,17.563,40.938,40.938,0,0,1,.893,10.665l-.958,8.343c-3.263,14.512-13.067,24.608-24.283,30.614a67.657,67.657,0,0,1-36.133,7.142,171.623,171.623,0,0,1-17.32-2.029,147.73,147.73,0,0,1-17.336-4.253c-11.265-3.165-21.9-8.23-31.977-13.992-20.112-11.671-37.821-27.546-50.5-47.09-6.022-9.885-11.492-20.323-14.171-31.7a104.238,104.238,0,0,1-3.133-34.3l6.12.471c-2.37,19.592-1.266,39.753,4.772,58.55a135.252,135.252,0,0,0,30.095,50.482c26.8,29.283,67.315,43.989,106,40.921a97.231,97.231,0,0,0,51.5-21.8c14.4-11.963,24.056-29.218,24.218-47.122l.1-1.672.016-.406c.1,1.575,0,.179,0,.39l-.13-.941-.454-3.75-.958-7.483c-1.1-4.5-3-7.727-4.3-11.72-2.6-3.685-4.659-7.662-7.58-11.168-3.3-3.279-5.973-6.98-9.707-9.967-14.138-12.564-31.458-22.336-48.908-32.14-17.482-9.853-35.808-19.3-52.057-33.828-3.847-3.961-8.181-7.223-11.33-12.19l-5.032-6.964-3.6-8.149c-2.922-5.259-2.727-11.574-3.717-17.433l-.13-1.1-.032-.292c-.065.893.065-1.526.065-1.364l.065-.471.243-1.867.487-3.733c.471-2.613.179-4.626,1.721-8.084,3.88-13.814,13.862-21.556,23.959-27.27,10.34-5.584,21.427-7.434,32.3-8.278a146.8,146.8,0,0,1,62.315,11.7c39.055,16.719,69.441,51.375,80.82,91.631a141.242,141.242,0,0,1,3.393,61.406,151.339,151.339,0,0,1-22.985,56.5.83.83,0,0,1-1.12.227.862.862,0,0,1-.243-1.1,148.08,148.08,0,0,0,18.261-56.082l.536-15.112c.406-4.529-.536-9.691-.747-14.479a144.225,144.225,0,0,0-6.249-28.52c-12.791-36.75-41.587-67.136-77.184-81.194a132.154,132.154,0,0,0-55.758-8.782c-18.066.6-36.912,9.674-41.051,23.05-5.925,17.45,2.565,32.951,16.427,45.239,14.008,12.239,31.653,21.816,48.973,32.059,17.385,10.21,35.37,20.6,51.18,35.11,4.074,3.409,7.418,7.921,11.119,11.882,3.425,4.269,6.087,9.317,9.074,13.976,2.029,5.454,4.5,11.492,5.551,16.752l.828,7.516.39,3.75.114.941.1,1.331-.1.5-.162,2.11c-.958,22.725-13.83,43.243-30.7,56.374a105.138,105.138,0,0,1-59.1,22.141,146.473,146.473,0,0,1-60.741-11.476c-19.122-8.019-36-20.647-49.914-35.695a144.239,144.239,0,0,1-30.6-52.852c-6.655-19.56-8.278-40.467-6.152-60.855a3.06,3.06,0,0,1,3.3-2.824,3.149,3.149,0,0,1,2.824,3.3,84.64,84.64,0,0,0,4.026,32.091c2.987,10.389,8.587,19.8,14.609,28.682,12.645,17.5,29.835,31.507,48.956,41.376a159.743,159.743,0,0,0,29.883,11.785c5.146,1.688,10.243,2.5,15.307,3.555a158.842,158.842,0,0,0,16.037,1.656,53.424,53.424,0,0,0,28.78-5.957c8.571-4.2,15.112-12.028,17.239-19.511l1.1-8.327a35.159,35.159,0,0,0-.519-5.973,33.887,33.887,0,0,0-5.844-12.531c-5.681-7.97-14.43-14.528-23.342-20.534-18.229-11.833-38.47-21.735-57.77-33.568-9.674-6.055-19.333-12.109-28.065-19.852-8.636-7.629-16.882-16.508-21.508-27.708l-2.6-8.944c-.617-2.922-.5-5.633-.8-8.441-.487-2.678.39-6.347.7-8.944.617-2.873.455-5.892,1.786-8.554,3.182-11.346,10.843-20.761,18.716-28.358a.805.805,0,0,1,1.152-.049A.829.829,0,0,1,403.473,304.106Z"/></svg>