<svg id="68562aa8-4118-4872-8583-60c7d3d733fb" data-name="Layer 1" xmlns="http://www.w3.org/2000/svg" viewBox="0 0 960 960"><defs><style>.\37 f250f98-c362-48e9-a011-3f61b8383db0{fill:#010101;}</style></defs><title>ritz-carlton-destination-club</title><path class="7f250f98-c362-48e9-a011-3f61b8383db0" d="M428.115,502.3c9.218.761,16.983-2.722,24.441-6.71,10.212-.294,19.855-2.97,27.318-11.021h1.918c8.289,8.852,19.8,12.066,31.87,11.98l7.429,3.6a27.651,27.651,0,0,0,23.966-1.2,12.523,12.523,0,0,0,5.273-7.907c.537-4.311,0-8.863-2.4-11.742-2.156.2-1.886,2.88-3.836,3.6-1.533.89-3.943,1.426-5.511.719-4.856-.9-7.268-6.253-8.625-10.305-3.192-12.282,11.8-19.246,8.625-31.872,3.713-7.458,8.8-15.22,6.232-24.441-.646-2.559-2.254-4.971-1.918-7.915.735,0,2.073.537,2.634-.232,1.581-5.39-3.772-8.871-6.71-12.939-1.082-1.555,1.06-1.822,1.918-2.4.483-1.3-1.392-2.372-2.158-3.355-5.126-5.711-2.18-14.547-6.229-20.608-2.912-4.648-8-5.452-13.182-5.751-4.728-1.843-6.6-7.736-11.264-10.065-3.371-1.686-5.511,2.332-8.387,3.115-5.161,2.161-10.516.556-15.816.481-3.8.612-6.48,4.359-9.106,6.47a107.041,107.041,0,0,0-17.731,2.636c-4.007.609-4.544,4.894-6.47,7.907l-10.543,5.273c-3.863,2.423-8.684,3.764-11.024,8.147-1.945,3.112,1.536,5.254,2.877,7.669,1.605,4.012,1.071,10.439,6.95,11.742,1.619,1.64,4.074,3.248,4.074,5.751-2.185.978-5.131-1.165-7.429-1.437-3.6-.8-7.076.542-8.628,3.6-.323,1.5-.857,3.908.721,5.032a2.526,2.526,0,0,0,2.636-.481c3.016-1.985,6.5-.11,9.346.959,4.381,1.611,3.042,6.964,5.511,9.825,1.01,1.958,3.689,2.228,3.355,4.074a107.559,107.559,0,0,0-6.47,11.262c-3.905,9.918-.158,23.309-5.032,32.831-2.353,4.669-7.175,6.277-11.5,6.71-5.31.906-9.061-3.112-11.98-7.188-.828-.475-1.9.329-2.4,1.2a13.937,13.937,0,0,0-.478,11.98A20.4,20.4,0,0,0,428.115,502.3ZM469.572,481.7c.163,1.822-2.516,2.626-3.833,3.6a11.183,11.183,0,0,1-5.991,1.44c.347-1.872,2.222-3.213,2.877-5.035,3.9-9.157-2-20.67,3.6-29a13.306,13.306,0,0,1,3.6-4.074c.724,1.955-.077,4.1.481,6.232,1.851,6.7,2.388,16.345-1.918,22.286a14.483,14.483,0,0,0-2.877,5.032C466.786,483.251,468.127,481.643,469.572,481.7Zm59.906-43.134c-7.8,6.932-18.244,14.163-16.294,25.641a9.118,9.118,0,0,0,3.115,6.232c1.362.5,1.629-1.109,2.158-1.918,1.613,1.613.812,4.29,1.915,6.232,2.377,6.093,7.2,14.662,14.86,15.1h4.552c.374,1.707-1.771,1.974-2.874,2.877-7.463,2.58-14.424-1.971-19.411-7.429-8.4-9-10.546-21.856-6.71-33.55-.358-1.159-1.7-.622-2.158.24-3.286,3.956-3.555,9.045-4.552,13.9-1.413.5-2.214-1.643-2.636-2.636-.919-4.629-1.453-10.789,2.636-14.379,9.3-7.119,20.814-8.994,29.714-17.015A14.084,14.084,0,0,1,529.478,438.562Zm-6.948-63.5c2.094-.254,3.7,1.352,5.273,2.636,2.444,2.733,2.714,5.679,2.877,9.106-.7,1.125-1.771.053-2.4-.481-3.39-2.946-5-6.7-7.429-10.065C521.141,375.605,521.945,375.338,522.53,375.058Zm-37.861-12.942c.86-.7,2.735-.97,3.355,0a2.57,2.57,0,0,1-3.355,1.437C484.191,363.022,484.191,362.487,484.669,362.116ZM441.054,405.25a2.644,2.644,0,0,1,.721-2.636,1.473,1.473,0,0,1,1.915,1.44v2.874C442.686,407.47,441.348,406.4,441.054,405.25Zm-7.188,11.264-4.314-.24c-.788-1.039.55-2.11,1.677-2.4,4.765-1.854,8.513,1.894,13.182,2.4a6.03,6.03,0,0,1,.238,1.437C441.081,420.324,437.6,416.576,433.866,416.514Zm-4.314,75.247c4.031-.478,8.852-2.353,11.264-6.71,4.816-7.96,1.605-18.669,2.874-28.037.4-2.236.82-4.485,1.44-6.71,1.718-6.814,4.883-13.345,11.021-18.212,10.9-8.286,23.221-13.372,35.706-16.775,6.259-2.222,4.92-9.183,6.472-13.42.593-1.923,3.537-4.333.956-5.751l-11.98,3.836a15.371,15.371,0,0,0-4.554,7.188c2.781,1.376,7.332-1.036,8.387,2.636.28,1.683-1.859,2.22-2.874,3.115-4.61.443-10.768.174-15.816.481-4.856,1.838-11.283,4.784-12.461,10.784-.964,2.033-2.3,4.709-5.032,5.511-3.163,0-7.177,0-8.866-3.115.35-1.7-.991-3.042-.24-4.554,5.943-1.7,10.5-5.986,15.1-10.065a36.522,36.522,0,0,1,8.625-1.915c1.231-.43,1.231-2.305.481-3.355a106.851,106.851,0,0,1-12.461-11.5c-2.853-1.907-5,1.573-7.669,2.4l-7.669,1.918c-2.241-.061-3.849,5.024-5.751,1.915-.24-2.783-2.383-5.19-.959-7.907.719-1.568,3.128-3.173,1.44-5.273-1.523.491-3.128,2.364-5.032,1.918-1.042-.89-.238-2.228.24-3.355,1.931-2.623,5.412-3.427,8.147-5.032,4.228-1.875,8.51-3.75,12.7-5.991.628,1.707,1.432,4.116,3.6,4.314,1.587-.2,2.121.873,2.121,2.158,2.677,1.661,5.089-1.015,7.223-2.4a1.13,1.13,0,0,0,.721-1.677l-4.074.719c.417-1.41,2.559-1.677,2.4-3.355-1.175-1-2.516.606-3.6-.24a3.737,3.737,0,0,1-.238-2.4c1.584-1.576,4.263.3,5.511-.956-1.784-1.958-5.265-2.495-7.909-1.918l-3.836,1.677c1.392-4.931,7.549-3.86,11.5-5.032,7.023.1,14.523-.168,20.608,2.156,2.749,2.228,5.962,3.836,8.15,6.47a2.714,2.714,0,0,0,3.115-.24c1.661-2.933-2.89-4-4.314-6.232-1.253-1.52-.451-3.662.721-5.273a30.733,30.733,0,0,1,10.065-6.47c4.028.582,6.173,5.134,7.669,8.387,1.982,3.708-2.837,6.654-1.437,10.3,5.027,7.33,15.739,9.472,16.772,19.171,1.643,7.971,8.6,15.469,4.314,23.963-5.62,7.3-13.919,12.124-21.327,16.056v-.959c7.143-11.275,22.67-20.111,17.493-34.987-3.39-8.152-10.621-17.79-19.649-18.693-.876.366-.609,1.17-.24,1.677,4.984,5.65,10.877,11.005,11.5,18.693.446,5.166-.091,9.988-2.4,14.379-1.173-1.715.7-6.267-2.4-5.991-6.811,12.042-17.523,22.753-22.526,35.706l-.721.238a10.413,10.413,0,0,1-.238-5.991c1.408-6.667,5.695-12.29,9.106-18.212-1.539-1.039-2.612.836-3.836,1.44-9.167,6.841-16.524,16.716-17.015,28.037.061,1.418.123,2.847.24,4.314.6,1.587.6,3.729,1.918,4.552,1.891-.556.553-3.232,1.437-4.552,2.864,6.141,3.4,13.636,8.387,18.69a38.038,38.038,0,0,0,12.7,9.587c-.283,1.159-1.621,1.426-2.634,1.426-7.29.537-13.714-1.875-18.212-7.658-5.265-7.586-7.984-16.981-6.47-26.362a29.084,29.084,0,0,1,.959-5.032c1.173-4.06,3.048-7.541,4.552-11.5-.166-.323-.166-1.127-.719-1.2-7.212,4.624-15.514,7.567-20.608,15.578-.4.724-.764,1.44-1.2,2.156-2.623,6.023-3.042,13.057-5.032,18.931-.991-1.515-.187-3.39-.719-5.273a70.729,70.729,0,0,1,0-13.66c.855-6.069,3.141-11.646,8.625-15.576,16.27-9.851,36.889-11.994,49.366-28.758,3.056-4.926,2.786-12.691-.481-17.253-4.768-7.22-13.6-10.434-22.286-9.584-.692,0-.422,1.026-.481,1.2,1.934,2.506,5.682,3.846,5.032,6.95,5.2,2.522,12.7,6,11.983,13.182.446,6.745-5.714,11.3-10.305,15.576-12.811,9.109-28.608,8.572-41.216,18.212-5.07,4.311-6.007,10.052-6.47,16.056,0,2.225-.056,4.477-.24,6.71-.227,12.581,3.253,25.969-7.188,34.506-1.074,1.368,1.068,1.9.238,2.877-4.792,3.846-11.753,3.312-17.734,1.918-2.057-1.282-4.731-3.424-5.511-5.991C421.266,491.013,425.284,492.889,429.552,491.761Zm21.089-75.247a1.438,1.438,0,0,1-.959,1.915c-1.64,0-1.907-1.856-2.4-3.115C448.312,413.63,450.184,415.5,450.641,416.514Zm1.677-7.191c.812-.246,1.883-.78,2.634-.238-.216,1.6-1.822,2.671-3.355,3.833l-1.2-.478C449.65,411.487,450.988,409.882,452.319,409.324ZM521.571,544.5a2.38,2.38,0,0,0-2.4,2.372h.021a2.447,2.447,0,0,0,2.377,2.4,2.54,2.54,0,0,0,2.393-2.4A2.436,2.436,0,0,0,521.571,544.5Zm-63.024-4.1H445.606v.048a3.09,3.09,0,0,0-3.115,3.307v5.273a2.958,2.958,0,0,0,3.115,3.115h12.942a3.017,3.017,0,0,0,3.115-3.115v-5.273A3.2,3.2,0,0,0,458.548,540.406Zm-6.47,9.357a3.573,3.573,0,0,1-3.6-3.366,3.461,3.461,0,0,1,3.6-3.358,3.349,3.349,0,0,1,3.355,3.358A3.454,3.454,0,0,1,452.078,549.763Zm-13.66-162.485a2.189,2.189,0,0,0,1.918,1.677c1.279-1.3,2.877-2.906,2.877-4.792C441.348,384.442,438.418,384.979,438.418,387.278Zm25.641,5.511a14.405,14.405,0,0,0-7.188-6.95c-1.33-.593-3.205-1.667-4.314,0,.574,1.012,1.913,1.279,2.636,2.4,3.561,2.1,2.49,6.381,5.751,7.669,5.038,1.926,6.109,9.154,11.742,10.065l-3.836-8.387Zm78.6,123.176c2.049-6.472,6.064-12.1,7.669-18.452l-.24-.24c-4.044,3.384-7.792,6.6-12.461,8.15-2.027,1.929,2.26,3,1.437,5.511-.516,1.771-2.393,2.308-4.074,1.677a20.982,20.982,0,0,1-3.355-3.6c-1.926-.6-3.531,1.279-4.792,2.634-1.95.785-1.151,3.195-.721,4.554,1.445,5.337,6.267-.286,8.625,3.355,1.389,1.715.849,3.855,0,5.511A10.2,10.2,0,0,1,529,529.62a11.52,11.52,0,0,1-7.669-2.4c-1.8-2.2-3.136-4.346-2.874-7.185-.8-4.122,5.364-5.994,3.115-10.305-1.231-1.846-1.5-4.795-4.074-5.273-2.246,2.084-5.994,3.157-6.47,6.472a12.024,12.024,0,0,1,1.2,10.065c-3.133,4.829-9.023,6.435-14.619,5.751-3.777-.924-7.794-2.262-9.344-5.991-.857-2.428.211-4.84,2.156-6.47a6.668,6.668,0,0,1,5.991-.721c1.971.208,2.775,2.618,5.032,2.4a10.9,10.9,0,0,0,5.032-6.472c-1.13-2.145-3-5.089-5.511-6.229-2.58,1.675-4.723,4.354-7.907,4.792a5.09,5.09,0,0,1-5.032-1.437c-2.228-1.68-.083-3.822.478-5.511,1.312-1.523,3.724-1.255,4.795-2.877a45.072,45.072,0,0,1-11.5-10.543c-2.69-.419-4.3,2.794-6.232,4.314-2.348,2.495-5.294,3.836-7.429,6.229,1.6,1.354,4.009,1.087,5.511,2.877a4.776,4.776,0,0,1,.956,4.314,5.66,5.66,0,0,1-4.311,2.393c-3.237-.2-6.181-1.271-8.147-3.833-3.123-.385-3.657,3.366-5.751,5.27-.315,2.647,2.628,4.522,4.554,6.472,2.9,1.531,4.234-3.021,7.188-3.355a10.305,10.305,0,0,1,5.273,1.918,7.439,7.439,0,0,1,1.678,6.229c-1.6,4.236-6.154,5.041-10.065,5.751-5.73.094-13.762.094-16.056-6.229-1.99-3.852.687-6.531.959-10.068-1.878-2.086-4.02-5.035-6.95-4.552-1.354,1.929-3.5,3.8-3.6,6.47,1.971,3.494,4.918,6.972,3.6,11.264-.82,2.137-2.425,4.279-4.554,5.032-4.565.852-9.923,1.119-12.221-3.355a4.267,4.267,0,0,1,.959-5.273c1.071-1.231,3.75-.964,5.032-.481,2.465-.751,3.539-3.427,3.836-5.751a12.734,12.734,0,0,0-5.273-4.074c-2.254.775-3.058,3.451-5.273,4.074a2.7,2.7,0,0,1-3.115-1.2c-1.632-2.906,3.991-4.244,1.915-6.71-5.155-1.552-9.707-4.765-13.9-8.15l-.478.481c4.669,10.134,10.025,20.042,14.136,30.673,1.509,2.487-.246,2.88-.478,6.47.371,5.8,4.733,9.889,4.314,17.734.62,2.385-.478,3.724-.478,6.232a3.571,3.571,0,0,0,2.636,3.6c9.157.1,92.658.1,99.448,0,2.594.1,4.143-2.009,3.355-4.074-.906-2.677-.417-4.544-.238-7.188.751-8.532,4.271-10.506,4.071-14.619-.2-2.279-.625-2.42.721-6.47A117.068,117.068,0,0,1,542.66,515.965ZM430.749,547.6a.8.8,0,0,1-.719-.727.674.674,0,0,1,.719-.478.651.651,0,0,1,.719.478A.769.769,0,0,1,430.749,547.6Zm92.5,11.291-87.468-.035c-1.731,0-3.184-.435-3.115-.959-.069-.63,1.384-1.1,3.115-1.2h87.468c1.91.1,3.363.566,3.363,1.2C526.6,558.423,525.159,558.893,523.249,558.893Zm1.918-8.422c-.075.091.329,2.468,2.156,2.4,1.653.069,2.233,1.055,0,.956-2.4.1-91.752-.24-94.175-.19-2.214,0-1.635-1.007,0-.986,1.843,0,2.252-2.417,2.158-2.38.094,0,.094-5.393,0-7.228.094-1.64-2.284-2.8-3.117-2.874-.791.072-.849-.719,0-.681.89,0,4.95-.037,5.032-.037l86.03.238a47.294,47.294,0,0,0,5.032,0c.865.088.809.841,0,.959-.815-.118-3.189,1.044-3.115,2.874C525.092,545.166,525.092,550.562,525.167,550.471Zm4.552-2.636c-.459-.118-.743-.4-.743-.721H529a.65.65,0,0,1,.719-.67c.246-.048.532.283.481.67A.771.771,0,0,1,529.719,547.835Zm-1.2-11.5H432.189c-1.8-.061-3.251-.59-3.355-1.2.1-.692,1.557-1.218,3.355-1.218v.021h96.333c1.736,0,3.192.5,3.115,1.2C531.714,535.742,530.258,536.268,528.522,536.333Zm-24.2-162.952c2.364-.986,5.577-1.79,6.47-4.792.179-1.549.716-3.689-.721-5.032-1.779-.534-1.509,2.145-2.158,3.117-.425,1.44-1.763,2.778-3.355,1.915a4.149,4.149,0,0,1-2.634-4.074c-.326-1.493,1.816-2.562.481-4.074-2.145.174-3.483,1.782-5.273,2.636a5.251,5.251,0,0,0-1.918,5.273C497.045,371.591,500.792,374,504.318,373.38ZM466.217,544.5a2.28,2.28,0,0,0-2.4,2.372,2.352,2.352,0,0,0,2.4,2.4,2.3,2.3,0,0,0,2.158-2.4A2.211,2.211,0,0,0,466.217,544.5Zm28.037,0a2.286,2.286,0,0,0-2.4,2.372,2.36,2.36,0,0,0,2.4,2.4,2.294,2.294,0,0,0,2.158-2.4A2.2,2.2,0,0,0,494.253,544.5Zm-55.355,0a2.389,2.389,0,0,0-2.4,2.372h.035a2.444,2.444,0,0,0,2.364,2.4,2.526,2.526,0,0,0,2.4-2.4A2.424,2.424,0,0,0,438.9,544.5Zm47.926-3.857H473.886A3.524,3.524,0,0,0,470.531,544v5.273a3.253,3.253,0,0,0,3.355,3.115h12.939a3.041,3.041,0,0,0,3.117-3.115l.045-5.273A3.348,3.348,0,0,0,486.825,540.646ZM480.355,550A3.387,3.387,0,0,1,477,546.635a3.276,3.276,0,0,1,3.355-3.355,3.176,3.176,0,0,1,3.355,3.355A3.27,3.27,0,0,1,480.355,550Zm34.269-9.111H501.682a3.51,3.51,0,0,0-3.355,3.355v5.273a3.183,3.183,0,0,0,3.355,3.115h12.942a3.033,3.033,0,0,0,3.115-3.115l.013-5.273A3.373,3.373,0,0,0,514.624,540.887Zm-6.472,9.341a3.261,3.261,0,0,1-3.355-3.352,3.164,3.164,0,0,1,3.355-3.355,3.264,3.264,0,0,1,3.352,3.355A3.377,3.377,0,0,1,508.151,550.228ZM142.257,576.547h6.528c4.656,0,2.19,3.47,3.881,3.47.593,0,.548-.548.5-1l-.227-3.651c-.045-1.052-.275-1.325-1.325-1.325-.914,0-5.113.182-13.375.182-5.89,0-9.405-.182-12.966-.182-.823,0-.777,1.231-.823,1.779l-.5,4.429c0,.23.182.548.457.548.593,0,.638-.6.777-1.05.823-2.511.914-3.2,3.742-3.2h7.442c.638.048.457,1.782.457,2.1v23.739c0,2.738-3.606,2.281-3.606,3.376,0,.459.136.6.548.6a61.716,61.716,0,0,1,6.253-.182c1.325,0,2.6.182,3.7.182.457,0,.411-.411.411-.548,0-1.413-3.7.091-3.7-3.742V578.788C140.43,576.365,140.2,576.547,142.257,576.547Zm30.63,26.616V585.017c0-2.364,2.295-1.782,2.295-2.4,0-.206-.069-.548-.959-.548-.684,0-1.2.136-2.465.136-.652,0-2.431-.136-3.561-.136-.513,0-.582.171-.582.377,0,.788,2.567.206,2.567,2.57v7.017c0,.139.069.994-.275.994h-12.53c-.513,0-.513-.136-.513-.614v-7.4c0-2.57,2.465-1.918,2.465-2.6,0-.136-.067-.342-.652-.342-1.06,0-2.121.136-3.184.136-1.266,0-2.5-.136-3.766-.136-.275,0-.548.067-.548.377,0,.753,2.946.069,2.978,2.57v17.531c0,3.39-2.671,2.26-2.671,3.253,0,.342.1.51.377.51a18.04,18.04,0,0,1,2.944-.136c1.814,0,4.314.136,4.76.136.307,0,.548-.1.548-.272,0-1.06-3.253-.31-3.253-2.636v-8.524c0-.379,0-.582.411-.582H169.9c.411,0,.275.307.275.855v8.217c0,2.158-2.4,1.677-2.4,2.5,0,.548.513.443.823.443.649,0,1.611-.136,3.8-.136,1.231,0,2.292.136,3.219.136.24,0,.377-.307.377-.409C176,605.046,172.887,605.663,172.887,603.163Zm21.5-1.744c-.446,0-1.611,3.526-9.517,3.526-2.877,0-2.6-.825-2.6-2.842v-6.3c0-.513-.1-1.1.614-1.1h5.067c2.877,0,1.712,3.013,2.775,3.013.238,0,.377-.136.377-.443,0-.927-.067-1.816-.067-2.706,0-1.1.067-2.262.067-3.459,0-.275-.1-.649-.377-.649-.823,0,.1,2.738-3.459,2.738h-3.7c-1.37,0-1.3,0-1.3-1.167v-6.368c0-2.292-.069-2.158,3.219-2.158,1.37,0,4.931-.206,5.82.959.548.788,0,2.431.823,2.431.206,0,.684-.275.684-4.074,0-.411-.069-.753-.342-.753-1.06,0-4.21.136-4.9.136-1.437,0-3.219-.136-9.688-.136-.994,0-1.2.136-1.2.411,0,.409.753.478,1.026.548,1.848.272,1.848,1.915,1.848,3.456V602.1c0,1.611-.067,2.567-.959,2.978-1.1.548-1.44.481-1.507.89,0,.275.206.342.513.342,1.37,0,2.807-.1,4.175-.136,2.6-.067,5.2.136,7.805.136,1.507,0,2.26.069,3.355-1.165a5.4,5.4,0,0,0,1.712-3.32C194.66,601.76,194.625,601.418,194.385,601.418Zm35.823-.037-7.624-11.547a8.842,8.842,0,0,0,5.751-7.9c0-8.812-10.089-7.9-10.818-7.9-2.375,0-4.976.182-7.624.182a26.062,26.062,0,0,1-2.922-.182c-.548,0-.914.275-.914.548,0,1.552,3.927-.318,3.927,4.063v23.234c0,3.47-3.334,2.831-3.334,3.972a.47.47,0,0,0,.457.5c1.734,0,3.47-.182,5.2-.182,3.788,0,4.84.182,5.249.182.366,0,.777.091.777-.366,0-1.552-4.747-.136-4.747-4.063V592.3c0-.457-.275-1.279,1.186-1.279,5.113,0,4.429-.136,6.072,2.42l5.067,7.987c1.734,2.6,3.515,4.931,6.846,4.931.411,0,2.968,0,2.968-.548C235.732,604.715,233.5,606.405,230.208,601.381Zm-11.641-11.913c-2.145,0-4.976.227-4.976-.638v-11.6c0-1.782.959-1.688,2.6-1.688,4.474,0,8.719,1.87,8.719,7.439C224.914,588.647,220.53,589.468,218.567,589.468ZM241.932,603.4V585.017c0-2.57,2.465-1.782,2.465-2.6,0-.275-.1-.342-.649-.342-1.06,0-2.124.136-3.184.136-1.266,0-2.5-.136-3.766-.136-.275,0-.342.067-.342.377,0,.753,2.738.069,2.775,2.57v17.531c0,3.39-2.671,2.26-2.671,3.253,0,.342.1.51.719.51.481,0,1.2-.136,3.286-.136,1.472,0,2.946.136,3.732.136.582,0,.684-.1.684-.342C244.98,604.944,241.932,605.73,241.932,603.4Zm25.643-20.336c-.035-.788-.206-.994-.994-.994-.684,0-3.836.136-10.03.136-4.415,0-7.055-.136-9.723-.136-.617,0-.582.924-.617,1.336l-.377,3.32c0,.171.136.409.342.409.446,0,.481-.443.582-.785.617-1.883.684-2.4,2.807-2.4h5.58c.478.035.342,1.336.342,1.576v17.8c0,2.054-2.706,1.712-2.706,2.532,0,.342.1.443.411.443a46.329,46.329,0,0,1,4.691-.136c.994,0,1.95.136,2.773.136.342,0,.307-.307.307-.409,0-1.06-2.773.067-2.773-2.807V585.634c0-1.816-.171-1.677,1.37-1.677h4.9c3.491,0,1.643,2.6,2.909,2.6.446,0,.411-.409.377-.751Zm12.955,21.706h-6.368c-.788,0-1.336-.1-1.336-.481a3.42,3.42,0,0,1,.513-1.13l11.572-19.379a1.667,1.667,0,0,0,.342-1.028c0-.307-.171-.548-.994-.548H270.941c-1.13,0-1.165.1-1.3,1.06l-.478,3.526a.454.454,0,0,0,.478.411c1.1,0-.1-3.6,4.656-3.6h7.191c.1,0,.275.035.275.2a5.911,5.911,0,0,1-.582,1.028l-12.084,20.167a1.464,1.464,0,0,0-.24.649c0,.342.24.513.582.513H283.4a1.609,1.609,0,0,0,1.712-.855l1.2-2.26c.136-.275-.035-.585-.206-.585C284.844,602.476,284.983,604.773,280.53,604.773Zm16.553-11.791a7.169,7.169,0,0,0-1.552.548L288.592,596c-1.37.454-1.231.409-1.231,2.145,0,.275-.091,1,.411,1a7.169,7.169,0,0,0,1.552-.548l6.94-2.465c1.37-.457,1.231-.411,1.231-2.057C297.495,593.806,297.586,592.983,297.083,592.983Zm33.462,5.024a.767.767,0,0,0-.638.593c-.684,2.1-5.158,6.665-12.325,6.665-8.764,0-13.329-7.944-13.329-15.885,0-8.492,4.29-14.424,13.193-14.424,5.89,0,9.13,2.968,11.962,7.851.182.318.5,1.507,1.05,1.507.777,0,.366-1.507.275-3.929-.136-2.965-.136-3.7-.638-3.7-.457,0-.729.457-1.1.457-1.325,0-3.7-3.515-12.279-3.515-9.632,0-16.433,7.717-16.433,17.165s6.71,15.885,16.07,15.885c10.271,0,13.513-3.422,13.559-3.606l1.05-4.565A.471.471,0,0,0,330.545,598.007Zm22.63,6.32a21.6,21.6,0,0,1-1.712-3.9l-7.121-17.632c-.1-.275-.342-1.269-.719-1.269-.446,0-.548.548-2.567,4.862l-8.182,17.461c-.89,1.95-2.5,1.368-2.5,2.086,0,.206.1.377.31.377.89,0,1.814-.136,2.738-.136.959,0,1.918.136,2.877.136.446,0,.924.1.924-.51,0-.892-2.431.136-2.431-2.262a3.55,3.55,0,0,1,.238-1.2l2.19-4.795c.342-.719.959-.719,1.611-.719h7.533c.959,0,1.165.513,1.507,1.3l1.1,2.807a14.347,14.347,0,0,1,1.06,3.253c0,1.3-2.054.956-2.054,1.779,0,.342.548.342.753.342.924,0,1.848-.136,2.775-.136,1.4,0,2.807.136,4.212.136.238,0,.478,0,.478-.307C356.188,605.147,354.2,605.9,353.175,604.327Zm-7.327-9h-6.779c-.446,0-.684-.136-.446-.614l3.868-8.318c.206-.411.377-.411.548,0l3.355,8.251C346.567,595.085,346.6,595.323,345.848,595.323ZM374.3,602.58l-5.719-8.663A6.628,6.628,0,0,0,372.894,588c0-6.608-7.567-5.925-8.115-5.925-1.782,0-3.732.136-5.719.136a19.568,19.568,0,0,1-2.19-.136c-.411,0-.684.206-.684.411,0,1.165,2.946-.24,2.946,3.048v17.424c0,2.6-2.5,2.124-2.5,2.978a.353.353,0,0,0,.342.377c1.3,0,2.6-.136,3.9-.136,2.839,0,3.627.136,3.937.136.275,0,.582.069.582-.272,0-1.167-3.561-.1-3.561-3.05v-7.223c0-.342-.206-.959.89-.959,3.836,0,3.32-.1,4.554,1.816l3.8,5.991c1.3,1.95,2.636,3.7,5.137,3.7.307,0,2.225,0,2.225-.409C378.439,605.081,376.765,606.349,374.3,602.58Zm-8.732-8.935c-1.611,0-3.732.171-3.732-.481V584.47c0-1.336.721-1.269,1.953-1.269,3.355,0,6.539,1.4,6.539,5.58A4.47,4.47,0,0,1,365.567,593.645Zm30.4,7.773c-.446,0-1.611,3.526-9.517,3.526-2.877,0-2.6-.825-2.6-2.842V585.463c0-2.976,2.5-2.121,2.5-2.909,0-.411-.206-.481-.652-.481-.513,0-1.336.136-3.286.136-1.677,0-2.738-.136-3.456-.136-.446,0-.687.067-.687.446,0,.684,2.877.443,2.877,2.225V602.1c0,1.611-.069,2.567-.959,2.978-1.1.548-1.437.481-1.5.89,0,.275.206.342.513.342,1.37,0,2.807-.1,4.178-.136,2.6-.067,5.2.136,7.805.136,1.507,0,2.26.069,3.355-1.165a5.4,5.4,0,0,0,1.712-3.32C396.245,601.76,396.211,601.418,395.97,601.418Zm18.111-18.351c-.035-.788-.206-.994-.994-.994-.684,0-3.836.136-10.03.136-4.418,0-7.055-.136-9.723-.136-.617,0-.582.924-.617,1.336l-.377,3.32c0,.171.139.409.342.409.446,0,.478-.443.582-.785.617-1.883.684-2.4,2.807-2.4h5.58c.481.035.342,1.336.342,1.576v17.8c0,2.054-2.706,1.712-2.706,2.532,0,.342.1.443.411.443a46.261,46.261,0,0,1,4.691-.136c.994,0,1.953.136,2.775.136.342,0,.307-.307.307-.409,0-1.06-2.773.067-2.773-2.807V585.634c0-1.816-.171-1.677,1.37-1.677h4.9c3.494,0,1.643,2.6,2.912,2.6.446,0,.411-.409.377-.751Zm13.241-1.3c-7.017,0-12.565,5.171-12.565,12.293,0,7.223,4.554,12.5,11.983,12.5,7.634,0,12.942-4.963,12.942-12.667C439.681,586.8,434.307,581.764,427.322,581.764Zm.857,23.763c-6.779,0-10.922-6.13-10.922-12.464,0-5.409,3.286-10.169,9.039-10.169,6.678,0,10.888,6.061,10.888,12.293C437.184,601.52,433.177,605.527,428.179,605.527Zm35.81-23.453c-.823,0-2.295.136-3.456.136-1.1,0-2.089-.136-3.117-.136a.332.332,0,0,0-.377.342c0,1.13,3.8-.168,3.8,4.314v14.309c0,.275-.035.379-.1.379s-.206-.139-.411-.379l-16.332-18.18c-.206-.24-.513-.788-.89-.788-.513,0-1.06.136-1.576.136-.548,0-1.06-.136-1.611-.136-.171,0-.513.136-.513.342,0,1.269,4.143-.719,4.143,6.4v12.632c0,4.792-3.013,3.286-3.013,4.485,0,.171.035.377.446.377.24,0,2.019-.136,3.219-.136,1.677,0,2.636.136,3.456.136.342,0,.377-.272.377-.443,0-.924-3.013.275-3.013-2.807v-14c0-.687.1-.788.238-.788.24,0,.652.582.719.649L460.7,605.489c.719.785,1.06.956,1.3.956.275,0,.307-.481.307-1.472V585.148c0-2.5,2.019-1.883,2.019-2.773C464.331,582.175,464.195,582.074,463.989,582.074Zm28.846-8.035c-3.927,0-6.894.182-9.9.182-1.37,0-2.693-.182-4.108-.182-.275,0-.638.136-.638.457,0,1.234,3.742-.227,3.742,4.426v22.737c0,4.335-3.24,3.192-3.24,4.244,0,.275.091.457.457.457.321,0,4.7-.182,5.113-.182,2.329,0,4.656.182,6.982.182,12.645,0,17.624-7.258,17.624-17.758C508.859,580.156,500.913,574.039,492.835,574.039Zm0,31.09c-2.054,0-5.521-.548-7.031-2.057-.411-.411-.275-2.6-.275-3.334V578.056c0-2.145.182-2.874,4.52-2.874,8.671.045,15.426,5.8,15.426,15.931C505.478,601.659,499.315,605.129,492.835,605.129Zm34.3-3.71c-.443,0-1.611,3.526-9.517,3.526-2.874,0-2.6-.825-2.6-2.842v-6.3c0-.513-.1-1.1.614-1.1H520.7c2.874,0,1.712,3.013,2.773,3.013.24,0,.377-.136.377-.443,0-.927-.067-1.816-.067-2.706,0-1.1.067-2.262.067-3.459,0-.275-.1-.649-.377-.649-.823,0,.1,2.738-3.459,2.738h-3.7c-1.37,0-1.3,0-1.3-1.167v-6.368c0-2.292-.067-2.158,3.219-2.158,1.37,0,4.931-.206,5.82.959.548.788,0,2.431.823,2.431.206,0,.684-.275.684-4.074,0-.411-.067-.753-.342-.753-1.06,0-4.21.136-4.9.136-1.437,0-3.219-.136-9.688-.136-.994,0-1.2.136-1.2.411,0,.409.753.478,1.028.548,1.848.272,1.848,1.915,1.848,3.456V602.1c0,1.611-.067,2.567-.956,2.978-1.1.548-1.44.481-1.507.89,0,.275.206.342.513.342,1.37,0,2.807-.1,4.175-.136,2.6-.067,5.2.136,7.808.136,1.5,0,2.26.069,3.355-1.165a5.4,5.4,0,0,0,1.712-3.32C527.408,601.76,527.373,601.418,527.133,601.418Zm3.456-14.176c0-3.152,2.874-4.45,5.58-4.45a6.537,6.537,0,0,1,6.539,4.45c.1.307.342,1.028.719,1.028.345,0,.411-.24.379-.513l-.513-4.656c-.035-.379-.206-.481-.411-.481-.342,0-.409.377-.719.377a12.133,12.133,0,0,0-5.751-1.231c-3.94,0-7.6,2.086-7.6,6.435,0,8.938,13.9,5.241,13.9,11.849,0,3.6-3.184,5.406-6.438,5.406a7.309,7.309,0,0,1-7.188-5.134c-.168-.721-.168-1.133-.649-1.133-.345,0-.513.379-.379,1.06l.857,4.415c.136.617,3.251,1.883,5.786,1.883,7.77,0,9.79-4.311,9.79-7.188C544.49,589.914,530.589,593.677,530.589,587.242Zm36.464-4.175c-.035-.788-.206-.994-.994-.994-.684,0-3.836.136-10.033.136-4.415,0-7.052-.136-9.723-.136-.614,0-.582.924-.614,1.336l-.379,3.32c0,.171.139.409.345.409.443,0,.478-.443.582-.785.614-1.883.684-2.4,2.807-2.4h5.58c.481.035.345,1.336.345,1.576v17.8c0,2.054-2.706,1.712-2.706,2.532,0,.342.1.443.409.443a46.261,46.261,0,0,1,4.691-.136c.994,0,1.95.136,2.773.136.345,0,.31-.307.31-.409,0-1.06-2.775.067-2.775-2.807V585.634c0-1.816-.168-1.677,1.37-1.677h4.9c3.494,0,1.643,2.6,2.912,2.6.443,0,.409-.409.377-.751Zm6.739,20.336V585.017c0-2.57,2.466-1.782,2.466-2.6,0-.275-.1-.342-.649-.342-1.06,0-2.124.136-3.184.136-1.266,0-2.5-.136-3.766-.136-.272,0-.342.067-.342.377,0,.753,2.738.069,2.773,2.57v17.531c0,3.39-2.668,2.26-2.668,3.253,0,.342.1.51.719.51.481,0,1.2-.136,3.286-.136,1.474,0,2.946.136,3.732.136.582,0,.684-.1.684-.342C576.841,604.944,573.793,605.73,573.793,603.4Zm27.935-21.329c-.823,0-2.292.136-3.459.136-1.1,0-2.086-.136-3.115-.136a.332.332,0,0,0-.377.342c0,1.13,3.8-.168,3.8,4.314v14.309c0,.275-.035.379-.1.379s-.206-.139-.409-.379l-16.332-18.18c-.206-.24-.513-.788-.889-.788-.513,0-1.06.136-1.576.136-.548,0-1.06-.136-1.611-.136-.168,0-.513.136-.513.342,0,1.269,4.143-.719,4.143,6.4v12.632c0,4.792-3.013,3.286-3.013,4.485,0,.171.035.377.446.377.24,0,2.019-.136,3.219-.136,1.678,0,2.634.136,3.457.136.345,0,.379-.272.379-.443,0-.924-3.013.275-3.013-2.807v-14c0-.687.1-.788.24-.788.238,0,.649.582.719.649l14.723,16.572c.721.785,1.06.956,1.3.956.275,0,.307-.481.307-1.472V585.148c0-2.5,2.019-1.883,2.019-2.773C602.07,582.175,601.934,582.074,601.728,582.074Zm24.511,22.254a21.983,21.983,0,0,1-1.712-3.9l-7.121-17.632c-.1-.275-.342-1.269-.719-1.269-.446,0-.548.548-2.57,4.862l-8.182,17.461c-.889,1.95-2.5,1.368-2.5,2.086,0,.206.1.377.307.377.892,0,1.816-.136,2.738-.136.959,0,1.918.136,2.877.136.443,0,.924.1.924-.51,0-.892-2.431.136-2.431-2.262a3.544,3.544,0,0,1,.24-1.2l2.19-4.795c.345-.719.959-.719,1.611-.719h7.533c.956,0,1.165.513,1.5,1.3l1.1,2.807a14.346,14.346,0,0,1,1.06,3.253c0,1.3-2.054.956-2.054,1.779,0,.342.548.342.751.342.927,0,1.848-.136,2.773-.136,1.405,0,2.81.136,4.212.136.24,0,.481,0,.481-.307C629.254,605.147,627.267,605.9,626.239,604.327Zm-7.324-9h-6.779c-.446,0-.687-.136-.446-.614l3.871-8.318c.2-.411.377-.411.548,0l3.355,8.251C619.63,595.085,619.665,595.323,618.914,595.323Zm28.176-12.255c-.035-.788-.206-.994-.994-.994-.684,0-3.836.136-10.033.136-4.415,0-7.052-.136-9.723-.136-.614,0-.582.924-.614,1.336l-.379,3.32c0,.171.139.409.345.409.443,0,.478-.443.582-.785.614-1.883.684-2.4,2.807-2.4h5.58c.481.035.345,1.336.345,1.576v17.8c0,2.054-2.706,1.712-2.706,2.532,0,.342.1.443.409.443a46.261,46.261,0,0,1,4.691-.136c.994,0,1.95.136,2.773.136.345,0,.31-.307.31-.409,0-1.06-2.775.067-2.775-2.807V585.634c0-1.816-.168-1.677,1.37-1.677h4.9c3.494,0,1.643,2.6,2.912,2.6.443,0,.409-.409.377-.751Zm6.766,20.336V585.017c0-2.57,2.466-1.782,2.466-2.6,0-.275-.1-.342-.649-.342-1.06,0-2.124.136-3.184.136-1.266,0-2.5-.136-3.766-.136-.272,0-.342.067-.342.377,0,.753,2.738.069,2.773,2.57v17.531c0,3.39-2.668,2.26-2.668,3.253,0,.342.1.51.719.51.481,0,1.2-.136,3.286-.136,1.474,0,2.946.136,3.732.136.582,0,.684-.1.684-.342C656.9,604.944,653.856,605.73,653.856,603.4Zm16.981-21.639c-7.02,0-12.565,5.171-12.565,12.293,0,7.223,4.554,12.5,11.983,12.5,7.634,0,12.942-4.963,12.942-12.667C683.2,586.8,677.822,581.764,670.837,581.764Zm.857,23.763c-6.779,0-10.922-6.13-10.922-12.464,0-5.409,3.286-10.169,9.039-10.169,6.678,0,10.888,6.061,10.888,12.293C680.7,601.52,676.692,605.527,671.694,605.527Zm35.831-23.453c-.823,0-2.292.136-3.459.136-1.1,0-2.086-.136-3.115-.136a.332.332,0,0,0-.377.342c0,1.13,3.8-.168,3.8,4.314v14.309c0,.275-.037.379-.1.379s-.206-.139-.409-.379l-16.332-18.18c-.206-.24-.513-.788-.889-.788-.513,0-1.06.136-1.576.136-.548,0-1.06-.136-1.611-.136-.171,0-.513.136-.513.342,0,1.269,4.143-.719,4.143,6.4v12.632c0,4.792-3.013,3.286-3.013,4.485,0,.171.037.377.446.377.24,0,2.019-.136,3.219-.136,1.678,0,2.634.136,3.457.136.345,0,.379-.272.379-.443,0-.924-3.013.275-3.013-2.807v-14c0-.687.1-.788.24-.788.24,0,.649.582.719.649l14.723,16.572c.721.785,1.06.956,1.3.956.275,0,.307-.481.307-1.472V585.148c0-2.5,2.019-1.883,2.019-2.773C707.867,582.175,707.731,582.074,707.525,582.074Zm44.05,15.934a.767.767,0,0,0-.638.593c-.687,2.1-5.158,6.665-12.325,6.665-8.764,0-13.329-7.944-13.329-15.885,0-8.492,4.29-14.424,13.193-14.424,5.887,0,9.13,2.968,11.959,7.851.182.318.5,1.507,1.052,1.507.775,0,.366-1.507.275-3.929-.136-2.965-.136-3.7-.638-3.7-.457,0-.729.457-1.1.457-1.322,0-3.7-3.515-12.279-3.515-9.632,0-16.433,7.717-16.433,17.165s6.71,15.885,16.07,15.885c10.271,0,13.513-3.422,13.556-3.606l1.052-4.565A.469.469,0,0,0,751.575,598.007Zm18.965,3.411c-.446,0-1.611,3.526-9.517,3.526-2.874,0-2.6-.825-2.6-2.842V585.463c0-2.976,2.5-2.121,2.5-2.909,0-.411-.206-.481-.652-.481-.51,0-1.336.136-3.286.136-1.678,0-2.738-.136-3.457-.136-.446,0-.687.067-.687.446,0,.684,2.877.443,2.877,2.225V602.1c0,1.611-.069,2.567-.959,2.978-1.1.548-1.437.481-1.5.89,0,.275.2.342.513.342,1.37,0,2.807-.1,4.175-.136,2.6-.067,5.2.136,7.805.136,1.507,0,2.262.069,3.358-1.165a5.4,5.4,0,0,0,1.712-3.32C770.813,601.76,770.779,601.418,770.541,601.418Zm24.714-19.345c-.614,0-1.234.136-1.883.136-1.336,0-2.671-.136-4-.136-.1,0-.345.171-.345.342,0,1.3,3.184-.136,3.184,3.358v11.091c0,4.041-1.474,8.286-7.909,8.286-4.621,0-8.182-2.5-8.182-7.976V584.881c0-2.465,2.295-1.5,2.295-2.465,0-.409-.927-.342-1.1-.342-1.06,0-2.158.136-3.253.136-.927,0-1.782-.136-2.671-.136-.171,0-.753.1-.753.342,0,1.1,2.773.275,2.773,2.295v11.537c0,5.273,1.715,10.3,10.717,10.3,9.963,0,9.552-8.457,9.552-10.134V585.8c0-3.152,2.022-2.4,2.022-3.358C795.7,582.245,795.428,582.074,795.254,582.074ZM810.8,592.756c0-.24,3.219-1.37,3.219-4.862,0-2.532-1.507-5.82-7.533-5.82-2.738,0-4.108.136-5.479.136s-2.054-.136-2.738-.136c-.409,0-.924-.035-.924.481,0,.684,3.048.342,3.048,2.944v16.847c0,2.671-1.2,2.839-1.576,2.946-.614.206-1.028.307-1.028.649,0,.307.687.377.857.377,1.573,0,3.181-.136,4.757-.136,1.165,0,3.219.136,4.45.136,6.678,0,8.321-5,8.321-7.258C816.175,593.37,810.8,593.269,810.8,592.756Zm-5.719-9.552c3.459,0,6.574,2.089,6.574,5.786,0,1.611-.275,3.7-5.887,3.7-3.083,0-2.671-.171-2.671-1.269v-5.647C803.094,583.783,802.923,583.2,805.079,583.2Zm2.706,22.184c-4.862,0-4.691-.721-4.691-3.181v-7.669c0-.31-.171-.788,2.466-.788,7.875,0,8.011,4.383,8.011,6.574C813.571,602.375,812.339,605.388,807.785,605.388Zm19.048-32.129a9.216,9.216,0,1,0,9.216,9.216A9.262,9.262,0,0,0,826.833,573.259Zm0,17.272a8.055,8.055,0,1,1,8.054-8.056A8.126,8.126,0,0,1,826.833,590.531ZM831.286,580c0-1.782-1.2-3.1-4.18-3.1H823.04v10.57H824.9v-4.493h2.129l2.169,4.493h2.054L829,582.824A2.867,2.867,0,0,0,831.286,580Zm-4.143,1.589H824.9v-3.291h2.246c1.472,0,2.129.62,2.129,1.782C829.272,581.16,828.382,581.585,827.143,581.585Z"/></svg>