<?xml version="1.0" encoding="UTF-8"?>
<svg width="270px" height="270px" viewBox="0 0 270 270" version="1.1" xmlns="http://www.w3.org/2000/svg" xmlns:xlink="http://www.w3.org/1999/xlink">
    <title>my-sky-printshop</title>
    <g id="my-sky-printshop" stroke="none" stroke-width="1" fill="none" fill-rule="evenodd">
        <g id="my-sky-logo-blue" transform="translate(60.000000, 60.000000)" fill="#244468" fill-rule="nonzero">
            <path d="M150,75 C150,116.421428 116.421428,150 75,150 C33.5785718,150 0,116.421428 0,75 C0,33.5785718 33.5785718,0 75,0 C116.421428,0 150,33.5785718 150,75 Z M53.6172641,30.8053078 L49.0492981,42.6201976 L44.5042296,30.8053078 L38.5853359,30.8053078 L38.5853359,32.9576316 L40.680418,32.9576316 L40.680418,45.9059272 L38.5853359,45.9059272 L38.5853359,48.0582524 L44.7103034,48.0582524 L44.7103034,45.9059272 L42.8098456,45.9059272 L42.8098456,32.9576316 L48.6943937,48.2414286 L49.2095782,48.2414286 L55.1399199,32.9576316 L55.1399199,45.9059272 L53.1020796,45.9059272 L53.1020796,48.0582524 L59.593401,48.0582524 L59.593401,45.9059272 L57.509767,45.9059272 L57.509767,32.9576316 L59.593401,32.9576316 L59.593401,30.8053078 L53.6172641,30.8053078 Z M65.4395039,38.1438189 L66.8705709,38.1438189 L66.8705709,36.0258408 L60.8486403,36.0258408 L60.8486403,38.1438189 L62.863583,38.1438189 L66.8018796,47.8521786 L65.3708126,51.3897772 L63.0009655,51.3897772 L63.0009655,53.4505136 L67.0079534,53.4505136 L72.9497447,38.1438189 L74.724268,38.1438189 L74.724268,36.0258408 L68.9771024,36.0258408 L68.9771024,38.1438189 L70.5798976,38.1438189 L68.0497704,44.944251 L65.4395039,38.1438189 Z M47.5953335,55.1824413 C46.4046801,54.2741854 45.1224568,53.8200641 43.7486257,53.8200641 C42.1687194,53.8200641 40.930382,54.237932 40.0335757,55.0736796 C39.1367694,55.9094272 38.6883728,57.0867058 38.6883728,58.6055534 C38.6883728,59.8420019 39.0585379,60.8380136 39.7988811,61.5936218 C40.5392228,62.3492286 41.684065,62.9483621 43.2334413,63.3910413 L45.3857665,63.9978146 C47.1259529,64.4786549 47.996033,65.3372869 47.996033,66.5737354 C47.996033,67.4819898 47.7289034,68.186068 47.1946354,68.6859903 C46.6603675,69.1859112 45.9085879,69.4358694 44.9392733,69.4358694 C43.2830432,69.4358694 41.9397626,68.4894655 40.9093879,66.5966316 L40.9093879,65.0739772 L38.7570641,65.0739772 L38.7570641,71.3592233 L40.9093879,71.3592233 L40.9093879,69.9281563 C42.1916316,71.073016 43.6150515,71.6454364 45.1796927,71.6454364 C46.8206578,71.6454364 48.1295942,71.1874995 49.1065413,70.2716126 C50.0834869,69.3557243 50.5719539,68.1154791 50.5719539,66.5508379 C50.5719539,65.7723335 50.4670092,65.0663476 50.2571184,64.4328583 C50.0472277,63.7993689 49.5969233,63.2002354 48.9061908,62.6354388 C48.2154597,62.0706408 47.2251714,61.6165194 45.9352966,61.2730617 L43.9089058,60.7349811 C42.9243262,60.4831121 42.193535,60.1778214 41.7165102,59.8190985 C41.2394854,59.4603757 41.0009767,58.9375646 41.0009767,58.250649 C41.0009767,57.5332034 41.2528427,56.9836791 41.7565806,56.6020587 C42.2603184,56.2204398 42.985385,56.0296325 43.9318019,56.0296325 C45.4811782,56.0296325 46.7023442,56.7012728 47.5953335,58.0445752 L47.5953335,59.2352228 L49.701865,59.2352228 L49.701865,54.0032417 L47.5953335,54.0032417 L47.5953335,55.1824413 Z M60.8486403,61.2959592 L56.4638519,64.9823883 L56.4638519,54.1062786 L51.9416796,54.1062786 L51.9416796,56.1899126 L54.0940034,56.1899126 L54.0940034,69.2526932 L51.9416796,69.2526932 L51.9416796,71.3592233 L58.5016908,71.3592233 L58.5016908,69.2526932 L56.4638519,69.2526932 L56.4638519,65.291499 L62.4857811,71.3592233 L65.611232,71.3592233 L65.611232,69.2526932 L63.5047019,69.2526932 L59.2572947,65.028182 L63.7565694,61.2959592 L65.611232,61.2959592 L65.611232,59.3268117 L58.948184,59.3268117 L58.948184,61.2959592 L60.8486403,61.2959592 Z M71.1024306,61.4447898 L72.5334976,61.4447898 L72.5334976,59.3268117 L66.5115684,59.3268117 L66.5115684,61.4447898 L68.5265097,61.4447898 L72.4648063,71.1531495 L71.0337393,74.6907481 L68.6638922,74.6907481 L68.6638922,76.7514845 L72.6708801,76.7514845 L78.6126714,61.4447898 L80.3871947,61.4447898 L80.3871947,59.3268117 L74.6400291,59.3268117 L74.6400291,61.4447898 L76.2428243,61.4447898 L73.7126971,68.2452218 L71.1024306,61.4447898 Z M51.7168078,82.7308194 C51.7168078,81.4638408 51.4954718,80.4468393 51.0527927,79.679783 C50.6101136,78.9127282 49.8793223,78.3422141 48.8603971,77.9682277 C47.8414718,77.5942398 46.4657534,77.4072495 44.7331995,77.4072495 L38.3105709,77.4072495 L38.3105709,79.5595733 L40.4628961,79.5595733 L40.4628961,92.5078689 L38.3105709,92.5078689 L38.3105709,94.6601942 L45.3170752,94.6601942 L45.3170752,92.5078689 L43.0731626,92.5078689 L43.0731626,88.0429398 L45.3399728,88.0429398 C47.6525883,88.0276748 49.2935286,87.5315767 50.2628432,86.5546296 C51.2321578,85.577684 51.7168078,84.3030917 51.7168078,82.7308194 Z M49.0721956,82.6735762 C49.0721956,83.5207718 48.9233665,84.1828718 48.6257024,84.6598966 C48.3280383,85.1369214 47.8624704,85.4727422 47.2289811,85.667368 C46.5954917,85.8619951 45.7483092,85.9593058 44.6874058,85.9593058 L43.0731626,85.9593058 L43.0731626,79.5595733 L44.870582,79.5595733 C46.4046932,79.5595733 47.4884782,79.8095316 48.121966,80.3094539 C48.7554553,80.8093748 49.0721956,81.5974078 49.0721956,82.6735762 Z M57.7804325,89.8289112 C57.7804325,88.5466689 57.8815602,87.5659209 58.0838199,86.8866379 C58.2860782,86.2073549 58.7001291,85.6998073 59.3259859,85.363982 C59.9518413,85.0281568 60.9058777,84.8602471 62.1881199,84.8602471 L62.7033044,84.8602471 L62.7033044,82.4675024 L62.1652223,82.4675024 C60.8371864,82.4675024 59.816368,82.6792981 59.1027393,83.1028966 C58.3891107,83.5264937 57.7918835,84.2763655 57.3110432,85.352534 L57.3110432,82.6277825 L53.0178422,82.6277825 L53.0178422,84.7457607 L55.433483,84.7457607 L55.433483,92.5536641 L53.0178422,92.5536641 L53.0178422,94.6601942 L60.4021485,94.6601942 L60.4021485,92.5536641 L57.7804325,92.5536641 L57.7804325,89.8289112 Z M68.2402966,78.5749995 C68.2402966,78.170483 68.1029155,77.8308466 67.828149,77.5560801 C67.5533825,77.2813136 67.2137461,77.1439325 66.8092296,77.1439325 C66.4199782,77.1439325 66.0879728,77.2851306 65.8132063,77.5675282 C65.5384413,77.8499272 65.4010602,78.1857481 65.4010602,78.5749995 C65.4010602,78.9642524 65.5384413,79.3000718 65.8132063,79.5824709 C66.0879728,79.8648699 66.4199782,80.0060665 66.8092296,80.0060665 C67.1984825,80.0060665 67.5343019,79.8648699 67.816701,79.5824709 C68.0991,79.3000718 68.2402966,78.9642524 68.2402966,78.5749995 Z M69.9346806,92.5536641 L68.1029141,92.5536641 L68.1029141,82.6277825 L63.8555068,82.6277825 L63.8555068,84.7457607 L65.733067,84.7457607 L65.733067,92.5536641 L63.8555068,92.5536641 L63.8555068,94.6601942 L69.9346806,94.6601942 L69.9346806,92.5536641 Z M82.947568,86.5660791 C82.947568,85.161718 82.6899786,84.1275437 82.1747913,83.4635257 C81.6596053,82.7995063 80.8639398,82.4675024 79.7877714,82.4675024 C78.4902641,82.4675024 77.1050053,83.0055786 75.6319529,84.0817456 L75.6319529,82.6277825 L71.1784718,82.6277825 L71.1784718,84.7457607 L73.2964515,84.7457607 L73.2964515,92.5536641 L71.1784718,92.5536641 L71.1784718,94.6601942 L77.7041374,94.6601942 L77.7041374,92.5536641 L75.6319529,92.5536641 L75.6319529,86.1539316 C76.9447252,85.1159257 78.1277286,84.5969301 79.1809995,84.5969301 C79.6771049,84.5969301 80.0339141,84.7610243 80.2514374,85.089217 C80.4689607,85.4174097 80.5777209,85.9593029 80.5777209,86.7149097 L80.5777209,94.6601942 L84.9625107,94.6601942 L84.9625107,92.5536641 L82.947568,92.5536641 L82.947568,86.5660791 Z M92.4686519,82.6277825 L90.270533,82.6277825 L90.270533,78.6436908 L87.9006859,80.8074641 L87.9006859,82.6277825 L86.3322364,82.6277825 L86.3322364,84.7457607 L87.9006859,84.7457607 L87.9006859,91.5461927 C87.9006859,92.7597437 88.1182049,93.6164665 88.5532515,94.1163888 C88.9882981,94.6163112 89.7019165,94.866268 90.6941286,94.866268 C91.1444403,94.866268 91.7359413,94.7594155 92.4686519,94.5457092 L92.4686519,92.404832 C92.0488704,92.5498485 91.6290947,92.6223539 91.2093131,92.6223539 C90.8658553,92.6223539 90.6235296,92.5250432 90.4823301,92.3304175 C90.3411306,92.1357903 90.270533,91.7102913 90.270533,91.0539044 L90.270533,84.7457607 L92.4686519,84.7457607 L92.4686519,82.6277825 Z M47.5953335,101.784383 C46.4046801,100.876127 45.1224568,100.422006 43.7486257,100.422006 C42.1687194,100.422006 40.930382,100.839874 40.0335757,101.675621 C39.1367694,102.511369 38.6883728,103.688648 38.6883728,105.207495 C38.6883728,106.443944 39.0585379,107.439955 39.7988811,108.195564 C40.5392228,108.95117 41.684065,109.550304 43.2334413,109.992983 L45.3857665,110.599756 C47.1259529,111.080597 47.996033,111.939229 47.996033,113.175677 C47.996033,114.083932 47.7289034,114.78801 47.1946354,115.287932 C46.6603675,115.787853 45.9085879,116.037811 44.9392733,116.037811 C43.2830432,116.037811 41.9397626,115.091407 40.9093879,113.198573 L40.9093879,111.675919 L38.7570641,111.675919 L38.7570641,117.961165 L40.9093879,117.961165 L40.9093879,116.530098 C42.1916316,117.674958 43.6150515,118.247378 45.1796927,118.247378 C46.8206578,118.247378 48.1295942,117.789441 49.1065413,116.873554 C50.0834869,115.957666 50.5719539,114.717421 50.5719539,113.15278 C50.5719539,112.374275 50.4670092,111.668289 50.2571184,111.0348 C50.0472277,110.401311 49.5969233,109.802177 48.9061908,109.237381 C48.2154597,108.672583 47.2251714,108.218461 45.9352966,107.875003 L43.9089058,107.336923 C42.9243262,107.085054 42.193535,106.779763 41.7165102,106.42104 C41.2394854,106.062317 41.0009767,105.539506 41.0009767,104.852591 C41.0009767,104.135145 41.2528427,103.585621 41.7565806,103.204 C42.2603184,102.822382 42.985385,102.631574 43.9318019,102.631574 C45.4811782,102.631574 46.7023442,103.303215 47.5953335,104.646517 L47.5953335,105.837165 L49.701865,105.837165 L49.701865,100.605183 L47.5953335,100.605183 L47.5953335,101.784383 Z M60.4250447,105.608193 C59.2038612,105.608193 57.8834767,106.184431 56.4638519,107.336923 L56.4638519,100.70822 L51.9416796,100.70822 L51.9416796,102.791854 L54.0940034,102.791854 L54.0940034,115.854635 L51.9416796,115.854635 L51.9416796,117.961165 L58.5474845,117.961165 L58.5474845,115.854635 L56.4638519,115.854635 L56.4638519,109.283174 C57.8682117,108.252801 59.0092383,107.737622 59.8869641,107.737622 C60.405967,107.737622 60.7894893,107.913165 61.0375413,108.264255 C61.2855947,108.615345 61.4096184,109.222111 61.4096184,110.084572 L61.4096184,117.961165 L65.8173058,117.961165 L65.8173058,115.854635 L63.779467,115.854635 L63.779467,109.237381 C63.779467,106.81791 62.6613364,105.608193 60.4250447,105.608193 Z M79.9178039,111.962132 C79.9178039,110.817272 79.6430417,109.760202 79.0935102,108.790887 C78.5439772,107.821573 77.788382,107.048805 76.8267,106.472559 C75.865018,105.896313 74.7926825,105.608193 73.6096602,105.608193 C72.3884767,105.608193 71.2970607,105.881048 70.3353786,106.426764 C69.3736966,106.972481 68.6238262,107.726168 68.0857413,108.68785 C67.5476578,109.649533 67.2786204,110.740949 67.2786204,111.962132 C67.2786204,113.129888 67.5476578,114.198408 68.0857413,115.167722 C68.6238262,116.137037 69.3775136,116.90408 70.3468282,117.468878 C71.3161413,118.033675 72.4037417,118.316069 73.6096602,118.316069 C74.7774175,118.316069 75.8421204,118.033675 76.8038024,117.468878 C77.7654845,116.90408 78.5248966,116.137037 79.0820607,115.167722 C79.6392262,114.198408 79.9178039,113.129888 79.9178039,111.962132 Z M73.6096602,116.014914 C72.9074796,116.014914 72.2587369,115.831739 71.6634087,115.465383 C71.068082,115.09903 70.6025126,114.60293 70.2666874,113.977075 C69.9308621,113.351218 69.7629524,112.679578 69.7629524,111.962132 C69.7629524,111.244686 69.9308621,110.573046 70.2666874,109.947189 C70.6025126,109.321333 71.0642665,108.823327 71.6519607,108.453156 C72.2396549,108.082983 72.8845835,107.897901 73.5867641,107.897901 C74.3042083,107.897901 74.9567694,108.0868 75.5444636,108.464604 C76.1321578,108.842407 76.5900947,109.340413 76.9182874,109.958637 C77.2464801,110.576862 77.4105743,111.244686 77.4105743,111.962132 C77.4105743,112.694841 77.2464801,113.370299 76.9182874,113.988523 C76.5900947,114.606747 76.1321578,115.09903 75.5444636,115.465383 C74.9567694,115.831739 74.3118408,116.014914 73.6096602,116.014914 Z M95.8958636,112.007926 C95.8958636,110.878331 95.6497223,109.836524 95.1574325,108.882475 C94.6651427,107.928425 93.9763296,107.170922 93.0909714,106.609941 C92.2056131,106.04896 91.1943364,105.768473 90.0571092,105.768473 C89.2404422,105.768473 88.473399,105.9402 87.7559534,106.283658 C87.0385078,106.627116 86.3821325,107.149927 85.7868044,107.852107 L85.7868044,105.928753 L81.402016,105.928753 L81.402016,108.046732 L83.4169573,108.046732 L83.4169573,121.246895 L81.2417359,121.246895 L81.2417359,123.353426 L88.1337553,123.353426 L88.1337553,121.246895 L85.7868044,121.246895 L85.7868044,116.461407 C86.9927243,117.697855 88.4008791,118.316069 90.0113155,118.316069 C91.1027476,118.316069 92.0968529,118.033675 92.9936592,117.468878 C93.8904655,116.90408 94.5983592,116.13322 95.1173621,115.156273 C95.636365,114.179327 95.8958636,113.129888 95.8958636,112.007926 Z M89.9769699,116.152296 C88.7481539,116.152296 87.738785,115.797395 86.9488311,115.087583 C86.1588786,114.37777 85.7639083,113.397022 85.7639083,112.145308 C85.7639083,111.366804 85.9280024,110.653185 86.2561951,110.004433 C86.5843879,109.355678 87.0461417,108.834775 87.6414684,108.441706 C88.2367951,108.048638 88.9084354,107.852107 89.6564112,107.852107 C90.3738553,107.852107 91.018784,108.03719 91.5912131,108.407361 C92.1636422,108.777532 92.6139481,109.273631 92.9421408,109.895671 C93.2703335,110.517711 93.4344277,111.198893 93.4344277,111.939234 C93.4344277,112.671945 93.2855985,113.366483 92.9879345,114.022868 C92.6902718,114.679254 92.2781286,115.19825 91.7514932,115.57987 C91.2248578,115.961489 90.6333553,116.152296 89.9769699,116.152296 Z" id="Combined-Shape"></path>
        </g>
    </g>
</svg>